<svg width="132" height="102" viewBox="0 0 132 102" fill="none" xmlns="http://www.w3.org/2000/svg">
<g clip-path="url(#clip0)">
<path d="M84.3968 28.9192L89.0055 67.2917L54.6017 92.8351L15.1278 76.1649L10.519 37.7922L44.9228 12.2488L84.3968 28.9192Z" stroke="#FFF4CC" stroke-width="2"/>
</g>
<g clip-path="url(#clip1)" filter="url(#filter0_d)">
<path d="M74.4886 52.1558C76.8626 58.6138 82.6944 62.7734 89.4854 63.6951C92.252 64.0642 95.0604 63.9021 97.7704 63.2167C100.431 62.554 102.964 61.4242 105.258 59.8761C113.112 54.557 116.859 44.9961 113.78 36.6007C110.801 28.5428 102.445 24.0456 93.5685 24.9908C91.502 25.2124 89.4726 25.7158 87.533 26.4879C86.8935 26.7463 86.2644 27.029 85.6456 27.3363C83.014 28.6452 80.6476 30.4636 78.6735 32.6935C73.8915 38.1183 72.041 45.501 74.4886 52.1558Z" fill="#FFD235"/>
<path d="M89.0412 47.7762C90.7965 52.6121 93.2153 57.1601 96.2227 61.2794C96.7207 61.9545 97.23 62.6052 97.7506 63.2315C100.412 62.5688 102.944 61.439 105.238 59.8909C103.841 58.4222 102.566 56.8344 101.426 55.1442C99.2933 51.9776 97.5482 48.5481 96.2312 44.9346C94.703 40.8378 93.7501 36.5344 93.4016 32.1565C93.2108 29.7686 93.2668 27.3665 93.5685 24.991C91.502 25.2125 89.4726 25.7159 87.533 26.4881C86.8935 26.7464 86.2644 27.0292 85.6456 27.3364C85.5407 29.7711 85.6259 32.2106 85.9003 34.6311C86.4163 39.1312 87.4714 43.547 89.0412 47.7762Z" fill="#453C36"/>
<path d="M74.4886 52.1558C76.8626 58.6139 82.6944 62.7734 89.4854 63.6952C88.5166 62.5782 87.6133 61.4019 86.7803 60.1726C84.6418 57.004 82.8919 53.5715 81.571 49.9542C80.0414 45.8579 79.0884 41.5543 78.7414 37.1761C78.6301 35.6848 78.6084 34.1877 78.6764 32.6936C73.8915 38.1184 72.041 45.5011 74.4886 52.1558Z" fill="#453C36"/>
<path d="M103.84 39.4864C103.676 40.8954 102.872 41.9522 102.049 41.8348C101.225 41.7174 100.691 40.505 100.858 39.096C101.024 37.687 101.822 36.6272 102.649 36.7476C103.475 36.868 104.004 38.0891 103.84 39.4864Z" fill="#744E32"/>
<path d="M113.155 40.0616C112.991 41.4706 112.187 42.5274 111.364 42.41C110.54 42.2926 110.006 41.0802 110.173 39.6712C110.339 38.2622 111.137 37.2024 111.961 37.3228C112.784 37.4432 113.319 38.6526 113.155 40.0616Z" fill="#744E32"/>
<path d="M74.6102 47.9814L70.2102 52.3113C70.1315 52.4369 70.083 52.5804 70.0688 52.7295C70.0546 52.8787 70.0751 53.0291 70.1287 53.1684C70.1822 53.3076 70.2671 53.4314 70.3763 53.5295C70.4855 53.6276 70.6159 53.697 70.7563 53.732L76.9079 53.7731L74.6102 47.9814Z" fill="#453C36"/>
<path d="M108.619 28.8715C109.142 27.597 109.814 26.3941 110.62 25.2903C111.291 24.3503 112.113 23.5371 113.05 22.8861C114.039 22.1979 115.218 21.8668 116.406 21.9438H116.477C116.546 21.9504 116.61 21.9852 116.654 22.0406C116.698 22.0959 116.72 22.1672 116.713 22.2388C116.707 22.3105 116.673 22.3765 116.62 22.4225C116.567 22.4684 116.498 22.4906 116.429 22.4839H116.367C115.292 22.4142 114.224 22.7144 113.331 23.3382C111.989 24.2188 110.923 25.6572 110.201 26.8607C109.842 27.4684 109.564 28.0349 109.38 28.4165C109.287 28.6162 109.219 28.7776 109.171 28.8862L109.12 29.0124V29.0447C109.108 29.0777 109.089 29.1078 109.065 29.1332C109.041 29.1586 109.013 29.1789 108.981 29.193C108.95 29.207 108.916 29.2145 108.882 29.215C108.848 29.2155 108.814 29.209 108.782 29.1959C108.75 29.1828 108.721 29.1633 108.697 29.1386C108.672 29.1139 108.653 29.0844 108.639 29.0518C108.626 29.0193 108.618 28.9842 108.618 28.9488C108.617 28.9133 108.624 28.8781 108.636 28.8451L108.619 28.8715Z" fill="#2D221C"/>
<path d="M102.216 29.3002C102.17 28.5472 102.177 27.7918 102.236 27.0399C102.321 25.5913 102.636 24.1672 103.166 22.8245C103.462 22.1049 103.869 21.4405 104.372 20.8577C104.905 20.2526 105.566 19.7826 106.302 19.4839C106.365 19.4637 106.434 19.4692 106.494 19.4993C106.554 19.5294 106.6 19.582 106.624 19.6463C106.648 19.7107 106.648 19.7821 106.623 19.8462C106.599 19.9103 106.551 19.9623 106.491 19.9918C105.83 20.2582 105.237 20.6802 104.76 21.2247C104.071 22.0483 103.567 23.0196 103.282 24.0692C103.004 25.0507 102.829 26.0604 102.759 27.081C102.714 27.715 102.708 28.2551 102.714 28.6485C102.714 28.8422 102.714 28.9949 102.714 29.0976C102.714 29.1505 102.714 29.1916 102.714 29.218V29.2561C102.719 29.3278 102.697 29.3988 102.652 29.4536C102.608 29.5083 102.544 29.5424 102.475 29.5482C102.406 29.5541 102.337 29.5312 102.284 29.4847C102.232 29.4382 102.199 29.3718 102.193 29.3002H102.216Z" fill="#2D221C"/>
<path d="M115.58 22.1552C115.56 22.4338 115.619 22.7123 115.751 22.9558C115.883 23.1992 116.082 23.3966 116.322 23.5232C116.562 23.6497 116.833 23.6997 117.1 23.6669C117.368 23.6341 117.62 23.5199 117.825 23.3387C118.029 23.1575 118.178 22.9175 118.252 22.6488C118.325 22.3801 118.321 22.0948 118.238 21.8289C118.156 21.563 118 21.3283 117.789 21.1544C117.578 20.9806 117.322 20.8753 117.054 20.8519C116.875 20.8354 116.694 20.8563 116.522 20.9131C116.35 20.97 116.191 21.0617 116.054 21.183C115.916 21.3044 115.804 21.4528 115.723 21.6197C115.641 21.7866 115.593 21.9687 115.58 22.1552Z" fill="#2D221C"/>
<path d="M105.419 19.6601C105.398 19.9392 105.458 20.2183 105.59 20.4621C105.723 20.706 105.922 20.9036 106.163 21.03C106.403 21.1564 106.675 21.2059 106.943 21.1723C107.21 21.1387 107.463 21.0234 107.667 20.8411C107.872 20.6587 108.02 20.4175 108.092 20.1479C108.165 19.8784 108.159 19.5925 108.075 19.3266C107.991 19.0607 107.832 18.8266 107.62 18.654C107.408 18.4813 107.151 18.3779 106.882 18.3568C106.703 18.3424 106.524 18.3647 106.353 18.4224C106.183 18.4802 106.025 18.5722 105.889 18.6933C105.753 18.8144 105.642 18.9622 105.561 19.1281C105.48 19.294 105.432 19.4748 105.419 19.6601Z" fill="#2D221C"/>
<path d="M104.423 43.725C104.39 44.0525 104.422 44.3833 104.515 44.698C104.608 45.0126 104.762 45.3046 104.966 45.5566C105.17 45.8085 105.421 46.0154 105.704 46.1648C105.987 46.3142 106.295 46.4032 106.612 46.4264C106.928 46.4496 107.246 46.4066 107.546 46.3C107.847 46.1933 108.123 46.0251 108.359 45.8055C108.596 45.5858 108.787 45.3191 108.922 45.0212C109.057 44.7233 109.133 44.4003 109.145 44.0714C109.158 43.9551 109.213 43.8482 109.299 43.7733C109.386 43.6984 109.497 43.6612 109.61 43.6695C109.722 43.6779 109.827 43.7312 109.903 43.8181C109.978 43.9051 110.018 44.019 110.014 44.136C109.939 45.0123 109.535 45.8231 108.89 46.394C108.245 46.9648 107.409 47.2502 106.563 47.1886C105.717 47.1271 104.928 46.7236 104.366 46.0649C103.804 45.4062 103.513 44.5449 103.557 43.6663C103.565 43.5472 103.619 43.4363 103.706 43.3582C103.793 43.28 103.906 43.2409 104.021 43.2495C104.136 43.258 104.243 43.3135 104.318 43.4038C104.393 43.4941 104.431 43.6118 104.423 43.7309V43.725Z" fill="#744E32"/>
<path d="M80.1506 20.3734C79.1121 13.883 80.1025 9.09233 83.5461 8.49936C86.9897 7.90639 91.568 11.8898 92.6008 18.3802C93.6336 24.8705 88.5233 31.7131 87.3123 32.0037C86.2653 32.2562 81.1919 26.8667 80.1506 20.3734Z" fill="#EEEBE6" fill-opacity="0.8"/>
<path d="M73.7925 32.3004C69.4632 30.2778 66.9958 27.6476 68.0682 25.173C69.1406 22.6984 73.4444 21.3951 77.7652 23.4117C82.086 25.4284 84.078 31.5958 83.7498 32.5117C83.4668 33.2808 78.1217 34.3229 73.7925 32.3004Z" fill="#D3CAC2" fill-opacity="0.8"/>
</g>
<defs>
<filter id="filter0_d" x="50.3793" y="1.27588" width="82.6207" height="88.4138" filterUnits="userSpaceOnUse" color-interpolation-filters="sRGB">
<feFlood flood-opacity="0" result="BackgroundImageFix"/>
<feColorMatrix in="SourceAlpha" type="matrix" values="0 0 0 0 0 0 0 0 0 0 0 0 0 0 0 0 0 0 127 0"/>
<feOffset dx="-1" dy="7"/>
<feGaussianBlur stdDeviation="7"/>
<feColorMatrix type="matrix" values="0 0 0 0 0.133333 0 0 0 0 0.133333 0 0 0 0 0.133333 0 0 0 0.3 0"/>
<feBlend mode="normal" in2="BackgroundImageFix" result="effect1_dropShadow"/>
<feBlend mode="normal" in="SourceGraphic" in2="effect1_dropShadow" result="shape"/>
</filter>
<clipPath id="clip0">
<rect width="91.6906" height="91.6906" fill="white" transform="translate(0 10.9341) rotate(-6.84877)"/>
</clipPath>
<clipPath id="clip1">
<rect width="54.6207" height="60.4138" fill="white" transform="translate(65.3793 8.27588)"/>
</clipPath>
</defs>
</svg>
