<svg width="636" height="873" viewBox="0 0 636 873" fill="none" xmlns="http://www.w3.org/2000/svg">
<path d="M37.7818 326.223L338.339 66.6496L714.402 194.28L783.248 547.334L482.691 806.907L106.628 679.275L37.7818 326.223Z" fill="#FFD235"/>
<path d="M559.487 345.685V370.389L535.753 383.967L512.018 370.389V345.685L535.753 332.107L559.487 345.685Z" stroke="#FFF4CC"/>
<path d="M507.989 345.685V370.389L484.255 383.967L460.52 370.389V345.685L484.255 332.107L507.989 345.685Z" stroke="#FFF4CC"/>
<path d="M534.495 303.275V327.978L510.761 341.557L487.027 327.978V303.275L510.761 289.696L534.495 303.275Z" stroke="#FFDD67"/>
<path d="M456.982 345.378V370.081L433.247 383.66L409.513 370.081V345.378L433.247 331.799L456.982 345.378Z" stroke="#FFDD67"/>
<path d="M482.997 303.275V327.978L459.263 341.557L435.529 327.978V303.275L459.263 289.696L482.997 303.275Z" stroke="#FFF4CC"/>
<path d="M508.657 259.705V284.409L484.923 297.987L461.189 284.409V259.705L484.923 246.127L508.657 259.705Z" stroke="#FFDD67"/>
<path d="M300.946 205.868V184.308L321.668 172.453L342.389 184.308V205.868L321.668 217.723L300.946 205.868Z" stroke="#FFF4CC"/>
<path d="M346.042 205.868V184.308L366.763 172.453L387.484 184.308V205.868L366.763 217.723L346.042 205.868Z" stroke="#FFF4CC"/>
<path d="M322.831 243.005V221.445L343.552 209.59L364.273 221.445V243.005L343.552 254.86L322.831 243.005Z" stroke="#FFDD67"/>
<path d="M390.707 206.137V184.577L411.428 172.723L432.149 184.577V206.137L411.428 217.992L390.707 206.137Z" stroke="#FFDD67"/>
<path d="M367.926 243.005V221.445L388.647 209.59L409.368 221.445V243.005L388.647 254.86L367.926 243.005Z" stroke="#FFF4CC"/>
<path d="M345.456 281.157V259.597L366.178 247.743L386.899 259.597V281.157L366.178 293.012L345.456 281.157Z" stroke="#FFDD67"/>
<path d="M64.4624 267.784V289.343L85.1836 301.198L105.905 289.343V267.784L85.1836 255.929L64.4624 267.784Z" stroke="#FFF4CC"/>
<path d="M109.557 267.784V289.343L130.279 301.198L151 289.343V267.784L130.279 255.929L109.557 267.784Z" stroke="#FFF4CC"/>
<path d="M86.3468 230.646V252.206L107.068 264.061L127.789 252.206V230.646L107.068 218.792L86.3468 230.646Z" stroke="#FFDD67"/>
<path d="M154.223 267.514V289.074L174.944 300.929L195.665 289.074V267.514L174.944 255.66L154.223 267.514Z" stroke="#FFDD67"/>
<path d="M131.442 230.646V252.206L152.163 264.061L172.884 252.206V230.646L152.163 218.792L131.442 230.646Z" stroke="#FFF4CC"/>
<path d="M108.972 192.494V214.054L129.693 225.909L150.415 214.054V192.494L129.693 180.639L108.972 192.494Z" stroke="#FFDD67"/>
<path d="M37.1757 541.493V519.933L57.8969 508.078L78.6181 519.933V541.493L57.8969 553.348L37.1757 541.493Z" stroke="#FFF4CC"/>
<path d="M82.2708 541.493V519.933L102.992 508.078L123.713 519.933V541.493L102.992 553.348L82.2708 541.493Z" stroke="#FFF4CC"/>
<path d="M59.0601 578.63V557.07L79.7813 545.216L100.502 557.07V578.63L79.7813 590.485L59.0601 578.63Z" stroke="#FFDD67"/>
<path d="M126.936 541.763V520.203L147.657 508.348L168.379 520.203V541.763L147.657 553.617L126.936 541.763Z" stroke="#FFDD67"/>
<path d="M104.155 578.63V557.07L124.876 545.216L145.597 557.07V578.63L124.876 590.485L104.155 578.63Z" stroke="#FFF4CC"/>
<path d="M81.6856 616.783V595.223L102.407 583.368L123.128 595.223V616.783L102.407 628.638L81.6856 616.783Z" stroke="#FFDD67"/>
<path d="M155.415 603.287V577.064L180.606 562.652L205.798 577.064V603.287L180.606 617.699L155.415 603.287Z" stroke="#FFF4CC"/>
<path d="M210.009 603.287V577.064L235.2 562.652L260.391 577.064V603.287L235.2 617.699L210.009 603.287Z" stroke="#FFF4CC"/>
<path d="M181.909 648.247V622.023L207.1 607.612L232.292 622.023V648.247L207.1 662.659L181.909 648.247Z" stroke="#FFDD67"/>
<path d="M264.083 603.613V577.39L289.274 562.978L314.465 577.39V603.613L289.274 618.025L264.083 603.613Z" stroke="#FFDD67"/>
<path d="M331.29 520.517V494.294L356.481 479.882L381.672 494.294V520.518L356.481 534.93L331.29 520.517Z" stroke="#FFDD67"/>
<path d="M356.759 476.859V450.636L381.95 436.224L407.141 450.636V476.859L381.95 491.271L356.759 476.859Z" stroke="#FFDD67"/>
<path d="M236.503 648.247V622.023L261.694 607.612L286.885 622.023V648.247L261.694 662.659L236.503 648.247Z" stroke="#FFF4CC"/>
<path d="M209.301 694.435V668.212L234.492 653.8L259.683 668.212V694.436L234.492 708.848L209.301 694.435Z" stroke="#FFDD67"/>
<path d="M54.959 694.653V717.898L77.2956 730.677L99.6321 717.898V694.653L77.2956 681.874L54.959 694.653Z" stroke="#FFF4CC"/>
<path d="M103.487 694.653V717.898L125.823 730.677L148.16 717.898V694.653L125.823 681.874L103.487 694.653Z" stroke="#FFF4CC"/>
<path d="M78.5092 654.689V677.934L100.846 690.713L123.182 677.934V654.689L100.846 641.91L78.5092 654.689Z" stroke="#FFDD67"/>
<path d="M151.552 694.363V717.608L173.889 730.387L196.225 717.608V694.363L173.889 681.584L151.552 694.363Z" stroke="#FFDD67"/>
<path d="M127.037 654.689V677.934L149.374 690.713L171.71 677.934V654.689L149.374 641.91L127.037 654.689Z" stroke="#FFF4CC"/>
<path d="M102.857 613.632V636.877L125.194 649.656L147.53 636.877V613.632L125.194 600.853L102.857 613.632Z" stroke="#FFDD67"/>
<g filter="url(#filter0_d)">
<path d="M164.188 272.474L160.173 285.311C159.467 286.5 157.8 286.616 156.908 285.554L150.822 273.335L164.188 272.474Z" fill="#453C36"/>
<path d="M213.487 219.251C225.695 212.267 232.24 204.08 228.399 197.368C224.556 190.638 211.529 188.163 199.322 195.148C187.114 202.132 182.965 220.189 184.176 222.675C185.215 224.796 201.28 226.235 213.487 219.251Z" fill="white" fill-opacity="0.8"/>
<path d="M202.641 246.303C212.063 251.007 219.877 251.703 222.47 246.504C225.065 241.321 221.211 232.17 211.772 227.468C202.351 222.765 189.368 227.674 188.335 229.462C187.453 230.995 193.218 241.583 202.641 246.303Z" fill="#EDE8E4" fill-opacity="0.8"/>
<path d="M99.9775 229.496C86.7166 224.81 78.8114 217.928 81.3887 210.636C83.9645 203.327 96.3376 198.56 109.599 203.246C122.859 207.931 130.175 224.954 129.429 227.616C128.769 229.891 113.238 234.182 99.9775 229.496Z" fill="white" fill-opacity="0.8"/>
<path d="M115.475 254.171C107.048 260.486 99.4848 262.57 96.0026 257.918C92.5219 253.284 94.6749 243.591 103.119 237.275C111.546 230.96 125.199 233.466 126.535 235.041C127.677 236.391 123.901 247.839 115.475 254.171Z" fill="#EDE8E4" fill-opacity="0.8"/>
<path d="M193.757 232.797C193.824 233.535 193.856 234.276 193.89 235.034C193.933 236.467 193.923 237.886 193.842 239.295C193.507 245.554 192.015 251.45 189.583 256.704C189.526 256.848 189.451 256.976 189.394 257.102C183.184 270.155 171.212 279.177 157.202 279.611C145.177 279.986 134.254 273.982 126.96 264.294C125.919 262.917 124.957 261.464 124.077 259.952C121.29 255.151 119.31 249.69 118.346 243.808C118.234 243.143 118.14 242.477 118.062 241.809C117.899 240.388 117.785 238.927 117.739 237.461C117.622 233.872 117.893 230.353 118.507 226.993C118.671 226.13 118.837 225.285 119.056 224.452C123.335 206.677 137.364 193.421 154.444 192.883C169.384 192.4 182.62 201.794 189.321 215.844C190.322 217.933 191.16 220.124 191.85 222.398C192.821 225.684 193.484 229.188 193.757 232.797Z" fill="#453C36"/>
<path d="M193.757 232.797C190.73 234.333 187.568 235.726 184.255 236.976C175.657 240.244 166.178 242.57 156.107 243.704C144.53 245.026 133.371 244.649 123.155 242.837C121.431 242.525 119.722 242.178 118.059 241.774C117.896 240.353 117.781 238.893 117.736 237.426C117.619 233.838 117.89 230.318 118.504 226.958C118.668 226.096 118.834 225.25 119.053 224.417C122.335 225.315 125.826 226.038 129.504 226.537C137.126 227.596 145.512 227.722 154.194 226.73C164.178 225.587 173.419 223.11 181.349 219.729C184.181 218.522 186.831 217.21 189.318 215.809C190.319 217.899 191.157 220.09 191.847 222.363C192.821 225.684 193.484 229.188 193.757 232.797Z" fill="#FFC702"/>
<path d="M189.376 257.104C183.167 270.156 171.195 279.178 157.185 279.612C145.159 279.988 134.236 273.984 126.943 264.296C129.186 264.802 131.507 265.216 133.908 265.553C141.53 266.612 149.915 266.738 158.598 265.747C168.582 264.603 177.822 262.126 185.753 258.746C186.986 258.219 188.2 257.677 189.376 257.104Z" fill="#FFC702"/>
<path d="M138.244 213.723C138.483 216.366 139.982 218.411 141.596 218.265C143.209 218.119 144.32 215.856 144.08 213.196C143.841 210.553 142.342 208.509 140.728 208.654C139.115 208.8 138.004 211.063 138.244 213.723Z" fill="#FFC702"/>
<path d="M163.541 211.44C163.78 214.083 165.279 216.127 166.893 215.982C168.506 215.836 169.616 213.573 169.376 210.913C169.138 208.27 167.638 206.225 166.025 206.371C164.412 206.517 163.301 208.78 163.541 211.44Z" fill="#FFC702"/>
<path d="M156.532 194.165C156.529 194.131 156.972 190.025 158.751 185.591C159.642 183.382 160.871 181.092 162.551 179.192C164.248 177.292 166.432 175.797 169.186 175.254C169.237 175.25 169.287 175.228 169.339 175.223C169.662 175.16 169.958 175.375 170.005 175.7C170.068 176.023 169.853 176.319 169.528 176.365C169.494 176.368 169.443 176.373 169.393 176.395C166.929 176.894 164.972 178.213 163.4 179.964C161.041 182.582 159.583 186.173 158.74 189.104C158.318 190.561 158.038 191.867 157.879 192.798C157.8 193.255 157.748 193.64 157.701 193.887C157.677 194.01 157.669 194.115 157.659 194.185L157.648 194.255L157.649 194.272C157.608 194.587 157.335 194.82 157.003 194.78C156.725 194.771 156.493 194.498 156.532 194.165Z" fill="#2D221C"/>
<path d="M148.264 193.804C148.262 193.787 147.571 191.877 146.242 189.419C144.976 187.093 143.13 184.267 140.663 182.05C139.437 180.932 138.036 179.969 136.488 179.312C134.941 178.656 133.23 178.292 131.387 178.389C131.06 178.401 130.826 178.682 130.836 178.992C130.849 179.32 131.129 179.554 131.44 179.543C133.093 179.463 134.627 179.775 136.031 180.375C138.136 181.275 139.971 182.822 141.513 184.569C143.055 186.315 144.288 188.28 145.218 189.961C145.862 191.149 146.355 192.211 146.684 192.978C146.84 193.362 146.971 193.661 147.058 193.861C147.102 193.961 147.126 194.045 147.148 194.095L147.172 194.162L147.173 194.179C147.287 194.48 147.613 194.641 147.914 194.528C148.217 194.431 148.378 194.105 148.264 193.804Z" fill="#2D221C"/>
<path d="M167.539 176.181C167.86 177.813 169.461 178.88 171.093 178.56C172.725 178.239 173.792 176.638 173.472 175.006C173.151 173.374 171.55 172.307 169.918 172.627C168.269 172.949 167.202 174.551 167.539 176.181Z" fill="#2D221C"/>
<path d="M133.335 177.92C134.142 179.387 133.598 181.218 132.131 182.026C130.664 182.833 128.833 182.289 128.026 180.822C127.218 179.355 127.762 177.523 129.229 176.716C130.696 175.909 132.528 176.453 133.335 177.92Z" fill="#2D221C"/>
<path d="M158.909 217.239C159.09 218.676 158.66 220.047 157.839 221.107C157.018 222.168 155.788 222.919 154.349 223.083C152.913 223.265 151.541 222.835 150.481 222.014C149.421 221.192 148.67 219.962 148.505 218.524C148.44 217.993 147.957 217.622 147.426 217.687C146.896 217.752 146.524 218.236 146.589 218.766C147.083 222.701 150.657 225.493 154.593 225.016C158.528 224.523 161.32 220.949 160.843 217.012C160.778 216.482 160.295 216.11 159.764 216.176C159.232 216.224 158.844 216.708 158.909 217.239Z" fill="#FFC702"/>
<path d="M123.19 253.865C123.208 253.445 122.876 253.084 122.465 253.08C122.442 253.075 121.491 253.026 120.562 252.657C120.093 252.466 119.64 252.203 119.293 251.851C118.947 251.5 118.708 251.06 118.606 250.45C118.548 250.038 118.162 249.752 117.735 249.82C117.323 249.878 117.037 250.264 117.105 250.691C117.242 251.645 117.685 252.405 118.238 252.952C118.645 253.367 119.126 253.674 119.584 253.913C120.294 254.258 120.979 254.435 121.507 254.527C122.036 254.62 122.394 254.637 122.418 254.642C122.825 254.608 123.171 254.285 123.19 253.865Z" fill="#2D221C"/>
</g>
<g filter="url(#filter1_d)">
<path d="M499.728 308.029C490.897 331.301 469.241 346.321 444.115 349.601C434.233 350.87 423.72 350.447 413.313 347.908C409.633 347.062 405.954 345.898 402.379 344.523C396.282 342.196 390.71 339.34 385.559 335.955C356.333 316.809 342.456 282.324 353.915 252.071C364.954 223.087 395.967 206.797 428.872 210.182C436.336 210.923 443.905 212.721 451.264 215.577C453.682 216.529 455.995 217.481 458.308 218.644C468.505 223.616 477.231 230.175 484.274 237.896C501.936 257.466 508.874 284.123 499.728 308.029Z" fill="#FFC702"/>
<path d="M445.692 292.267C438.754 310.567 429.608 327.069 418.99 340.926C417.097 343.359 415.205 345.686 413.313 347.908C409.633 347.061 405.954 345.898 402.379 344.523C396.282 342.196 390.71 339.339 385.559 335.954C390.5 330.983 395.231 325.271 399.751 318.818C407.215 308.24 413.838 295.758 419.095 282.007C425.087 266.245 428.556 250.484 429.608 235.992C430.133 226.683 429.923 218.009 428.872 210.182C436.336 210.922 443.905 212.72 451.264 215.576C453.682 216.528 455.995 217.48 458.308 218.644C458.728 227.106 458.413 235.886 457.361 244.878C455.574 260.322 451.685 276.294 445.692 292.267Z" fill="#453C36"/>
<path d="M499.728 308.028C490.897 331.3 469.241 346.321 444.115 349.6C447.585 345.686 450.949 341.455 454.208 336.906C461.672 326.328 468.295 313.846 473.551 300.095C479.543 284.334 483.013 268.572 484.064 254.08C484.484 248.474 484.59 243.079 484.274 237.896C501.936 257.465 508.874 284.122 499.728 308.028Z" fill="#453C36"/>
<path d="M390.71 262.437C391.341 267.515 394.285 271.323 397.333 270.9C400.382 270.477 402.379 266.14 401.749 261.062C401.118 255.985 398.174 252.177 395.126 252.6C392.077 252.917 390.08 257.36 390.71 262.437Z" fill="#744E32"/>
<path d="M356.123 264.447C356.754 269.524 359.697 273.332 362.746 273.015C365.795 272.592 367.792 268.255 367.161 263.177C366.531 258.1 363.587 254.292 360.538 254.715C357.49 254.927 355.492 259.369 356.123 264.447Z" fill="#744E32"/>
<path d="M499.308 293.008L515.708 308.663C516.969 310.567 515.918 313.212 513.71 313.741L490.897 313.847L499.308 293.008Z" fill="#453C36"/>
<path d="M372.944 224.145C372.944 224.145 370.315 217.587 365.479 211.24C363.062 208.066 360.013 204.893 356.438 202.566C352.864 200.239 348.659 198.863 343.928 199.181C343.823 199.181 343.718 199.181 343.613 199.181C343.087 199.181 342.667 199.71 342.772 200.239C342.772 200.767 343.297 201.191 343.823 201.085C343.928 201.085 343.928 201.085 344.033 201.085C348.238 200.767 352.023 202.037 355.282 204.152C360.223 207.326 364.218 212.509 366.951 216.846C368.318 219.067 369.264 220.971 370 222.452C370.315 223.193 370.631 223.722 370.736 224.145C370.841 224.356 370.841 224.462 370.946 224.568V224.674C371.156 225.203 371.682 225.414 372.208 225.203C372.944 225.203 373.154 224.674 372.944 224.145Z" fill="#2D221C"/>
<path d="M396.702 225.732C396.702 225.732 397.018 222.347 396.597 217.586C396.282 213.144 395.336 207.537 393.128 202.354C391.972 199.815 390.605 197.382 388.608 195.267C386.715 193.151 384.297 191.459 381.459 190.295C380.933 190.084 380.408 190.401 380.197 190.824C379.987 191.353 380.302 191.882 380.723 192.093C383.351 193.151 385.454 194.632 387.136 196.536C389.764 199.392 391.446 202.989 392.602 206.797C393.759 210.605 394.285 214.413 394.495 217.692C394.705 220.019 394.705 221.923 394.705 223.299C394.705 224.039 394.705 224.568 394.6 224.885C394.6 225.097 394.6 225.203 394.6 225.308V225.414C394.6 225.943 394.915 226.472 395.441 226.472C396.282 226.578 396.702 226.26 396.702 225.732Z" fill="#2D221C"/>
<path d="M347.082 199.921C347.292 202.777 345.19 205.21 342.456 205.422C339.618 205.633 337.2 203.518 336.99 200.767C336.78 197.911 338.882 195.478 341.615 195.267C344.454 195.055 346.872 197.171 347.082 199.921Z" fill="#2D221C"/>
<path d="M384.823 190.93C385.033 193.786 382.931 196.219 380.197 196.43C377.359 196.642 374.941 194.526 374.731 191.776C374.52 188.92 376.623 186.487 379.356 186.276C382.195 186.064 384.613 188.18 384.823 190.93Z" fill="#2D221C"/>
<path d="M388.503 277.67C388.713 280.103 387.872 282.43 386.4 284.122C384.928 285.815 382.826 286.978 380.408 287.19C377.99 287.401 375.677 286.555 373.995 285.074C372.313 283.593 371.156 281.478 370.946 279.045C370.841 278.198 370.105 277.458 369.264 277.564C368.423 277.67 367.687 278.41 367.792 279.256C368.213 285.92 373.995 290.892 380.618 290.469C387.241 290.046 392.182 284.228 391.761 277.564C391.656 276.718 390.92 275.977 390.079 276.083C389.133 275.977 388.503 276.823 388.503 277.67Z" fill="#744E32"/>
<path d="M478.702 193.574C482.592 170.197 478.913 152.955 466.087 150.733C453.261 148.618 436.336 162.898 432.446 186.381C428.556 209.759 447.585 234.406 452.105 235.463C455.995 236.31 474.813 216.952 478.702 193.574Z" fill="white" fill-opacity="0.8"/>
<path d="M502.356 236.521C518.441 229.222 527.587 219.702 523.592 210.816C519.597 201.931 503.618 197.171 487.533 204.47C471.449 211.768 464.09 233.982 465.351 237.262C466.403 240.012 486.272 243.82 502.356 236.521Z" fill="#EEE7E0" fill-opacity="0.8"/>
<path d="M386.505 312.048C386.715 310.99 387.767 310.25 388.818 310.461C388.923 310.461 391.341 310.99 393.864 310.567C395.126 310.356 396.492 309.933 397.544 309.298C398.595 308.557 399.541 307.605 400.172 306.124C400.592 305.067 401.749 304.644 402.8 305.067C403.851 305.49 404.272 306.653 403.851 307.711C402.905 310.038 401.328 311.731 399.541 312.789C398.279 313.635 396.808 314.058 395.546 314.375C393.549 314.798 391.656 314.798 390.29 314.693C388.923 314.587 387.977 314.375 387.872 314.375C386.926 314.164 386.19 313.106 386.505 312.048Z" fill="#2D221C"/>
</g>
<g filter="url(#filter2_d)">
<path d="M102.171 677.046C118.379 697.182 144.596 705.044 170.46 700.197C180.626 698.27 190.87 694.469 200.33 688.613C203.69 686.593 206.949 684.26 210.036 681.752C215.307 677.492 219.89 672.879 223.887 667.879C246.582 639.569 249.187 601.054 228.137 574.87C207.91 549.804 172.046 543.7 140.646 557.631C133.514 560.764 126.619 564.976 120.272 570.164C118.191 571.882 116.213 573.566 114.304 575.459C105.835 583.65 99.3303 592.934 94.8606 602.825C83.7194 627.831 85.4468 656.384 102.171 677.046Z" fill="#FFC702"/>
<path d="M150.453 644.094C163.193 659.93 177.534 673.281 192.478 683.546C195.129 685.34 197.746 687.028 200.33 688.613C203.69 686.593 206.949 684.26 210.036 681.752C215.307 677.492 219.89 672.879 223.887 667.879C217.408 664.56 210.899 660.442 204.359 655.526C193.585 647.483 183.028 637.29 173.413 625.404C162.424 611.769 153.927 597.323 148.225 583.353C144.71 574.33 142.127 565.698 140.646 557.631C133.514 560.764 126.619 564.975 120.272 570.164C118.191 571.882 116.213 573.566 114.304 575.459C116.612 583.95 119.749 592.518 123.681 601.057C130.415 615.732 139.396 630.251 150.453 644.094Z" fill="#453C36"/>
<path d="M102.171 677.046C118.379 697.182 144.596 705.044 170.46 700.196C165.775 697.448 161.092 694.353 156.41 690.911C145.636 682.868 135.08 672.675 125.465 660.788C114.476 647.154 105.978 632.708 100.276 618.737C98.0571 613.337 96.2172 608.044 94.8606 602.825C83.7194 627.831 85.4468 656.384 102.171 677.046Z" fill="#453C36"/>
<path d="M195.142 596.947C196.153 602.163 194.472 606.87 191.326 607.434C188.179 607.997 184.811 604.357 183.8 599.141C182.789 593.925 184.47 589.217 187.616 588.654C190.729 587.986 194.131 591.73 195.142 596.947Z" fill="#744E32"/>
<path d="M229.94 587.8C230.951 593.017 229.27 597.724 226.158 598.392C223.011 598.955 219.643 595.316 218.632 590.099C217.621 584.883 219.302 580.175 222.448 579.612C225.527 578.84 228.929 582.584 229.94 587.8Z" fill="#744E32"/>
<path d="M97.7522 662.079L86.5972 682.815C85.9643 685.101 87.8533 687.374 90.2034 687.185L112.763 679.948L97.7522 662.079Z" fill="#453C36"/>
<path d="M200.362 553.42C200.362 553.42 200.846 546.098 203.579 538.275C204.945 534.364 206.934 530.249 209.714 526.801C212.495 523.353 216.204 520.642 220.978 519.433C221.081 519.399 221.185 519.365 221.289 519.331C221.808 519.162 222.393 519.549 222.46 520.105C222.63 520.627 222.247 521.214 221.694 521.279C221.59 521.313 221.59 521.313 221.486 521.347C217.232 522.387 213.904 524.858 211.367 527.996C207.509 532.719 205.233 539.123 203.93 544.284C203.295 546.918 202.974 549.102 202.724 550.801C202.651 551.634 202.509 552.258 202.542 552.709C202.506 552.952 202.54 553.056 202.47 553.195L202.504 553.299C202.467 553.889 202.016 554.267 201.429 554.227C200.702 554.464 200.324 554.009 200.362 553.42Z" fill="#2D221C"/>
<path d="M177.413 562.632C177.413 562.632 176.012 559.391 174.896 554.556C173.777 550.068 172.908 544.228 173.419 538.399C173.744 535.521 174.311 532.678 175.602 529.947C176.79 527.249 178.633 524.8 181.061 522.737C181.512 522.359 182.133 522.503 182.477 522.853C182.854 523.308 182.713 523.932 182.366 524.276C180.111 526.166 178.512 528.305 177.464 530.726C175.788 534.392 175.284 538.485 175.368 542.617C175.452 546.749 176.158 550.678 177.006 553.984C177.547 556.349 178.16 558.229 178.602 559.587C178.841 560.318 179.011 560.841 179.217 561.12C179.285 561.329 179.319 561.433 179.353 561.538L179.387 561.642C179.557 562.164 179.416 562.788 178.897 562.957C178.101 563.332 177.583 563.154 177.413 562.632Z" fill="#2D221C"/>
<path d="M218.102 521.179C218.813 524.067 221.672 525.792 224.439 525.121C227.31 524.417 229.017 521.55 228.339 518.767C227.628 515.879 224.769 514.153 222.002 514.824C219.131 515.529 217.424 518.396 218.102 521.179Z" fill="#2D221C"/>
<path d="M177.943 524.447C178.655 527.334 181.514 529.06 184.281 528.389C187.151 527.685 188.858 524.818 188.181 522.034C187.469 519.147 184.61 517.421 181.843 518.092C178.972 518.796 177.266 521.663 177.943 524.447Z" fill="#2D221C"/>
<path d="M202.224 611.276C202.799 613.746 204.378 615.773 206.376 616.971C208.374 618.168 210.825 618.64 213.28 618.071C215.736 617.502 217.747 615.922 218.931 613.919C220.116 611.915 220.577 609.454 220.001 606.984C219.833 606.115 220.321 605.147 221.186 604.98C222.05 604.814 223.015 605.309 223.183 606.178C224.913 612.893 220.804 619.663 214.128 621.377C207.452 623.09 200.701 618.936 198.972 612.22C198.803 611.351 199.292 610.383 200.156 610.217C201.056 609.808 201.951 610.44 202.224 611.276Z" fill="#744E32"/>
<path d="M86.0989 557.268C74.7352 535.438 72.8196 517.229 84.7686 510.908C96.7516 504.692 118.059 513.345 129.457 535.28C140.821 557.111 129.964 587.571 125.841 590.07C122.273 592.157 97.4627 579.099 86.0989 557.268Z" fill="#F7F4EF" fill-opacity="0.8"/>
<path d="M76.5639 607.286C58.3334 605.255 46.2389 598.798 47.3239 588.739C48.409 578.68 62.655 568.838 80.8856 570.869C99.1162 572.899 113.531 592.465 113.341 596.109C113.188 599.162 94.7945 609.317 76.5639 607.286Z" fill="#D5CCC4" fill-opacity="0.8"/>
</g>
<g filter="url(#filter3_d)">
<ellipse cx="228.349" cy="635.968" rx="31.9598" ry="14.084" transform="rotate(-52.7742 228.349 635.968)" fill="#DBDBDB"/>
<path fill-rule="evenodd" clip-rule="evenodd" d="M239.564 644.488C249.512 631.395 253.347 617.3 248.818 611.629L290.534 649.929C290.693 650.016 290.845 650.115 290.99 650.225C295.278 653.483 291.565 665.586 282.696 677.258C273.828 688.931 263.163 695.752 258.875 692.495C258.731 692.385 258.595 692.265 258.468 692.135L210.388 662.212C217.066 665.055 229.616 657.581 239.564 644.488ZM247.252 610.192L247.355 610.286C247.316 610.261 247.277 610.235 247.238 610.211L247.252 610.192ZM208.584 661.089L208.598 661.07C208.632 661.101 208.666 661.132 208.701 661.162L208.584 661.089Z" fill="#F2F2F2"/>
</g>
<path d="M215.259 644.578C214.711 643.602 213.435 643.209 212.465 643.756C212.361 643.79 210.144 645.09 207.517 645.484C206.203 645.682 204.717 645.704 203.475 645.415C202.199 645.022 200.958 644.387 199.859 643.128C199.103 642.218 197.825 642.173 196.923 642.929C196.021 643.685 195.981 644.969 196.736 645.878C198.419 647.872 200.521 649.035 202.626 649.505C204.144 649.934 205.733 649.878 207.081 649.786C209.19 649.561 211.058 648.952 212.373 648.408C213.689 647.863 214.555 647.35 214.659 647.316C215.525 646.803 215.911 645.521 215.259 644.578Z" fill="#2D221C"/>
<g filter="url(#filter4_d)">
<path fill-rule="evenodd" clip-rule="evenodd" d="M391.523 329.875C391.861 329.654 392.169 329.395 392.442 329.098C392.512 329.023 392.579 328.945 392.643 328.866L392.721 328.795L392.708 328.783C396.218 324.248 391.465 313.665 381.84 304.8C371.985 295.724 360.753 291.886 356.753 296.229C356.479 296.527 356.247 296.854 356.054 297.21L329.495 332.055L358.977 359.207L391.523 329.875ZM357.032 295.927L357.045 295.939C357.019 295.962 356.993 295.986 356.968 296.01L357.032 295.927Z" fill="#EFEFEF"/>
<ellipse cx="344.515" cy="345.329" rx="20.1476" ry="7.40116" transform="rotate(42.6438 344.515 345.329)" fill="#CECECE"/>
</g>
<g filter="url(#filter5_d)">
<path fill-rule="evenodd" clip-rule="evenodd" d="M171.349 254.062C181.714 252.354 189.506 247.267 188.754 242.699C188.741 242.62 188.725 242.541 188.707 242.463L188.701 242.381L188.688 242.383C187.58 238.026 178.747 235.853 168.624 237.521C158.501 239.189 150.832 244.081 151.181 248.564L151.167 248.566L151.188 248.645C151.196 248.725 151.206 248.804 151.219 248.884C151.972 253.451 160.984 255.77 171.349 254.062ZM171.349 254.062C181.005 252.471 188.428 247.947 188.79 243.643L191.203 277.908L160.196 283.017L151.488 249.789C153.211 253.75 161.694 255.653 171.349 254.062Z" fill="#EFEFEF"/>
<ellipse cx="175.647" cy="280.145" rx="15.7964" ry="5.80277" transform="rotate(-9.35684 175.647 280.145)" fill="#CECECE"/>
</g>
<path d="M401.291 601.766C402.021 605.053 402.277 613.012 397.457 618.555" stroke="white"/>
<path d="M408.44 603.77C409.17 607.056 409.425 615.015 404.606 620.558" stroke="white"/>
<path d="M278.313 422.742C276.344 425.473 272.967 432.684 275.206 439.68" stroke="white"/>
<path d="M270.954 421.76C268.985 424.491 265.608 431.703 267.847 438.698" stroke="white"/>
<path d="M177.241 388.915C177.693 392.252 180.207 399.807 186.647 403.341" stroke="white"/>
<path d="M171.227 393.269C171.679 396.605 174.193 404.161 180.633 407.694" stroke="white"/>
<path d="M344.441 345.602C322.53 356.602 238.869 454.603 324.024 496.104C430.968 548.224 414.158 689.606 276.218 673.606" stroke="white"/>
<path d="M176.167 281.023C196.437 285.683 166.631 328.478 189.126 381.868C212.054 436.284 261.898 425.8 300.776 480.216" stroke="white"/>
<ellipse cx="274.933" cy="671.36" rx="26.5429" ry="9.75044" transform="rotate(-52.7742 274.933 671.36)" fill="#F2F2F2"/>
<path d="M185.525 250.557C185.444 250.144 185.718 249.738 186.124 249.672C186.146 249.664 187.079 249.473 187.942 248.969C188.377 248.71 188.786 248.382 189.076 247.982C189.366 247.583 189.536 247.112 189.546 246.494C189.541 246.078 189.88 245.738 190.312 245.741C190.729 245.736 191.069 246.075 191.066 246.507C191.073 247.471 190.749 248.289 190.285 248.913C189.944 249.384 189.515 249.759 189.097 250.064C188.447 250.512 187.797 250.789 187.288 250.96C186.779 251.13 186.427 251.201 186.405 251.21C185.997 251.237 185.606 250.97 185.525 250.557Z" fill="#2D221C"/>
<path d="M228.63 642.214C229.114 638.883 231.699 631.351 238.172 627.878" stroke="#BABABA"/>
<path d="M222.658 637.804C223.141 634.472 225.726 626.941 232.199 623.468" stroke="#BABABA"/>
<defs>
<filter id="filter0_d" x="52.9035" y="159.571" width="194.593" height="159.711" filterUnits="userSpaceOnUse" color-interpolation-filters="sRGB">
<feFlood flood-opacity="0" result="BackgroundImageFix"/>
<feColorMatrix in="SourceAlpha" type="matrix" values="0 0 0 0 0 0 0 0 0 0 0 0 0 0 0 0 0 0 127 0"/>
<feOffset dx="-5" dy="10"/>
<feGaussianBlur stdDeviation="11.5"/>
<feColorMatrix type="matrix" values="0 0 0 0 0.133333 0 0 0 0 0.133333 0 0 0 0 0.133333 0 0 0 0.15 0"/>
<feBlend mode="normal" in2="BackgroundImageFix" result="effect1_dropShadow"/>
<feBlend mode="normal" in="SourceGraphic" in2="effect1_dropShadow" result="shape"/>
</filter>
<filter id="filter1_d" x="314.975" y="133.527" width="259.551" height="271.767" filterUnits="userSpaceOnUse" color-interpolation-filters="sRGB">
<feFlood flood-opacity="0" result="BackgroundImageFix"/>
<feColorMatrix in="SourceAlpha" type="matrix" values="0 0 0 0 0 0 0 0 0 0 0 0 0 0 0 0 0 0 127 0"/>
<feOffset dx="14" dy="19"/>
<feGaussianBlur stdDeviation="18"/>
<feColorMatrix type="matrix" values="0 0 0 0 0.133333 0 0 0 0 0.133333 0 0 0 0 0.133333 0 0 0 0.2 0"/>
<feBlend mode="normal" in2="BackgroundImageFix" result="effect1_dropShadow"/>
<feBlend mode="normal" in="SourceGraphic" in2="effect1_dropShadow" result="shape"/>
</filter>
<filter id="filter2_d" x="11.2564" y="496.944" width="253.261" height="250.642" filterUnits="userSpaceOnUse" color-interpolation-filters="sRGB">
<feFlood flood-opacity="0" result="BackgroundImageFix"/>
<feColorMatrix in="SourceAlpha" type="matrix" values="0 0 0 0 0 0 0 0 0 0 0 0 0 0 0 0 0 0 127 0"/>
<feOffset dx="-7" dy="17"/>
<feGaussianBlur stdDeviation="14.5"/>
<feColorMatrix type="matrix" values="0 0 0 0 0.133333 0 0 0 0 0.133333 0 0 0 0 0.133333 0 0 0 0.17 0"/>
<feBlend mode="normal" in2="BackgroundImageFix" result="effect1_dropShadow"/>
<feBlend mode="normal" in="SourceGraphic" in2="effect1_dropShadow" result="shape"/>
</filter>
<filter id="filter3_d" x="195.995" y="609.124" width="118.778" height="116.184" filterUnits="userSpaceOnUse" color-interpolation-filters="sRGB">
<feFlood flood-opacity="0" result="BackgroundImageFix"/>
<feColorMatrix in="SourceAlpha" type="matrix" values="0 0 0 0 0 0 0 0 0 0 0 0 0 0 0 0 0 0 127 0"/>
<feOffset dx="6" dy="16"/>
<feGaussianBlur stdDeviation="8"/>
<feColorMatrix type="matrix" values="0 0 0 0 0.133333 0 0 0 0 0.133333 0 0 0 0 0.133333 0 0 0 0.15 0"/>
<feBlend mode="normal" in2="BackgroundImageFix" result="effect1_dropShadow"/>
<feBlend mode="normal" in="SourceGraphic" in2="effect1_dropShadow" result="shape"/>
</filter>
<filter id="filter4_d" x="311.865" y="285.441" width="104.996" height="105.586" filterUnits="userSpaceOnUse" color-interpolation-filters="sRGB">
<feFlood flood-opacity="0" result="BackgroundImageFix"/>
<feColorMatrix in="SourceAlpha" type="matrix" values="0 0 0 0 0 0 0 0 0 0 0 0 0 0 0 0 0 0 127 0"/>
<feOffset dx="3" dy="11"/>
<feGaussianBlur stdDeviation="10"/>
<feColorMatrix type="matrix" values="0 0 0 0 0.0666667 0 0 0 0 0.0666667 0 0 0 0 0.0666667 0 0 0 0.25 0"/>
<feBlend mode="normal" in2="BackgroundImageFix" result="effect1_dropShadow"/>
<feBlend mode="normal" in="SourceGraphic" in2="effect1_dropShadow" result="shape"/>
</filter>
<filter id="filter5_d" x="134.167" y="227.959" width="80.0953" height="89.4619" filterUnits="userSpaceOnUse" color-interpolation-filters="sRGB">
<feFlood flood-opacity="0" result="BackgroundImageFix"/>
<feColorMatrix in="SourceAlpha" type="matrix" values="0 0 0 0 0 0 0 0 0 0 0 0 0 0 0 0 0 0 127 0"/>
<feOffset dx="3" dy="11"/>
<feGaussianBlur stdDeviation="10"/>
<feColorMatrix type="matrix" values="0 0 0 0 0.0666667 0 0 0 0 0.0666667 0 0 0 0 0.0666667 0 0 0 0.25 0"/>
<feBlend mode="normal" in2="BackgroundImageFix" result="effect1_dropShadow"/>
<feBlend mode="normal" in="SourceGraphic" in2="effect1_dropShadow" result="shape"/>
</filter>
</defs>
</svg>
