<svg width="108" height="120" viewBox="0 0 108 120" fill="none" xmlns="http://www.w3.org/2000/svg">
<g clip-path="url(#clip0)">
<path d="M49.1918 35.0855L82.6046 48.4672L89.5095 84.1918L59.8536 105.274L26.4408 91.8922L19.5358 56.1676L49.1918 35.0855Z" stroke="#FFE99A" stroke-width="2"/>
</g>
<g clip-path="url(#clip1)">
<path d="M29.554 45.0736C32.044 51.6759 38.1605 55.9284 45.2831 56.8707C48.1847 57.2481 51.1303 57.0822 53.9726 56.3815C56.7636 55.7041 59.4194 54.549 61.8253 52.9664C70.0638 47.5285 73.9931 37.7541 70.7642 29.1711C67.6391 20.9332 58.8754 16.3356 49.5655 17.302C47.3981 17.5285 45.2697 18.0431 43.2353 18.8325C42.5646 19.0966 41.9048 19.3857 41.2558 19.6998C38.4957 21.038 36.0138 22.8969 33.9433 25.1767C28.9278 30.7226 26.9869 38.2703 29.554 45.0736Z" fill="#FFC702"/>
<path d="M44.8171 40.5963C46.6582 45.5403 49.195 50.1898 52.3493 54.4011C52.8716 55.0914 53.4058 55.7566 53.9519 56.3968C56.7428 55.7194 59.3986 54.5643 61.8045 52.9816C60.34 51.4801 59.0028 49.8569 57.807 48.129C55.5698 44.8916 53.7395 41.3855 52.3582 37.6913C50.7554 33.503 49.7559 29.1035 49.3904 24.6278C49.1904 22.1866 49.2491 19.7308 49.5655 17.3022C47.3981 17.5288 45.2697 18.0434 43.2353 18.8328C42.5646 19.0969 41.9048 19.386 41.2558 19.7001C41.1458 22.1892 41.2351 24.6832 41.5229 27.1577C42.0641 31.7583 43.1707 36.2727 44.8171 40.5963Z" fill="#453C36"/>
<path d="M29.554 45.0737C32.044 51.6759 38.1605 55.9284 45.2831 56.8708C44.267 55.7288 43.3195 54.5262 42.4459 53.2695C40.2029 50.0301 38.3676 46.5209 36.9823 42.8229C35.3779 38.635 34.3784 34.2354 34.0145 29.7593C33.8978 28.2347 33.875 26.7042 33.9463 25.1768C28.9278 30.7227 26.9869 38.2703 29.554 45.0737Z" fill="#453C36"/>
<path d="M60.3385 32.1215C60.1663 33.562 59.3235 34.6424 58.4599 34.5224C57.5963 34.4023 57.0354 33.1629 57.2105 31.7224C57.3855 30.2819 58.2225 29.1985 59.089 29.3215C59.9556 29.4446 60.5106 30.693 60.3385 32.1215Z" fill="#744E32"/>
<path d="M70.1083 32.7094C69.9361 34.1499 69.0933 35.2303 68.2297 35.1103C67.3661 34.9902 66.8051 33.7508 66.9802 32.3103C67.1553 30.8698 67.9923 29.7864 68.8559 29.9094C69.7195 30.0325 70.2804 31.2689 70.1083 32.7094Z" fill="#744E32"/>
<path d="M29.6817 40.8062L25.0668 45.2327C24.9843 45.3612 24.9334 45.5078 24.9185 45.6603C24.9036 45.8127 24.9251 45.9666 24.9813 46.1089C25.0374 46.2512 25.1265 46.3778 25.241 46.4781C25.3556 46.5784 25.4923 46.6494 25.6396 46.6852L32.0915 46.7272L29.6817 40.8062Z" fill="#453C36"/>
<path d="M65.3512 21.2694C65.899 19.9664 66.6037 18.7367 67.4494 17.6082C68.1536 16.6472 69.0159 15.8158 69.9987 15.1503C71.0354 14.4468 72.2724 14.1082 73.5184 14.187H73.5926C73.665 14.1937 73.7318 14.2293 73.7783 14.2859C73.8248 14.3424 73.8471 14.4154 73.8404 14.4886C73.8337 14.5618 73.7986 14.6293 73.7426 14.6763C73.6867 14.7233 73.6146 14.7459 73.5422 14.7392H73.4769C72.3493 14.6678 71.2299 14.9748 70.2925 15.6125C68.8858 16.5128 67.7669 17.9833 67.0102 19.2137C66.6332 19.8349 66.3424 20.4141 66.1495 20.8043C66.0516 21.0083 65.9803 21.1734 65.9299 21.2844L65.8765 21.4135V21.4465C65.8632 21.4802 65.8435 21.5109 65.8185 21.5369C65.7935 21.5629 65.7637 21.5837 65.7308 21.5981C65.6979 21.6124 65.6625 21.6201 65.6266 21.6206C65.5908 21.6211 65.5551 21.6145 65.5218 21.6011C65.4885 21.5877 65.4581 21.5677 65.4324 21.5425C65.4067 21.5172 65.3861 21.4871 65.372 21.4537C65.3578 21.4204 65.3502 21.3846 65.3497 21.3484C65.3492 21.3121 65.3557 21.2761 65.369 21.2424L65.3512 21.2694Z" fill="#2D221C"/>
<path d="M58.6349 21.7079C58.5872 20.9381 58.5942 20.1659 58.6557 19.3971C58.7456 17.9162 59.0754 16.4603 59.6321 15.0876C59.9419 14.3519 60.369 13.6727 60.8964 13.0769C61.4558 12.4583 62.1483 11.9778 62.9204 11.6724C62.9871 11.6517 63.0591 11.6574 63.1218 11.6882C63.1846 11.719 63.2335 11.7727 63.2587 11.8385C63.2839 11.9043 63.2835 11.9773 63.2576 12.0428C63.2318 12.1083 63.1823 12.1615 63.1192 12.1916C62.4255 12.464 61.8037 12.8954 61.303 13.4521C60.5809 14.2941 60.0519 15.2871 59.7538 16.3601C59.4619 17.3635 59.2778 18.3958 59.2048 19.4391C59.1573 20.0874 59.1513 20.6396 59.1573 21.0417C59.1573 21.2398 59.1573 21.3958 59.1573 21.5009C59.1573 21.5549 59.1573 21.5969 59.1573 21.6239V21.6629C59.1632 21.7361 59.1401 21.8087 59.093 21.8647C59.046 21.9207 58.9789 21.9555 58.9065 21.9615C58.8341 21.9675 58.7623 21.9441 58.7069 21.8966C58.6515 21.849 58.6171 21.7812 58.6112 21.7079H58.6349Z" fill="#2D221C"/>
<path d="M72.6516 14.403C72.6303 14.6877 72.6929 14.9725 72.8314 15.2214C72.9699 15.4702 73.1782 15.6721 73.4299 15.8015C73.6817 15.9308 73.9657 15.982 74.2461 15.9484C74.5265 15.9149 74.7909 15.7981 75.0058 15.6129C75.2208 15.4277 75.3767 15.1822 75.4539 14.9076C75.5312 14.6329 75.5263 14.3412 75.4399 14.0694C75.3534 13.7975 75.1894 13.5575 74.9684 13.3798C74.7473 13.2021 74.4792 13.0944 74.1978 13.0705C74.0095 13.0537 73.8197 13.075 73.6395 13.1331C73.4594 13.1912 73.2925 13.285 73.1486 13.4091C73.0046 13.5331 72.8866 13.6848 72.8013 13.8555C72.7159 14.0261 72.6651 14.2123 72.6516 14.403Z" fill="#2D221C"/>
<path d="M61.9945 11.8524C61.973 12.1377 62.0356 12.4231 62.1745 12.6723C62.3134 12.9216 62.5222 13.1237 62.7747 13.2529C63.0271 13.3821 63.3118 13.4328 63.5927 13.3984C63.8736 13.364 64.1381 13.2461 64.3527 13.0597C64.5674 12.8733 64.7225 12.6267 64.7986 12.3511C64.8746 12.0755 64.8681 11.7833 64.7799 11.5114C64.6917 11.2396 64.5258 11.0003 64.3031 10.8238C64.0804 10.6473 63.8109 10.5416 63.5288 10.52C63.3414 10.5052 63.1531 10.528 62.9745 10.5871C62.7959 10.6461 62.6306 10.7402 62.488 10.864C62.3455 10.9878 62.2285 11.1389 62.1438 11.3085C62.0591 11.4781 62.0083 11.6629 61.9945 11.8524Z" fill="#2D221C"/>
<path d="M60.9498 36.4546C60.9159 36.7894 60.9488 37.1277 61.0467 37.4493C61.1445 37.771 61.3053 38.0695 61.5195 38.3271C61.7336 38.5847 61.9968 38.7962 62.2933 38.949C62.5899 39.1017 62.9137 39.1927 63.2457 39.2164C63.5777 39.2401 63.911 39.1962 64.2258 39.0871C64.5407 38.9781 64.8306 38.8061 65.0785 38.5816C65.3264 38.357 65.5271 38.0843 65.6687 37.7798C65.8103 37.4753 65.89 37.145 65.903 36.8088C65.9158 36.6899 65.9737 36.5806 66.0646 36.504C66.1554 36.4274 66.272 36.3894 66.39 36.3979C66.508 36.4065 66.6181 36.4609 66.6972 36.5499C66.7762 36.6388 66.8182 36.7553 66.8141 36.8748C66.7353 37.7707 66.3121 38.5996 65.6352 39.1832C64.9584 39.7668 64.0822 40.0586 63.1949 39.9956C62.3076 39.9327 61.4801 39.5202 60.8905 38.8468C60.3008 38.1734 59.996 37.2929 60.0417 36.3946C60.0504 36.2728 60.1065 36.1595 60.1978 36.0796C60.289 35.9997 60.408 35.9597 60.5284 35.9685C60.6488 35.9772 60.7609 36.034 60.8399 36.1263C60.9189 36.2186 60.9585 36.3389 60.9498 36.4606V36.4546Z" fill="#744E32"/>
<path d="M35.4925 12.5815C34.4033 5.94622 35.442 1.04852 39.0538 0.442311C42.6655 -0.1639 47.4673 3.90852 48.5506 10.5438C49.6338 17.1791 44.274 24.1746 43.0038 24.4717C41.9058 24.7297 36.5846 19.2198 35.4925 12.5815Z" fill="#EEEBE6" fill-opacity="0.8"/>
<path d="M28.8239 24.7747C24.2833 22.7069 21.6954 20.018 22.8202 17.4881C23.945 14.9582 28.4589 13.6258 32.9907 15.6875C37.5224 17.7492 39.6117 24.0544 39.2674 24.9907C38.9707 25.777 33.3646 26.8424 28.8239 24.7747Z" fill="#D3CAC2" fill-opacity="0.8"/>
</g>
<defs>
<clipPath id="clip0">
<rect width="75.832" height="85.4143" fill="white" transform="translate(0 87.9404) rotate(-68.1741)"/>
</clipPath>
<clipPath id="clip1">
<rect width="57.2875" height="61.7631" fill="white" transform="translate(20 0.213867)"/>
</clipPath>
</defs>
</svg>
