<svg width="52" height="56" viewBox="0 0 52 56" fill="none" xmlns="http://www.w3.org/2000/svg">
<path d="M45.1245 43.6687C42.6761 50.121 36.6717 54.2856 29.7054 55.1948C26.9655 55.5467 24.0507 55.4294 21.1651 54.7255C20.1449 54.4909 19.1248 54.1683 18.1338 53.787C16.4432 53.1418 14.8984 52.3499 13.4701 51.4114C5.36709 46.103 1.5196 36.5419 4.69669 28.1539C7.75719 20.1179 16.3558 15.6013 25.479 16.5398C27.5485 16.7451 29.6471 17.2437 31.6874 18.0356C32.3578 18.2995 32.9991 18.5635 33.6403 18.8861C36.4676 20.2646 38.8869 22.0829 40.8398 24.2239C45.7366 29.6497 47.6603 37.0405 45.1245 43.6687Z" fill="#FFC702"/>
<path d="M30.1426 39.2985C28.2189 44.3723 25.683 48.9475 22.7391 52.7896C22.2145 53.4641 21.6898 54.1094 21.1651 54.7253C20.145 54.4906 19.1248 54.168 18.1338 53.7867C16.4432 53.1415 14.8984 52.3496 13.4702 51.4111C14.8401 50.0327 16.1518 48.449 17.4051 46.6599C19.4746 43.7271 21.3109 40.2663 22.7683 36.4536C24.4297 32.0837 25.3916 27.7137 25.683 23.6957C25.8288 21.1148 25.7705 18.7099 25.479 16.5396C27.5485 16.7449 29.6471 17.2434 31.6874 18.0353C32.3578 18.2993 32.9991 18.5632 33.6403 18.8858C33.7569 21.2321 33.6695 23.6664 33.378 26.1593C32.8825 30.4413 31.804 34.8699 30.1426 39.2985Z" fill="#453C36"/>
<path d="M45.1245 43.6689C42.6761 50.1212 36.6717 54.2858 29.7054 55.195C30.6672 54.1098 31.6 52.9367 32.5035 51.6756C34.573 48.7427 36.4093 45.282 37.8667 41.4693C39.5281 37.0993 40.49 32.7294 40.7815 28.7114C40.8981 27.157 40.9272 25.6612 40.8398 24.2241C45.7366 29.6499 47.6603 37.0407 45.1245 43.6689Z" fill="#453C36"/>
<path d="M14.8984 31.028C15.0733 32.4357 15.8895 33.4916 16.7347 33.3742C17.58 33.2569 18.1338 32.0545 17.9589 30.6467C17.784 29.2389 16.9679 28.1831 16.1226 28.3004C15.2774 28.3884 14.7236 29.6202 14.8984 31.028Z" fill="#744E32"/>
<path d="M5.30883 31.5855C5.48371 32.9933 6.29985 34.0491 7.14513 33.9612C7.99041 33.8438 8.54422 32.6414 8.36933 31.2336C8.19445 29.8258 7.37831 28.77 6.53303 28.8873C5.68775 28.946 5.13394 30.1778 5.30883 31.5855Z" fill="#744E32"/>
<path d="M45.0079 39.5044L49.555 43.845C49.9047 44.3729 49.6133 45.1061 49.0012 45.2528L42.6761 45.2821L45.0079 39.5044Z" fill="#453C36"/>
<path d="M9.97247 20.4111C9.97247 20.4111 9.24378 18.5928 7.90299 16.833C7.23259 15.9532 6.38731 15.0733 5.39629 14.4281C4.40527 13.7829 3.23936 13.4016 1.92772 13.4896C1.89857 13.4896 1.86942 13.4896 1.84028 13.4896C1.69454 13.4896 1.57795 13.6362 1.6071 13.7829C1.6071 13.9295 1.75284 14.0468 1.89858 14.0175C1.92772 14.0175 1.92772 14.0175 1.95687 14.0175C3.12278 13.9295 4.17209 14.2815 5.07567 14.868C6.44561 15.7479 7.55322 17.185 8.31106 18.3875C8.68998 19.0034 8.9523 19.5313 9.15634 19.9419C9.24378 20.1472 9.33122 20.2938 9.36037 20.4111C9.38952 20.4698 9.38952 20.4991 9.41866 20.5284V20.5578C9.47696 20.7044 9.6227 20.7631 9.76844 20.7044C9.97247 20.7044 10.0308 20.5578 9.97247 20.4111Z" fill="#2D221C"/>
<path d="M16.5598 20.851C16.5598 20.851 16.6472 19.9125 16.5306 18.5927C16.4432 17.3609 16.1808 15.8065 15.5687 14.3694C15.2481 13.6656 14.8692 12.991 14.3154 12.4044C13.7907 11.8179 13.1203 11.3486 12.3334 11.026C12.1876 10.9673 12.0419 11.0553 11.9836 11.1726C11.9253 11.3193 12.0127 11.4659 12.1293 11.5246C12.858 11.8179 13.441 12.2285 13.9073 12.7564C14.636 13.5482 15.1024 14.5454 15.423 15.6012C15.7436 16.6571 15.8894 17.7129 15.9477 18.6221C16.006 19.2673 16.006 19.7952 16.006 20.1765C16.006 20.3818 16.006 20.5284 15.9768 20.6164C15.9768 20.6751 15.9768 20.7044 15.9768 20.7337V20.7631C15.9768 20.9097 16.0643 21.0563 16.21 21.0563C16.4432 21.0857 16.5598 20.9977 16.5598 20.851Z" fill="#2D221C"/>
<path d="M2.8021 13.6949C2.8604 14.4868 2.27745 15.1613 1.51961 15.22C0.732626 15.2786 0.0622325 14.6921 0.00393724 13.9295C-0.0543578 13.1376 0.528592 12.4631 1.28643 12.4044C2.07341 12.3458 2.74381 12.9323 2.8021 13.6949Z" fill="#2D221C"/>
<path d="M13.2661 11.2022C13.3244 11.9941 12.7415 12.6686 11.9836 12.7273C11.1966 12.786 10.5262 12.1994 10.4679 11.4368C10.4096 10.645 10.9926 9.97042 11.7504 9.91176C12.5374 9.8531 13.2078 10.4397 13.2661 11.2022Z" fill="#2D221C"/>
<path d="M14.2863 35.2513C14.3446 35.9259 14.1114 36.5711 13.7033 37.0404C13.2953 37.5096 12.7123 37.8322 12.0419 37.8909C11.3715 37.9495 10.7303 37.7149 10.2639 37.3043C9.79754 36.8937 9.47692 36.3072 9.41862 35.6326C9.38947 35.398 9.18544 35.1927 8.95226 35.222C8.71908 35.2513 8.51504 35.4566 8.54419 35.6913C8.66078 37.5389 10.2639 38.9174 12.1002 38.8001C13.9365 38.6828 15.3064 37.0697 15.1899 35.222C15.1607 34.9874 14.9567 34.7821 14.7235 34.8114C14.4612 34.7821 14.2863 35.0167 14.2863 35.2513Z" fill="#744E32"/>
<path d="M39.295 11.9354C40.3734 5.45375 39.3533 0.67321 35.7972 0.0573121C32.2412 -0.529258 27.5485 3.43009 26.47 9.94101C25.3915 16.4226 30.6673 23.2561 31.9206 23.5494C32.9991 23.7841 38.2165 18.4169 39.295 11.9354Z" fill="#F7F4EF" fill-opacity="0.8"/>
<path d="M45.8533 23.8425C50.3128 21.8188 52.8487 19.1792 51.7411 16.7156C50.6335 14.2521 46.203 12.9323 41.7434 14.9559C37.2838 16.9796 35.2435 23.1386 35.5933 24.0478C35.8848 24.8103 41.3937 25.8661 45.8533 23.8425Z" fill="#D5CCC4" fill-opacity="0.8"/>
<path d="M13.7325 44.7834C13.7908 44.4901 14.0823 44.2848 14.3738 44.3434C14.4029 44.3434 15.0733 44.4901 15.7728 44.3728C16.1226 44.3141 16.5015 44.1968 16.793 44.0208C17.0845 43.8155 17.3468 43.5516 17.5217 43.141C17.6383 42.8477 17.9589 42.7304 18.2504 42.8477C18.5419 42.965 18.6585 43.2876 18.5419 43.5809C18.2795 44.2261 17.8423 44.6954 17.3468 44.9887C16.997 45.2233 16.589 45.3406 16.2392 45.4286C15.6854 45.5459 15.1607 45.5459 14.7818 45.5166C14.4029 45.4873 14.1406 45.4286 14.1114 45.4286C13.8491 45.3699 13.6451 45.0767 13.7325 44.7834Z" fill="#2D221C"/>
</svg>
