<svg width="119" height="48" viewBox="0 0 119 48" fill="none" xmlns="http://www.w3.org/2000/svg">
<path d="M28.5964 46.0567L39.0572 35.64C39.8051 34.8955 40.3429 33.9683 40.6168 32.9514C40.8907 31.9345 40.891 30.8637 40.6177 29.8467L36.7903 15.62C36.5165 14.6025 35.9784 13.6746 35.2301 12.9297C34.4819 12.1849 33.5498 11.6492 32.5276 11.3767L18.2361 7.56668C17.2144 7.29456 16.1388 7.29484 15.1172 7.56749C14.0957 7.84015 13.1642 8.37558 12.4163 9.12001L1.95219 19.5333C1.20322 20.2785 0.664663 21.2069 0.39073 22.2251C0.116797 23.2433 0.117159 24.3153 0.391779 25.3334L4.2225 39.56C4.49628 40.5776 5.03437 41.5054 5.78264 42.2503C6.53091 42.9952 7.46299 43.5308 8.48517 43.8034L22.77 47.61C23.7927 47.8834 24.8696 47.8838 25.8924 47.6111C26.9153 47.3384 27.8479 46.8023 28.5964 46.0567Z" fill="white"/>
<path d="M11.7785 23.8887L9.61908 26.0383L22.0641 38.4268L24.2235 36.2772L11.7785 23.8887Z" fill="#040219"/>
<path d="M16.1343 19.5538L13.956 21.7222L26.401 34.1107L28.5793 31.9423L16.1343 19.5538Z" fill="#040219"/>
<path d="M20.4874 15.2141L18.3091 17.3826L30.7541 29.7711L32.9324 27.6026L20.4874 15.2141Z" fill="#040219"/>
<path d="M3.36863 32.8267L15.2425 44.6467C14.794 44.8807 14.3256 45.0748 13.8428 45.2267L10.6048 44.3634L7.59112 43.5567C6.84507 43.358 6.16476 42.9671 5.61867 42.4235C5.07257 41.8799 4.67996 41.2027 4.48034 40.46L3.66665 37.46L2.79938 34.2367C2.94983 33.7519 3.14023 33.2803 3.36863 32.8267Z" fill="#040219"/>
<path d="M7.43817 28.2048L5.25983 30.3732L17.7048 42.7617L19.8832 40.5933L7.43817 28.2048Z" fill="#040219"/>
<path d="M13.9568 21.7202L11.7784 23.8887L24.2234 36.2772L26.4018 34.1087L13.9568 21.7202Z" fill="#F4C600"/>
<path d="M18.3132 17.3839L16.1349 19.5524L28.5799 31.9409L30.7582 29.7724L18.3132 17.3839Z" fill="#F4C600"/>
<path d="M5.26392 30.3734L17.707 42.7634L17.3956 43.0734C16.7627 43.704 16.0366 44.2346 15.2425 44.6467L3.36865 32.8267C3.78469 32.0366 4.31871 31.314 4.95251 30.6834L5.26392 30.3734Z" fill="#F4C600"/>
<path d="M9.6181 26.0406L7.43976 28.2091L19.8847 40.5976L22.0631 38.4291L9.6181 26.0406Z" fill="#F4C600"/>
<path d="M36.6329 0.223349C36.6847 0.272454 36.7277 0.329934 36.7602 0.393349C36.762 0.403267 36.762 0.413431 36.7602 0.423349C36.777 0.452901 36.7904 0.4842 36.8003 0.516683C36.8026 0.525428 36.8026 0.534604 36.8003 0.543349C37.4723 2.14567 37.6506 3.91069 37.3126 5.61411C36.9745 7.31754 36.1353 8.88246 34.9017 10.11C34.6874 10.3233 34.4597 10.5267 34.232 10.7167C33.7337 10.4266 33.2076 10.1865 32.6616 10C33.091 9.72431 33.4895 9.40359 33.8503 9.04335C34.8718 8.02649 35.5662 6.73008 35.8453 5.31912C36.1244 3.90816 35.9754 2.44645 35.4174 1.12002C35.4068 1.091 35.3933 1.06309 35.3772 1.03668C35.3112 0.87333 35.3043 0.692244 35.3576 0.524356C35.4108 0.356468 35.521 0.212192 35.6692 0.116173C35.8174 0.0201536 35.9946 -0.0216527 36.1703 -0.00210523C36.3461 0.0174423 36.5096 0.0971308 36.6329 0.223349Z" fill="#040219"/>
<path d="M47.971 11.51C48.0947 11.6326 48.1724 11.7937 48.1912 11.9665C48.21 12.1392 48.1688 12.3131 48.0745 12.4593C47.9801 12.6055 47.8383 12.7151 47.6726 12.7698C47.507 12.8245 47.3275 12.821 47.164 12.76L47.0736 12.72C45.5034 12.0733 43.7558 11.9914 42.1315 12.4884C40.5071 12.9855 39.1075 14.0303 38.1732 15.4433C37.986 14.896 37.7437 14.3688 37.45 13.87C37.637 13.6367 37.8371 13.4142 38.0493 13.2033C39.2883 11.9731 40.8673 11.1382 42.5849 10.8052C44.3025 10.4721 46.0809 10.656 47.6931 11.3333L47.7902 11.3767C47.8566 11.4123 47.9175 11.4572 47.971 11.51Z" fill="#040219"/>
<path d="M16.1902 9.12001C16.4038 9.12102 16.6165 9.14902 16.823 9.20334L32.9294 13.5C33.3436 13.6109 33.7212 13.8282 34.0244 14.13C34.3276 14.4319 34.5459 14.8078 34.6573 15.22L38.9735 31.2533C39.0807 31.6635 39.0787 32.0944 38.9677 32.5035C38.8567 32.9126 38.6406 33.2859 38.3407 33.5867L26.5505 45.3333C26.3242 45.5601 26.055 45.7399 25.7584 45.8623C25.4618 45.9848 25.1437 46.0474 24.8227 46.0467C24.6089 46.0475 24.396 46.0195 24.1898 45.9633L8.08337 41.6667C7.67128 41.5553 7.29562 41.3386 6.99369 41.0381C6.69176 40.7375 6.47407 40.3636 6.36222 39.9533L2.03927 23.92C1.92985 23.5068 1.93133 23.0723 2.04357 22.6599C2.15581 22.2475 2.37487 21.8717 2.67884 21.57L14.4623 9.83334C14.6886 9.6066 14.9579 9.42681 15.2544 9.30436C15.551 9.18192 15.8691 9.11926 16.1902 9.12001ZM16.1902 7.17334C15.6124 7.17328 15.0402 7.28659 14.5064 7.50679C13.9727 7.727 13.4877 8.04978 13.0794 8.45667L1.2892 20.1933C0.742957 20.7368 0.350138 21.4138 0.150276 22.1564C-0.0495854 22.899 -0.0494385 23.6808 0.150702 24.4233L4.46696 40.4567C4.66564 41.1998 5.05794 41.8775 5.60418 42.4213C6.15042 42.965 6.83123 43.3556 7.57774 43.5533L23.6842 47.85C24.43 48.0496 25.2155 48.0499 25.9616 47.8509C26.7076 47.652 27.3877 47.2607 27.9334 46.7167L39.7236 34.98C40.2675 34.4352 40.6581 33.7576 40.8561 33.0152C41.0542 32.2729 41.0528 31.4917 40.8521 30.75L36.5358 14.7167C36.3362 13.974 35.9436 13.2968 35.3975 12.7532C34.8514 12.2096 34.1711 11.8187 33.425 11.62L17.3287 7.33334C16.9574 7.23397 16.5746 7.18353 16.1902 7.18334V7.17334Z" fill="#040219"/>
<path d="M17.4124 12.1034L20.5232 15.2H20.5064L11.8002 23.8667L9.63709 26.02V26.0033L8.0365 27.5733L4.93911 24.49C3.28904 22.8435 2.36364 20.6118 2.36646 18.2861C2.36929 15.9603 3.30012 13.7309 4.95417 12.0883C6.60823 10.4458 8.85003 9.52457 11.1864 9.52738C13.5228 9.53019 15.7623 10.4568 17.4124 12.1034Z" fill="#F4C600"/>
<path d="M32.9529 27.5867L36.0636 30.6834C37.7141 32.3264 38.6414 34.5548 38.6414 36.8784C38.6414 39.2019 37.7141 41.4304 36.0636 43.0734C34.4131 44.7164 32.1746 45.6394 29.8404 45.6394C27.5062 45.6394 25.2677 44.7164 23.6172 43.0734L20.5198 40L22.0768 38.45L24.2366 36.3L32.9428 27.6334H32.9261L32.9529 27.5867Z" fill="#F4C600"/>
<path d="M36.0637 12.1034C36.5955 12.6312 37.057 13.225 37.4366 13.87C37.735 14.3683 37.9818 14.8955 38.1733 15.4434C38.7909 17.2261 38.8144 19.1596 38.2402 20.9567C38.0829 21.4483 37.8812 21.9247 37.6375 22.38C37.4974 22.6515 37.3408 22.9142 37.1687 23.1667C37.018 23.3934 36.8539 23.6134 36.6798 23.8334C36.4928 24.0666 36.2927 24.2892 36.0804 24.5L32.9496 27.6134L20.4897 15.2167L23.6172 12.1034C23.8291 11.8891 24.0527 11.6865 24.2869 11.4967C24.4979 11.3267 24.7155 11.1634 24.9566 11.0167C25.2151 10.8416 25.4834 10.6814 25.7603 10.5367C26.8145 9.98782 27.9696 9.65729 29.1557 9.56505C30.3419 9.47281 31.5345 9.62078 32.6616 10C33.9427 10.4337 35.1066 11.1544 36.0637 12.1067V12.1034Z" fill="#F4C600"/>
<path d="M33.3715 20.4967C33.978 20.4967 34.4698 20.0072 34.4698 19.4033C34.4698 18.7995 33.978 18.31 33.3715 18.31C32.7649 18.31 32.2731 18.7995 32.2731 19.4033C32.2731 20.0072 32.7649 20.4967 33.3715 20.4967Z" fill="#040219"/>
<path d="M28.7036 15.85C29.3102 15.85 29.8019 15.3605 29.8019 14.7567C29.8019 14.1529 29.3102 13.6634 28.7036 13.6634C28.097 13.6634 27.6053 14.1529 27.6053 14.7567C27.6053 15.3605 28.097 15.85 28.7036 15.85Z" fill="#040219"/>
<path d="M60.297 33.11V15.3067H66.8769C67.9382 15.2849 68.9981 15.3969 70.0312 15.64C70.7963 15.8215 71.5186 16.1499 72.1575 16.6067C72.684 16.9977 73.0966 17.5212 73.3529 18.1234C73.6122 18.758 73.7398 19.4383 73.7279 20.1234C73.729 20.5152 73.6714 20.905 73.5572 21.28C73.4392 21.6598 73.2556 22.0163 73.0147 22.3334C72.7503 22.6779 72.4314 22.9774 72.0704 23.22C71.639 23.5066 71.1733 23.7384 70.6841 23.91C71.8628 24.1945 72.7345 24.6567 73.2993 25.2967C73.8791 25.9845 74.18 26.8629 74.1432 27.76C74.1486 28.4874 73.9991 29.2077 73.7045 29.8734C73.4055 30.5302 72.9627 31.1122 72.4086 31.5767C71.7923 32.083 71.0825 32.4646 70.3191 32.7C69.3938 32.9868 68.4285 33.1252 67.4595 33.11H60.297ZM64.4458 22.7967H66.609C67.024 22.7995 67.4384 22.7671 67.8479 22.7C68.1792 22.6503 68.4976 22.5371 68.7855 22.3667C69.0427 22.206 69.2474 21.9744 69.3749 21.7C69.5223 21.3618 69.5921 20.9951 69.5791 20.6267C69.5895 20.2677 69.5351 19.9098 69.4184 19.57C69.3199 19.3065 69.1494 19.0756 68.9261 18.9034C68.6772 18.7199 68.3899 18.5945 68.0857 18.5367C67.6878 18.4576 67.2826 18.4207 66.8769 18.4267H64.4458V22.7967ZM64.4458 25.5567V30H67.3691C67.8246 30.0142 68.2787 29.9441 68.7085 29.7934C69.0187 29.6794 69.2983 29.4957 69.5255 29.2567C69.7186 29.0436 69.8575 28.7875 69.9307 28.51C70.0043 28.2349 70.0414 27.9514 70.0412 27.6667C70.0449 27.3686 70.0019 27.0717 69.914 26.7867C69.8308 26.5283 69.6779 26.2977 69.472 26.12C69.2297 25.924 68.9475 25.783 68.6449 25.7067C68.2209 25.597 67.7836 25.5465 67.3456 25.5567H64.4458Z" fill="#161616"/>
<path d="M81.8548 20.2433C82.6433 20.2343 83.427 20.3664 84.1686 20.6333C84.8448 20.8797 85.4602 21.2673 85.9735 21.77C86.4902 22.2903 86.8917 22.9125 87.1521 23.5967C87.4446 24.3801 87.5877 25.211 87.5741 26.0467C87.5765 26.2794 87.5642 26.5121 87.5372 26.7433C87.5227 26.8932 87.4771 27.0385 87.4033 27.17C87.3431 27.2714 87.2497 27.349 87.1388 27.39C87.0021 27.437 86.858 27.4585 86.7135 27.4533H79.3601C79.484 28.51 79.8055 29.28 80.3312 29.7567C80.8931 30.2495 81.6257 30.5053 82.3738 30.47C82.7603 30.4772 83.1455 30.4243 83.5156 30.3133C83.8082 30.2171 84.0926 30.0978 84.3662 29.9567L85.0526 29.6033C85.2591 29.4957 85.4892 29.4407 85.7223 29.4433C85.853 29.4388 85.9828 29.467 86.0998 29.5252C86.2167 29.5834 86.3172 29.6699 86.392 29.7767L87.497 31.1333C87.1316 31.5592 86.7038 31.9278 86.228 32.2267C85.7902 32.5044 85.3202 32.7283 84.8283 32.8933C84.3617 33.0517 83.8805 33.1633 83.3917 33.2267C82.9378 33.2878 82.4803 33.319 82.0222 33.32C81.1659 33.3249 80.3155 33.1782 79.5108 32.8867C78.7441 32.6051 78.0457 32.1655 77.4615 31.5967C76.8538 30.9931 76.3813 30.2683 76.0752 29.47C75.7175 28.5258 75.5447 27.5222 75.5662 26.5133C75.561 25.6913 75.7086 24.8753 76.0016 24.1067C76.2815 23.3586 76.7123 22.6754 77.2675 22.0993C77.8226 21.5232 78.4903 21.0663 79.2295 20.7567C80.0597 20.4073 80.9535 20.2325 81.8548 20.2433ZM81.9284 22.8567C81.6166 22.8385 81.3044 22.8838 81.0107 22.9898C80.7171 23.0958 80.4483 23.2604 80.2207 23.4733C79.7726 23.9693 79.4896 24.591 79.4103 25.2533H84.1619C84.1622 24.9561 84.1227 24.6602 84.0447 24.3733C83.9718 24.0954 83.8418 23.8355 83.663 23.61C83.4782 23.377 83.2407 23.1909 82.9698 23.0667C82.6434 22.9182 82.2871 22.8464 81.9284 22.8567Z" fill="#161616"/>
<path d="M95.2087 20.2434C95.9973 20.234 96.7811 20.3661 97.5226 20.6334C98.1991 20.8791 98.8146 21.2667 99.3274 21.77C99.8452 22.2894 100.247 22.9119 100.506 23.5967C100.8 24.3799 100.944 25.2108 100.931 26.0467C100.934 26.2795 100.921 26.5121 100.895 26.7434C100.879 26.8935 100.832 27.0388 100.757 27.17C100.698 27.2721 100.604 27.35 100.493 27.39C100.357 27.4368 100.214 27.4583 100.071 27.4534H92.7308C92.8514 28.51 93.1762 29.28 93.6986 29.7567C94.2565 30.2452 94.9821 30.5007 95.7244 30.47C96.1109 30.4774 96.4962 30.4246 96.8663 30.3134C97.1597 30.2164 97.4451 30.0972 97.7201 29.9567L98.4066 29.6034C98.6134 29.4965 98.8433 29.4416 99.0763 29.4434C99.2102 29.4361 99.3438 29.4628 99.4645 29.5212C99.5852 29.5795 99.689 29.6674 99.7661 29.7767L100.871 31.1334C100.505 31.5593 100.076 31.9279 99.5987 32.2267C99.1612 32.5049 98.6911 32.7288 98.199 32.8934C97.7325 33.0517 97.2512 33.1634 96.7625 33.2267C96.3096 33.2877 95.8532 33.3189 95.3963 33.32C94.5399 33.3255 93.6894 33.1787 92.8849 32.8867C92.1173 32.6068 91.4186 32.167 90.8356 31.5967C90.2279 30.9925 89.7545 30.2679 89.4459 29.47C89.0899 28.5254 88.9172 27.5221 88.937 26.5134C88.9335 25.6914 89.081 24.8758 89.3723 24.1067C89.6521 23.358 90.0832 22.6744 90.639 22.0982C91.1948 21.522 91.8634 21.0654 92.6036 20.7567C93.4273 20.4092 94.3141 20.2344 95.2087 20.2434ZM95.2824 22.8567C94.9711 22.839 94.6595 22.8845 94.3665 22.9905C94.0735 23.0965 93.8052 23.2608 93.578 23.4734C93.1237 23.9667 92.8357 24.5891 92.7543 25.2534H97.5025C97.5039 24.9563 97.4656 24.6604 97.3886 24.3734C97.3129 24.0965 97.1832 23.8371 97.0069 23.61C96.8206 23.3785 96.5835 23.1927 96.3138 23.0667C95.9902 22.9204 95.6377 22.8486 95.2824 22.8567Z" fill="#161616"/>
<path d="M107.521 24.1534L101.986 15.4867H106.148C106.353 15.4741 106.557 15.5107 106.744 15.5934C106.883 15.6733 106.999 15.7882 107.079 15.9267L110.639 21.9267C110.679 21.8215 110.726 21.7191 110.779 21.62C110.833 21.5234 110.89 21.4234 110.957 21.3167L114.074 15.9834C114.152 15.8295 114.271 15.7002 114.418 15.6096C114.566 15.519 114.735 15.4707 114.908 15.47H118.873L113.267 23.97L119 33.3034H114.855C114.615 33.317 114.378 33.2475 114.185 33.1067C114.021 32.9803 113.885 32.8228 113.783 32.6434L110.2 26.41C110.142 26.5713 110.068 26.7265 109.979 26.8734L106.631 32.6434C106.529 32.8179 106.396 32.9727 106.239 33.1C106.064 33.2384 105.846 33.3105 105.623 33.3034H101.765L107.521 24.1534Z" fill="#F4C600"/>
</svg>
