<svg width="19" height="20" viewBox="0 0 19 20" fill="none" xmlns="http://www.w3.org/2000/svg">
<path d="M3.19652 15.7677C4.043 18.0971 6.12237 19.5974 8.54376 19.9299C9.5302 20.063 10.5316 20.0045 11.4979 19.7573C12.4466 19.5183 13.3495 19.1108 14.1674 18.5524C16.9682 16.6338 18.304 13.1852 17.2063 10.157C16.1439 7.25056 13.1646 5.62846 9.99962 5.9694C9.26278 6.04932 8.5392 6.23088 7.84761 6.50939C7.61959 6.60257 7.39528 6.70457 7.17466 6.81539C6.23634 7.28753 5.39257 7.94339 4.6887 8.74773C2.98364 10.7044 2.32381 13.3674 3.19652 15.7677Z" fill="#FFC702"/>
<path d="M8.38536 14.1879C9.01124 15.9323 9.87367 17.5727 10.946 19.0585C11.1236 19.302 11.3052 19.5367 11.4908 19.7626C12.4396 19.5236 13.3425 19.1161 14.1604 18.5577C13.6625 18.0279 13.2079 17.4552 12.8014 16.8456C12.0408 15.7034 11.4186 14.4664 10.949 13.163C10.4041 11.6853 10.0644 10.1331 9.9401 8.55396C9.87208 7.69268 9.89204 6.82622 9.99962 5.96939C9.26278 6.04931 8.53921 6.23088 7.84761 6.50939C7.6196 6.60256 7.39528 6.70456 7.17467 6.81539C7.13727 7.69357 7.16763 8.5735 7.26547 9.44655C7.44944 11.0697 7.82564 12.6625 8.38536 14.1879Z" fill="#453C36"/>
<path d="M3.19652 15.7677C4.043 18.0971 6.12237 19.5974 8.54376 19.9299C8.19832 19.527 7.87623 19.1027 7.57924 18.6593C6.81672 17.5164 6.19278 16.2783 5.72183 14.9736C5.17642 13.496 4.83662 11.9438 4.71292 10.3646C4.67323 9.82664 4.66548 9.28666 4.68971 8.74774C2.98364 10.7044 2.32382 13.3674 3.19652 15.7677Z" fill="#453C36"/>
<path d="M13.662 11.1978C13.6035 11.7061 13.3169 12.0872 13.0233 12.0449C12.7297 12.0025 12.5391 11.5653 12.5986 11.057C12.6581 10.5488 12.9426 10.1666 13.2372 10.21C13.5318 10.2534 13.7205 10.6938 13.662 11.1978Z" fill="#744E32"/>
<path d="M16.9833 11.4054C16.9248 11.9136 16.6383 12.2948 16.3447 12.2524C16.0511 12.2101 15.8604 11.7728 15.9199 11.2645C15.9794 10.7563 16.2639 10.3741 16.5575 10.4175C16.8511 10.4609 17.0418 10.8971 16.9833 11.4054Z" fill="#744E32"/>
<path d="M3.23991 14.2621L1.67105 15.8238C1.64299 15.8691 1.6257 15.9209 1.62064 15.9747C1.61558 16.0285 1.62289 16.0827 1.64197 16.133C1.66105 16.1832 1.69133 16.2278 1.73028 16.2632C1.76922 16.2986 1.81569 16.3237 1.86577 16.3363L4.05915 16.3511L3.23991 14.2621Z" fill="#453C36"/>
<path d="M15.3661 7.36912C15.5523 6.90938 15.7919 6.47552 16.0794 6.07737C16.3188 5.73833 16.612 5.445 16.946 5.21019C17.2985 4.96197 17.719 4.84252 18.1426 4.87031H18.1678C18.1925 4.8727 18.2152 4.88525 18.231 4.90521C18.2468 4.92516 18.2544 4.95089 18.2521 4.97672C18.2498 5.00256 18.2378 5.02639 18.2188 5.04297C18.1998 5.05955 18.1753 5.06752 18.1507 5.06514H18.1285C17.7452 5.03997 17.3646 5.14827 17.0459 5.37325C16.5677 5.6909 16.1873 6.20972 15.9301 6.64383C15.8019 6.86301 15.7031 7.06736 15.6375 7.20501C15.6042 7.27701 15.58 7.33524 15.5628 7.37442L15.5447 7.41995V7.43159C15.5402 7.44348 15.5335 7.45432 15.525 7.4635C15.5165 7.47267 15.5063 7.48 15.4951 7.48506C15.4839 7.49013 15.4719 7.49283 15.4597 7.49301C15.4475 7.49319 15.4354 7.49085 15.4241 7.48612C15.4128 7.4814 15.4024 7.47437 15.3937 7.46545C15.385 7.45654 15.378 7.4459 15.3732 7.43415C15.3683 7.4224 15.3658 7.40977 15.3656 7.39698C15.3654 7.38419 15.3676 7.37148 15.3721 7.35959L15.3661 7.36912Z" fill="#2D221C"/>
<path d="M13.0829 7.52375C13.0666 7.25216 13.069 6.97969 13.0899 6.70846C13.1205 6.18598 13.2326 5.67231 13.4218 5.188C13.5272 4.92843 13.6723 4.68878 13.8516 4.47859C14.0418 4.26032 14.2773 4.09079 14.5397 3.98306C14.5624 3.97576 14.5869 3.97774 14.6082 3.98861C14.6296 3.99948 14.6462 4.01842 14.6547 4.04164C14.6633 4.06485 14.6632 4.09061 14.6544 4.11372C14.6456 4.13684 14.6288 4.1556 14.6073 4.16624C14.3715 4.26232 14.1601 4.41455 13.9899 4.61094C13.7444 4.90801 13.5646 5.25838 13.4632 5.63693C13.364 5.99096 13.3014 6.35518 13.2766 6.72328C13.2604 6.95199 13.2584 7.14681 13.2604 7.28869C13.2604 7.35857 13.2604 7.41363 13.2604 7.45069C13.2604 7.46975 13.2604 7.48457 13.2604 7.4941V7.50787C13.2624 7.5337 13.2546 7.55931 13.2386 7.57907C13.2226 7.59883 13.1998 7.61111 13.1752 7.61322C13.1506 7.61532 13.1261 7.60708 13.1073 7.5903C13.0885 7.57352 13.0768 7.54958 13.0748 7.52375H13.0829Z" fill="#2D221C"/>
<path d="M17.8479 4.94657C17.8407 5.04704 17.862 5.14751 17.9091 5.23531C17.9561 5.32311 18.0269 5.39433 18.1125 5.43998C18.1981 5.48563 18.2947 5.50367 18.39 5.49183C18.4853 5.47999 18.5752 5.4388 18.6483 5.37345C18.7213 5.30809 18.7743 5.22151 18.8006 5.12459C18.8269 5.02768 18.8252 4.92478 18.7958 4.82886C18.7664 4.73294 18.7107 4.64829 18.6355 4.58558C18.5604 4.52286 18.4692 4.4849 18.3736 4.47646C18.3095 4.47052 18.245 4.47803 18.1838 4.49854C18.1225 4.51904 18.0658 4.55214 18.0169 4.5959C17.9679 4.63966 17.9278 4.6932 17.8988 4.75341C17.8698 4.81361 17.8525 4.87928 17.8479 4.94657Z" fill="#2D221C"/>
<path d="M14.2249 4.04657C14.2176 4.14723 14.2389 4.2479 14.2862 4.33585C14.3334 4.4238 14.4044 4.49508 14.4902 4.54068C14.576 4.58627 14.6728 4.60413 14.7683 4.592C14.8638 4.57987 14.9537 4.53829 15.0267 4.47252C15.0996 4.40675 15.1524 4.31975 15.1782 4.22251C15.2041 4.12528 15.2019 4.02218 15.1719 3.92626C15.1419 3.83034 15.0855 3.74591 15.0098 3.68365C14.9341 3.62138 14.8425 3.58408 14.7466 3.57646C14.6829 3.57125 14.6188 3.5793 14.5581 3.60013C14.4974 3.62096 14.4412 3.65417 14.3927 3.69785C14.3443 3.74152 14.3045 3.79481 14.2757 3.85465C14.2469 3.9145 14.2297 3.97972 14.2249 4.04657Z" fill="#2D221C"/>
<path d="M13.8698 12.7268C13.8583 12.8449 13.8695 12.9642 13.9027 13.0777C13.936 13.1912 13.9907 13.2965 14.0635 13.3874C14.1363 13.4783 14.2257 13.5529 14.3266 13.6068C14.4274 13.6607 14.5375 13.6928 14.6503 13.7011C14.7632 13.7095 14.8765 13.694 14.9835 13.6555C15.0906 13.6171 15.1891 13.5564 15.2734 13.4772C15.3577 13.3979 15.4259 13.3017 15.474 13.1943C15.5222 13.0868 15.5493 12.9703 15.5537 12.8517C15.5581 12.8097 15.5777 12.7712 15.6086 12.7442C15.6395 12.7171 15.6791 12.7037 15.7193 12.7067C15.7594 12.7098 15.7968 12.729 15.8237 12.7604C15.8506 12.7917 15.8648 12.8328 15.8634 12.875C15.8367 13.1911 15.6928 13.4835 15.4627 13.6894C15.2326 13.8953 14.9347 13.9983 14.633 13.9761C14.3314 13.9539 14.0501 13.8083 13.8496 13.5708C13.6492 13.3332 13.5456 13.0225 13.5611 12.7056C13.564 12.6626 13.5831 12.6226 13.6142 12.5944C13.6452 12.5662 13.6856 12.5521 13.7266 12.5552C13.7675 12.5583 13.8056 12.5783 13.8325 12.6109C13.8593 12.6435 13.8728 12.6859 13.8698 12.7289V12.7268Z" fill="#744E32"/>
<path opacity="0.8" d="M5.21536 4.30388C4.84509 1.96283 5.19821 0.234843 6.42605 0.0209615C7.6539 -0.19292 9.28632 1.2439 9.65457 3.58494C10.0228 5.92599 8.20073 8.39409 7.76891 8.49891C7.39562 8.58997 5.58664 6.64598 5.21536 4.30388Z" fill="#F7F3EC"/>
<path opacity="0.8" d="M2.94835 8.60585C1.40471 7.87633 0.524943 6.92763 0.907321 6.03505C1.2897 5.14246 2.82425 4.67235 4.36486 5.39976C5.90547 6.12716 6.61575 8.35174 6.49871 8.68209C6.39782 8.9595 4.49199 9.33538 2.94835 8.60585Z" fill="#DAD2CA"/>
</svg>
