<svg width="20" height="20" viewBox="0 0 20 20" fill="none" xmlns="http://www.w3.org/2000/svg">
<path d="M15.9814 2.47758C14.3838 0.879884 12.2595 0 10.0001 0C7.74061 0 5.61631 0.879884 4.01865 2.47758C2.42095 4.07532 1.54107 6.19954 1.54107 8.45896C1.54107 13.0298 5.86287 16.8315 8.18471 18.8739C8.50737 19.1578 8.786 19.4029 9.008 19.6102C9.28612 19.87 9.64312 20 10 20C10.357 20 10.7139 19.87 10.9921 19.6102C11.2141 19.4028 11.4927 19.1578 11.8154 18.8739C14.1372 16.8315 18.459 13.0298 18.459 8.45896C18.459 6.19954 17.5791 4.07532 15.9814 2.47758ZM11.0416 17.9943C10.7118 18.2844 10.4271 18.5349 10.1923 18.7541C10.0845 18.8548 9.91558 18.8548 9.80769 18.7541C9.57296 18.5348 9.28819 18.2843 8.95847 17.9943C6.77565 16.0742 2.71256 12.5 2.71256 8.459C2.71256 4.44071 5.98166 1.1716 9.99999 1.1716C14.0183 1.1716 17.2874 4.44071 17.2874 8.459C17.2874 12.5 13.2244 16.0742 11.0416 17.9943Z" fill="#FF9900"/>
<path d="M10.0001 4.41162C7.94455 4.41162 6.27228 6.08385 6.27228 8.13937C6.27228 10.1949 7.94455 11.8671 10.0001 11.8671C12.0556 11.8671 13.7278 10.1949 13.7278 8.13937C13.7278 6.08385 12.0556 4.41162 10.0001 4.41162ZM10.0001 10.6955C8.59056 10.6955 7.44384 9.54879 7.44384 8.13933C7.44384 6.72987 8.59056 5.58315 10.0001 5.58315C11.4096 5.58315 12.5562 6.72987 12.5562 8.13933C12.5562 9.54879 11.4096 10.6955 10.0001 10.6955Z" fill="#FF9900"/>
</svg>
