<svg width="16" height="17" viewBox="0 0 16 17" fill="none" xmlns="http://www.w3.org/2000/svg">
<g clip-path="url(#clip0)">
<path d="M14.2734 0.713867H1.72697C0.902371 0.713867 0.234375 1.37255 0.234375 2.19751V11.3398C0.234375 11.8551 0.500283 12.3346 0.937849 12.6073L7.16985 16.4881C7.65078 16.7877 8.25928 16.7895 8.742 16.4928L15.0561 12.6063C15.4969 12.3346 15.7656 11.8533 15.7656 11.3351V2.19751C15.766 1.3729 15.098 0.713867 14.2734 0.713867ZM11.8963 7.01503L7.70668 11.2043C7.33649 11.5745 6.73622 11.5745 6.36639 11.2043L4.29001 9.12796C4.1119 8.95021 4.01228 8.70903 4.01228 8.45781C4.01228 8.20624 4.1119 7.96542 4.29001 7.78767V7.78731C4.46776 7.60956 4.70858 7.50993 4.96016 7.50993C5.21137 7.50993 5.45219 7.60992 5.62959 7.78767L6.86703 9.02511C6.91218 9.0699 6.9731 9.09535 7.03618 9.09535C7.09997 9.09535 7.16089 9.07026 7.20604 9.02511L10.5561 5.6751C10.7342 5.49735 10.9753 5.39736 11.2266 5.39772C11.4774 5.39772 11.719 5.49735 11.8967 5.67546C12.2662 6.04493 12.2662 6.64484 11.8963 7.01503Z" fill="#C8C8C8"/>
</g>
<defs>
<clipPath id="clip0">
<rect width="16.0004" height="16" fill="white" transform="translate(0 0.713867)"/>
</clipPath>
</defs>
</svg>
