<svg width="16" height="17" viewBox="0 0 16 17" fill="none" xmlns="http://www.w3.org/2000/svg">
<g clip-path="url(#clip0)">
<path d="M2.61182 5.94092H0.522376C0.235125 5.94092 0 6.17486 0 6.46326V15.8658C0 16.1541 0.234094 16.3881 0.522376 16.3881H2.61182C2.9001 16.3881 3.13419 16.1541 3.13419 15.8658V6.46326C3.13419 6.17486 2.89904 5.94092 2.61182 5.94092Z" fill="#C8C8C8"/>
<path d="M14.6959 5.94075C14.6117 5.9265 10.6728 5.94075 10.6728 5.94075L11.2229 4.43975C11.6026 3.40306 11.3568 1.82015 10.3034 1.2574C9.96047 1.07415 9.48128 0.982118 9.09494 1.07937C8.87338 1.13512 8.67866 1.28181 8.56259 1.47834C8.42913 1.70437 8.44291 1.96821 8.39537 2.21884C8.27484 2.85453 7.97447 3.45894 7.50931 3.91259C6.69831 4.70356 4.17896 6.98544 4.17896 6.98544V15.3433H12.885C14.0598 15.344 14.8296 14.0321 14.2502 13.0074C14.9409 12.565 15.1771 11.6333 14.7726 10.9179C15.4633 10.4756 15.6995 9.54385 15.295 8.82848C16.4867 8.06526 16.0883 6.17625 14.6959 5.94075Z" fill="#C8C8C8"/>
</g>
<defs>
<clipPath id="clip0">
<rect width="16" height="16" fill="white" transform="translate(0 0.713867)"/>
</clipPath>
</defs>
</svg>
