<svg width="198" height="169" viewBox="0 0 198 169" fill="none" xmlns="http://www.w3.org/2000/svg">
<path d="M197.057 70.0584V88.8305L179.008 99.1565L160.959 88.8305V70.0583L179.008 59.7323L197.057 70.0584Z" stroke="#FFE99A" stroke-opacity="0.3"/>
<path d="M157.64 70.0584V88.8305L139.591 99.1565L121.542 88.8305V70.0583L139.591 59.7323L157.64 70.0584Z" stroke="#FFE99A" stroke-opacity="0.3"/>
<path d="M177.928 37.5974V56.3696L159.879 66.6956L141.83 56.3696V37.5974L159.879 27.2714L177.928 37.5974Z" stroke="#FFC702" stroke-opacity="0.3"/>
<path d="M118.598 69.823V88.5952L100.549 98.9212L82.5 88.5952V69.8229L100.549 59.4969L118.598 69.823Z" stroke="#FFC702" stroke-opacity="0.3"/>
<path d="M138.511 37.5974V56.3696L120.462 66.6956L102.413 56.3696V37.5974L120.462 27.2714L138.511 37.5974Z" stroke="#FFE99A" stroke-opacity="0.3"/>
<path d="M10.5 125.37V106.598L28.5492 96.2717L46.5983 106.598V125.37L28.5492 135.696L10.5 125.37Z" stroke="#FFE99A" stroke-opacity="0.5"/>
<path d="M49.917 125.37V106.598L67.9661 96.2717L86.0153 106.598V125.37L67.9661 135.696L49.917 125.37Z" stroke="#FFE99A" stroke-opacity="0.5"/>
<path d="M29.6288 157.831V139.059L47.678 128.733L65.7271 139.059V157.831L47.678 168.157L29.6288 157.831Z" stroke="#FFC702" stroke-opacity="0.4"/>
<path d="M88.9585 125.605V106.833L107.008 96.5071L125.057 106.833V125.605L107.008 135.931L88.9585 125.605Z" stroke="#FFC702" stroke-opacity="0.4"/>
<path d="M69.0458 157.831V139.059L87.0949 128.733L105.144 139.059V157.831L87.0949 168.157L69.0458 157.831Z" stroke="#FFE99A" stroke-opacity="0.5"/>
<g clip-path="url(#clip0)">
<path d="M111.365 139.529L105.792 152.816C104.905 154.001 103.111 153.982 102.263 152.759L96.9018 139.166L111.365 139.529Z" fill="#453C36"/>
<path opacity="0.8" d="M169.487 87.5474C183.294 81.2768 191.124 73.1899 187.633 65.6575C184.143 58.125 170.413 54.225 156.605 60.4957C142.798 66.7663 136.588 85.5974 137.668 88.3504C138.575 90.7592 155.68 93.8181 169.487 87.5474Z" fill="#FAF9F8"/>
<path opacity="0.8" d="M155.217 115.326C164.878 121.252 173.209 122.724 176.506 117.448C179.804 112.171 176.526 102.058 166.864 96.1506C157.203 90.2241 142.779 94.2197 141.487 96.0168C140.368 97.5653 145.536 109.399 155.217 115.326Z" fill="#D2C9C1"/>
<path opacity="0.8" d="M46.5319 87.5474C32.7246 81.2768 24.8953 73.1899 28.3857 65.6575C31.8761 58.125 45.6063 54.225 59.4137 60.4957C73.221 66.7663 79.4305 85.5974 78.3506 88.3504C77.4249 90.7592 60.32 93.8181 46.5319 87.5474Z" fill="#FAF9F8"/>
<path opacity="0.8" d="M60.8021 115.326C51.1408 121.252 42.8101 122.724 39.5126 117.448C36.215 112.171 39.4933 102.058 49.1546 96.1506C58.8159 90.2241 73.2403 94.2197 74.5324 96.0168C75.6315 97.5653 70.4634 109.399 60.8021 115.326Z" fill="#D2C9C1"/>
<path d="M146.963 100.108C146.963 100.892 146.925 101.695 146.886 102.498C146.79 104.027 146.635 105.538 146.423 107.029C145.459 113.663 143.28 119.8 140.156 125.153C140.079 125.286 140.002 125.439 139.905 125.573C131.979 138.879 118.23 147.329 103.131 146.45C90.1717 145.704 79.0255 138.248 72.1218 127.236C71.1384 125.669 70.2513 124.025 69.4414 122.323C66.9152 116.951 65.3146 110.948 64.8518 104.582C64.7939 103.855 64.7553 103.148 64.7553 102.421C64.7168 100.892 64.7361 99.3243 64.8325 97.7567C65.0639 93.914 65.7003 90.2051 66.6838 86.6874C66.9344 85.7889 67.2044 84.9095 67.513 84.0301C73.8381 65.5049 90.191 52.7342 108.588 53.8048C124.69 54.7224 137.996 66.0019 143.82 81.6212C144.688 83.9345 145.382 86.3433 145.903 88.8478C146.655 92.4419 147.021 96.2273 146.963 100.108Z" fill="#FDDA47"/>
<path d="M146.963 100.108C143.569 101.446 140.021 102.632 136.357 103.645C126.811 106.283 116.379 107.851 105.464 108.118C92.91 108.405 80.9539 106.933 70.1356 104.027C68.3036 103.53 66.5102 102.995 64.7553 102.421C64.7168 100.892 64.7361 99.3241 64.8325 97.7565C65.0639 93.9138 65.7003 90.2049 66.6838 86.6872C66.9344 85.7887 67.2044 84.9093 67.513 84.0299C70.9455 85.3108 74.6288 86.4005 78.5241 87.299C86.6234 89.1534 95.6098 90.0902 105.04 89.8799C115.877 89.6314 126.04 87.8726 134.891 85.0431C138.054 84.0299 141.024 82.9019 143.82 81.6401C144.688 83.9534 145.382 86.3622 145.903 88.8667C146.655 92.4417 147.021 96.227 146.963 100.108Z" fill="#453C36"/>
<path d="M139.905 125.554C131.979 138.879 118.23 147.329 103.131 146.449C90.1717 145.704 79.0255 138.248 72.1218 127.236C74.4745 127.982 76.9428 128.651 79.4883 129.243C87.5876 131.098 96.574 132.035 106.004 131.824C116.841 131.576 127.004 129.817 135.856 126.988C137.225 126.529 138.575 126.051 139.905 125.554Z" fill="#453C36"/>
<path d="M89.1882 74.4327C89.1882 77.2813 90.5959 79.5754 92.3315 79.5754C94.067 79.5754 95.4748 77.2622 95.4748 74.4327C95.4748 71.5842 94.067 69.29 92.3315 69.29C90.5959 69.29 89.1882 71.5842 89.1882 74.4327Z" fill="#453C36"/>
<path d="M116.572 74.4327C116.572 77.2813 117.979 79.5754 119.715 79.5754C121.45 79.5754 122.858 77.2622 122.858 74.4327C122.858 71.5842 121.45 69.29 119.715 69.29C117.999 69.29 116.572 71.5842 116.572 74.4327Z" fill="#453C36"/>
<path d="M110.709 55.3722C110.709 55.334 111.596 50.9942 113.93 46.4633C115.106 44.1883 116.629 41.875 118.635 40.0206C120.64 38.1661 123.128 36.7897 126.136 36.4647C126.194 36.4647 126.252 36.4455 126.31 36.4455C126.657 36.4073 126.966 36.675 126.985 37C127.023 37.3441 126.753 37.65 126.426 37.6691C126.387 37.6691 126.329 37.6691 126.271 37.6882C123.572 37.975 121.335 39.1985 119.483 40.9191C116.687 43.4809 114.778 47.1707 113.602 50.2104C113.004 51.7207 112.58 53.0972 112.329 54.0531C112.194 54.531 112.098 54.9325 112.04 55.2001C112.001 55.334 111.982 55.4296 111.963 55.506L111.943 55.5825V55.6016C111.886 55.9457 111.538 56.156 111.211 56.0796C110.863 56.0413 110.651 55.7163 110.709 55.3722Z" fill="#2D221C"/>
<path d="M101.877 54.1868C101.877 54.1677 101.337 52.0648 100.122 49.3118C98.9845 46.7118 97.2682 43.5382 94.8384 40.9191C93.6235 39.6191 92.2351 38.4529 90.6345 37.6117C89.0339 36.7514 87.2405 36.2161 85.235 36.1396C84.8879 36.1205 84.5986 36.3882 84.5793 36.7323C84.56 37.0764 84.83 37.3632 85.1771 37.3823C86.9705 37.4588 88.5711 37.9367 90.0174 38.7014C92.1965 39.8676 94.0092 41.6838 95.4941 43.7103C96.979 45.7177 98.1167 47.9353 98.9459 49.8089C99.5245 51.1471 99.9487 52.3133 100.238 53.1545C100.373 53.5751 100.469 53.9192 100.547 54.1486C100.585 54.2633 100.604 54.3589 100.624 54.4163L100.643 54.4736V54.4927C100.72 54.8177 101.067 55.028 101.395 54.9324C101.761 54.856 101.954 54.5119 101.877 54.1868Z" fill="#2D221C"/>
<path d="M124.285 37.2867C124.478 39.0647 126.079 40.3456 127.872 40.1544C129.665 39.9632 130.957 38.3764 130.765 36.5985C130.572 34.8205 128.971 33.5396 127.178 33.7308C125.384 33.9029 124.092 35.5088 124.285 37.2867Z" fill="#2D221C"/>
<path d="M87.3755 35.8335C88.089 37.4777 87.3369 39.3703 85.6785 40.0968C84.0201 40.8042 82.111 40.0586 81.3782 38.4144C80.6647 36.7703 81.4167 34.8776 83.0752 34.1512C84.7336 33.4438 86.6427 34.1894 87.3755 35.8335Z" fill="#2D221C"/>
<path d="M111.037 80.1874C111.095 81.7359 110.497 83.1506 109.514 84.2021C108.511 85.2536 107.142 85.9227 105.56 85.9801C103.998 86.0374 102.571 85.4448 101.511 84.4698C100.45 83.4757 99.7752 82.1183 99.7173 80.5506C99.698 79.9771 99.2159 79.5374 98.6374 79.5565C98.0589 79.5756 97.6154 80.0536 97.6346 80.6271C97.7696 84.8712 101.356 88.1977 105.637 88.0448C109.919 87.911 113.274 84.3551 113.12 80.1109C113.1 79.5374 112.618 79.0977 112.04 79.1168C111.481 79.1359 111.018 79.6139 111.037 80.1874Z" fill="#453C36"/>
<path d="M61.1492 81.1622C61.5735 80.971 62.0748 81.1431 62.287 81.5636C62.3063 81.5828 62.7691 82.5387 63.5597 83.3225C63.9647 83.724 64.4275 84.0681 64.9482 84.2593C65.4688 84.4504 66.0281 84.5269 66.703 84.3549C67.1658 84.2401 67.6286 84.5078 67.7444 84.9666C67.8601 85.4255 67.5901 85.8843 67.1273 85.999C66.0859 86.2666 65.1024 86.1519 64.2925 85.8269C63.6754 85.5784 63.1547 85.2343 62.7112 84.8519C62.0556 84.2784 61.5735 83.6475 61.2456 83.1504C60.9178 82.6534 60.7442 82.2901 60.7442 82.271C60.5321 81.8695 60.7057 81.3533 61.1492 81.1622Z" fill="#2D221C"/>
<path d="M150.531 81.1622C150.106 80.971 149.605 81.1431 149.393 81.5636C149.374 81.5828 148.911 82.5387 148.12 83.3225C147.715 83.724 147.252 84.0681 146.732 84.2593C146.211 84.4504 145.652 84.5269 144.977 84.3549C144.514 84.2401 144.051 84.5078 143.936 84.9666C143.82 85.4255 144.09 85.8843 144.553 85.999C145.594 86.2666 146.577 86.1519 147.387 85.8269C148.004 85.5784 148.525 85.2343 148.969 84.8519C149.624 84.2784 150.106 83.6475 150.434 83.1504C150.762 82.6534 150.936 82.2901 150.936 82.271C151.148 81.8695 150.955 81.3533 150.531 81.1622Z" fill="#2D221C"/>
<path d="M18.627 77.1858C16.795 77.1858 15.0209 75.6372 14.3266 73.4195L0.731409 30.2515C-0.0978044 27.6132 0.904965 24.9558 2.94907 24.3058L78.8317 0.829137C79.1403 0.733548 79.4488 0.695312 79.7574 0.695312C81.5893 0.695312 83.3635 2.24386 84.0577 4.46153L97.6337 47.6296C98.4629 50.2679 97.4601 52.9252 95.416 53.5752L19.5526 77.0328C19.2634 77.1284 18.9355 77.1858 18.627 77.1858Z" fill="#453C36"/>
<path d="M94.0864 52.8101L20.2285 75.6559C18.3194 76.2486 16.2946 75.1971 15.6968 73.3045L1.92796 29.5628C1.33016 27.6702 2.39078 25.6628 4.2999 25.0702L78.1577 2.22435C80.0669 1.63169 82.0917 2.68317 82.6895 4.57584L96.4583 48.3174C97.0561 50.2101 95.9955 52.2175 94.0864 52.8101Z" fill="#FFF5EE"/>
<path d="M56.2897 65.3711L69.7306 107.717C69.8656 108.119 70.2899 108.348 70.6948 108.214C71.0998 108.08 71.3312 107.66 71.1962 107.258L57.7552 64.9123C57.6203 64.5108 57.196 64.2814 56.791 64.4152C56.3861 64.549 56.1739 64.9696 56.2897 65.3711Z" fill="#453C36"/>
<path d="M17.4022 32.4979C19.0214 31.9799 20.4092 32.0189 21.5658 32.6148C22.7193 33.2012 23.5536 34.2992 24.0685 35.9089C24.5834 37.5185 24.5382 38.9031 23.9327 40.0628C23.3368 41.2193 22.234 42.0551 20.6243 42.57L17.2384 43.6532L15.7576 39.0243L14.4432 39.4448L14.137 38.4876L15.4514 38.0671L14.0162 33.581L17.4022 32.4979ZM20.2473 41.5882C21.5426 41.1738 22.4107 40.5234 22.8516 39.6369C23.2924 38.7504 23.298 37.6357 22.8684 36.2928C22.0092 33.6069 20.2747 32.6813 17.665 33.5162L15.5077 34.2063L16.6229 37.6923L19.3802 36.8102L19.6864 37.7674L16.9291 38.6495L18.09 42.2784L20.2473 41.5882ZM32.0665 29.2083L32.1853 29.5798C32.3712 30.1608 32.3759 30.6842 32.1995 31.1501C32.02 31.6065 31.6773 31.9629 31.1713 32.2192L33.196 38.5483L32.0674 38.9093L31.688 37.7235C31.603 38.2127 31.3955 38.6308 31.0656 38.9778C30.7452 39.3218 30.3373 39.573 29.8421 39.7315C29.0134 39.9965 28.3164 39.9675 27.7511 39.6444C27.1827 39.3118 26.7538 38.6931 26.4643 37.7882L25.0841 33.4736L26.2413 33.1034L27.6124 37.3894C27.8105 38.0085 28.0806 38.4261 28.4227 38.6421C28.7617 38.8487 29.1979 38.8666 29.7313 38.696C30.3408 38.501 30.7689 38.1488 31.0154 37.6395C31.2589 37.1206 31.2771 36.5373 31.0699 35.8897L29.813 31.9608L30.1559 31.8511C30.6702 31.6866 31.002 31.4439 31.1514 31.1232C31.2977 30.7929 31.278 30.3372 31.0921 29.7563L31.0235 29.542L32.0665 29.2083ZM38.8171 27.4582C38.9756 27.9535 38.9954 28.4091 38.8765 28.8251C38.7671 29.2381 38.5257 29.583 38.1523 29.86C38.6594 30.0337 39.0984 30.3395 39.4695 30.7773C39.85 31.212 40.1424 31.7484 40.3465 32.3866C40.5781 33.1104 40.6441 33.7927 40.5446 34.4335C40.4516 35.0617 40.1999 35.6042 39.7896 36.061C39.3793 36.5177 38.8455 36.8512 38.1883 37.0614C37.5311 37.2717 36.9029 37.3099 36.3036 37.1761C35.7139 37.0393 35.1941 36.7436 34.7442 36.2891C34.3008 35.822 33.9633 35.2265 33.7317 34.5027C33.5002 33.7788 33.4309 33.1028 33.5239 32.4745C33.6234 31.8338 33.8736 31.2865 34.2744 30.8328C34.6847 30.3761 35.2185 30.0426 35.8757 29.8323C36.0185 29.7866 36.2389 29.7371 36.5369 29.6838C36.6984 29.6636 36.8315 29.6368 36.9363 29.6033C37.3744 29.4631 37.6602 29.2405 37.7935 28.9353C37.9334 28.6176 37.915 28.1825 37.7382 27.6301L37.6697 27.4158L38.6983 27.0867L38.8171 27.4582ZM37.8821 36.1042C38.5678 35.8848 39.0201 35.4934 39.2388 34.93C39.464 34.354 39.438 33.6326 39.1607 32.7659C38.8895 31.9182 38.4951 31.3252 37.9774 30.9869C37.4566 30.639 36.8581 30.5732 36.1819 30.7896C35.5056 31.0059 35.0565 31.4068 34.8343 31.9923C34.6091 32.5684 34.6321 33.2802 34.9033 34.1279C35.1775 34.9851 35.5687 35.5844 36.0769 35.9258C36.5946 36.2641 37.1963 36.3236 37.8821 36.1042ZM37.9287 38.5146L39.2431 38.0941L39.6453 39.3514L38.3309 39.7719L37.9287 38.5146ZM45.8844 34.5994C45.1986 34.8188 44.5561 34.8616 43.9569 34.7278C43.3576 34.594 42.8346 34.3047 42.3877 33.8596C41.9474 33.4021 41.6114 32.8113 41.3798 32.0875C41.1483 31.3636 41.0838 30.6861 41.1863 30.0548C41.2953 29.411 41.5535 28.8559 41.9607 28.3896C42.3776 27.9203 42.9289 27.576 43.6146 27.3566C44.0813 27.2073 44.5659 27.1468 45.0684 27.175C45.5679 27.1937 45.9999 27.297 46.3645 27.4848L46.2529 28.4654C45.4251 28.1423 44.6731 28.0889 43.9968 28.3052C43.2825 28.5338 42.8 28.9454 42.5492 29.54C42.2985 30.1347 42.3087 30.8559 42.5799 31.7036C42.8481 32.5417 43.2553 33.1254 43.8015 33.4546C44.3478 33.7838 44.9781 33.8342 45.6925 33.6056C46.3687 33.3893 46.9501 32.9093 47.4367 32.1657L48.0966 32.8995C47.8897 33.2702 47.5884 33.6081 47.1925 33.9132C46.7967 34.2183 46.3606 34.4471 45.8844 34.5994ZM58.3204 22.6521C59.8633 22.1585 60.9289 22.8308 61.5169 24.6691L62.9155 29.0408L61.7582 29.411L60.378 25.0964C60.1738 24.4583 59.9102 24.0281 59.5872 23.806C59.2737 23.5808 58.8693 23.5475 58.374 23.7059C57.793 23.8918 57.3983 24.2333 57.1899 24.7304C56.9814 25.2276 56.9854 25.8143 57.2017 26.4905L58.4723 30.4622L57.3151 30.8324L55.9348 26.5178C55.7276 25.8702 55.464 25.44 55.144 25.2274C54.821 25.0053 54.4118 24.9734 53.9165 25.1319C53.3355 25.3177 52.9408 25.6592 52.7324 26.1564C52.524 26.6535 52.5279 27.2402 52.7442 27.9165L54.0148 31.8882L52.8576 32.2584L50.6318 25.3007L51.7747 24.9351L52.1267 26.0352C52.2052 25.5586 52.3951 25.1514 52.6965 24.8135C52.9979 24.4756 53.3915 24.2289 53.8772 24.0735C54.9535 23.7292 55.8093 23.9594 56.4447 24.7641C56.5076 24.2715 56.7057 23.8406 57.0391 23.4715C57.3694 23.0928 57.7965 22.8197 58.3204 22.6521ZM68.3697 19.6263L70.5955 26.5839L69.4668 26.945L69.0875 25.7592C69.0025 26.2483 68.795 26.6664 68.4651 27.0135C68.1447 27.3575 67.7368 27.6087 67.2415 27.7671C66.4129 28.0322 65.7159 28.0032 65.1506 27.6801C64.5822 27.3475 64.1533 26.7287 63.8638 25.8239L62.4836 21.5093L63.6408 21.1391L65.0119 25.4251C65.21 26.0442 65.48 26.4618 65.8221 26.6778C66.1612 26.8843 66.5974 26.9023 67.1308 26.7316C67.7403 26.5366 68.1684 26.1845 68.4149 25.6751C68.6584 25.1563 68.6765 24.573 68.4693 23.9253L67.2125 19.9965L68.3697 19.6263ZM73.0087 17.9532C73.8945 17.6699 74.6248 17.6882 75.1997 18.0083C75.781 18.3158 76.2195 18.9315 76.515 19.8553L77.9181 24.2414L76.7895 24.6024L76.4101 23.4166C76.3602 23.8841 76.186 24.2915 75.8877 24.6389C75.5863 24.9768 75.1928 25.2235 74.707 25.3789C74.2594 25.5221 73.8161 25.5641 73.3772 25.505C72.9479 25.4429 72.5719 25.285 72.2492 25.0312C71.9266 24.7775 71.7028 24.4553 71.5779 24.0648C71.4103 23.541 71.4141 23.0935 71.5894 22.7225C71.7616 22.3419 72.1327 21.9922 72.7027 21.6734C73.2696 21.345 74.0959 21.0072 75.1817 20.6598L75.496 20.5593L75.3452 20.0878C75.1594 19.5068 74.9062 19.1258 74.5859 18.9448C74.2624 18.7543 73.834 18.7444 73.3007 18.915C72.5006 19.171 71.7845 19.673 71.1524 20.4212L70.497 19.7017C70.7767 19.3287 71.1446 18.9853 71.6006 18.6714C72.0631 18.345 72.5325 18.1056 73.0087 17.9532ZM74.5717 24.4142C75.1431 24.2314 75.5489 23.8916 75.789 23.3949C76.0355 22.8855 76.0613 22.3261 75.8662 21.7165L75.7337 21.3022L75.4765 21.3845C74.6384 21.6526 74.0124 21.8948 73.5987 22.1112C73.1819 22.318 72.9057 22.5376 72.77 22.77C72.6408 22.9898 72.6281 23.2616 72.7317 23.5855C72.8505 23.9569 73.0829 24.2238 73.4288 24.3861C73.7812 24.5359 74.1621 24.5453 74.5717 24.4142ZM22.72 52.9395C24.3868 52.4063 25.5143 53.0588 26.1023 54.8971L27.5009 59.2688L26.3436 59.639L24.9679 55.3387C24.7607 54.691 24.4813 54.2607 24.1297 54.0477C23.7876 53.8317 23.3404 53.812 22.788 53.9887C22.1498 54.1929 21.7027 54.5511 21.4467 55.0635C21.1906 55.5759 21.1692 56.1655 21.3825 56.8322L22.6577 60.8182L21.5004 61.1884L19.2746 54.2307L20.4176 53.8651L20.7832 55.008C20.8747 54.5063 21.0902 54.0804 21.4296 53.7303C21.7661 53.3707 22.1962 53.1071 22.72 52.9395ZM30.5543 50.4333C32.2211 49.9001 33.3485 50.5526 33.9366 52.3908L35.3351 56.7626L34.1779 57.1328L32.8022 52.8325C32.595 52.1848 32.3156 51.7545 31.964 51.5415C31.6219 51.3254 31.1746 51.3058 30.6222 51.4825C29.9841 51.6866 29.537 52.0449 29.2809 52.5573C29.0249 53.0697 29.0035 53.6592 29.2168 54.3259L30.4919 58.3119L29.3347 58.6821L26.1126 48.61L27.2698 48.2398L28.6226 52.4687C28.7171 51.9765 28.9294 51.5568 29.2593 51.2098C29.5988 50.8597 30.0305 50.6009 30.5543 50.4333ZM37.169 56.1759L34.9432 49.2183L36.1004 48.8481L38.3262 55.8057L37.169 56.1759ZM33.8645 46.2403L35.2646 45.7924L35.6805 47.0925L34.2804 47.5404L33.8645 46.2403ZM44.977 50.0401L39.8909 51.6672C40.188 52.4645 40.6036 53.0088 41.1377 53.2999C41.6688 53.5815 42.301 53.605 43.0344 53.3704C43.8439 53.1114 44.4985 52.5975 44.998 51.8287L45.6534 52.5483C45.44 52.9315 45.1227 53.285 44.7013 53.6088C44.2768 53.9231 43.817 54.1594 43.3217 54.3179C42.2359 54.6652 41.2767 54.6204 40.4439 54.1833C39.6207 53.7432 39.0293 52.9612 38.6697 51.8373C38.4412 51.123 38.3782 50.4502 38.4807 49.819C38.5802 49.1782 38.8289 48.6262 39.2266 48.1629C39.6339 47.6967 40.1566 47.3615 40.7948 47.1573C41.7187 46.8618 42.54 46.935 43.2589 47.377C43.9747 47.8094 44.5017 48.5543 44.8399 49.6115L44.977 50.0401ZM41.097 48.0528C40.4874 48.2478 40.0579 48.5952 39.8083 49.095C39.5682 49.5918 39.5261 50.1985 39.6818 50.9151L43.725 49.6217C43.4805 48.923 43.1321 48.4412 42.6799 48.1764C42.2247 47.902 41.6971 47.8608 41.097 48.0528ZM41.9008 44.3624L39.6517 42.8456L40.866 42.4571L42.6151 44.1339L41.9008 44.3624ZM39.5142 46.748L38.4713 47.0817L39.4995 44.4377L40.271 44.1908L42.643 45.7471L41.6001 46.0808L40.1047 45L39.5142 46.748ZM51.0839 44.0548L53.3097 51.0124L52.181 51.3735L51.8017 50.1877C51.7167 50.6768 51.5092 51.0949 51.1792 51.442C50.8588 51.7859 50.451 52.0372 49.9557 52.1956C49.1271 52.4607 48.4301 52.4317 47.8647 52.1086C47.2964 51.7759 46.8674 51.1572 46.578 50.2524L45.1977 45.9378L46.3549 45.5676L47.7261 49.8536C47.9241 50.4727 48.1942 50.8903 48.5363 51.1063C48.8753 51.3128 49.3115 51.3307 49.8449 51.1601C50.4545 50.9651 50.8825 50.6129 51.1291 50.1036C51.3725 49.5847 51.3907 49.0015 51.1835 48.3538L49.9266 44.425L51.0839 44.0548ZM59.7919 41.08C61.4587 40.5468 62.5861 41.1993 63.1742 43.0375L64.5727 47.4093L63.4155 47.7795L62.0398 43.4792C61.8326 42.8315 61.5532 42.4012 61.2016 42.1882C60.8595 41.9721 60.4123 41.9525 59.8598 42.1292C59.2217 42.3333 58.7746 42.6916 58.5185 43.204C58.2625 43.7164 58.2411 44.3059 58.4544 44.9726L59.7295 48.9586L58.5723 49.3288L56.3465 42.3712L57.4895 42.0056L57.8551 43.1485C57.9466 42.6468 58.162 42.2209 58.5015 41.8708C58.8379 41.5112 59.2681 41.2476 59.7919 41.08ZM67.6262 38.5738C69.293 38.0406 70.4204 38.6931 71.0085 40.5313L72.407 44.903L71.2498 45.2732L69.8741 40.9729C69.6669 40.3253 69.3875 39.8949 69.0359 39.6819C68.6938 39.4659 68.2465 39.4462 67.6941 39.623C67.056 39.8271 66.6089 40.1854 66.3528 40.6978C66.0968 41.2101 66.0754 41.7997 66.2887 42.4664L67.5638 46.4524L66.4066 46.8226L63.1844 36.7505L64.3417 36.3803L65.6945 40.6091C65.789 40.1169 66.0013 39.6973 66.3312 39.3503C66.6707 39.0002 67.1024 38.7414 67.6262 38.5738ZM74.789 36.2824C75.6748 35.999 76.4051 36.0173 76.9799 36.3374C77.5613 36.6449 77.9997 37.2606 78.2953 38.1844L79.6984 42.5705L78.5697 42.9315L78.1904 41.7457C78.1405 42.2132 77.9663 42.6206 77.668 42.968C77.3666 43.3059 76.973 43.5526 76.4873 43.708C76.0396 43.8512 75.5964 43.8932 75.1575 43.8342C74.7282 43.772 74.3522 43.6141 74.0295 43.3603C73.7068 43.1066 73.483 42.7844 73.3581 42.3939C73.1905 41.8701 73.1944 41.4226 73.3697 41.0516C73.5419 40.671 73.913 40.3213 74.483 40.0025C75.0499 39.6741 75.8762 39.3363 76.962 38.9889L77.2763 38.8884L77.1255 38.4169C76.9396 37.8359 76.6865 37.4549 76.3661 37.274C76.0427 37.0834 75.6143 37.0735 75.0809 37.2441C74.2809 37.5001 73.5648 38.0021 72.9327 38.7503L72.2773 38.0308C72.557 37.6578 72.9248 37.3144 73.3809 37.0005C73.8434 36.6741 74.3128 36.4347 74.789 36.2824ZM76.3519 42.7433C76.9234 42.5605 77.3292 42.2207 77.5692 41.724C77.8158 41.2146 77.8415 40.6552 77.6465 40.0456L77.514 39.6313L77.2568 39.7136C76.4187 39.9817 75.7927 40.2239 75.379 40.4403C74.9622 40.6471 74.6859 40.8667 74.5503 41.0991C74.4211 41.3189 74.4083 41.5907 74.5119 41.9146C74.6308 42.286 74.8631 42.5529 75.209 42.7152C75.5614 42.865 75.9424 42.8744 76.3519 42.7433ZM76.0093 33.4509L75.3092 33.6748L75.9603 31.2302L77.1747 30.8417L76.0093 33.4509ZM73.5227 35.8685L72.4798 36.2022L73.508 33.5581L74.2795 33.3113L76.6515 34.8676L75.6086 35.2012L74.1131 34.1205L73.5227 35.8685ZM84.3233 40.1775C84.5328 40.1105 84.7378 40.0292 84.9382 39.9336L85.1736 40.8662C84.9667 40.9744 84.7347 41.0696 84.4775 41.1519C83.6393 41.42 82.9359 41.4035 82.3671 41.1025C81.8079 40.7985 81.4033 40.2559 81.1535 39.4749L79.9835 35.8175L78.6262 36.2517L78.3337 35.3374L79.691 34.9032L79.0145 32.7887L80.1718 32.4185L80.8482 34.533L82.8198 33.9022L83.1123 34.8166L81.1407 35.4473L82.2833 39.019C82.6337 40.1143 83.3137 40.5005 84.3233 40.1775Z" fill="black"/>
</g>
<defs>
<clipPath id="clip0">
<rect width="188" height="153" fill="white" transform="translate(0.443115 0.695312)"/>
</clipPath>
</defs>
</svg>
