<svg width="111" height="137" viewBox="0 0 111 137" fill="none" xmlns="http://www.w3.org/2000/svg">
<g clip-path="url(#clip0)">
<path d="M91.8108 57.1661L96.8056 98.7528L59.5289 126.429L16.7587 108.367L11.7638 66.7801L49.0405 39.1037L91.8108 57.1661Z" stroke="#FFE99A" stroke-width="2"/>
</g>
<path d="M29.1184 47.4482C31.6855 54.4314 37.9915 58.9292 45.3348 59.9259C48.3264 60.325 51.3632 60.1496 54.2936 59.4085C57.171 58.6919 59.9091 57.4703 62.3895 55.7963C70.8832 50.0446 74.9343 39.7063 71.6053 30.6281C68.3835 21.915 59.3482 17.0521 49.7499 18.0742C47.5154 18.3138 45.321 18.8581 43.2236 19.693C42.5321 19.9724 41.8519 20.2781 41.1828 20.6104C38.3372 22.0258 35.7783 23.992 33.6437 26.4033C28.4728 32.2692 26.4718 40.2523 29.1184 47.4482Z" fill="#FFC702"/>
<path d="M44.8544 42.7123C46.7525 47.9415 49.368 52.8593 52.6199 57.3136C53.1584 58.0436 53.7092 58.7472 54.2722 59.4244C57.1496 58.7078 59.8877 57.4862 62.3681 55.8122C60.8582 54.224 59.4795 52.5071 58.2467 50.6795C55.9402 47.2554 54.0532 43.547 52.6291 39.6397C50.9767 35.2097 49.9463 30.5564 49.5694 25.8224C49.3631 23.2404 49.4237 20.6429 49.7499 18.0742C47.5154 18.3138 45.321 18.8581 43.2236 19.6931C42.5321 19.9724 41.8519 20.2782 41.1828 20.6104C41.0694 23.2431 41.1615 25.881 41.4582 28.4983C42.0161 33.3644 43.157 38.1392 44.8544 42.7123Z" fill="#453C36"/>
<path d="M29.1184 47.4482C31.6855 54.4314 37.9915 58.9292 45.3348 59.9259C44.2872 58.7181 43.3104 57.4462 42.4097 56.1169C40.0973 52.6906 38.2051 48.979 36.7768 45.0676C35.1228 40.6381 34.0923 35.9846 33.7172 31.2503C33.5968 29.6377 33.5733 28.0189 33.6468 26.4033C28.4728 32.2692 26.4718 40.2523 29.1184 47.4482Z" fill="#453C36"/>
<path d="M60.8566 33.7485C60.6792 35.2721 59.8102 36.4148 58.9199 36.2878C58.0295 36.1608 57.4512 34.8499 57.6317 33.3263C57.8122 31.8027 58.6751 30.6568 59.5685 30.7869C60.4619 30.9171 61.0341 32.2375 60.8566 33.7485Z" fill="#744E32"/>
<path d="M70.9291 34.3705C70.7517 35.8941 69.8827 37.0369 68.9923 36.9099C68.102 36.7829 67.5237 35.472 67.7042 33.9484C67.8847 32.4247 68.7476 31.2789 69.6379 31.409C70.5283 31.5391 71.1066 32.8469 70.9291 34.3705Z" fill="#744E32"/>
<path d="M29.25 42.9346L24.4922 47.6165C24.4071 47.7524 24.3546 47.9075 24.3393 48.0687C24.324 48.23 24.3461 48.3927 24.404 48.5433C24.4619 48.6938 24.5537 48.8277 24.6718 48.9338C24.7899 49.0399 24.9308 49.115 25.0827 49.1528L31.7345 49.1972L29.25 42.9346Z" fill="#453C36"/>
<path d="M66.0247 22.2705C66.5894 20.8923 67.316 19.5916 68.1879 18.398C68.9139 17.3816 69.8029 16.5023 70.8161 15.7983C71.8849 15.0542 73.1603 14.6961 74.4449 14.7794H74.5214C74.5961 14.7866 74.665 14.8242 74.7129 14.884C74.7608 14.9439 74.7838 15.021 74.7769 15.0984C74.77 15.1759 74.7338 15.2473 74.6761 15.297C74.6184 15.3467 74.5441 15.3706 74.4694 15.3635H74.4021C73.2396 15.288 72.0855 15.6127 71.1191 16.2872C69.6688 17.2394 68.5153 18.7948 67.735 20.0962C67.3464 20.7532 67.0466 21.3659 66.8477 21.7785C66.7467 21.9944 66.6733 22.1689 66.6213 22.2864L66.5662 22.4229V22.4578C66.5526 22.4934 66.5323 22.5259 66.5065 22.5534C66.4807 22.5809 66.45 22.6029 66.416 22.6181C66.3821 22.6333 66.3456 22.6414 66.3086 22.6419C66.2717 22.6424 66.2349 22.6354 66.2006 22.6213C66.1662 22.6071 66.1349 22.586 66.1084 22.5593C66.0819 22.5326 66.0607 22.5007 66.0461 22.4655C66.0314 22.4302 66.0236 22.3924 66.0231 22.354C66.0226 22.3157 66.0294 22.2776 66.043 22.2419L66.0247 22.2705Z" fill="#2D221C"/>
<path d="M59.1003 22.7339C59.0512 21.9197 59.0583 21.1029 59.1218 20.2898C59.2144 18.7235 59.5545 17.1836 60.1284 15.7317C60.4478 14.9535 60.8881 14.2351 61.4318 13.605C62.0086 12.9506 62.7226 12.4424 63.5185 12.1194C63.5873 12.0975 63.6615 12.1035 63.7262 12.1361C63.791 12.1686 63.8414 12.2254 63.8674 12.295C63.8933 12.3646 63.8929 12.4418 63.8663 12.5111C63.8396 12.5804 63.7886 12.6367 63.7235 12.6686C63.0083 12.9566 62.3673 13.413 61.851 14.0017C61.1066 14.8923 60.5612 15.9427 60.2539 17.0775C59.9529 18.1388 59.7631 19.2307 59.6878 20.3342C59.6389 21.0199 59.6327 21.6039 59.6389 22.0293C59.6389 22.2388 59.6389 22.4038 59.6389 22.5149C59.6389 22.572 59.6389 22.6165 59.6389 22.6451V22.6863C59.6449 22.7638 59.6211 22.8406 59.5726 22.8998C59.5241 22.959 59.455 22.9958 59.3803 23.0021C59.3057 23.0085 59.2316 22.9838 59.1745 22.9334C59.1174 22.8831 59.082 22.8114 59.0759 22.7339H59.1003Z" fill="#2D221C"/>
<path d="M73.5513 15.008C73.5294 15.3092 73.5939 15.6104 73.7366 15.8736C73.8794 16.1368 74.0941 16.3503 74.3537 16.4872C74.6132 16.624 74.906 16.6781 75.1952 16.6426C75.4843 16.6071 75.7568 16.4836 75.9784 16.2877C76.2 16.0918 76.3608 15.8322 76.4404 15.5417C76.52 15.2512 76.515 14.9427 76.4259 14.6551C76.3368 14.3676 76.1677 14.1138 75.9398 13.9258C75.7119 13.7378 75.4355 13.624 75.1454 13.5987C74.9512 13.5809 74.7555 13.6034 74.5698 13.6649C74.3841 13.7263 74.212 13.8256 74.0636 13.9567C73.9152 14.0879 73.7935 14.2484 73.7056 14.4289C73.6176 14.6094 73.5652 14.8063 73.5513 15.008Z" fill="#2D221C"/>
<path d="M62.5639 12.3099C62.5418 12.6117 62.6064 12.9135 62.7495 13.1772C62.8927 13.4408 63.1081 13.6545 63.3683 13.7912C63.6286 13.9279 63.9221 13.9814 64.2117 13.9451C64.5013 13.9087 64.774 13.784 64.9953 13.5869C65.2166 13.3897 65.3766 13.1289 65.455 12.8374C65.5334 12.5459 65.5267 12.2368 65.4357 11.9493C65.3448 11.6617 65.1737 11.4086 64.9441 11.2219C64.7145 11.0353 64.4367 10.9234 64.1458 10.9006C63.9527 10.885 63.7585 10.9091 63.5743 10.9716C63.3902 11.034 63.2197 11.1336 63.0728 11.2645C62.9258 11.3954 62.8052 11.5552 62.7179 11.7346C62.6306 11.914 62.5783 12.1095 62.5639 12.3099Z" fill="#2D221C"/>
<path d="M61.4869 38.3319C61.452 38.686 61.4859 39.0438 61.5868 39.384C61.6877 39.7242 61.8534 40.0399 62.0742 40.3124C62.295 40.5849 62.5663 40.8085 62.8721 40.9701C63.1778 41.1317 63.5117 41.2279 63.8539 41.253C64.1962 41.2781 64.5398 41.2316 64.8644 41.1162C65.189 41.0009 65.488 40.8191 65.7435 40.5815C65.9991 40.344 66.206 40.0556 66.352 39.7335C66.498 39.4114 66.5802 39.0621 66.5936 38.7064C66.6068 38.5807 66.6665 38.4651 66.7601 38.3841C66.8538 38.3031 66.974 38.2629 67.0957 38.2719C67.2173 38.2809 67.3308 38.3385 67.4123 38.4326C67.4939 38.5267 67.5371 38.6498 67.5329 38.7763C67.4517 39.7239 67.0153 40.6006 66.3175 41.2179C65.6197 41.8352 64.7163 42.1437 63.8015 42.0772C62.8867 42.0106 62.0337 41.5743 61.4257 40.8621C60.8178 40.1498 60.5036 39.2185 60.5507 38.2684C60.5596 38.1396 60.6175 38.0197 60.7116 37.9352C60.8057 37.8507 60.9283 37.8084 61.0525 37.8177C61.1766 37.8269 61.2921 37.887 61.3736 37.9846C61.4551 38.0822 61.4959 38.2094 61.4869 38.3382V38.3319Z" fill="#744E32"/>
<path d="M35.2409 13.0812C34.118 6.06311 35.1889 0.882829 38.9125 0.241642C42.6362 -0.399544 47.5867 3.90783 48.7035 10.926C49.8203 17.9441 44.2945 25.3431 42.985 25.6574C41.8529 25.9304 36.3668 20.1026 35.2409 13.0812Z" fill="#EEEBE6" fill-opacity="0.8"/>
<path d="M28.3657 25.978C23.6844 23.7909 21.0164 20.9469 22.176 18.271C23.3356 15.5952 27.9894 14.1858 32.6616 16.3665C37.3337 18.5472 39.4877 25.2161 39.1328 26.2065C38.8268 27.0381 33.0471 28.165 28.3657 25.978Z" fill="#D3CAC2" fill-opacity="0.8"/>
<defs>
<clipPath id="clip0">
<rect width="99.1468" height="99.1468" fill="white" transform="translate(0.47583 37.7749) rotate(-6.84877)"/>
</clipPath>
</defs>
</svg>
