<svg width="567" height="418" viewBox="0 0 567 418" fill="none" xmlns="http://www.w3.org/2000/svg">
<path d="M174.534 143.463L170.515 156.315C169.808 157.505 168.138 157.621 167.246 156.558L161.153 144.324L174.534 143.463Z" fill="#453C36"/>
<path d="M223.891 90.1777C236.113 83.1851 242.666 74.9893 238.82 68.269C234.973 61.5315 221.931 59.0537 209.709 66.0462C197.487 73.0388 193.333 91.1168 194.545 93.6057C195.586 95.729 211.669 97.1702 223.891 90.1777Z" fill="#F2F0EC" fill-opacity="0.8"/>
<path d="M213.032 117.262C222.465 121.971 230.288 122.668 232.884 117.462C235.482 112.274 231.624 103.112 222.174 98.4047C212.741 93.6956 199.743 98.6103 198.71 100.401C197.826 101.936 203.598 112.536 213.032 117.262Z" fill="#CFC6BD" fill-opacity="0.8"/>
<path d="M110.249 100.434C96.9725 95.7431 89.058 88.853 91.6384 81.5528C94.2172 74.2353 106.605 69.4623 119.881 74.1536C133.157 78.8449 140.481 95.887 139.734 98.5527C139.074 100.83 123.525 105.126 110.249 100.434Z" fill="#F2F0EC" fill-opacity="0.8"/>
<path d="M125.764 125.139C117.328 131.46 109.756 133.547 106.269 128.89C102.785 124.25 104.94 114.546 113.394 108.223C121.831 101.901 135.499 104.409 136.837 105.986C137.981 107.337 134.2 118.799 125.764 125.139Z" fill="#CFC6BD" fill-opacity="0.8"/>
<path d="M204.138 103.74C204.205 104.478 204.237 105.22 204.271 105.98C204.314 107.413 204.304 108.835 204.223 110.245C203.888 116.511 202.394 122.414 199.959 127.675C199.902 127.818 199.827 127.947 199.769 128.073C193.552 141.141 181.566 150.173 167.54 150.608C155.501 150.984 144.565 144.973 137.263 135.273C136.221 133.895 135.258 132.44 134.376 130.926C131.587 126.12 129.603 120.652 128.639 114.763C128.527 114.097 128.432 113.43 128.354 112.762C128.191 111.339 128.077 109.877 128.031 108.409C127.914 104.816 128.185 101.293 128.8 97.9287C128.964 97.0651 129.131 96.2186 129.35 95.3847C133.633 77.5894 147.679 64.3176 164.779 63.7789C179.736 63.2951 192.988 72.7002 199.696 86.7665C200.699 88.8586 201.538 91.0521 202.228 93.3282C203.201 96.6182 203.864 100.127 204.138 103.74Z" fill="#453C36"/>
<path d="M204.138 103.739C201.107 105.278 197.942 106.672 194.625 107.924C186.017 111.195 176.527 113.524 166.444 114.659C154.853 115.983 143.681 115.605 133.453 113.791C131.728 113.479 130.016 113.131 128.351 112.727C128.188 111.304 128.074 109.842 128.028 108.374C127.911 104.782 128.182 101.258 128.797 97.8942C128.961 97.0305 129.127 96.1841 129.347 95.3502C132.632 96.2488 136.127 96.9727 139.81 97.4718C147.441 98.5326 155.836 98.6584 164.529 97.666C174.524 96.5213 183.776 94.0408 191.715 90.6566C194.551 89.4479 197.204 88.1345 199.693 86.732C200.696 88.8241 201.535 91.0175 202.225 93.2937C203.201 96.6181 203.864 100.127 204.138 103.739Z" fill="#FFC702"/>
<path d="M199.752 128.074C193.535 141.142 181.549 150.175 167.523 150.609C155.483 150.985 144.548 144.974 137.246 135.275C139.491 135.782 141.815 136.196 144.219 136.534C151.85 137.594 160.245 137.72 168.938 136.728C178.933 135.583 188.184 133.103 196.124 129.718C197.359 129.191 198.574 128.648 199.752 128.074Z" fill="#FFC702"/>
<path d="M148.56 84.6433C148.799 87.2893 150.301 89.3364 151.916 89.1906C153.531 89.0449 154.643 86.7792 154.402 84.116C154.164 81.47 152.662 79.4229 151.047 79.5687C149.432 79.7144 148.32 81.98 148.56 84.6433Z" fill="#FFC702"/>
<path d="M173.887 82.3575C174.126 85.0035 175.627 87.0506 177.242 86.9049C178.857 86.7591 179.969 84.4935 179.729 81.8302C179.49 79.1842 177.989 77.1371 176.374 77.2829C174.758 77.4287 173.646 79.6943 173.887 82.3575Z" fill="#FFC702"/>
<path d="M166.869 65.0625C166.866 65.0281 167.31 60.9174 169.091 56.4781C169.983 54.267 171.214 51.9733 172.896 50.072C174.595 48.1691 176.781 46.6727 179.538 46.1294C179.59 46.1247 179.64 46.1029 179.691 46.0982C180.014 46.0344 180.311 46.2501 180.358 46.575C180.422 46.8984 180.206 47.195 179.881 47.2417C179.847 47.2448 179.795 47.2494 179.745 47.2713C177.278 47.771 175.319 49.0911 173.745 50.8441C171.383 53.4651 169.924 57.0612 169.08 59.9955C168.657 61.454 168.377 62.7612 168.218 63.6936C168.138 64.1511 168.087 64.5369 168.04 64.7837C168.016 64.907 168.008 65.0117 167.997 65.0819L167.986 65.1522L167.988 65.1694C167.947 65.4849 167.673 65.7174 167.341 65.6782C167.063 65.6686 166.83 65.3951 166.869 65.0625Z" fill="#2D221C"/>
<path d="M158.592 64.7011C158.59 64.6839 157.898 62.7717 156.567 60.3108C155.3 57.9827 153.451 55.1529 150.982 52.9334C149.755 51.8142 148.351 50.8496 146.802 50.1926C145.253 49.5356 143.54 49.1706 141.695 49.2678C141.367 49.28 141.133 49.561 141.144 49.8719C141.156 50.1999 141.437 50.4343 141.748 50.4236C143.403 50.3435 144.939 50.6553 146.344 51.256C148.452 52.157 150.289 53.7061 151.833 55.4549C153.377 57.2036 154.611 59.1709 155.542 60.8537C156.186 62.0427 156.681 63.1067 157.01 63.8738C157.166 64.2582 157.297 64.5581 157.384 64.7581C157.428 64.8581 157.453 64.9425 157.475 64.9925L157.498 65.0596L157.5 65.0768C157.613 65.3783 157.94 65.5394 158.241 65.4256C158.544 65.329 158.705 65.0026 158.592 64.7011Z" fill="#2D221C"/>
<path d="M177.89 47.0576C178.21 48.6916 179.814 49.7595 181.448 49.4388C183.082 49.1181 184.149 47.5147 183.829 45.8807C183.508 44.2467 181.905 43.1789 180.271 43.4996C178.62 43.8218 177.552 45.4252 177.89 47.0576Z" fill="#2D221C"/>
<path d="M143.645 48.7989C144.453 50.2676 143.909 52.1009 142.44 52.909C140.971 53.7172 139.138 53.1724 138.33 51.7037C137.521 50.235 138.066 48.4016 139.535 47.5935C141.004 46.7854 142.837 47.3301 143.645 48.7989Z" fill="#2D221C"/>
<path d="M169.249 88.1632C169.431 89.6019 169 90.9745 168.178 92.0361C167.356 93.0977 166.124 93.8497 164.684 94.0143C163.246 94.1961 161.873 93.7657 160.811 92.9435C159.75 92.1212 158.998 90.8899 158.833 89.4497C158.768 88.9186 158.284 88.5466 157.753 88.6118C157.222 88.6771 156.85 89.1611 156.915 89.6921C157.409 93.6316 160.987 96.4267 164.928 95.9497C168.868 95.4556 171.663 91.8775 171.186 87.9365C171.121 87.4054 170.637 87.0333 170.105 87.0986C169.573 87.1467 169.184 87.6322 169.249 88.1632Z" fill="#FFC702"/>
<path d="M208.224 94.5019C207.902 94.7734 207.413 94.7309 207.159 94.4075C207.14 94.3918 206.52 93.6683 205.66 93.1569C205.221 92.9021 204.736 92.7034 204.245 92.6437C203.755 92.584 203.26 92.6634 202.715 92.9551C202.352 93.161 201.89 93.0295 201.682 92.6499C201.476 92.2874 201.608 91.8251 201.988 91.6176C202.828 91.1434 203.701 91.0299 204.473 91.1335C205.051 91.2026 205.588 91.3966 206.058 91.614C206.765 91.9659 207.324 92.4005 207.721 92.7631C208.117 93.1257 208.35 93.3992 208.368 93.4149C208.59 93.7586 208.546 94.2303 208.224 94.5019Z" fill="#2D221C"/>
<path d="M122.668 101.964C123.034 102.173 123.507 102.044 123.699 101.68C123.715 101.661 124.195 100.839 124.95 100.182C125.336 99.8522 125.778 99.5698 126.25 99.4233C126.722 99.2767 127.223 99.2661 127.812 99.4555C128.205 99.5932 128.636 99.3811 128.773 98.9704C128.91 98.5769 128.698 98.1456 128.287 98.0095C127.375 97.6934 126.496 97.7381 125.756 97.9782C125.199 98.1496 124.706 98.4367 124.282 98.7347C123.649 99.2076 123.177 99.7352 122.852 100.163C122.527 100.591 122.347 100.901 122.331 100.92C122.175 101.298 122.303 101.754 122.668 101.964Z" fill="#2D221C"/>
<path d="M566.5 246.397V282.471L531.867 302.284L497.235 282.471V246.397L531.867 226.584L566.5 246.397Z" stroke="#FFE99A"/>
<path d="M491.843 246.397V282.471L457.211 302.284L422.578 282.471V246.397L457.211 226.584L491.843 246.397Z" stroke="#FFE99A"/>
<path d="M530.269 184.915V220.988L495.637 240.802L461.004 220.988V184.915L495.637 165.101L530.269 184.915Z" stroke="#FFC702"/>
<path d="M417.897 245.951V282.025L383.265 301.838L348.632 282.025V245.951L383.265 226.138L417.897 245.951Z" stroke="#FFC702"/>
<path d="M455.613 184.915V220.988L420.98 240.802L386.347 220.988V184.915L420.98 165.101L455.613 184.915Z" stroke="#FFE99A"/>
<path d="M165.487 182.047V209.265L139.343 224.222L113.199 209.265V182.047L139.343 167.09L165.487 182.047Z" stroke="#FFE99A"/>
<path d="M108.868 182.047V209.265L82.7239 224.222L56.5797 209.265V182.047L82.7239 167.09L108.868 182.047Z" stroke="#FFE99A"/>
<path d="M138.01 135.42V162.637L111.866 177.595L85.7217 162.637V135.42L111.866 120.462L138.01 135.42Z" stroke="#FFC702"/>
<path d="M52.7884 181.709V208.927L26.6442 223.884L0.5 208.927V181.709L26.6442 166.752L52.7884 181.709Z" stroke="#FFC702"/>
<path d="M81.3913 135.42V162.637L55.2471 177.595L29.1029 162.637V135.42L55.2471 120.462L81.3913 135.42Z" stroke="#FFE99A"/>
<path d="M109.603 87.5176V114.735L83.4586 129.692L57.3144 114.735V87.5175L83.4586 72.5603L109.603 87.5176Z" stroke="#FFE99A"/>
<path d="M346.19 165.682L324.981 170.231L308.947 152.349L316.236 129.464L337.445 124.915L353.479 142.797L346.19 165.682Z" stroke="#FFE99A"/>
<path d="M336.675 121.328L315.467 125.877L299.433 107.995L306.722 85.1107L327.931 80.5612L343.964 98.4431L336.675 121.328Z" stroke="#FFE99A"/>
<path d="M378.099 136.322L356.89 140.871L340.856 122.989L348.145 100.104L369.354 95.555L385.388 113.437L378.099 136.322Z" stroke="#FFC702"/>
<path d="M327.517 77.3401L306.308 81.8895L290.274 64.0077L297.563 41.1229L318.772 36.5734L334.806 54.4553L327.517 77.3401Z" stroke="#FFC702"/>
<path d="M368.585 91.9683L347.376 96.5177L331.342 78.6358L338.631 55.7511L359.84 51.2016L375.874 69.0835L368.585 91.9683Z" stroke="#FFE99A"/>
<path d="M410.85 106.019L389.642 110.568L373.608 92.6864L380.897 69.8016L402.106 65.2521L418.139 83.134L410.85 106.019Z" stroke="#FFE99A"/>
<path d="M137.343 150.571V120.458L148.36 119.724L174.066 120.458H237.964H340.788H399.544L400.279 151.305V290.852H215.93H139.547L137.343 212.265V150.571Z" fill="white"/>
<path d="M272.626 167.51C260.23 168.349 247.459 167.116 235.311 166.878C216.053 166.707 196.794 166.536 177.721 165.557C177.085 170.799 176.717 176.103 176.62 181.469C185.577 183.243 198.074 180.726 204.106 180.41C217.373 179.488 230.93 179.767 244.157 180.254C250.874 180.663 263.296 184.651 269.801 181.041C274.379 178.406 275.14 172.626 273.041 168.173C273.103 167.904 272.895 167.572 272.626 167.51Z" fill="#FFC72C"/>
<path d="M324.509 276.421C335.248 276.62 346.234 275.741 356.91 276.208C357 263.467 357.69 250.58 358.589 238.025C346.586 238.387 334.853 238.811 323.037 238.364C323.942 250.483 323.706 262.624 323.201 274.703C323.679 275.096 324.094 275.758 324.509 276.421Z" fill="#FFC72C"/>
<path d="M402.783 292.704C405.165 290.983 404.437 287.979 404.123 285.638C402.515 275.343 402.212 263.079 402.615 252.678C403.279 234.964 403.488 217.997 403.883 200.221C404.097 186.941 404.296 179.897 404.51 166.617C404.807 154.207 403.934 133.304 402.746 127.359C401.288 121.352 398.65 116.776 392.534 116.221C386.957 115.791 380.054 116.19 374.623 116.36C362.953 116.514 351.861 115.384 339.982 115.207C314.422 115.29 289.07 115.704 263.448 116.056C221.325 116.587 179.409 117.45 137.37 118.851C137.101 118.789 137.039 119.059 136.769 118.997C136.168 119.142 135.775 119.619 135.921 120.22C134.628 150.551 134.537 180.591 133.844 210.777C133.388 228.822 133.28 244.112 133.424 262.011C133.45 266.838 133.746 271.727 134.103 276.347C134.523 280.697 132.852 287.97 135.344 291.946C138.105 295.984 142.458 295.566 146.957 295.749C152.057 295.786 157.426 295.885 162.525 295.923C174.196 295.768 186.075 295.945 197.746 295.791C223.306 295.708 248.658 295.294 274.28 294.942C312.444 294.351 353.241 294.65 391.528 293.521C394.078 293.54 396.689 293.289 399.447 293.639C400.649 293.348 401.851 293.057 402.783 292.704ZM337.648 122.895C349.527 123.072 361.467 122.979 373.076 123.094C379.046 123.048 387.92 123.953 394.739 122.683C394.972 127.842 395.352 133.601 395.647 138.49C376.738 135.563 356.446 137.424 337.457 137.315C314.508 137.147 291.29 136.917 268.28 137.018C246.202 136.767 224.063 136.785 201.985 136.533C181.047 136.26 159.341 134.392 138.531 137.268C138.359 131.84 138.187 126.412 138.015 120.984C179.621 121.469 221.227 121.953 262.895 122.168C288.061 122.562 312.959 122.894 337.648 122.895ZM199.395 287.378C187.516 287.201 176.862 287.873 164.983 287.696C158.743 287.68 147.112 286.426 140.294 287.695C138.793 262.11 140.754 235.052 140.394 209.446C140.139 185.849 139.284 162.397 138.491 138.677C158.271 141.52 179.31 140.115 199.17 140.14C222.118 140.308 245.066 140.476 268.346 140.436C290.424 140.688 312.564 140.67 334.642 140.922C354.501 140.947 376.084 143.354 395.753 140.499C398.316 189.867 396.796 239.714 397.618 289.248C356.282 288.826 314.945 288.404 273.609 287.981C249.251 287.773 224.292 287.71 199.395 287.378Z" fill="#877F79"/>
<path d="M147.233 132.745C149.826 135.042 153.764 133.962 155.523 131.246L155.585 130.977C156.681 128.676 156.16 126.004 154.251 124.431C152.55 123.19 150 123.171 148.281 124.478C145.567 126.406 144.639 130.447 147.233 132.745ZM149.672 127.066C150.998 126.236 152.408 126.277 153.239 127.602C153.654 128.264 153.8 128.865 153.884 129.735C154.029 130.336 153.574 131.082 153.243 131.29C152.456 132.243 150.176 132.286 149.221 131.5C147.79 130.32 148.015 128.103 149.672 127.066Z" fill="#877F79"/>
<path d="M169.35 131.587L169.412 131.318C170.508 129.017 169.987 126.345 168.078 124.772C166.377 123.531 163.827 123.512 162.108 124.819C159.456 126.478 158.466 130.788 161.06 133.086C163.446 135.052 167.591 134.303 169.35 131.587ZM163.562 127.138C164.887 126.308 166.297 126.348 167.128 127.674C167.543 128.336 167.689 128.937 167.773 129.807C167.919 130.408 167.463 131.154 167.132 131.361C166.345 132.315 164.065 132.358 163.11 131.572C161.679 130.392 161.904 128.175 163.562 127.138Z" fill="#877F79"/>
<path d="M182.97 131.597L183.032 131.328C184.128 129.027 183.607 126.355 181.698 124.782C179.997 123.54 177.447 123.522 175.728 124.828C173.076 126.488 172.086 130.798 174.68 133.095C177.335 135.123 181.48 134.374 182.97 131.597ZM177.181 127.147C178.507 126.318 179.917 126.358 180.747 127.683C181.163 128.346 181.309 128.946 181.392 129.817C181.538 130.417 181.083 131.163 180.752 131.371C179.965 132.324 177.685 132.368 176.73 131.581C175.298 130.402 175.794 128.247 177.181 127.147Z" fill="#877F79"/>
<path d="M273.216 232.873C267.078 231.18 261.192 232.096 254.952 232.08C244.961 232.337 235.093 232.055 225.287 231.503C205.074 230.546 185.215 230.521 165.191 232.443C164.051 232.464 163.95 234.143 165.09 234.121C183.517 232.967 201.843 233.49 220.046 234.553C236.838 235.575 255.575 233.074 271.935 235.982C274.422 236.27 275.311 233.638 273.216 232.873Z" fill="#877F79"/>
<path d="M273.285 257.278C267.147 255.585 261.261 256.501 255.021 256.485C245.029 256.742 235.161 256.46 225.355 255.908C205.142 254.951 185.283 254.925 165.26 256.848C164.12 256.869 164.018 258.547 165.158 258.526C183.586 257.372 201.912 257.895 220.114 258.958C236.907 259.98 255.644 257.479 272.003 260.387C274.159 260.883 275.11 257.981 273.285 257.278Z" fill="#877F79"/>
<path d="M272.202 159.473C268.574 159.206 264.946 158.94 261.526 159.005C257.297 158.884 252.798 158.701 248.569 158.58C240.38 158.4 231.799 158.697 223.61 158.517C212.81 158.588 202.009 158.659 191.209 158.73C185.778 158.9 180.139 158.739 174.708 158.909C170.148 158.996 165.15 157.28 164.721 162.853C164.247 166.148 164.044 169.504 163.902 172.591C163.76 175.678 162.672 185.354 167.441 185.599C175.028 185.924 182.346 186.188 189.934 186.513C198.454 186.485 207.243 186.52 215.763 186.492C234.752 186.601 253.534 186.379 272.315 186.157C275.466 186.03 274.551 183.834 274.777 181.617C275.188 178.592 275.33 175.505 275.471 172.418C275.613 169.331 278.548 161.498 274.628 160.03C273.882 159.575 273.073 159.389 272.202 159.473ZM215.552 182.473C199.382 182.445 182.921 181.215 167.127 183.258C168.467 176.192 167.981 168.424 167.041 161.401C185.596 163.396 204.771 162.697 223.49 162.744C239.66 162.772 256.121 164.002 271.915 161.959C270.575 169.025 271.061 176.793 272.001 183.816C253.446 181.821 234.271 182.52 215.552 182.473Z" fill="#877F79"/>
<path d="M360.536 161.618C360.244 160.417 359.829 159.754 359.082 159.299C357.588 158.389 354.853 159.178 353.443 159.138C350.955 158.85 348.675 158.893 346.125 158.874C341.295 158.899 336.465 158.924 331.427 158.617C324.379 158.415 317.454 157.675 310.428 158.613C306.614 159.155 306.181 161.04 306.185 164.728C305.746 180.225 305.307 195.722 306.547 211.321C306.989 216.811 315.734 214.566 319.694 214.625C324.793 214.663 330.163 214.762 335.262 214.799C341.502 214.815 347.556 215.639 353.65 215.054C356.863 214.657 358.935 214.283 360.279 210.905C363.152 203.341 360.51 195.077 360.626 187.162C360.662 182.066 360.428 176.908 360.464 171.811C360.42 169.532 361.264 164.621 360.536 161.618ZM335.258 211.111C326.199 211.015 317.202 210.65 308.165 211.693C308.165 211.693 308.165 211.693 308.226 211.423C310.145 203.073 309.576 194.434 309.546 185.919C309.723 177.736 310.502 169.407 308.938 161.39C316.278 162.793 324.113 162.041 331.224 161.973C340.283 162.069 349.28 162.435 358.317 161.392C358.317 161.392 358.317 161.392 358.255 161.661C356.606 170.074 356.906 178.651 356.998 186.896C356.82 195.08 356.042 203.409 357.606 211.425C350.535 210.084 342.638 211.106 335.258 211.111Z" fill="#877F79"/>
<path d="M360.448 250.93C360.484 245.834 360.581 240.468 360.348 235.31C360.158 232.43 360.238 229.612 359.716 226.94C359.381 223.46 359.65 223.522 356.292 223.318C353.534 222.968 350.715 222.887 347.896 222.806C342.257 222.645 336.556 222.753 330.917 222.592C326.688 222.471 322.521 222.081 318.23 222.23C315.141 222.087 310.767 221.365 307.907 222.694C304.385 224.437 305.511 230.651 305.577 234.069C305.585 241.445 304.993 248.966 305.001 256.341C305.067 259.759 305.34 263.509 305.676 266.989C305.866 269.869 304.897 275.318 307.491 277.616C309.877 279.582 314.084 278.563 316.904 278.644C322.812 278.867 328.782 278.821 335.022 278.836C339.251 278.957 343.688 279.41 347.979 279.261C351.068 279.404 354.634 279.939 357.701 278.943C361.431 277.531 361.113 271.502 360.716 268.291C360.067 262.47 360.288 256.566 360.448 250.93ZM335.018 275.149C325.959 275.053 316.962 274.687 307.924 275.73C307.924 275.73 307.924 275.73 307.986 275.461C309.635 267.048 309.336 258.471 309.244 250.226C309.421 242.042 310.2 233.713 308.636 225.697C315.976 227.1 323.811 226.348 330.922 226.28C339.981 226.376 348.978 226.742 358.015 225.699C358.015 225.699 358.015 225.699 357.953 225.968C356.304 234.381 356.604 242.957 356.696 251.203C356.518 259.386 355.74 267.715 357.304 275.732C350.025 274.059 342.128 275.081 335.018 275.149Z" fill="#877F79"/>
<path d="M165.987 220.344C165.987 220.344 178.135 206.1 181.708 204.676C185.281 203.251 196.715 213.222 201.717 212.51C206.72 211.798 218.868 196.842 218.868 196.842L233.557 207.124L243.839 191.7L259.997 215.937L264.404 209.327L274.687 214.469" stroke="#877F79" stroke-width="2" stroke-linecap="round" stroke-linejoin="round"/>
<path d="M321.394 182.892C321.394 182.934 321.368 182.957 321.316 182.963C321.264 182.963 321.209 182.963 321.152 182.963C321.126 182.968 321.1 182.973 321.074 182.978C321.048 182.989 321.019 182.999 320.988 183.009C320.962 183.015 320.936 183.03 320.909 183.056C320.92 183.108 320.923 183.147 320.917 183.173C320.917 183.205 320.917 183.228 320.917 183.244L320.909 183.275C320.894 183.296 320.863 183.311 320.816 183.322C320.769 183.338 320.719 183.345 320.667 183.345C320.657 183.345 320.641 183.343 320.62 183.338C320.584 183.327 320.548 183.301 320.511 183.259C320.423 183.233 320.318 183.207 320.199 183.181C320.136 183.166 320.068 183.15 319.995 183.134C319.938 183.119 319.889 183.077 319.847 183.009C319.805 182.942 319.766 182.864 319.73 182.775C319.699 182.681 319.667 182.588 319.636 182.494C319.61 182.395 319.587 182.309 319.566 182.236L318.8 179.822C318.686 179.822 318.54 179.825 318.363 179.83C318.191 179.83 318.006 179.832 317.808 179.838C317.61 179.838 317.409 179.843 317.206 179.853C317.003 179.858 316.818 179.864 316.652 179.869L315.089 179.947L314.175 182.338C314.159 182.364 314.136 182.416 314.105 182.494C314.079 182.572 314.05 182.655 314.019 182.744C313.988 182.827 313.959 182.908 313.933 182.986C313.907 183.059 313.891 183.103 313.886 183.119C313.876 183.16 313.844 183.186 313.792 183.197C313.74 183.207 313.696 183.218 313.659 183.228C313.628 183.239 313.602 183.267 313.581 183.314C313.561 183.361 313.529 183.392 313.488 183.408C313.446 183.434 313.394 183.436 313.331 183.416C313.269 183.395 313.214 183.361 313.167 183.314C313.126 183.262 313.11 183.197 313.12 183.119C313.131 183.035 313.136 182.95 313.136 182.861C313.136 182.772 313.133 182.689 313.128 182.611C313.128 182.533 313.141 182.457 313.167 182.384C313.178 182.353 313.209 182.257 313.261 182.095C313.318 181.929 313.389 181.731 313.472 181.502C313.555 181.267 313.646 181.015 313.745 180.744C313.844 180.468 313.946 180.202 314.05 179.947C313.956 179.947 313.891 179.921 313.855 179.869C313.829 179.827 313.798 179.804 313.761 179.798C313.725 179.788 313.686 179.775 313.644 179.759C313.602 179.749 313.574 179.726 313.558 179.689C313.542 179.653 313.54 179.621 313.55 179.595C313.561 179.564 313.553 179.538 313.527 179.517C313.501 179.496 313.488 179.45 313.488 179.377C313.488 179.345 313.511 179.317 313.558 179.291C313.61 179.259 313.673 179.233 313.745 179.213C313.818 179.192 313.899 179.173 313.988 179.158C314.081 179.142 314.17 179.129 314.253 179.119C314.269 179.119 314.287 179.119 314.308 179.119C314.334 179.119 314.36 179.114 314.386 179.103C314.501 178.827 314.631 178.53 314.777 178.213C314.923 177.89 315.071 177.561 315.222 177.228C315.378 176.895 315.534 176.561 315.691 176.228C315.847 175.895 315.995 175.582 316.136 175.291C316.277 174.994 316.404 174.723 316.519 174.478C316.639 174.233 316.738 174.03 316.816 173.869C316.753 173.676 316.696 173.499 316.644 173.338C316.597 173.176 316.555 173.035 316.519 172.916C316.482 172.796 316.454 172.702 316.433 172.634C316.412 172.561 316.402 172.52 316.402 172.509C316.396 172.499 316.396 172.489 316.402 172.478C316.412 172.452 316.438 172.436 316.48 172.431C316.438 172.353 316.417 172.296 316.417 172.259C316.417 172.239 316.423 172.226 316.433 172.22C316.443 172.21 316.469 172.2 316.511 172.189C316.553 172.179 316.597 172.171 316.644 172.166C316.691 172.155 316.735 172.15 316.777 172.15C316.818 172.145 316.847 172.142 316.863 172.142C316.868 172.142 316.881 172.145 316.902 172.15C316.933 172.16 316.977 172.184 317.034 172.22C317.04 172.194 317.045 172.176 317.05 172.166C317.061 172.155 317.071 172.145 317.081 172.134L317.105 172.111C317.136 172.095 317.17 172.093 317.206 172.103C317.243 172.108 317.277 172.111 317.308 172.111C317.339 172.111 317.36 172.098 317.37 172.072C317.386 172.046 317.42 172.033 317.472 172.033C317.54 172.033 317.597 172.106 317.644 172.252C317.649 172.278 317.686 172.377 317.753 172.548C317.821 172.715 317.907 172.936 318.011 173.213C318.115 173.483 318.235 173.798 318.37 174.158C318.511 174.517 318.657 174.9 318.808 175.306C318.959 175.707 319.11 176.124 319.261 176.556C319.417 176.983 319.566 177.405 319.706 177.822C319.998 178.671 320.243 179.387 320.441 179.97C320.639 180.554 320.798 181.03 320.917 181.4C321.042 181.77 321.133 182.046 321.191 182.228C321.253 182.41 321.292 182.52 321.308 182.556C321.334 182.64 321.355 182.707 321.37 182.759C321.386 182.806 321.394 182.851 321.394 182.892ZM318.027 177.548C317.891 177.163 317.743 176.731 317.581 176.252C317.425 175.772 317.271 175.298 317.12 174.83C317.032 175.059 316.925 175.335 316.8 175.658C316.675 175.981 316.542 176.314 316.402 176.658C316.266 177.002 316.133 177.338 316.003 177.666C315.873 177.994 315.758 178.275 315.659 178.509L315.441 179.025L316.847 178.939C316.967 178.939 317.11 178.936 317.277 178.931C317.558 178.926 317.964 178.918 318.495 178.908L318.027 177.548ZM324.425 173.853C324.425 173.858 324.423 173.939 324.418 174.095C324.418 174.252 324.415 174.46 324.41 174.72C324.41 174.981 324.407 175.283 324.402 175.627C324.402 175.97 324.399 176.335 324.394 176.72C324.389 177.101 324.384 177.491 324.379 177.892C324.379 178.293 324.376 178.681 324.371 179.056C324.371 179.426 324.368 179.772 324.363 180.095C324.363 180.418 324.363 180.694 324.363 180.923V181.392C324.436 181.403 324.506 181.408 324.574 181.408C324.647 181.408 324.72 181.408 324.793 181.408C325.011 181.408 325.272 181.387 325.574 181.345C325.881 181.304 326.209 181.215 326.558 181.08C326.912 180.939 327.28 180.739 327.66 180.478C328.045 180.213 328.423 179.856 328.793 179.408C329.235 178.877 329.55 178.345 329.738 177.814C329.931 177.283 330.027 176.752 330.027 176.22C330.027 175.772 329.98 175.384 329.886 175.056C329.793 174.728 329.66 174.452 329.488 174.228C329.321 173.999 329.121 173.814 328.886 173.673C328.657 173.533 328.402 173.423 328.121 173.345C327.845 173.267 327.548 173.215 327.23 173.189C326.918 173.163 326.597 173.15 326.269 173.15C326.035 173.15 325.764 173.179 325.457 173.236C325.149 173.293 324.832 173.366 324.504 173.455C324.181 173.543 323.86 173.637 323.543 173.736C323.225 173.835 322.936 173.929 322.675 174.017C322.42 174.106 322.207 174.179 322.035 174.236C321.863 174.293 321.759 174.322 321.722 174.322C321.67 174.27 321.626 174.22 321.589 174.173C321.558 174.137 321.53 174.103 321.504 174.072C321.478 174.041 321.464 174.022 321.464 174.017C321.464 174.007 321.472 173.994 321.488 173.978C321.498 173.968 321.517 173.955 321.543 173.939C321.569 173.923 321.608 173.91 321.66 173.9C321.644 173.869 321.634 173.848 321.629 173.838C321.629 173.827 321.629 173.817 321.629 173.806C321.629 173.791 321.631 173.775 321.636 173.759C321.642 173.744 321.665 173.728 321.707 173.713C321.629 173.676 321.574 173.645 321.543 173.619C321.511 173.588 321.491 173.564 321.48 173.548C321.475 173.533 321.475 173.522 321.48 173.517C321.485 173.512 321.488 173.512 321.488 173.517C321.488 173.502 321.498 173.491 321.519 173.486C321.54 173.481 321.556 173.465 321.566 173.439C321.566 173.434 321.582 173.4 321.613 173.338C321.644 173.275 321.709 173.202 321.808 173.119C321.912 173.035 322.058 172.95 322.246 172.861C322.433 172.772 322.686 172.694 323.004 172.627C323.113 172.601 323.261 172.567 323.449 172.525C323.636 172.478 323.853 172.434 324.097 172.392C324.347 172.351 324.618 172.314 324.91 172.283C325.201 172.252 325.506 172.236 325.824 172.236C326.694 172.236 327.464 172.366 328.136 172.627C328.808 172.882 329.371 173.226 329.824 173.658C330.282 174.09 330.629 174.59 330.863 175.158C331.097 175.726 331.214 176.319 331.214 176.939C331.214 177.304 331.165 177.679 331.066 178.064C330.967 178.45 330.824 178.83 330.636 179.205C330.454 179.58 330.233 179.942 329.972 180.291C329.712 180.64 329.42 180.96 329.097 181.252C328.774 181.538 328.425 181.791 328.05 182.009C327.681 182.228 327.29 182.395 326.879 182.509C326.467 182.624 326.092 182.705 325.754 182.752C325.42 182.793 325.113 182.814 324.832 182.814C324.457 182.814 324.152 182.793 323.918 182.752C323.683 182.705 323.501 182.655 323.371 182.603C323.246 182.546 323.16 182.491 323.113 182.439C323.071 182.387 323.05 182.353 323.05 182.338C323.019 182.306 323.004 182.257 323.004 182.189C323.009 182.064 323.022 181.705 323.043 181.111C323.053 180.861 323.063 180.546 323.074 180.166C323.089 179.785 323.105 179.327 323.121 178.791C323.142 178.249 323.165 177.616 323.191 176.892C323.222 176.168 323.256 175.338 323.293 174.4C323.293 174.291 323.321 174.215 323.379 174.173C323.441 174.132 323.517 174.101 323.605 174.08C323.694 174.059 323.787 174.041 323.886 174.025C323.991 174.004 324.082 173.963 324.16 173.9C324.191 173.874 324.225 173.853 324.261 173.838C324.303 173.817 324.337 173.806 324.363 173.806C324.405 173.806 324.425 173.822 324.425 173.853ZM340.309 172.923C340.267 173.137 340.165 173.348 340.004 173.556C339.848 173.759 339.671 173.934 339.473 174.08C339.447 174.106 339.394 174.134 339.316 174.166C339.243 174.197 339.163 174.231 339.074 174.267C338.991 174.298 338.908 174.327 338.824 174.353C338.741 174.379 338.676 174.395 338.629 174.4C338.587 174.41 338.553 174.408 338.527 174.392C338.506 174.377 338.486 174.358 338.465 174.338C338.444 174.317 338.418 174.298 338.387 174.283C338.361 174.262 338.322 174.252 338.269 174.252C338.207 174.252 338.168 174.239 338.152 174.213C338.142 174.181 338.15 174.127 338.176 174.048C338.186 174.022 338.204 173.986 338.23 173.939C338.256 173.892 338.298 173.832 338.355 173.759C338.397 173.713 338.431 173.66 338.457 173.603C338.488 173.546 338.493 173.494 338.473 173.447C338.457 173.395 338.408 173.353 338.324 173.322C338.241 173.291 338.111 173.275 337.934 173.275C337.751 173.275 337.517 173.298 337.23 173.345C336.918 173.387 336.592 173.465 336.254 173.58C335.921 173.694 335.595 173.827 335.277 173.978C334.965 174.129 334.676 174.291 334.41 174.463C334.144 174.634 333.926 174.804 333.754 174.97C333.587 175.132 333.48 175.285 333.434 175.431C333.387 175.572 333.426 175.686 333.551 175.775C333.66 175.853 333.827 175.921 334.051 175.978C334.275 176.03 334.533 176.08 334.824 176.127C335.116 176.168 335.428 176.215 335.762 176.267C336.095 176.314 336.426 176.371 336.754 176.439C337.087 176.507 337.402 176.59 337.699 176.689C338.001 176.788 338.267 176.91 338.496 177.056C338.658 177.166 338.793 177.27 338.902 177.369C339.012 177.468 339.1 177.567 339.168 177.666C339.236 177.759 339.29 177.853 339.332 177.947C339.374 178.035 339.41 178.127 339.441 178.22C339.462 178.278 339.499 178.343 339.551 178.416C339.608 178.483 339.668 178.567 339.73 178.666C339.793 178.765 339.85 178.879 339.902 179.009C339.954 179.134 339.988 179.283 340.004 179.455C340.025 179.798 339.954 180.124 339.793 180.431C339.637 180.739 339.431 181.022 339.176 181.283C338.926 181.543 338.647 181.778 338.34 181.986C338.033 182.189 337.738 182.358 337.457 182.494C337.212 182.614 336.952 182.726 336.676 182.83C336.4 182.934 336.116 183.025 335.824 183.103C335.533 183.176 335.236 183.233 334.934 183.275C334.637 183.322 334.342 183.345 334.051 183.345C333.566 183.345 333.111 183.278 332.684 183.142C332.262 183.012 331.894 182.791 331.582 182.478C331.431 182.317 331.322 182.155 331.254 181.994C331.186 181.827 331.152 181.663 331.152 181.502C331.152 181.309 331.191 181.121 331.269 180.939C331.348 180.757 331.449 180.585 331.574 180.423C331.699 180.262 331.837 180.119 331.988 179.994C332.139 179.864 332.288 179.759 332.434 179.681C332.637 179.567 332.848 179.457 333.066 179.353C333.29 179.244 333.514 179.147 333.738 179.064C333.962 178.976 334.186 178.903 334.41 178.845C334.634 178.788 334.85 178.752 335.059 178.736C335.147 178.726 335.259 178.715 335.394 178.705C335.53 178.694 335.658 178.689 335.777 178.689C335.855 178.689 335.921 178.71 335.973 178.752C336.025 178.793 336.046 178.83 336.035 178.861C336.009 178.918 335.962 178.947 335.894 178.947C335.832 178.947 335.756 178.957 335.668 178.978C335.569 179.004 335.47 179.022 335.371 179.033C335.272 179.043 335.184 179.061 335.105 179.088C334.512 179.223 334.009 179.395 333.598 179.603C333.191 179.811 332.866 180.022 332.621 180.236C332.381 180.45 332.217 180.653 332.129 180.845C332.04 181.033 332.014 181.176 332.051 181.275C332.103 181.416 332.199 181.525 332.34 181.603C332.48 181.681 332.639 181.739 332.816 181.775C332.993 181.806 333.173 181.825 333.355 181.83C333.538 181.835 333.694 181.832 333.824 181.822C334.126 181.806 334.462 181.762 334.832 181.689C335.207 181.616 335.585 181.52 335.965 181.4C336.35 181.28 336.725 181.14 337.09 180.978C337.454 180.811 337.777 180.632 338.059 180.439C338.34 180.241 338.566 180.03 338.738 179.806C338.91 179.577 338.996 179.338 338.996 179.088C338.996 179.004 338.983 178.923 338.957 178.845C338.936 178.762 338.905 178.676 338.863 178.588C338.785 178.436 338.637 178.309 338.418 178.205C338.199 178.095 337.936 178.004 337.629 177.931C337.327 177.853 336.996 177.785 336.637 177.728C336.283 177.666 335.931 177.603 335.582 177.541C335.238 177.478 334.91 177.408 334.598 177.33C334.285 177.252 334.022 177.155 333.809 177.041C333.569 176.91 333.392 176.783 333.277 176.658C333.168 176.528 333.105 176.366 333.09 176.173C333.085 176.153 333.069 176.116 333.043 176.064C333.017 176.012 332.986 175.957 332.949 175.9C332.918 175.843 332.887 175.788 332.855 175.736C332.824 175.684 332.801 175.642 332.785 175.611C332.702 175.46 332.66 175.296 332.66 175.119C332.66 174.921 332.704 174.718 332.793 174.509C332.887 174.301 333.001 174.121 333.137 173.97C333.387 173.684 333.715 173.418 334.121 173.173C334.533 172.929 334.98 172.715 335.465 172.533C335.949 172.351 336.447 172.205 336.957 172.095C337.473 171.981 337.96 171.916 338.418 171.9C338.605 171.895 338.816 171.908 339.051 171.939C339.285 171.97 339.501 172.028 339.699 172.111C339.902 172.189 340.064 172.296 340.184 172.431C340.303 172.561 340.345 172.726 340.309 172.923Z" fill="#FFC72C"/>
<path d="M521.607 145.141C513.469 166.585 493.514 180.426 470.361 183.448C461.255 184.618 451.568 184.228 441.978 181.889C438.587 181.109 435.197 180.037 431.903 178.769C426.284 176.625 421.15 173.993 416.403 170.874C389.473 153.231 376.686 121.455 387.245 93.5776C397.416 66.8698 425.994 51.8589 456.315 54.9781C463.193 55.6604 470.167 57.3174 476.949 59.9492C479.177 60.8265 481.308 61.7037 483.439 62.776C492.836 67.3572 500.876 73.4006 507.366 80.5161C523.641 98.5487 530.035 123.112 521.607 145.141Z" fill="#FFC702"/>
<path d="M471.814 130.617C465.421 147.48 456.993 162.686 447.209 175.455C445.465 177.697 443.721 179.841 441.978 181.888C438.587 181.108 435.196 180.036 431.903 178.769C426.284 176.625 421.15 173.993 416.403 170.874C420.956 166.292 425.315 161.029 429.481 155.083C436.359 145.336 442.462 133.834 447.306 121.162C452.827 106.639 456.024 92.1152 456.993 78.7613C457.477 70.1836 457.283 62.1908 456.315 54.9778C463.193 55.6601 470.167 57.3171 476.948 59.9489C479.177 60.8262 481.308 61.7035 483.439 62.7757C483.826 70.5735 483.536 78.6638 482.567 86.9491C480.92 101.18 477.336 115.899 471.814 130.617Z" fill="#453C36"/>
<path d="M521.607 145.141C513.469 166.585 493.514 180.426 470.361 183.448C473.558 179.842 476.658 175.943 479.661 171.751C486.539 162.004 492.642 150.502 497.485 137.83C503.007 123.307 506.204 108.783 507.173 95.4295C507.56 90.2635 507.657 85.2923 507.366 80.5161C523.641 98.5487 530.035 123.112 521.607 145.141Z" fill="#453C36"/>
<path d="M421.15 103.13C421.731 107.809 424.444 111.318 427.253 110.928C430.062 110.538 431.903 106.541 431.322 101.863C430.74 97.1839 428.028 93.6749 425.219 94.0647C422.409 94.3572 420.569 98.4511 421.15 103.13Z" fill="#744E32"/>
<path d="M389.279 104.982C389.86 109.66 392.572 113.17 395.382 112.877C398.191 112.487 400.032 108.491 399.45 103.812C398.869 99.1334 396.157 95.6243 393.347 96.0142C390.538 96.2092 388.698 100.303 389.279 104.982Z" fill="#744E32"/>
<path d="M521.219 131.3L536.331 145.726C537.494 147.48 536.525 149.917 534.491 150.405L513.469 150.502L521.219 131.3Z" fill="#453C36"/>
<path d="M404.779 67.8445C404.779 67.8445 402.357 61.8011 397.901 55.9527C395.673 53.0285 392.863 50.1043 389.57 47.9599C386.276 45.8155 382.401 44.5484 378.042 44.8408C377.945 44.8408 377.848 44.8408 377.751 44.8408C377.267 44.8408 376.879 45.3281 376.976 45.8155C376.976 46.3029 377.461 46.6928 377.945 46.5953C378.042 46.5953 378.042 46.5953 378.139 46.5953C382.014 46.3029 385.501 47.4726 388.504 49.422C393.057 52.3462 396.738 57.1224 399.257 61.1188C400.516 63.1658 401.388 64.9203 402.066 66.2849C402.357 66.9672 402.647 67.4546 402.744 67.8445C402.841 68.0394 402.841 68.1369 402.938 68.2344V68.3319C403.132 68.8192 403.616 69.0142 404.1 68.8192C404.779 68.8192 404.972 68.3319 404.779 67.8445Z" fill="#2D221C"/>
<path d="M426.672 69.3066C426.672 69.3066 426.962 66.1874 426.575 61.8011C426.284 57.7073 425.412 52.5412 423.378 47.765C422.312 45.4256 421.053 43.1837 419.212 41.2342C417.469 39.2848 415.241 37.7252 412.625 36.653C412.141 36.458 411.656 36.7505 411.463 37.1404C411.269 37.6277 411.56 38.1151 411.947 38.31C414.369 39.2848 416.306 40.6494 417.856 42.4039C420.278 45.0357 421.828 48.3498 422.894 51.8589C423.959 55.3679 424.444 58.8769 424.637 61.8986C424.831 64.043 424.831 65.7976 424.831 67.0647C424.831 67.747 424.831 68.2344 424.734 68.5268C424.734 68.7218 424.734 68.8192 424.734 68.9167V69.0142C424.734 69.5015 425.025 69.9889 425.509 69.9889C426.284 70.0864 426.672 69.794 426.672 69.3066Z" fill="#2D221C"/>
<path d="M380.948 45.5231C381.142 48.1549 379.204 50.3968 376.686 50.5917C374.07 50.7867 371.842 48.8372 371.648 46.3029C371.454 43.6711 373.392 41.4292 375.911 41.2343C378.526 41.0393 380.754 42.9888 380.948 45.5231Z" fill="#2D221C"/>
<path d="M415.725 37.2378C415.919 39.8696 413.981 42.1115 411.463 42.3064C408.847 42.5014 406.619 40.5519 406.425 38.0176C406.232 35.3858 408.169 33.1439 410.688 32.949C413.303 32.754 415.531 34.7035 415.725 37.2378Z" fill="#2D221C"/>
<path d="M419.116 117.166C419.309 119.408 418.534 121.552 417.178 123.112C415.822 124.671 413.885 125.744 411.656 125.938C409.428 126.133 407.297 125.354 405.747 123.989C404.197 122.624 403.132 120.675 402.938 118.433C402.841 117.653 402.163 116.971 401.388 117.068C400.613 117.166 399.935 117.848 400.032 118.628C400.419 124.769 405.747 129.35 411.85 128.96C417.953 128.57 422.506 123.209 422.119 117.068C422.022 116.289 421.344 115.606 420.569 115.704C419.697 115.606 419.116 116.386 419.116 117.166Z" fill="#744E32"/>
<path d="M502.232 39.6747C505.816 18.133 502.426 2.24487 490.607 0.197923C478.789 -1.75155 463.193 11.4074 459.608 33.0465C456.024 54.5881 473.558 77.2994 477.723 78.2742C481.308 79.0539 498.648 61.2163 502.232 39.6747Z" fill="#F7F4EF" fill-opacity="0.8"/>
<path d="M524.029 79.2488C538.85 72.5231 547.278 63.7505 543.597 55.5627C539.916 47.3749 525.191 42.9886 510.37 49.7143C495.548 56.44 488.767 76.9094 489.93 79.9311C490.898 82.4654 509.207 85.9744 524.029 79.2488Z" fill="#D5CCC4" fill-opacity="0.8"/>
<path d="M417.275 148.845C417.469 147.87 418.438 147.188 419.406 147.383C419.503 147.383 421.731 147.87 424.056 147.48C425.219 147.285 426.478 146.895 427.447 146.311C428.415 145.628 429.287 144.751 429.869 143.386C430.256 142.412 431.322 142.022 432.29 142.412C433.259 142.802 433.647 143.874 433.259 144.848C432.387 146.993 430.934 148.552 429.287 149.527C428.125 150.307 426.769 150.697 425.606 150.989C423.766 151.379 422.022 151.379 420.763 151.282C419.503 151.184 418.631 150.989 418.534 150.989C417.663 150.794 416.985 149.82 417.275 148.845Z" fill="#2D221C"/>
<path d="M50.6351 297.486C61.6252 312.817 80.4071 319.612 99.4489 317.132C106.934 316.142 114.553 313.789 121.683 309.908C124.214 308.573 126.683 307.006 129.034 305.304C133.048 302.415 136.575 299.24 139.691 295.76C157.379 276.056 160.843 248.1 146.572 228.166C132.855 209.08 106.972 203.173 83.5269 212.045C78.2033 214.038 73.0082 216.826 68.1726 220.348C66.5864 221.515 65.0772 222.662 63.6092 223.963C57.1054 229.586 51.9881 236.086 48.3289 243.111C39.194 260.877 39.2907 281.751 50.6351 297.486Z" fill="#FFC702"/>
<path d="M87.1545 275.442C95.7925 287.498 105.698 297.809 116.168 305.896C118.027 307.311 119.865 308.648 121.683 309.907C124.214 308.573 126.683 307.005 129.034 305.304C133.049 302.414 136.575 299.24 139.691 295.759C135.105 293.078 130.53 289.813 125.965 285.964C118.442 279.666 111.166 271.81 104.644 262.758C97.192 252.377 91.5885 241.506 88.0027 231.095C85.8091 224.378 84.2778 217.983 83.527 212.045C78.2034 214.038 73.0082 216.826 68.1727 220.348C66.5865 221.515 65.0773 222.662 63.6092 223.963C64.9454 230.244 66.8822 236.614 69.3993 242.996C73.709 253.961 79.6617 264.906 87.1545 275.442Z" fill="#453C36"/>
<path d="M50.6352 297.486C61.6253 312.817 80.4072 319.612 99.449 317.132C96.1473 314.939 92.861 312.493 89.59 309.795C82.0673 303.497 74.7907 295.64 68.2685 286.588C60.8168 276.207 55.2133 265.336 51.6275 254.925C50.2302 250.9 49.105 246.969 48.329 243.111C39.194 260.877 39.2907 281.751 50.6352 297.486Z" fill="#453C36"/>
<path d="M121.633 242.908C122.158 246.75 120.742 250.111 118.426 250.394C116.111 250.676 113.805 247.887 113.28 244.046C112.756 240.204 114.172 236.842 116.488 236.56C118.783 236.2 121.109 239.066 121.633 242.908Z" fill="#744E32"/>
<path d="M147.359 237.661C147.884 241.502 146.467 244.864 144.173 245.224C141.857 245.506 139.551 242.717 139.027 238.875C138.502 235.034 139.919 231.672 142.234 231.39C144.508 230.952 146.835 233.819 147.359 237.661Z" fill="#744E32"/>
<path d="M48.0247 286.401L39.0534 301.055C38.4992 302.695 39.7831 304.428 41.503 304.386L58.2341 300.032L48.0247 286.401Z" fill="#453C36"/>
<path d="M127.208 211.407C127.208 211.407 127.859 206.092 130.168 200.504C131.322 197.709 132.939 194.792 135.105 192.393C137.271 189.994 140.084 188.17 143.611 187.483C143.688 187.463 143.765 187.442 143.842 187.422C144.227 187.32 144.638 187.625 144.664 188.033C144.767 188.421 144.464 188.833 144.058 188.857C143.981 188.878 143.981 188.878 143.904 188.898C140.762 189.483 138.237 191.148 136.26 193.331C133.258 196.615 131.338 201.188 130.179 204.896C129.609 206.789 129.286 208.368 129.035 209.595C128.948 210.199 128.82 210.648 128.825 210.978C128.789 211.153 128.809 211.231 128.753 211.329L128.774 211.406C128.722 211.835 128.378 212.092 127.952 212.039C127.413 212.182 127.156 211.835 127.208 211.407Z" fill="#2D221C"/>
<path d="M110.112 217.186C110.112 217.186 109.224 214.767 108.607 211.199C107.975 207.883 107.578 203.593 108.189 199.367C108.542 197.283 109.071 195.235 110.123 193.297C111.098 191.38 112.54 189.67 114.393 188.266C114.737 188.009 115.184 188.14 115.42 188.409C115.677 188.755 115.549 189.204 115.282 189.441C113.562 190.726 112.31 192.22 111.448 193.941C110.077 196.544 109.544 199.505 109.437 202.519C109.33 205.533 109.684 208.425 110.168 210.868C110.466 212.613 110.836 214.008 111.103 215.015C111.247 215.558 111.349 215.945 111.488 216.157C111.529 216.312 111.55 216.39 111.57 216.467L111.591 216.545C111.694 216.932 111.565 217.381 111.18 217.483C110.585 217.724 110.215 217.573 110.112 217.186Z" fill="#2D221C"/>
<path d="M141.445 188.638C141.846 190.771 143.859 192.145 145.902 191.769C148.022 191.372 149.382 189.353 149.002 187.297C148.601 185.164 146.588 183.791 144.545 184.167C142.425 184.563 141.065 186.583 141.445 188.638Z" fill="#2D221C"/>
<path d="M112.052 189.385C112.453 191.518 114.466 192.892 116.509 192.515C118.63 192.119 119.99 190.099 119.609 188.044C119.209 185.911 117.196 184.537 115.152 184.914C113.032 185.31 111.672 187.33 112.052 189.385Z" fill="#2D221C"/>
<path d="M126.21 253.637C126.529 255.46 127.597 257.001 129.004 257.955C130.411 258.909 132.177 259.353 133.989 259.038C135.802 258.723 137.331 257.654 138.276 256.242C139.22 254.831 139.656 253.056 139.337 251.233C139.25 250.593 139.645 249.908 140.282 249.822C140.918 249.736 141.601 250.135 141.689 250.775C142.675 255.739 139.406 260.504 134.472 261.481C129.539 262.458 124.789 259.156 123.802 254.193C123.715 253.552 124.11 252.867 124.747 252.781C125.419 252.52 126.046 253.017 126.21 253.637Z" fill="#744E32"/>
<path d="M43.7989 209.562C36.4075 193.194 35.7527 179.849 44.716 175.73C53.6998 171.688 68.8725 178.86 76.2844 195.306C83.6757 211.674 74.5262 233.425 71.4204 235.078C68.7355 236.454 51.1902 225.93 43.7989 209.562Z" fill="#F7F4EF" fill-opacity="0.8"/>
<path d="M34.8165 245.617C21.6163 243.395 13.067 238.199 14.2668 230.914C15.4667 223.629 26.2469 217.037 39.4471 219.259C52.6473 221.48 62.3538 236.322 62.0668 238.969C61.8311 241.188 48.0167 247.838 34.8165 245.617Z" fill="#D5CCC4" fill-opacity="0.8"/>
<path d="M134.353 278.432C133.993 277.698 133.079 277.359 132.35 277.719C132.273 277.739 130.605 278.596 128.674 278.777C127.709 278.867 126.626 278.822 125.733 278.562C124.819 278.224 123.941 277.71 123.191 276.748C122.677 276.055 121.748 275.969 121.06 276.484C120.372 276.998 120.29 277.932 120.804 278.625C121.949 280.146 123.433 281.079 124.948 281.507C126.036 281.882 127.196 281.905 128.182 281.893C129.728 281.815 131.114 281.447 132.094 281.104C133.075 280.761 133.727 280.422 133.804 280.402C134.456 280.063 134.789 279.145 134.353 278.432Z" fill="#2D221C"/>
<path d="M160.614 274.737C159.367 273.886 158.066 272.817 157.394 271.48C155.724 273.157 154.054 274.835 152.629 276.569C147.123 282.878 141.345 289.023 135.703 295.25C130.308 301.071 125.402 307.003 120.576 313.262C118.548 315.836 116.492 318.301 114.248 320.465C116.003 322.925 118.55 324.844 121.185 325.703C126.048 327.173 128.835 320.603 131.574 317.625C137.325 311.371 142.56 304.897 147.878 298.287C152.674 292.381 158.176 286.997 162.837 281.009C163.326 281.121 163.815 281.232 164.251 281.126C165.368 280.969 166.572 279.751 165.926 278.523C165.094 276.531 162.403 275.917 160.614 274.737Z" fill="#FFC72C"/>
<path d="M165.945 265.813C166.431 266.388 167.027 266.935 167.705 267.347C169.17 268.145 171.781 268.432 172.446 266.422C172.778 265.417 172.456 264.571 171.616 263.968C172.026 263.753 172.326 263.564 172.573 263.157C172.93 262.724 173.015 262.125 172.908 261.689C170.614 263.173 168.293 264.548 165.945 265.813Z" fill="#FFC72C"/>
<path d="M173.733 260.333C174.209 262.758 172.972 264.792 172.387 267.13C171.717 270.065 171.292 273.056 170.242 275.854C169.771 277.239 169.495 277.999 168.346 278.972C167.006 280.108 165.719 281.461 164.541 282.788C162.05 285.359 159.803 287.986 157.421 290.531C153.586 294.7 149.861 298.843 146.163 303.094C139.231 311.138 132.89 320.654 124.631 327.519C123.804 329.338 122.435 330.827 120.311 331.114C119.875 331.221 119.412 331.218 118.923 331.106C118.234 332.545 115.751 333.728 114.469 334.156C112.233 334.932 109.51 335.135 107.503 334.007C106.038 333.21 105.038 331.952 104.666 330.426C103.974 327.591 105.274 323.925 106.894 321.566C107.085 321.404 107.141 321.159 107.332 320.997C107.415 320.862 107.715 320.673 107.689 320.564C107.771 320.428 107.691 320.101 107.665 319.992C107.721 319.747 107.803 319.612 107.75 319.394C107.779 319.04 107.917 318.66 108.056 318.28C108.332 317.519 108.827 316.706 109.374 316.11C109.648 315.812 109.895 315.405 110.169 315.108C110.443 314.81 111.044 314.432 111.1 314.188C112.35 309.84 116.069 306.623 119.082 303.347C123.272 298.745 127.3 293.951 131.6 289.321C135.873 284.583 140.39 279.901 144.825 275.354C148.712 271.403 152.278 266.606 157.327 264.104C159.074 263.216 160.845 262.899 162.645 262.229C165.945 261.078 169.056 259.626 172.435 258.802C173.307 258.589 173.711 259.299 173.871 259.953C173.679 260.115 173.706 260.224 173.733 260.333ZM171.824 261.03C169.67 261.671 167.625 262.285 165.471 262.926C165.982 264.072 167.038 265.085 168.013 265.771C168.827 266.266 169.67 266.406 170.539 266.656C171.013 264.808 171.486 262.96 171.824 261.03ZM157.346 265.601C156.08 267.989 159.324 271.817 160.866 273.405C162.977 275.431 165.743 277.297 168.71 277.151C169 274.077 169.561 271.169 170.231 268.233C169.034 268.063 167.732 267.457 167 266.827C165.998 266.032 164.618 264.636 164.626 263.248C162.036 263.995 159.936 264.854 157.346 265.601ZM117.075 330.633C115.527 329.971 114.2 328.793 112.927 327.833C111.084 326.435 108.781 324.571 107.978 322.226C106.436 325.374 105.429 330.24 108.984 332.029C112.132 333.571 114.724 332.361 117.075 330.633ZM122.56 328.025C120.22 327.902 116.998 325.108 115.889 323.877C114.482 322.372 113.131 320.622 112.217 318.766C111.759 317.838 111.52 316.857 111.281 315.876C110.427 317.586 109.848 318.998 110.164 320.768C110.507 322.648 112.589 325.028 114.051 326.288C116.056 327.878 117.41 329.165 119.888 328.907C121.167 328.942 121.794 328.673 122.56 328.025ZM166.604 278.935C161.603 277.845 154.623 270.539 155.599 266.489C148.125 274.203 140.948 282.19 133.934 290.369C126.894 298.439 120.313 306.974 112.621 314.741C113.647 316.107 114.182 317.825 115.099 319.218C116.152 320.694 117.532 322.09 118.968 323.241C119.375 323.488 123.522 326.288 123.796 325.99C126.375 322.358 129.058 319.625 131.688 316.674C135.878 312.071 139.609 307.003 143.799 302.4C148.072 297.662 152.589 292.98 157.024 288.433C159.819 285.21 163.079 281.528 166.604 278.935Z" fill="#877F79"/>
<path d="M123.684 116.952L120.312 104.931L124.345 103.8L123.635 98.9438L118.997 100.245L118.158 97.2538C117.777 95.8974 117.893 94.8679 119.84 94.3216L122.319 93.6249L121.143 89.4334C120.699 89.498 119.191 89.7832 117.478 90.2638C113.901 91.2675 112.064 94.1381 113.189 98.1471L114.159 101.603L110.113 102.738L111.428 107.424L115.474 106.289L118.846 118.31L123.684 116.952Z" fill="#877F79"/>
<path d="M204.325 42.1581L203.806 45.9322L209.144 46.667C208.062 48.7563 205.747 50.045 203.286 49.7063C200.165 49.2767 197.975 46.3871 198.404 43.2659C198.834 40.1447 201.723 37.9544 204.845 38.384C206.198 38.5702 207.433 39.2344 208.323 40.2549L211.194 37.7505C209.7 36.0372 207.63 34.9218 205.364 34.6098C200.161 33.8937 195.346 37.5438 194.63 42.7465C193.914 47.9491 197.564 52.7644 202.767 53.4805C207.969 54.1965 212.785 50.5464 213.501 45.3438L213.76 43.4568L204.325 42.1581Z" fill="#877F79"/>
<path d="M234.182 92.1313C234.082 90.9141 233.356 89.8431 232.288 89.3359C230.34 88.4001 222.144 86.9862 222.144 86.9862C222.144 86.9862 213.949 85.5723 211.803 85.779C210.649 85.9027 209.581 86.6874 209.078 87.8003C208.172 89.8353 207.41 94.2487 207.41 94.2487C207.41 94.2487 206.645 98.6842 206.821 100.883C206.922 102.1 207.648 103.171 208.715 103.678C210.685 104.618 218.859 106.028 218.859 106.028C218.859 106.028 227.055 107.442 229.2 107.235C230.376 107.115 231.419 106.349 231.922 105.237C232.828 103.201 233.589 98.7882 233.589 98.7882C233.589 98.7882 234.376 94.3562 234.182 92.1313ZM217.189 100.134L218.596 91.9798L224.707 97.2328L217.189 100.134Z" fill="#877F79"/>
</svg>
