<svg width="567" height="326" viewBox="0 0 567 326" fill="none" xmlns="http://www.w3.org/2000/svg">
<path d="M293.803 264.882V301.824L258.338 322.114L222.873 301.824V264.881L258.338 244.591L293.803 264.882Z" stroke="#FFE99A"/>
<path d="M217.377 264.882V301.824L181.912 322.114L146.446 301.824V264.881L181.912 244.591L217.377 264.882Z" stroke="#FFE99A"/>
<path d="M256.714 201.942V238.884L221.249 259.174L185.783 238.884V201.942L221.249 181.652L256.714 201.942Z" stroke="#FFC702"/>
<path d="M141.679 264.425V301.367L106.213 321.657L70.7478 301.367V264.425L106.213 244.135L141.679 264.425Z" stroke="#FFC702"/>
<path d="M180.288 201.942V238.884L144.822 259.174L109.357 238.884V201.942L144.822 181.652L180.288 201.942Z" stroke="#FFE99A"/>
<path d="M566.5 203.867V240.809L531.035 261.099L495.569 240.809V203.867L531.035 183.577L566.5 203.867Z" stroke="#FFE99A"/>
<path d="M490.074 203.867V240.809L454.608 261.099L419.143 240.809V203.867L454.608 183.577L490.074 203.867Z" stroke="#FFE99A"/>
<path d="M529.411 140.928V177.87L493.945 198.16L458.48 177.87V140.928L493.945 120.638L529.411 140.928Z" stroke="#FFC702"/>
<path d="M414.375 203.411V240.353L378.91 260.643L343.444 240.353V203.411L378.91 183.121L414.375 203.411Z" stroke="#FFC702"/>
<path d="M452.984 140.928V177.87L417.519 198.16L382.054 177.87V140.928L417.519 120.638L452.984 140.928Z" stroke="#FFE99A"/>
<path d="M284.929 56.6443C283.416 59.2054 281.087 61.8829 277.711 61.1844C277.013 61.068 276.431 60.8352 275.965 60.486C276.081 58.9726 276.081 57.5756 276.081 56.0622C276.547 53.3847 276.314 50.125 273.287 50.2415C269.795 50.3579 269.329 55.713 269.795 58.1577C269.795 58.5069 269.911 58.7397 270.028 59.089C268.514 60.8352 266.768 62.3486 263.974 61.8829C263.858 61.8829 263.741 61.8829 263.625 61.7665C265.721 58.3905 266.419 52.3369 261.879 50.4743C257.921 48.9609 255.825 53.6175 255.942 56.8771C256.058 58.5069 256.524 60.0203 257.339 61.4173C256.989 61.6501 256.407 61.7665 255.709 61.7665C253.497 61.7665 251.518 60.8352 251.634 58.2741C251.751 56.0622 248.025 55.9458 247.793 58.0412C247.094 64.444 253.381 67.0052 258.503 65.4918C259.9 74.4557 262.81 83.3032 263.509 92.3836C263.741 95.1775 268.049 94.8283 267.816 92.0343C267.118 83.3032 264.324 74.6885 262.81 66.0739C263.159 66.1903 263.509 66.3067 263.974 66.4231C266.535 66.8888 268.864 66.1903 270.726 64.7933C269.795 73.9901 269.329 83.3032 268.631 92.3836C268.514 94.8283 272.24 95.6432 272.473 93.0821C273.52 83.8853 274.917 74.4557 275.616 65.0261C280.622 66.5395 287.141 63.862 288.421 57.9248C289.12 55.5965 285.977 54.898 284.929 56.6443Z" fill="#FFC72C"/>
<path d="M215.08 39.2984C214.614 39.182 214.265 39.0655 213.8 38.9491C213.45 38.8327 213.217 38.5999 212.868 38.7163C212.752 38.7163 212.635 38.8327 212.635 38.9491C212.752 39.764 214.032 39.9969 214.731 40.1133C215.429 40.1133 215.662 39.4148 215.08 39.2984Z" fill="#877F79"/>
<path d="M267.467 26.6091C253.381 25.6777 240.459 36.1551 237.665 49.6592C236.268 56.2948 237.199 63.8618 241.041 69.5661C246.279 77.2495 254.894 80.2762 257.222 89.473C255.942 89.7058 254.428 90.2879 253.963 91.2192C251.984 92.6162 251.984 95.9922 253.73 97.7384C253.846 97.8549 253.963 97.9713 254.079 98.0877C252.333 99.8339 252.449 103.094 253.846 104.956C256.64 108.449 263.043 107.75 266.885 107.75C271.541 107.75 278.06 107.634 281.204 103.443C282.833 101.347 282.368 98.9026 280.389 97.622C280.971 97.2728 281.437 96.8071 281.902 96.225C283.648 94.0132 283.183 90.9864 280.622 90.0551C279.923 89.1237 278.41 88.6581 277.129 88.8909C278.293 84.9328 280.04 81.4404 283.183 78.2972C285.86 75.6197 288.887 73.4078 291.215 70.381C295.406 64.7931 296.454 57.2261 295.173 50.4741C292.612 36.8535 280.971 27.5404 267.467 26.6091ZM268.165 105.655C264.906 105.655 252.1 105.189 255.01 98.6698C258.736 100.765 264.556 100.067 268.282 100.067C271.541 100.067 275.849 99.9503 279.108 98.4369C282.251 104.49 272.007 105.538 268.165 105.655ZM280.738 92.1505C282.717 97.9713 270.61 98.4369 267.467 98.4369C265.721 98.4369 264.091 98.5533 262.344 98.4369C260.948 98.4369 259.667 98.3205 258.27 98.0877C255.942 97.8549 254.661 96.3415 254.545 93.5475C256.757 95.8758 263.741 94.9445 266.303 94.8281C268.98 94.8281 279.108 95.1773 280.738 92.1505ZM262.694 74.4555C262.228 71.0795 261.762 67.587 261.18 64.0946C264.556 65.9572 269.329 64.9095 272.473 62.232C272.473 62.232 272.473 62.2319 272.473 62.3484C271.891 72.5929 272.123 82.9538 270.494 93.0818C268.98 93.1983 267.467 93.1983 266.186 93.1983C265.604 93.1983 264.906 93.1983 264.324 93.1983C264.789 87.0283 263.625 80.6255 262.694 74.4555ZM272.123 56.062C272.589 54.1993 274.102 54.4322 274.335 55.0142C274.684 55.7127 274.568 56.7605 274.102 57.6918C273.986 57.2261 273.87 56.644 273.637 56.1784C273.52 55.8291 272.938 55.8291 272.938 56.2948C272.822 57.4589 272.822 58.5067 272.705 59.6708C272.473 58.7395 271.89 56.9933 272.123 56.062ZM276.431 92.1505C276.663 91.3356 276.78 90.5207 277.013 89.8222C279.108 90.87 278.06 91.452 276.431 92.1505ZM292.845 58.1574C292.03 67.3542 285.86 71.3123 280.272 77.4823C276.314 81.7896 274.335 86.5626 275.383 92.3834V92.4998C274.102 92.849 272.705 93.0818 271.308 93.0818C273.055 87.0283 273.055 80.8583 273.637 74.5719C273.986 71.1959 274.684 67.587 274.801 63.9782C280.156 66.4229 288.072 60.0201 283.299 54.5486C283.066 54.3158 282.717 54.5486 282.833 54.8978C284.929 60.3693 279.457 65.1423 274.801 62.1155C274.801 61.417 274.684 60.6021 274.684 59.9037C275.15 59.0888 275.616 58.1574 275.732 57.2261C276.081 55.2471 275.616 52.2203 272.822 53.1516C269.911 54.0829 270.843 58.8559 271.774 60.9514C271.774 61.0678 271.891 61.0678 271.891 61.0678C271.425 61.4171 270.843 61.8827 270.377 62.1155C267.467 63.8618 265.604 63.9782 262.694 62.4648C261.995 62.1155 261.413 61.7663 260.948 61.3006C261.646 60.1365 262.228 58.8559 262.461 57.5754C262.927 55.8291 263.392 52.8024 260.948 52.5695C256.873 52.2203 257.688 58.9723 258.619 60.9514C258.736 61.0678 258.736 61.1842 258.852 61.3006C258.852 61.417 258.852 61.6499 258.852 61.7663C256.757 64.0946 251.751 63.8618 250.47 57.9246C250.354 57.3425 249.772 57.2261 249.655 57.6918C248.375 61.7663 250.936 65.4916 255.476 65.0259C256.873 64.9095 258.037 64.211 259.085 63.2797C259.551 65.9572 260.249 68.6348 260.715 71.3123C262.112 78.4136 262.81 85.7477 263.858 92.849C262.577 92.849 261.413 92.849 260.133 92.849C257.571 92.7326 255.127 91.8013 257.455 89.9387C257.572 90.6371 257.688 91.2192 257.804 91.9177C257.804 92.3834 258.503 92.3834 258.503 91.9177C258.386 85.6313 256.64 80.6255 251.984 76.3181C246.163 70.7302 240.691 66.4229 239.876 57.6918C238.479 42.4415 251.751 27.6568 267.583 29.0538C282.251 30.6836 294.242 42.9071 292.845 58.1574ZM260.715 58.5067C260.598 58.7395 260.482 59.0888 260.365 59.3216C260.133 58.1574 259.9 56.8769 259.551 55.7127C259.551 55.5963 259.434 55.5963 259.434 55.5963L259.551 55.4799C262.112 52.4531 261.53 56.9933 260.715 58.5067Z" fill="#877F79"/>
<path d="M261.064 19.857C260.365 20.5555 260.715 21.836 260.831 22.7673C260.948 23.3494 261.762 23.3494 261.879 22.7673C261.995 21.836 262.345 20.5555 261.53 19.857C261.413 19.7405 261.297 19.7405 261.064 19.857Z" fill="#877F79"/>
<path d="M260.598 16.9467C260.715 17.5288 261.413 17.5288 261.53 16.9467C261.995 12.9886 264.207 5.88731 260.831 2.74412C260.598 2.51129 260.249 2.62771 260.133 2.97695C259.783 5.07242 260.133 7.40071 260.249 9.49617C260.249 11.8245 260.249 14.3856 260.598 16.9467Z" fill="#877F79"/>
<path d="M278.177 24.863C280.04 23.6989 280.971 21.3706 281.902 19.508C282.834 17.6453 284.23 15.2006 283.998 12.9887C283.998 12.6395 283.648 12.4067 283.299 12.6395C281.669 13.5708 281.087 15.8991 280.505 17.5289C279.69 19.8572 278.643 22.0691 277.595 24.281C277.478 24.7466 277.828 25.0959 278.177 24.863Z" fill="#877F79"/>
<path d="M284.813 9.61253C285.162 9.14687 285.278 8.56481 285.511 8.09915C285.744 7.51707 285.86 6.935 285.744 6.35293C285.744 6.00368 285.395 5.88726 285.045 6.12009C284.23 6.81858 283.648 8.33198 283.881 9.37971C284.114 9.72895 284.58 9.96178 284.813 9.61253Z" fill="#877F79"/>
<path d="M291.448 33.2449C292.263 32.8957 292.962 32.43 293.544 31.7315C294.009 31.1495 294.941 30.3346 295.057 29.5197C295.057 29.2868 294.941 29.054 294.708 29.054C293.893 29.054 293.311 29.8689 292.845 30.451C292.263 31.1495 291.797 31.9644 291.099 32.43C290.75 32.7793 290.866 33.4778 291.448 33.2449Z" fill="#877F79"/>
<path d="M298.317 27.0751C300.063 26.0274 301.576 24.6304 303.09 23.3499C304.021 22.535 306.349 20.9052 305.884 19.5082C305.884 19.2753 305.651 19.1589 305.418 19.1589C304.603 19.1589 304.37 19.6246 303.905 20.2067C303.206 21.0216 302.508 21.7201 301.809 22.4185C300.412 23.6991 298.782 24.8632 297.735 26.4931C297.502 26.8423 297.967 27.308 298.317 27.0751Z" fill="#877F79"/>
<path d="M298.433 44.3043C300.878 44.1879 302.973 42.9073 305.301 42.0924C307.164 41.3939 309.376 41.1611 310.424 39.2985C310.54 39.0656 310.424 38.8328 310.191 38.8328C306.116 38.7164 301.925 41.8596 298.317 43.373C297.851 43.7222 297.851 44.4207 298.433 44.3043Z" fill="#877F79"/>
<path d="M315.895 36.9701C315.546 36.8537 315.313 37.0865 314.964 37.2029C314.615 37.4357 314.149 37.5522 313.683 37.6686C313.101 37.785 313.451 38.5999 313.916 38.4835C314.615 38.3671 315.895 38.1342 316.012 37.3193C316.012 37.0865 316.012 36.9701 315.895 36.9701Z" fill="#877F79"/>
<path d="M301.111 57.4591C300.645 57.5755 300.645 58.1576 301.111 58.274C304.72 58.5068 308.91 58.5068 312.519 57.8083C313.101 57.6919 313.101 56.7606 312.519 56.7606C308.91 56.1785 304.836 56.9934 301.111 57.4591Z" fill="#877F79"/>
<path d="M300.645 70.8468C299.481 70.4976 298.317 70.3811 297.269 70.0319C296.803 69.9155 296.454 70.614 296.92 70.8468C297.851 71.3125 298.782 71.6617 299.714 72.011C300.528 72.3602 301.46 72.7094 302.391 72.3602C302.508 72.3602 302.624 72.1274 302.624 72.011C302.158 71.3125 301.46 71.0796 300.645 70.8468Z" fill="#877F79"/>
<path d="M315.662 75.5034C312.286 74.1065 308.561 73.7572 305.185 72.7095C304.719 72.5931 304.603 73.1751 304.952 73.408C307.746 75.387 311.937 76.3184 315.313 77.0168C316.244 77.2497 316.594 75.8527 315.662 75.5034Z" fill="#877F79"/>
<path d="M250.237 25.3287C250.587 25.5615 250.936 25.0959 250.703 24.7466C249.539 22.5348 248.491 20.4393 247.56 18.111C246.978 16.4812 246.396 14.1529 244.649 13.2216C244.3 13.1052 244.067 13.338 243.951 13.5708C243.835 15.6663 245.348 18.111 246.279 19.9736C247.327 21.9527 248.258 24.281 250.237 25.3287Z" fill="#877F79"/>
<path d="M243.02 10.3112C243.253 10.544 243.718 10.4276 243.835 10.0784C244.067 9.03064 243.485 7.51725 242.554 6.81876C242.321 6.58593 241.972 6.70235 241.972 7.0516C241.972 7.63367 242.088 8.21574 242.321 8.79782C242.438 9.37989 242.67 9.96196 243.02 10.3112Z" fill="#877F79"/>
<path d="M237.548 33.3614C236.85 32.8957 236.384 32.0808 235.802 31.3823C235.336 30.8002 234.754 30.1017 233.939 30.1017C233.706 30.1017 233.59 30.3346 233.59 30.5674C233.706 31.3823 234.638 32.1972 235.22 32.6629C235.802 33.3614 236.5 33.827 237.315 34.0598C237.781 34.4091 237.897 33.5942 237.548 33.3614Z" fill="#877F79"/>
<path d="M225.325 24.5138C226.838 25.7943 228.468 27.1913 230.214 28.1226C230.563 28.3555 231.029 27.8898 230.796 27.5406C229.748 25.9108 228.002 24.863 226.605 23.5825C225.907 23.0004 225.208 22.3019 224.626 21.6034C224.044 21.0213 223.811 20.4393 222.88 20.4393C222.647 20.4393 222.531 20.5557 222.414 20.7885C221.949 22.3019 224.393 23.8153 225.325 24.5138Z" fill="#877F79"/>
<path d="M223.695 43.4893C226.023 44.1878 228.119 45.352 230.68 45.4684C231.145 45.4684 231.145 44.7699 230.796 44.6535C227.071 43.2565 222.88 40.2297 218.805 40.4625C218.573 40.4625 218.34 40.6954 218.572 40.9282C219.62 42.6744 221.716 42.9072 223.695 43.4893Z" fill="#877F79"/>
<path d="M216.943 59.4383C220.552 60.0204 224.743 59.904 228.351 59.4383C228.817 59.4383 228.817 58.7398 228.351 58.6234C224.743 58.2741 220.552 57.6921 216.943 58.2741C216.361 58.3906 216.361 59.3219 216.943 59.4383Z" fill="#877F79"/>
<path d="M232.659 71.0797C231.611 71.4289 230.447 71.6618 229.283 72.011C228.468 72.2438 227.769 72.5931 227.42 73.408C227.42 73.5244 227.537 73.6408 227.653 73.7572C228.584 73.9901 229.516 73.6408 230.33 73.2916C231.262 72.9423 232.193 72.4767 233.124 72.011C233.474 71.6618 233.124 70.8469 232.659 71.0797Z" fill="#877F79"/>
<path d="M224.743 73.9899C221.367 75.154 217.641 75.7361 214.382 77.1331C213.45 77.4823 213.8 78.8793 214.847 78.6464C216.826 78.1808 218.805 77.3659 220.785 76.7838C222.298 76.2017 223.811 75.7361 225.208 74.6883C225.441 74.4555 225.208 73.757 224.743 73.9899Z" fill="#877F79"/>
<path d="M263.974 33.3612C260.365 32.8955 256.873 34.0597 253.846 36.0387C251.402 37.6686 247.676 40.4625 247.909 43.6057C247.909 43.8385 248.258 44.0714 248.491 43.9549C250.703 42.3251 251.984 39.764 254.195 38.0178C256.873 35.8059 260.365 34.0597 263.858 34.1761C264.44 34.1761 264.44 33.3612 263.974 33.3612Z" fill="#877F79"/>
<path d="M245.697 47.5639C244.417 49.1937 243.252 51.7548 244.417 53.7339C244.533 53.9667 244.999 53.9667 245.115 53.7339C245.464 52.919 245.581 51.9876 245.697 51.1727C245.814 50.125 246.163 49.1937 246.745 48.3788C246.978 47.6803 246.046 46.9818 245.697 47.5639Z" fill="#877F79"/>
<path d="M281.341 297.537L272.128 321.272C270.643 323.427 267.479 323.434 265.929 321.316L255.988 297.464L281.341 297.537Z" fill="#453C36"/>
<path d="M381.214 203.278C405.158 191.638 418.56 177.008 412.158 163.842C405.755 150.644 381.466 144.314 357.522 155.955C333.579 167.595 323.448 201.172 325.419 206.021C327.112 210.159 357.271 214.919 381.214 203.278Z" fill="#F2F0EC" fill-opacity="0.8"/>
<path d="M357.292 252.995C374.489 263.075 389.159 265.383 394.717 255.892C400.276 246.433 394.16 228.66 376.931 218.58C359.734 208.5 334.589 216.122 332.412 219.369C330.551 222.152 340.095 242.881 357.292 252.995Z" fill="#CFC6BD" fill-opacity="0.8"/>
<path d="M165.527 208.206C141.077 197.671 127.021 183.669 132.815 170.224C138.609 156.747 162.583 149.315 187.034 159.85C211.484 170.385 223.138 203.464 221.39 208.398C219.855 212.609 189.978 218.741 165.527 208.206Z" fill="#F2F0EC" fill-opacity="0.8"/>
<path d="M191.663 256.779C174.944 267.634 160.395 270.61 154.409 261.382C148.424 252.187 153.722 234.154 170.473 223.298C187.191 212.442 212.658 218.908 214.981 222.052C216.968 224.748 208.38 245.891 191.663 256.779Z" fill="#CFC6BD" fill-opacity="0.8"/>
<path d="M342.23 226.356C342.262 227.758 342.228 229.162 342.196 230.598C342.095 233.309 341.895 235.989 341.564 238.639C340.136 250.418 336.569 261.364 331.307 270.979C331.183 271.243 331.025 271.475 330.9 271.706C317.513 295.569 293.756 311.088 267.24 310.128C244.48 309.31 224.612 296.582 212.068 277.358C210.277 274.625 208.645 271.758 207.174 268.79C202.522 259.369 199.474 248.802 198.402 237.57C198.275 236.301 198.181 235.03 198.119 233.759C197.992 231.054 197.961 228.281 198.061 225.506C198.297 218.714 199.256 212.101 200.842 205.833C201.262 204.225 201.683 202.649 202.202 201.104C212.541 168.077 240.722 144.822 273.05 145.976C301.328 146.961 325.133 166.385 336.004 193.773C337.63 197.846 338.934 202.091 339.948 206.472C341.365 212.802 342.171 219.505 342.23 226.356Z" fill="#453C36"/>
<path d="M342.23 226.356C336.316 228.873 330.168 231.101 323.752 233.042C307.097 238.121 288.899 241.31 269.733 242.172C247.7 243.198 226.672 241.068 207.608 236.348C204.392 235.541 201.207 234.667 198.118 233.694C197.991 230.989 197.96 228.216 198.06 225.44C198.296 218.648 199.254 212.036 200.84 205.768C201.26 204.159 201.681 202.584 202.2 201.038C208.285 203.15 214.786 204.96 221.67 206.368C235.931 209.338 251.753 210.641 268.278 209.872C287.279 208.981 305.046 205.475 320.454 200.098C325.957 198.178 331.129 196.037 336.002 193.707C337.629 197.781 338.933 202.025 339.947 206.407C341.365 212.802 342.171 219.505 342.23 226.356Z" fill="#FFC702"/>
<path d="M330.867 271.707C317.48 295.57 293.723 311.088 267.207 310.128C244.447 309.31 224.58 296.583 212.036 277.358C216.208 278.6 220.539 279.676 225.031 280.617C239.292 283.587 255.113 284.89 271.638 284.121C290.639 283.23 308.407 279.724 323.815 274.347C326.21 273.51 328.572 272.64 330.867 271.707Z" fill="#FFC702"/>
<path d="M239.806 183.278C239.921 188.3 242.493 192.352 245.558 192.282C248.624 192.212 251.009 188.079 250.894 183.024C250.779 178.002 248.207 173.95 245.141 174.02C242.076 174.09 239.69 178.223 239.806 183.278Z" fill="#FFC702"/>
<path d="M287.874 182.179C287.989 187.201 290.561 191.254 293.626 191.184C296.692 191.114 299.077 186.981 298.962 181.926C298.847 176.904 296.275 172.852 293.209 172.922C290.144 172.992 287.759 177.125 287.874 182.179Z" fill="#FFC702"/>
<path d="M276.831 148.662C276.829 148.597 278.187 140.899 282.112 132.75C284.074 128.692 286.687 124.521 290.101 121.148C293.548 117.773 297.862 115.228 303.132 114.553C303.23 114.551 303.327 114.516 303.425 114.513C304.043 114.434 304.575 114.879 304.622 115.498C304.701 116.116 304.257 116.648 303.638 116.695C303.573 116.696 303.475 116.698 303.378 116.733C298.661 117.363 294.797 119.605 291.605 122.712C286.817 127.357 283.607 133.955 281.643 139.384C280.661 142.082 279.966 144.512 279.549 146.251C279.34 147.104 279.193 147.825 279.073 148.285C279.013 148.515 278.985 148.711 278.955 148.842L278.926 148.973L278.927 149.006C278.81 149.596 278.264 150 277.641 149.884C277.118 149.83 276.714 149.285 276.831 148.662Z" fill="#2D221C"/>
<path d="M261.26 146.93C261.259 146.897 260.196 143.202 257.998 138.391C255.904 133.838 252.775 128.265 248.398 123.765C246.225 121.498 243.7 119.5 240.861 118.064C238.022 116.628 234.837 115.722 231.344 115.671C230.724 115.652 230.246 116.153 230.227 116.741C230.208 117.361 230.709 117.839 231.296 117.858C234.43 117.917 237.286 118.7 239.861 120.012C243.724 121.979 246.993 125.134 249.683 128.629C252.373 132.124 254.452 135.992 255.996 139.285C257.06 141.61 257.858 143.68 258.381 145.169C258.627 145.913 258.836 146.496 258.975 146.884C259.045 147.078 259.081 147.241 259.116 147.338L259.152 147.468L259.152 147.5C259.329 148.083 259.924 148.429 260.507 148.252C261.091 148.108 261.437 147.513 261.26 146.93Z" fill="#2D221C"/>
<path d="M299.905 116.095C300.302 119.218 303.192 121.436 306.315 121.038C309.438 120.641 311.656 117.751 311.258 114.628C310.861 111.505 307.971 109.287 304.848 109.685C301.692 110.083 299.475 112.972 299.905 116.095Z" fill="#2D221C"/>
<path d="M235.082 115.033C236.42 117.906 235.16 121.295 232.286 122.634C229.413 123.972 226.024 122.711 224.686 119.838C223.347 116.965 224.608 113.575 227.481 112.237C230.354 110.899 233.744 112.159 235.082 115.033Z" fill="#2D221C"/>
<path d="M278.388 192.544C278.548 195.281 277.562 197.816 275.876 199.714C274.19 201.612 271.772 202.875 269.034 203.002C266.297 203.163 263.762 202.177 261.864 200.491C259.966 198.805 258.703 196.387 258.575 193.649C258.52 192.639 257.654 191.875 256.644 191.931C255.633 191.987 254.87 192.853 254.926 193.863C255.358 201.357 261.754 207.084 269.249 206.684C276.743 206.252 282.47 199.857 282.07 192.362C282.015 191.351 281.149 190.588 280.139 190.644C279.128 190.667 278.332 191.533 278.388 192.544Z" fill="#FFC702"/>
<path d="M351.11 209.447C350.468 209.919 349.551 209.777 349.112 209.134C349.079 209.102 348.002 207.659 346.444 206.585C345.648 206.048 344.757 205.612 343.84 205.437C342.922 205.262 341.978 205.349 340.912 205.83C340.202 206.173 339.347 205.866 339.004 205.123C338.661 204.414 338.968 203.558 339.711 203.215C341.357 202.427 343.018 202.324 344.461 202.617C345.542 202.821 346.531 203.255 347.39 203.725C348.679 204.478 349.679 205.369 350.381 206.103C351.083 206.838 351.487 207.383 351.52 207.415C351.894 208.092 351.751 208.976 351.11 209.447Z" fill="#2D221C"/>
<path d="M188.762 212.667C189.425 213.109 190.334 212.925 190.743 212.263C190.775 212.229 191.785 210.738 193.293 209.594C194.063 209.022 194.933 208.545 195.841 208.329C196.75 208.112 197.697 208.156 198.784 208.588C199.509 208.898 200.349 208.552 200.658 207.795C200.968 207.07 200.622 206.229 199.865 205.92C198.185 205.208 196.52 205.181 195.092 205.54C194.022 205.793 193.054 206.272 192.217 206.78C190.963 207.592 190.006 208.527 189.338 209.293C188.67 210.059 188.292 210.622 188.26 210.656C187.917 211.349 188.1 212.225 188.762 212.667Z" fill="#2D221C"/>
<path d="M505.492 121.21C498.698 139.113 482.037 150.669 462.707 153.192C455.105 154.169 447.017 153.843 439.01 151.89C436.179 151.239 433.348 150.344 430.599 149.286C425.908 147.495 421.621 145.298 417.658 142.694C395.174 127.964 384.498 101.434 393.314 78.1597C401.806 55.8616 425.665 43.329 450.98 45.9332C456.722 46.5029 462.545 47.8863 468.207 50.0836C470.067 50.816 471.846 51.5484 473.626 52.4436C481.471 56.2685 488.184 61.314 493.603 67.2548C507.19 82.3101 512.528 102.818 505.492 121.21Z" fill="#FFC702"/>
<path d="M463.92 109.084C458.582 123.163 451.546 135.858 443.377 146.519C441.921 148.39 440.466 150.181 439.01 151.89C436.179 151.239 433.348 150.344 430.599 149.286C425.908 147.495 421.621 145.298 417.658 142.694C421.459 138.869 425.099 134.475 428.577 129.51C434.319 121.372 439.414 111.77 443.458 101.19C448.068 89.0645 450.737 76.9389 451.546 65.7898C451.95 58.6284 451.789 51.9552 450.98 45.9331C456.722 46.5028 462.545 47.8862 468.207 50.0835C470.067 50.8159 471.846 51.5483 473.626 52.4435C473.949 58.9539 473.707 65.7084 472.898 72.6257C471.523 84.5072 468.53 96.7956 463.92 109.084Z" fill="#453C36"/>
<path d="M505.492 121.21C498.698 139.113 482.037 150.669 462.707 153.192C465.376 150.181 467.964 146.926 470.471 143.426C476.214 135.288 481.309 125.686 485.353 115.106C489.963 102.98 492.632 90.8549 493.441 79.7058C493.764 75.3927 493.845 71.2423 493.603 67.2547C507.19 82.31 512.528 102.818 505.492 121.21Z" fill="#453C36"/>
<path d="M421.621 86.1349C422.106 90.0412 424.371 92.9708 426.716 92.6453C429.062 92.3198 430.599 88.9832 430.113 85.077C429.628 81.1707 427.363 78.2411 425.018 78.5666C422.673 78.8107 421.136 82.2287 421.621 86.1349Z" fill="#744E32"/>
<path d="M395.012 87.6811C395.497 91.5873 397.762 94.517 400.107 94.2729C402.453 93.9474 403.99 90.6108 403.504 86.7045C403.019 82.7983 400.754 79.8686 398.409 80.1941C396.064 80.3569 394.527 83.7749 395.012 87.6811Z" fill="#744E32"/>
<path d="M505.168 109.654L517.785 121.698C518.756 123.163 517.947 125.197 516.248 125.604L498.698 125.686L505.168 109.654Z" fill="#453C36"/>
<path d="M407.953 56.6755C407.953 56.6755 405.931 51.6299 402.21 46.7471C400.35 44.3057 398.005 41.8643 395.255 40.074C392.505 38.2836 389.27 37.2257 385.63 37.4698C385.549 37.4698 385.469 37.4698 385.388 37.4698C384.983 37.4698 384.66 37.8767 384.741 38.2836C384.741 38.6905 385.145 39.016 385.549 38.9347C385.63 38.9347 385.63 38.9347 385.711 38.9347C388.946 38.6905 391.858 39.6671 394.365 41.2947C398.166 43.7361 401.24 47.7237 403.343 51.0603C404.394 52.7692 405.122 54.2341 405.688 55.3734C405.931 55.9431 406.173 56.35 406.254 56.6755C406.335 56.8382 406.335 56.9196 406.416 57.001V57.0824C406.578 57.4893 406.982 57.652 407.387 57.4893C407.953 57.4893 408.114 57.0824 407.953 56.6755Z" fill="#2D221C"/>
<path d="M426.231 57.8962C426.231 57.8962 426.474 55.292 426.15 51.6299C425.908 48.212 425.18 43.8988 423.481 39.9112C422.592 37.9581 421.54 36.0864 420.004 34.4588C418.548 32.8312 416.688 31.5291 414.504 30.6339C414.099 30.4711 413.695 30.7153 413.533 31.0408C413.372 31.4477 413.614 31.8546 413.938 32.0174C415.96 32.8312 417.577 33.9705 418.871 35.4353C420.893 37.6326 422.187 40.3995 423.077 43.3292C423.967 46.2588 424.371 49.1885 424.533 51.7113C424.695 53.5017 424.695 54.9665 424.695 56.0244C424.695 56.5941 424.695 57.001 424.614 57.2451C424.614 57.4079 424.614 57.4893 424.614 57.5707V57.652C424.614 58.0589 424.856 58.4658 425.261 58.4658C425.908 58.5472 426.231 58.3031 426.231 57.8962Z" fill="#2D221C"/>
<path d="M388.057 38.0394C388.218 40.2366 386.601 42.1084 384.498 42.2711C382.314 42.4339 380.454 40.8063 380.292 38.6904C380.131 36.4932 381.748 34.6214 383.851 34.4587C386.035 34.2959 387.895 35.9235 388.057 38.0394Z" fill="#2D221C"/>
<path d="M417.092 31.1221C417.254 33.3194 415.636 35.1911 413.533 35.3539C411.35 35.5166 409.489 33.889 409.328 31.7731C409.166 29.5759 410.783 27.7041 412.886 27.5414C415.07 27.3786 416.93 29.0062 417.092 31.1221Z" fill="#2D221C"/>
<path d="M419.923 97.8536C420.084 99.7253 419.437 101.516 418.305 102.818C417.173 104.12 415.555 105.015 413.695 105.178C411.835 105.341 410.056 104.69 408.761 103.55C407.467 102.411 406.578 100.783 406.416 98.9115C406.335 98.2605 405.769 97.6908 405.122 97.7722C404.475 97.8536 403.909 98.4233 403.99 99.0743C404.313 104.201 408.761 108.026 413.857 107.701C418.952 107.375 422.753 102.899 422.43 97.7722C422.349 97.1212 421.783 96.5515 421.136 96.6329C420.408 96.5515 419.923 97.2026 419.923 97.8536Z" fill="#744E32"/>
<path d="M489.316 33.1565C492.309 15.1716 489.478 1.90664 479.611 0.197663C469.744 -1.42994 456.722 9.55636 453.73 27.6227C450.737 45.6077 465.376 64.5692 468.854 65.383C471.846 66.034 486.324 51.1415 489.316 33.1565Z" fill="#F7F4EF" fill-opacity="0.8"/>
<path d="M507.514 66.1967C519.888 60.5815 526.925 53.2573 523.851 46.4214C520.778 39.5855 508.484 35.9234 496.11 41.5386C483.736 47.1538 478.074 64.2436 479.045 66.7664C479.853 68.8822 495.139 71.8119 507.514 66.1967Z" fill="#D5CCC4" fill-opacity="0.8"/>
<path d="M418.386 124.302C418.548 123.488 419.357 122.919 420.165 123.081C420.246 123.081 422.106 123.488 424.047 123.163C425.018 123 426.069 122.674 426.878 122.186C427.687 121.616 428.415 120.884 428.9 119.745C429.224 118.931 430.113 118.605 430.922 118.931C431.731 119.256 432.054 120.152 431.731 120.965C431.003 122.756 429.79 124.058 428.415 124.872C427.444 125.523 426.312 125.848 425.342 126.092C423.805 126.418 422.349 126.418 421.298 126.337C420.246 126.255 419.518 126.092 419.437 126.092C418.71 125.93 418.143 125.116 418.386 124.302Z" fill="#2D221C"/>
<path d="M415.369 131.895C415.369 129.761 414.174 127.882 412.808 126.26C411.356 126.174 409.904 126.516 408.624 127.285C406.147 128.821 403.757 133.176 406.404 135.567C406.233 135.908 406.318 136.335 406.574 136.762C407.343 138.043 408.367 138.812 409.392 139.324C412.551 139.324 415.455 134.457 415.369 131.895Z" fill="#DBD9D7"/>
<path d="M395.901 135.226C398.463 133.603 398.121 130.529 396.328 127.626C395.047 125.577 393.339 123.869 391.29 122.588C389.07 123.357 387.448 125.15 387.277 127.712C387.106 130.188 388.387 132.749 390.266 134.286C391.803 135.567 394.193 136.079 395.901 135.226Z" fill="#FFC72C"/>
<path d="M380.788 149.827C382.41 150.253 384.203 150.083 385.569 149.314C386.423 149.143 387.106 148.887 387.619 148.46C387.875 143.764 383.606 140.007 379.336 138.129C377.372 139.409 375.75 141.715 375.835 144.106C376.006 146.838 378.226 149.058 380.788 149.827Z" fill="#DBD9D7"/>
<path d="M390.949 166.904C391.119 166.904 391.29 166.904 391.461 166.904C392.998 165.025 393.169 162.207 392.571 159.817C391.803 156.657 389.668 154.523 386.338 154.523C386.252 154.608 386.082 154.608 385.996 154.693C383.691 155.974 382.154 158.365 382.496 161.012C382.837 163.659 384.801 166.221 387.448 166.989C388.558 167.331 389.839 167.245 390.949 166.904Z" fill="#FFC72C"/>
<path d="M385.228 176.979C390.436 179.285 398.121 180.992 401.963 175.528C404.61 171.685 404.44 166.648 407.087 162.805C410.673 157.597 416.052 161.268 420.492 162.891C423.225 163.915 426.298 164.171 428.86 162.634C431.934 160.841 433.3 157.084 433.983 153.754C434.666 150.168 435.093 146.582 434.666 142.996C433.898 136.421 430.909 130.188 426.555 125.235C424.762 123.186 422.712 121.308 420.407 119.771C414.515 115.672 408.624 113.196 401.366 113.623C393.51 114.05 385.911 117.038 379.849 121.905C374.298 126.26 369.602 132.579 367.894 139.58C366.272 146.24 368.065 154.01 370.456 160.244C373.188 167.416 377.97 173.735 385.228 176.979ZM376.689 168.014C372.164 162.378 370.029 154.864 369.261 147.777C368.492 140.519 370.883 134.03 375.494 128.395C384.801 117.124 401.707 111.232 415.028 118.319C421.688 121.82 427.665 126.943 430.824 133.945C433.898 140.605 434.069 148.802 432.019 155.804C432.019 155.889 431.934 156.06 431.934 156.145C430.995 158.963 428.604 161.695 425.53 162.037C422.712 162.378 419.724 160.5 417.162 159.475C413.747 158.109 409.99 157.255 407.087 159.987C402.732 164.171 403.927 171.771 399.487 175.613C392.827 181.334 380.788 173.222 376.689 168.014Z" fill="#877F79"/>
<path d="M415.625 140.178C417.504 138.897 419.041 136.933 419.724 134.798C420.578 132.237 419.724 130.017 418.101 127.968C416.735 126.26 414.857 125.064 412.722 124.979C407.77 124.637 403.842 129.419 404.781 134.201C405.635 138.726 411.185 143.337 415.625 140.178ZM406.233 133.176C405.977 130.614 407.343 128.224 409.477 126.943C411.441 125.747 414.003 125.833 416.052 127.284C417.333 128.224 418.528 130.017 418.528 131.554C418.614 134.115 417.504 136.165 415.625 138.043C413.661 139.922 411.783 140.348 409.563 138.726C407.77 137.445 406.403 135.396 406.233 133.176Z" fill="#877F79"/>
<path d="M393.681 120.795C391.461 121.393 389.412 122.674 387.96 124.467C386.252 126.601 386.338 128.992 387.106 131.468C387.789 133.518 389.156 135.225 391.205 136.165C395.73 138.129 401.024 134.969 401.878 130.188C402.647 125.491 398.89 119.344 393.681 120.795ZM400.17 130.529C399.487 133.005 397.523 134.798 394.962 135.311C392.742 135.738 390.351 134.798 388.899 132.749C388.046 131.468 387.533 129.334 387.96 127.882C388.729 125.406 390.436 123.869 392.913 122.759C395.389 121.649 397.267 121.905 398.89 124.211C400.085 126.004 400.683 128.395 400.17 130.529Z" fill="#877F79"/>
<path d="M377.287 149.143C379.165 150.424 381.471 151.193 383.776 151.107C386.509 151.022 388.216 149.485 389.668 147.18C390.778 145.301 391.205 143.166 390.607 141.032C389.156 136.25 383.349 134.286 379.165 136.848C375.152 139.239 372.847 146.07 377.287 149.143ZM380.532 137.872C382.837 136.762 385.569 137.189 387.533 138.726C389.326 140.178 390.18 142.569 389.497 144.96C389.07 146.411 387.789 148.204 386.423 148.802C384.032 149.827 381.727 149.485 379.336 148.375C376.945 147.18 375.835 145.557 376.604 142.91C377.116 140.776 378.568 138.812 380.532 137.872Z" fill="#877F79"/>
<path d="M394.108 167.501C395.645 165.879 396.755 163.659 397.011 161.439C397.353 158.707 396.072 156.743 394.108 155.035C392.486 153.583 390.436 152.815 388.216 153.156C383.264 153.84 380.446 159.304 382.239 163.83C384.032 168.099 390.436 171.429 394.108 167.501ZM383.52 162.549C382.837 160.073 383.605 157.511 385.484 155.803C387.192 154.267 389.753 153.84 391.973 154.864C393.339 155.547 394.876 156.999 395.303 158.536C395.901 161.012 395.218 163.317 393.766 165.452C392.229 167.672 390.436 168.441 387.96 167.331C385.825 166.306 384.118 164.598 383.52 162.549Z" fill="#877F79"/>
<path d="M22.5433 164.554C30.5711 185.71 50.2584 199.365 73.0995 202.346C82.083 203.5 91.6399 203.115 101.101 200.808C104.446 200.038 107.791 198.98 111.04 197.73C116.584 195.615 121.649 193.018 126.332 189.941C152.9 172.536 165.515 141.187 155.098 113.684C145.063 87.336 116.87 72.527 86.957 75.6042C80.1716 76.2773 73.2906 77.9121 66.6007 80.5085C64.4026 81.3739 62.3001 82.2394 60.1976 83.2972C50.9274 87.8168 42.9951 93.7789 36.5919 100.799C20.5363 118.589 14.2287 142.822 22.5433 164.554Z" fill="#FFC702"/>
<path d="M71.666 150.226C77.9736 166.862 86.2881 181.864 95.9406 194.461C97.6609 196.673 99.3811 198.788 101.101 200.808C104.446 200.038 107.791 198.981 111.041 197.73C116.584 195.615 121.649 193.018 126.332 189.941C121.84 185.422 117.539 180.229 113.43 174.363C106.644 164.747 100.624 153.4 95.8451 140.898C90.3976 126.57 87.2438 112.242 86.2881 99.0679C85.8103 90.6056 86.0014 82.7203 86.9571 75.6042C80.1717 76.2774 73.2907 77.9121 66.6008 80.5085C64.4027 81.374 62.3002 82.2394 60.1977 83.2972C59.8154 90.9902 60.1021 98.9717 61.0578 107.145C62.6825 121.185 66.2185 135.706 71.666 150.226Z" fill="#453C36"/>
<path d="M22.5433 164.554C30.5711 185.71 50.2584 199.365 73.0995 202.346C69.9457 198.788 66.8875 194.942 63.9248 190.807C57.1394 181.191 51.1185 169.843 46.34 157.342C40.8926 143.014 37.7388 128.686 36.7831 115.512C36.4008 110.415 36.3052 105.511 36.592 100.799C20.5363 118.589 14.2287 142.822 22.5433 164.554Z" fill="#453C36"/>
<path d="M121.649 123.108C121.075 127.724 118.399 131.186 115.628 130.801C112.856 130.417 111.041 126.474 111.614 121.858C112.187 117.242 114.863 113.781 117.635 114.165C120.406 114.454 122.222 118.493 121.649 123.108Z" fill="#744E32"/>
<path d="M153.091 124.936C152.518 129.551 149.842 133.013 147.07 132.725C144.299 132.34 142.483 128.397 143.056 123.782C143.63 119.166 146.306 115.704 149.077 116.089C151.849 116.281 153.665 120.32 153.091 124.936Z" fill="#744E32"/>
<path d="M22.9256 150.899L8.01675 165.131C6.86992 166.862 7.82561 169.266 9.83257 169.747L30.5711 169.843L22.9256 150.899Z" fill="#453C36"/>
<path d="M137.8 88.2977C137.8 88.2977 140.189 82.3356 144.585 76.5659C146.783 73.681 149.555 70.7962 152.804 68.6806C156.054 66.565 159.876 65.3149 164.177 65.6034C164.273 65.6034 164.368 65.6034 164.464 65.6034C164.942 65.6034 165.324 66.0842 165.228 66.565C165.228 67.0458 164.75 67.4305 164.273 67.3343C164.177 67.3343 164.177 67.3343 164.081 67.3343C160.259 67.0458 156.818 68.1998 153.856 70.123C149.364 73.0079 145.732 77.7198 143.247 81.6625C142.005 83.6819 141.145 85.4128 140.476 86.7591C140.189 87.4322 139.902 87.913 139.807 88.2977C139.711 88.49 139.711 88.5862 139.616 88.6823V88.7785C139.425 89.2593 138.947 89.4516 138.469 89.2593C137.8 89.2593 137.609 88.7785 137.8 88.2977Z" fill="#2D221C"/>
<path d="M116.201 89.7401C116.201 89.7401 115.914 86.6629 116.297 82.3356C116.583 78.2968 117.444 73.2002 119.451 68.4882C120.502 66.1803 121.744 63.9686 123.56 62.0453C125.28 60.1221 127.478 58.5835 130.059 57.5257C130.537 57.3334 131.014 57.6219 131.206 58.0065C131.397 58.4873 131.11 58.9681 130.728 59.1605C128.338 60.1221 126.427 61.4684 124.898 63.1993C122.509 65.7957 120.98 69.0652 119.928 72.527C118.877 75.9889 118.399 79.4507 118.208 82.4317C118.017 84.5473 118.017 86.2782 118.017 87.5283C118.017 88.2015 118.017 88.6823 118.113 88.9708C118.113 89.1631 118.113 89.2593 118.113 89.3554V89.4516C118.113 89.9324 117.826 90.4132 117.348 90.4132C116.583 90.5094 116.201 90.2209 116.201 89.7401Z" fill="#2D221C"/>
<path d="M161.31 66.2764C161.119 68.8728 163.03 71.0846 165.515 71.2769C168.095 71.4692 170.293 69.546 170.485 67.0457C170.676 64.4494 168.764 62.2376 166.28 62.0453C163.699 61.853 161.501 63.7762 161.31 66.2764Z" fill="#2D221C"/>
<path d="M127.001 58.1026C126.809 60.699 128.721 62.9107 131.206 63.1031C133.786 63.2954 135.984 61.3721 136.175 58.8719C136.366 56.2755 134.455 54.0638 131.97 53.8715C129.39 53.6792 127.192 55.6024 127.001 58.1026Z" fill="#2D221C"/>
<path d="M123.656 136.956C123.465 139.168 124.229 141.283 125.567 142.822C126.905 144.36 128.816 145.418 131.015 145.611C133.213 145.803 135.315 145.034 136.844 143.687C138.373 142.341 139.425 140.418 139.616 138.206C139.711 137.437 140.38 136.764 141.145 136.86C141.909 136.956 142.578 137.629 142.483 138.398C142.101 144.457 136.844 148.976 130.823 148.592C124.803 148.207 120.311 142.918 120.693 136.86C120.789 136.09 121.458 135.417 122.222 135.513C123.082 135.417 123.656 136.187 123.656 136.956Z" fill="#744E32"/>
<path d="M41.6571 60.5068C38.1211 39.2549 41.466 23.5805 53.1255 21.5611C64.7849 19.6378 80.1716 32.6198 83.7077 53.9678C87.2437 75.2197 69.9457 97.6255 65.8362 98.5871C62.3001 99.3564 45.1932 81.7587 41.6571 60.5068Z" fill="#F7F4EF" fill-opacity="0.8"/>
<path d="M20.154 99.5486C5.53186 92.9134 -2.78267 84.2588 0.848964 76.1811C4.4806 68.1035 19.0071 63.7762 33.6293 70.4114C48.2514 77.0466 54.9412 97.2407 53.7944 100.222C52.8387 102.722 34.7761 106.184 20.154 99.5486Z" fill="#D5CCC4" fill-opacity="0.8"/>
<path d="M125.471 168.209C125.28 167.247 124.325 166.574 123.369 166.766C123.273 166.766 121.075 167.247 118.782 166.862C117.635 166.67 116.392 166.285 115.437 165.708C114.481 165.035 113.621 164.17 113.047 162.824C112.665 161.862 111.614 161.477 110.658 161.862C109.703 162.247 109.32 163.304 109.703 164.266C110.563 166.382 111.996 167.92 113.621 168.882C114.768 169.651 116.106 170.036 117.253 170.324C119.068 170.709 120.789 170.709 122.031 170.613C123.273 170.517 124.134 170.324 124.229 170.324C125.089 170.132 125.758 169.17 125.471 168.209Z" fill="#2D221C"/>
<g clip-path="url(#clip0)">
<path d="M154.962 157.392C144.749 164.287 134.757 171.553 124.989 179.044C107.316 192.468 90.1625 206.711 72.1193 219.613C73.7503 221.999 75.3812 224.384 77.6837 226.102C79.169 227.297 80.8101 225.813 80.5163 224.323C83.347 223.289 85.5842 221.509 88.0445 219.804C92.2197 216.838 96.4688 214.095 100.496 210.98C108.475 204.676 116.676 199.041 125.174 193.556C133.598 188.146 141.428 181.841 149.481 175.908C153.88 172.72 158.502 169.755 162.901 166.567C165.66 164.565 168.423 160.776 171.774 159.818C172.221 159.67 172.519 159.522 172.818 159.225C173.935 158.856 174.757 157.593 173.941 156.475C172.458 154.536 170.751 152.671 169.119 150.732C168.6 150.061 168.006 149.464 167.487 148.793C163.386 151.833 159.137 154.575 154.962 157.392Z" fill="#FFC72C"/>
<path d="M163.557 142.609C159.312 143.714 155.283 147.871 151.779 150.318C143.95 155.878 136.196 161.365 128.442 167.001C111.442 179.161 94.4427 191.321 77.7401 203.78C73.7883 206.672 69.167 209.488 65.7343 213.051C65.5105 213.273 65.5843 213.497 65.7328 213.646L65.807 213.721C67.661 216.181 69.2166 218.939 71.1453 221.325C72.8512 223.488 74.6322 225.428 75.9655 227.812C76.0397 227.887 76.0397 227.887 76.114 227.962C76.1128 228.408 76.6327 228.782 77.0796 228.634C81.3244 227.529 85.354 223.372 88.8581 220.925C96.6867 215.364 104.441 209.878 112.195 204.242C129.194 192.082 146.194 179.922 162.896 167.463C166.848 164.571 171.395 161.681 174.902 158.192C175.126 157.969 175.052 157.746 174.904 157.597L174.83 157.522C172.901 155.136 171.345 152.378 169.491 149.917C167.785 147.755 166.004 145.815 164.671 143.43C164.597 143.356 164.597 143.356 164.523 143.281C164.449 142.909 164.004 142.461 163.557 142.609ZM159.174 168.197C159.026 167.899 158.729 167.601 158.506 167.377C157.913 166.631 157.319 165.886 156.651 165.214C156.354 164.916 155.981 165.287 156.129 165.585C156.573 166.479 157.092 167.299 157.611 168.119C157.834 168.343 157.907 168.566 158.056 168.864C156.415 170.051 154.775 171.237 152.986 172.423C152.838 172.125 152.541 171.827 152.318 171.603C151.725 170.857 151.131 170.111 150.463 169.44C150.166 169.141 149.793 169.512 149.941 169.811C150.386 170.705 150.904 171.525 151.423 172.345C151.646 172.568 151.72 172.792 151.868 173.09C150.227 174.276 148.587 175.463 146.798 176.649C146.65 176.351 146.353 176.052 146.13 175.828C145.537 175.083 144.943 174.337 144.275 173.665C143.979 173.367 143.605 173.738 143.753 174.036C144.198 174.93 144.716 175.75 145.235 176.57C145.458 176.794 145.532 177.018 145.68 177.316C144.039 178.502 142.399 179.689 140.61 180.875C140.462 180.576 140.165 180.278 139.942 180.054C139.349 179.308 138.756 178.563 138.088 177.891C137.791 177.593 137.418 177.964 137.566 178.262C138.01 179.156 138.529 179.976 139.047 180.796C139.27 181.02 139.344 181.243 139.492 181.541C137.852 182.728 136.211 183.914 134.422 185.1C134.274 184.802 133.977 184.504 133.754 184.28C133.161 183.534 132.568 182.788 131.9 182.117C131.603 181.818 131.23 182.189 131.378 182.488C131.822 183.382 132.341 184.202 132.859 185.022C133.082 185.246 133.156 185.469 133.304 185.767C131.664 186.953 130.023 188.14 128.234 189.326C128.086 189.028 127.789 188.729 127.567 188.506C126.973 187.76 126.38 187.014 125.712 186.343C125.415 186.044 125.042 186.415 125.19 186.713C125.634 187.607 126.153 188.427 126.672 189.247C126.82 189.545 127.042 189.769 127.116 189.993C125.476 191.179 123.836 192.366 122.046 193.552C121.898 193.254 121.601 192.955 121.379 192.731C120.785 191.985 120.192 191.24 119.524 190.568C119.227 190.27 118.854 190.641 119.002 190.939C119.446 191.833 119.965 192.653 120.484 193.473C122.046 193.7 122.194 193.998 122.417 194.222C120.776 195.409 119.136 196.595 117.347 197.781C117.125 197.408 116.902 197.185 116.679 196.961C116.086 196.215 115.492 195.469 114.824 194.798C114.528 194.499 114.154 194.87 114.303 195.168C114.747 196.063 115.265 196.883 115.784 197.703C115.932 198.001 116.155 198.225 116.303 198.523C114.663 199.709 113.022 200.895 111.233 202.081C111.011 201.709 110.714 201.41 110.491 201.186C109.898 200.441 109.305 199.695 108.637 199.023C108.34 198.725 107.967 199.096 108.115 199.394C108.559 200.288 109.078 201.108 109.596 201.928C109.744 202.226 109.967 202.45 110.115 202.748C108.475 203.935 106.835 205.121 105.045 206.307C104.823 205.934 104.526 205.636 104.304 205.412C103.71 204.666 103.117 203.921 102.449 203.249C102.152 202.951 101.779 203.322 101.927 203.62C102.371 204.514 102.89 205.334 103.409 206.154C103.557 206.452 103.779 206.676 103.927 206.974C102.287 208.16 100.647 209.347 98.8575 210.533C98.6352 210.16 98.3383 209.862 98.1156 209.638C97.5222 208.892 96.9288 208.146 96.2608 207.475C95.9639 207.176 95.5909 207.547 95.7389 207.846C96.1831 208.74 96.7019 209.56 97.2207 210.38C97.3687 210.678 97.5168 210.976 97.7395 211.2C96.0991 212.386 94.4588 213.572 92.6696 214.758C92.4473 214.386 92.1504 214.087 91.9278 213.864C91.3344 213.118 90.741 212.372 90.073 211.7C89.7761 211.402 89.403 211.773 89.5511 212.071C89.9952 212.965 90.514 213.785 91.0328 214.605C91.1809 214.903 91.3289 215.201 91.5516 215.425C90.5078 216.167 89.464 216.908 88.4201 217.65C87.8236 218.095 87.1529 218.465 86.4818 218.984C86.2595 218.611 85.9626 218.313 85.7399 218.089C85.1465 217.343 84.5531 216.598 83.8851 215.926C83.5882 215.628 83.2151 215.999 83.3632 216.297C83.8074 217.191 84.3261 218.011 84.8449 218.831C86.1841 218.983 86.4067 219.207 86.5548 219.505C84.8402 220.617 83.0515 221.654 81.4111 222.841C81.1885 222.617 80.9658 222.393 80.892 222.17C80.2986 221.424 79.7052 220.678 79.0372 220.007C78.7403 219.708 78.3672 220.079 78.5152 220.377C78.9594 221.271 79.4782 222.091 79.997 222.911C80.1454 223.061 80.2193 223.284 80.3677 223.433C79.3985 224.101 78.5035 224.842 77.7574 225.585C75.2389 221.113 70.8593 216.859 66.8496 213.426C70.0569 210.681 73.8579 208.532 77.2878 206.011C84.8925 200.673 92.4973 195.335 99.9532 189.996C117.027 177.91 134.026 165.75 151.025 153.739C154.529 151.292 159.373 148.849 162.656 145.583C165.323 150.204 169.777 154.383 173.712 157.891C172.892 158.559 172.072 159.227 171.102 159.894C170.88 159.521 170.583 159.223 170.361 158.999C169.767 158.253 169.174 157.507 168.506 156.836C168.209 156.537 167.836 156.908 167.984 157.207C168.428 158.101 168.947 158.921 169.466 159.741C169.614 160.039 169.762 160.337 169.984 160.561C168.344 161.747 166.629 162.859 164.915 163.971C164.767 163.673 164.47 163.374 164.247 163.15C163.654 162.405 163.061 161.659 162.392 160.987C162.096 160.689 161.723 161.06 161.871 161.358C162.315 162.252 162.834 163.072 163.352 163.892C163.575 164.116 163.649 164.339 163.797 164.637C163.499 164.786 163.2 165.082 162.902 165.23C161.932 166.195 160.516 167.159 159.174 168.197Z" fill="#877F79"/>
</g>
<defs>
<clipPath id="clip0">
<rect width="122.715" height="38.0984" fill="white" transform="translate(63.3488 215.422) rotate(-44.8499)"/>
</clipPath>
</defs>
</svg>
