<svg width="567" height="384" viewBox="0 0 567 384" fill="none" xmlns="http://www.w3.org/2000/svg">
<path d="M183.343 182.069V212.277L154.333 228.874L125.322 212.277V182.069L154.333 165.472L183.343 182.069Z" stroke="#FFE99A"/>
<path d="M120.634 182.069V212.277L91.6231 228.874L62.6125 212.277V182.069L91.6231 165.472L120.634 182.069Z" stroke="#FFE99A"/>
<path d="M152.911 130.425V160.633L123.9 177.23L94.8897 160.633V130.425L123.9 113.828L152.911 130.425Z" stroke="#FFC702"/>
<path d="M58.521 181.694V211.902L29.5105 228.499L0.5 211.902V181.694L29.5105 165.097L58.521 181.694Z" stroke="#FFC702"/>
<path d="M90.2009 130.425V160.633L61.1904 177.23L32.1799 160.633V130.425L61.1904 113.828L90.2009 130.425Z" stroke="#FFE99A"/>
<path d="M121.447 77.37V107.578L92.4368 124.175L63.4263 107.578V77.3699L92.4368 60.7728L121.447 77.37Z" stroke="#FFE99A"/>
<path d="M185.892 143.131L181.727 156.448C180.995 157.681 179.265 157.801 178.34 156.7L172.027 144.024L185.892 143.131Z" fill="#453C36"/>
<path d="M237.034 87.9184C249.698 80.6729 256.488 72.1807 252.503 65.2173C248.517 58.2361 235.003 55.6686 222.339 62.9141C209.675 70.1596 205.371 88.8915 206.627 91.4705C207.705 93.6706 224.37 95.1639 237.034 87.9184Z" fill="#F2F0EC" fill-opacity="0.8"/>
<path d="M225.783 115.983C235.556 120.862 243.663 121.584 246.353 116.19C249.044 110.814 245.046 101.321 235.255 96.4431C225.481 91.5637 212.013 96.6562 210.942 98.5118C210.026 100.102 216.007 111.085 225.783 115.983Z" fill="#CFC6BD" fill-opacity="0.8"/>
<path d="M119.281 98.5461C105.525 93.6851 97.3242 86.5458 99.9978 78.9815C102.67 71.3993 115.506 66.4537 129.262 71.3147C143.019 76.1756 150.607 93.8342 149.833 96.5963C149.149 98.9555 133.038 103.407 119.281 98.5461Z" fill="#F2F0EC" fill-opacity="0.8"/>
<path d="M135.358 124.144C126.616 130.694 118.77 132.856 115.158 128.031C111.547 123.224 113.781 113.168 122.541 106.616C131.283 100.066 145.445 102.664 146.831 104.298C148.017 105.699 144.099 117.575 135.358 124.144Z" fill="#CFC6BD" fill-opacity="0.8"/>
<path d="M216.567 101.971C216.636 102.736 216.669 103.505 216.705 104.292C216.749 105.777 216.738 107.25 216.655 108.712C216.307 115.204 214.759 121.321 212.236 126.772C212.178 126.921 212.1 127.053 212.04 127.184C205.598 140.725 193.179 150.084 178.645 150.534C166.17 150.924 154.839 144.696 147.273 134.645C146.193 133.217 145.195 131.71 144.282 130.141C141.391 125.161 139.336 119.495 138.337 113.393C138.221 112.703 138.122 112.012 138.042 111.319C137.873 109.845 137.754 108.33 137.707 106.809C137.586 103.086 137.867 99.4354 138.503 95.9497C138.674 95.0549 138.846 94.1778 139.073 93.3137C143.512 74.8748 158.065 61.1229 175.784 60.5647C191.282 60.0634 205.013 69.8087 211.964 84.3838C213.003 86.5515 213.873 88.8244 214.588 91.1828C215.596 94.5919 216.283 98.2273 216.567 101.971Z" fill="#453C36"/>
<path d="M216.567 101.971C213.426 103.565 210.146 105.009 206.71 106.307C197.79 109.696 187.956 112.109 177.509 113.286C165.499 114.657 153.923 114.266 143.325 112.386C141.537 112.063 139.764 111.703 138.039 111.284C137.87 109.809 137.751 108.294 137.703 106.773C137.583 103.051 137.864 99.3998 138.5 95.9141C138.671 95.0192 138.843 94.1422 139.07 93.2781C142.475 94.2093 146.096 94.9593 149.912 95.4765C157.819 96.5757 166.518 96.7059 175.525 95.6776C185.882 94.4916 195.468 91.9213 203.695 88.4147C206.633 87.1624 209.382 85.8015 211.961 84.3482C213 86.5159 213.869 88.7887 214.585 91.1472C215.596 94.5919 216.283 98.2273 216.567 101.971Z" fill="#FFC702"/>
<path d="M212.022 127.186C205.58 140.726 193.161 150.086 178.627 150.536C166.152 150.926 154.821 144.697 147.255 134.647C149.582 135.173 151.99 135.601 154.48 135.951C162.387 137.05 171.086 137.181 180.093 136.152C190.45 134.966 200.036 132.396 208.263 128.889C209.542 128.343 210.801 127.781 212.022 127.186Z" fill="#FFC702"/>
<path d="M158.979 82.1839C159.226 84.9256 160.782 87.0467 162.455 86.8957C164.129 86.7447 165.281 84.3971 165.032 81.6375C164.785 78.8958 163.229 76.7747 161.556 76.9257C159.882 77.0767 158.73 79.4243 158.979 82.1839Z" fill="#FFC702"/>
<path d="M185.221 79.8154C185.469 82.5572 187.024 84.6783 188.698 84.5273C190.371 84.3762 191.524 82.0287 191.274 79.2691C191.027 76.5274 189.472 74.4062 187.798 74.5573C186.124 74.7083 184.972 77.0559 185.221 79.8154Z" fill="#FFC702"/>
<path d="M177.95 61.8948C177.947 61.8592 178.406 57.5998 180.252 52.9999C181.176 50.7088 182.452 48.3322 184.194 46.3621C185.955 44.3904 188.22 42.8398 191.077 42.2769C191.13 42.272 191.182 42.2494 191.235 42.2446C191.571 42.1785 191.878 42.402 191.926 42.7387C191.992 43.0737 191.769 43.3811 191.432 43.4294C191.397 43.4326 191.343 43.4374 191.291 43.4601C188.736 43.9779 186.705 45.3458 185.074 47.1622C182.627 49.8779 181.115 53.6041 180.24 56.6445C179.802 58.1559 179.512 59.5103 179.348 60.4764C179.265 60.9505 179.211 61.3502 179.162 61.6059C179.138 61.7337 179.13 61.8422 179.119 61.915L179.107 61.9878L179.109 62.0056C179.067 62.3325 178.783 62.5735 178.438 62.5328C178.15 62.5229 177.909 62.2395 177.95 61.8948Z" fill="#2D221C"/>
<path d="M169.373 61.5204C169.371 61.5025 168.654 59.5211 167.275 56.9712C165.962 54.559 164.047 51.6268 161.488 49.327C160.216 48.1673 158.762 47.1678 157.157 46.4871C155.552 45.8063 153.777 45.428 151.865 45.5288C151.526 45.5415 151.283 45.8326 151.294 46.1547C151.306 46.4946 151.598 46.7375 151.92 46.7264C153.635 46.6434 155.226 46.9665 156.682 47.5889C158.866 48.5225 160.77 50.1276 162.37 51.9396C163.969 53.7517 165.248 55.7901 166.213 57.5338C166.881 58.7658 167.393 59.8683 167.734 60.6631C167.895 61.0614 168.031 61.3722 168.122 61.5794C168.167 61.683 168.193 61.7704 168.215 61.8222L168.24 61.8918L168.241 61.9097C168.359 62.2221 168.697 62.389 169.01 62.2711C169.324 62.1709 169.491 61.8328 169.373 61.5204Z" fill="#2D221C"/>
<path d="M189.369 43.2388C189.701 44.9319 191.363 46.0383 193.056 45.706C194.749 45.3737 195.855 43.7124 195.523 42.0193C195.191 40.3262 193.529 39.2197 191.836 39.552C190.125 39.8859 189.019 41.5473 189.369 43.2388Z" fill="#2D221C"/>
<path d="M153.886 45.0422C154.723 46.5641 154.159 48.4637 152.637 49.3011C151.115 50.1384 149.215 49.574 148.378 48.0521C147.541 46.5303 148.105 44.6306 149.627 43.7933C151.149 42.9559 153.048 43.5204 153.886 45.0422Z" fill="#2D221C"/>
<path d="M180.416 85.8312C180.604 87.3218 180.158 88.7441 179.306 89.8441C178.454 90.9441 177.178 91.7233 175.686 91.8939C174.195 92.0823 172.773 91.6363 171.673 90.7843C170.573 89.9323 169.794 88.6565 169.623 87.1642C169.556 86.6139 169.054 86.2284 168.504 86.296C167.953 86.3636 167.568 86.8651 167.636 87.4154C168.148 91.4973 171.855 94.3935 175.939 93.8993C180.021 93.3873 182.917 89.6797 182.423 85.5962C182.355 85.0459 181.853 84.6604 181.303 84.728C180.751 84.7778 180.348 85.2809 180.416 85.8312Z" fill="#FFC702"/>
<path d="M220.8 92.399C220.467 92.6804 219.96 92.6364 219.697 92.3012C219.677 92.285 219.035 91.5353 218.144 91.0055C217.689 90.7414 217.186 90.5355 216.678 90.4737C216.17 90.4119 215.657 90.4941 215.092 90.7963C214.716 91.0097 214.237 90.8735 214.022 90.4801C213.809 90.1044 213.945 89.6255 214.338 89.4105C215.209 88.9191 216.114 88.8015 216.914 88.9088C217.512 88.9804 218.069 89.1815 218.556 89.4068C219.289 89.7714 219.868 90.2217 220.279 90.5974C220.69 90.9732 220.931 91.2565 220.95 91.2727C221.18 91.6289 221.134 92.1177 220.8 92.399Z" fill="#2D221C"/>
<path d="M132.15 100.131C132.529 100.348 133.019 100.214 133.218 99.8369C133.235 99.8175 133.732 98.9649 134.514 98.2841C134.914 97.9429 135.372 97.6502 135.861 97.4984C136.35 97.3466 136.87 97.3356 137.48 97.5319C137.887 97.6745 138.334 97.4547 138.475 97.0292C138.618 96.6214 138.398 96.1746 137.973 96.0335C137.028 95.706 136.116 95.7523 135.349 96.0011C134.773 96.1787 134.261 96.4762 133.822 96.785C133.167 97.275 132.678 97.8217 132.341 98.2649C132.004 98.7081 131.817 99.0301 131.801 99.0495C131.639 99.441 131.771 99.9137 132.15 100.131Z" fill="#2D221C"/>
<path d="M345.907 164.02L322.356 169.072L304.556 149.22L312.648 123.814L336.199 118.762L353.999 138.614L345.907 164.02Z" stroke="#FFE99A"/>
<path d="M335.369 114.895L311.818 119.947L294.018 100.095L302.11 74.6892L325.661 69.6372L343.461 89.4889L335.369 114.895Z" stroke="#FFE99A"/>
<path d="M381.249 131.501L357.698 136.553L339.898 116.702L347.989 91.2958L371.541 86.2439L389.341 106.096L381.249 131.501Z" stroke="#FFC702"/>
<path d="M325.225 66.1746L301.674 71.2266L283.874 51.3749L291.966 25.9692L315.517 20.9172L333.317 40.7689L325.225 66.1746Z" stroke="#FFC702"/>
<path d="M370.711 82.3765L347.16 87.4284L329.36 67.5767L337.452 42.171L361.003 37.1191L378.803 56.9708L370.711 82.3765Z" stroke="#FFE99A"/>
<path d="M417.524 97.9386L393.972 102.99L376.172 83.1388L384.264 57.7331L407.816 52.6811L425.616 72.5328L417.524 97.9386Z" stroke="#FFE99A"/>
<path d="M566.5 265.056V305.073L528.088 327.049L489.676 305.073V265.056L528.088 243.081L566.5 265.056Z" stroke="#FFE99A"/>
<path d="M483.812 265.056V305.073L445.4 327.049L406.988 305.073V265.056L445.4 243.081L483.812 265.056Z" stroke="#FFE99A"/>
<path d="M526.372 196.96V236.977L487.96 258.952L449.548 236.977V196.96L487.96 174.984L526.372 196.96Z" stroke="#FFC702"/>
<path d="M401.911 264.562V304.579L363.499 326.555L325.087 304.579V264.562L363.499 242.586L401.911 264.562Z" stroke="#FFC702"/>
<path d="M443.684 196.96V236.977L405.272 258.952L366.859 236.977V196.96L405.272 174.984L443.684 196.96Z" stroke="#FFE99A"/>
<path d="M132.735 143.253V112.625L144.173 111.878L170.861 112.625H237.201H343.955H404.956L405.719 144V285.936H214.325H135.023L132.735 206.004V143.253Z" fill="white"/>
<path d="M152.989 271.769C153.258 272.827 153.735 272.932 152.989 271.769V271.769Z" fill="#DBD9D7"/>
<path d="M402.851 241.32C401.906 229.615 401.968 217.88 401.791 206.093C401.701 203.074 401.848 200.107 401.757 197.087C401.49 182.281 400.745 167.37 399.419 152.833C399.212 140.04 402.896 126.596 400.438 113.811C400.303 113.282 400.117 112.991 399.982 112.462C383.267 112.313 366.417 111.634 349.785 112.253C326.927 112.763 304.307 113.325 281.449 113.835C235.733 114.854 189.778 115.822 144.418 112.92C143.659 115.254 143.138 117.64 142.669 119.787C144.128 148.602 141.987 177.88 142.253 206.434C142.399 230.963 146.041 255.504 147.483 279.816C147.96 279.92 148.251 279.733 148.728 279.838C149.787 279.569 150.607 279.248 151.24 278.636C152.173 280.089 153.686 281.17 155.461 281.057C163.087 280.472 171.946 283.406 179.603 283.827C191.286 284.128 202.678 284.614 214.308 285.153C231.635 285.936 248.962 286.718 266.445 286.785C258.714 287.847 247.018 291.043 240.277 287.572C235.101 284.943 231.765 292.213 235.487 295.775C235.725 295.827 235.673 296.066 235.912 296.118C235.577 298.795 237.443 301.701 241.178 301.767C253.494 301.456 266.647 305.327 278.16 309.839C288.958 314.196 294.887 320.24 301.967 329.034C302.526 329.906 303.428 330.353 304.092 330.748C304.548 332.097 305.346 333.021 306.196 333.706C293.35 334.152 279.677 332.667 267.517 332.263C250.906 331.636 234.794 329.869 218.274 332.262C212.608 333.025 213.514 341.472 219.314 341.238C237.4 339.687 255.451 342.877 273.598 343.339C288.725 343.891 309.587 347.945 323.869 342.063C329.079 339.951 327.219 331.296 321.501 332.298C319.436 332.597 317.081 333.083 314.777 333.33C315.753 332.293 316.356 330.675 316.057 328.61C314.18 315.452 312.642 293.869 298.235 287.725C297.997 287.673 297.997 287.673 297.758 287.621C319.319 287.328 341.088 286.08 362.658 288.039C374.184 289.055 390.782 293.178 397.785 281.708C398.023 281.76 398.023 281.76 398.262 281.812C401.229 281.96 404.084 280.334 404.522 277.18C406.224 264.803 403.744 253.263 402.851 241.32ZM345.467 274.038C320.804 273.654 296.254 275.044 271.83 274.712C248.412 274.35 225.046 273.749 201.681 273.148C191.243 272.87 180.836 273.598 170.502 272.842C164.62 272.308 158.655 271.006 153.019 272.775C153.019 272.775 153.019 272.775 152.781 272.723C152.46 271.903 151.952 270.793 151.102 270.107C151.952 270.793 152.564 271.426 152.698 271.955C152.564 271.426 152.481 270.658 152.638 269.942C152.898 268.749 152.36 266.632 152.382 265.387C152.074 261.071 152.058 256.568 152.227 252.355C152.064 237.072 152.616 221.944 152.982 206.526C153.67 178.181 148.579 148.823 152.183 120.864C168.012 125.069 184.502 121.669 200.844 121.237C222.405 120.944 243.706 121.844 265.319 121.312C287.752 120.46 310.454 120.666 332.73 120.529C349.736 120.491 368.13 123.257 385.314 121.258C387.368 146.203 388.654 171.23 388.934 196.288C389.171 210.088 388.879 224.022 388.058 238.091C387.363 250.437 388.546 262.194 388.619 274.458C375.521 278.348 359.214 274.039 345.467 274.038Z" fill="#DBD9D7"/>
<path d="M272.182 164.305C261.246 165.167 249.958 164.203 239.229 164.111C222.224 164.148 205.218 164.186 188.368 163.508C187.856 168.145 187.582 172.835 187.547 177.576C195.473 179.057 206.483 176.711 211.806 176.373C223.511 175.428 235.484 175.542 247.167 175.842C253.102 176.138 264.108 179.54 269.817 176.287C273.834 173.914 274.451 168.799 272.555 164.886C272.607 164.648 272.421 164.357 272.182 164.305Z" fill="#FFC72C"/>
<path d="M317.648 202.225C327.131 202.295 336.823 201.411 346.254 201.72C346.212 190.462 346.699 179.07 347.372 167.969C336.778 168.406 326.423 168.895 315.985 168.617C316.899 179.315 316.807 190.043 316.477 200.72C316.663 201.01 317.036 201.592 317.648 202.225Z" fill="#FFC72C"/>
<path d="M319.031 260.019C328.514 260.089 338.206 259.205 347.637 259.514C347.595 248.256 348.082 236.864 348.755 225.763C338.161 226.2 327.806 226.689 317.368 226.41C318.282 237.109 318.19 247.837 317.86 258.513C318.285 258.856 318.658 259.437 319.031 260.019Z" fill="#FFC72C"/>
<path d="M408.231 284.238C408.752 281.852 407.997 278.438 407.78 277.141C407.607 273.354 407.725 269.38 408.081 265.458C408.42 257.034 408.52 248.557 408.86 240.132C409.299 223.23 409.5 206.277 409.649 189.561C409.803 167.098 409.666 144.821 408.814 122.388C408.663 117.356 409.34 114.254 407.943 109.2C406.039 103.035 399.233 103.299 393.962 103.399C388.929 103.55 383.389 102.591 378.357 102.742C365.854 102.763 353.538 103.074 341.513 103.199C315.158 103.695 288.803 104.192 262.449 104.688C245.629 105.016 228.519 105.531 211.7 105.859C194.829 106.426 177.719 106.941 160.847 107.508C155.576 107.607 150.015 107.893 144.692 108.231C142.149 108.426 139.421 108.33 136.879 108.525C135.633 108.503 130.571 107.648 130.393 109.609C129.953 126.51 129.275 143.36 128.887 160.023C128.686 176.977 128.246 193.878 128.336 210.646C128.187 227.361 128.463 244.419 128.791 261.238C128.86 265.502 129.22 269.58 129.05 273.793C128.881 278.005 128.898 282.508 129.973 286.742C130.429 288.092 130.884 289.441 131.63 290.604C132.801 292.109 134.71 292.526 136.567 293.181C139.191 293.754 141.681 293.797 144.172 293.841C149.204 293.69 154.34 293.061 159.373 292.91C171.398 292.785 183.662 292.712 195.74 292.349C208.534 292.142 221.566 291.987 234.411 291.541C232.437 294.86 231.157 299.58 230.211 301.623C228.245 307.193 226.756 312.867 225.507 318.594C224.621 322.65 222.439 326.923 222.798 331.001C221.896 330.554 218.43 331.547 217.423 331.577C215.649 331.69 212.92 331.594 211.653 332.817C208.434 336.114 209.101 344.509 214.06 345.841C217.348 346.809 220.949 346.345 224.393 346.597C229.56 346.975 234.779 347.114 239.998 347.253C250.197 347.48 260.262 347.177 270.274 347.113C279.996 347.235 289.48 347.305 299.202 347.428C303.943 347.463 308.737 347.259 313.583 346.817C317.661 346.458 324.632 347.729 328.038 344.723C329.938 342.888 329.4 340.771 329.392 338.52C329.323 334.255 328.174 331.505 323.723 331.283C321.523 331.053 319.324 330.823 316.886 330.541C317.003 326.567 314.921 322.363 313.98 318.658C312.74 312.888 311.261 307.066 309.201 301.617C308.238 299.157 306.707 293.574 304.178 290.272C321.05 289.705 337.869 289.377 354.979 288.863C364.037 288.59 374.713 288.921 383.824 288.41C388.379 288.154 393.411 288.003 398.101 288.276C401.515 287.522 407.48 288.824 408.231 284.238ZM161.091 285.036C154.575 285.113 143.183 284.627 135.878 286.031C136.004 284.309 135.6 282.721 135.622 281.476C133.828 255.338 135.419 227.44 134.922 201.085C134.439 171.234 135.097 141.881 134.136 111.926C177.393 111.869 219.083 110.97 262.392 110.675C288.642 110.656 314.945 110.398 341.434 110.43C353.169 110.492 364.717 110.263 376.452 110.325C382.968 110.248 393.093 111.958 400.399 110.553C400.273 112.275 400.624 114.102 400.654 115.108C402.448 141.246 402.363 167.974 402.621 194.276C403.104 224.128 404.013 254.322 404.734 284.225C361.717 284.334 318.937 284.495 275.92 284.604C249.669 284.623 223.605 284.933 197.355 284.953C185.329 285.077 173.117 284.911 161.091 285.036ZM271.45 342.87C252.67 343.02 234.233 342.745 214.342 343.403C214.416 341.919 214.013 340.331 214.087 338.848C213.974 337.073 213.623 335.247 213.749 333.525C233.67 333.874 251.443 333.754 270.224 333.604C288.952 333.692 306.725 333.572 326.616 332.914C326.616 332.914 326.616 332.914 326.855 332.967C326.967 334.741 326.603 336.411 326.715 338.185C326.694 339.431 326.381 340.862 326.546 342.398C307.861 339.819 289.992 342.668 271.45 342.87ZM305.678 308.597C307.261 313.942 307.377 323.716 310.578 329.664C296.986 328.947 283.321 329.713 270.05 329.816C256.78 329.919 243.084 329.679 229.657 330.498C231.666 322.438 233.147 314.512 234.635 308.838C236.124 303.164 237.239 296.908 239.205 291.338C251.521 291.027 263.837 290.715 276.153 290.404C284.205 290.162 292.496 289.972 300.547 289.73C302.69 295.946 304.012 302.484 305.678 308.597Z" fill="#877F79"/>
<path d="M388.298 273.638C390.385 272.094 389.712 269.448 389.413 267.383C387.896 258.303 387.511 247.47 387.767 238.278C388.185 222.621 388.208 207.628 388.388 191.919C388.449 180.185 388.558 173.959 388.62 162.224C388.764 151.257 387.794 132.798 386.689 127.558C385.344 122.265 382.972 118.247 377.566 117.817C372.638 117.492 366.547 117.912 361.753 118.115C351.45 118.366 341.646 117.476 331.156 117.436C308.589 117.759 286.208 118.373 263.588 118.935C226.401 119.817 189.4 120.989 152.295 122.638C152.057 122.586 152.005 122.825 151.766 122.773C151.237 122.907 150.894 123.332 151.028 123.862C150.176 150.672 150.382 177.213 150.058 203.889C149.827 219.836 149.878 233.345 150.175 249.158C150.244 253.422 150.552 257.739 150.912 261.817C151.324 265.656 149.917 272.098 152.156 275.587C154.632 279.127 158.472 278.715 162.446 278.832C166.949 278.816 171.69 278.851 176.193 278.834C186.497 278.583 196.986 278.623 207.29 278.372C229.857 278.049 252.238 277.435 274.858 276.873C308.548 275.978 344.573 275.843 378.368 274.47C380.619 274.462 382.923 274.215 385.361 274.497C386.419 274.228 387.478 273.959 388.298 273.638ZM329.168 124.251C339.658 124.291 350.2 124.092 360.451 124.08C365.722 123.981 373.566 124.693 379.574 123.505C379.83 128.06 380.22 133.145 380.527 137.461C363.804 135.061 345.904 136.903 329.137 136.992C308.873 137.069 288.371 137.093 268.055 137.408C248.559 137.401 229.011 137.634 209.515 137.628C191.025 137.591 171.842 136.154 153.495 138.898C153.292 134.104 153.089 129.311 152.885 124.517C189.625 124.538 226.366 124.558 263.158 124.34C285.383 124.442 307.369 124.492 329.168 124.251ZM208.666 270.924C198.176 270.884 188.775 271.581 178.285 271.541C172.775 271.589 162.494 270.594 156.485 271.782C154.917 249.193 156.39 225.268 155.828 202.648C155.379 181.803 154.4 161.093 153.474 140.143C170.965 142.461 189.529 141.014 207.064 140.842C227.327 140.766 247.591 140.69 268.146 140.427C287.642 140.433 307.19 140.201 326.686 140.207C344.221 140.035 363.3 141.95 380.64 139.235C383.373 182.826 382.506 226.881 383.704 270.636C347.202 270.667 310.7 270.699 274.199 270.73C252.69 270.785 230.652 270.973 208.666 270.924Z" fill="#877F79"/>
<path d="M161.135 134.817C163.447 136.821 166.914 135.828 168.441 133.412L168.493 133.173C169.439 131.13 168.953 128.774 167.253 127.403C165.739 126.323 163.487 126.331 161.982 127.503C159.605 129.233 158.823 132.812 161.135 134.817ZM163.236 129.776C164.398 129.03 165.643 129.052 166.389 130.214C166.762 130.796 166.897 131.325 166.979 132.093C167.114 132.622 166.719 133.286 166.428 133.472C165.743 134.323 163.73 134.383 162.879 133.698C161.604 132.669 161.782 130.708 163.236 129.776Z" fill="#877F79"/>
<path d="M180.653 133.578L180.705 133.339C181.651 131.296 181.166 128.94 179.465 127.569C177.951 126.489 175.7 126.497 174.194 127.669C171.869 129.161 171.035 132.978 173.348 134.983C175.473 136.697 179.126 135.994 180.653 133.578ZM175.5 129.703C176.662 128.957 177.908 128.979 178.654 130.142C179.027 130.723 179.161 131.252 179.243 132.02C179.378 132.55 178.983 133.213 178.692 133.4C178.007 134.25 175.994 134.311 175.144 133.625C173.868 132.597 174.046 130.636 175.5 129.703Z" fill="#877F79"/>
<path d="M192.679 133.453L192.731 133.214C193.677 131.171 193.191 128.815 191.491 127.444C189.977 126.364 187.725 126.372 186.22 127.544C183.894 129.036 183.061 132.853 185.373 134.858C187.737 136.624 191.39 135.921 192.679 133.453ZM187.525 129.578C188.688 128.832 189.933 128.854 190.679 130.017C191.052 130.598 191.187 131.127 191.269 131.895C191.403 132.425 191.009 133.088 190.718 133.275C190.032 134.125 188.019 134.186 187.169 133.5C185.894 132.472 186.31 130.563 187.525 129.578Z" fill="#877F79"/>
<path d="M273.251 201.783C267.815 200.346 262.626 201.213 257.117 201.261C248.297 201.585 239.582 201.433 230.918 201.041C213.062 200.393 195.527 200.565 177.866 202.459C176.86 202.49 176.786 203.973 177.792 203.943C194.052 202.743 210.238 203.026 226.32 203.787C241.156 204.526 257.676 202.133 272.148 204.542C274.348 204.772 275.159 202.199 273.251 201.783Z" fill="#877F79"/>
<path d="M273.327 222.047C267.891 220.61 262.703 221.477 257.193 221.525C248.373 221.849 239.658 221.697 230.995 221.305C213.139 220.657 195.603 220.829 177.942 222.723C176.936 222.754 176.862 224.237 177.869 224.207C194.128 223.007 210.314 223.29 226.396 224.051C241.232 224.79 257.753 222.397 272.225 224.806C274.424 225.036 275.183 222.702 273.327 222.047Z" fill="#877F79"/>
<path d="M273.62 243.608C268.184 242.171 262.996 243.038 257.486 243.085C248.666 243.41 239.951 243.257 231.288 242.866C213.432 242.218 195.896 242.39 178.235 244.284C177.229 244.315 177.155 245.798 178.162 245.768C194.421 244.568 210.607 244.851 226.689 245.612C241.525 246.351 258.046 243.958 272.518 246.367C274.426 246.783 275.238 244.211 273.62 243.608Z" fill="#877F79"/>
<path d="M271.732 157.208C268.526 157.008 265.32 156.808 262.301 156.899C258.565 156.834 254.592 156.716 250.856 156.651C243.625 156.572 236.05 156.918 228.818 156.84C219.283 157.008 209.747 157.176 200.212 157.344C195.418 157.548 190.438 157.461 185.644 157.664C181.618 157.785 177.189 156.319 176.863 161.247C176.477 164.162 176.329 167.129 176.234 169.858C176.138 172.587 175.269 181.146 179.482 181.316C186.184 181.529 192.648 181.69 199.351 181.903C206.873 181.795 214.634 181.74 222.157 181.632C238.924 181.542 255.505 181.162 272.085 180.782C274.866 180.639 274.038 178.708 274.216 176.747C274.55 174.071 274.646 171.342 274.742 168.613C274.837 165.885 277.354 158.935 273.879 157.677C273.216 157.282 272.5 157.125 271.732 157.208ZM221.932 178.083C207.655 178.216 193.109 177.291 179.183 179.251C180.298 172.995 179.796 166.136 178.898 159.941C195.301 161.522 212.224 160.716 228.753 160.575C243.03 160.442 257.576 161.367 271.502 159.407C270.386 165.663 270.889 172.522 271.786 178.717C255.384 177.136 238.46 177.941 221.932 178.083Z" fill="#877F79"/>
<path d="M349.746 158.239C349.477 157.18 349.104 156.599 348.44 156.204C347.113 155.414 344.705 156.138 343.46 156.117C341.261 155.886 339.248 155.947 336.996 155.956C332.732 156.025 328.467 156.094 324.016 155.872C317.791 155.763 311.67 155.177 305.475 156.074C302.112 156.59 301.748 158.26 301.787 161.518C301.547 175.214 301.307 188.91 302.551 202.679C302.993 207.525 310.693 205.456 314.19 205.47C318.693 205.453 323.435 205.488 327.938 205.471C333.447 205.424 338.801 206.092 344.176 205.516C347.009 205.134 348.835 204.783 349.989 201.786C352.454 195.075 350.043 187.799 350.069 180.806C350.052 176.303 349.797 171.748 349.78 167.245C349.719 165.232 350.418 160.885 349.746 158.239ZM327.899 202.213C319.899 202.217 311.952 201.982 303.982 202.992C303.982 202.992 303.982 202.992 304.034 202.753C305.649 195.357 305.064 187.73 304.956 180.208C305.035 172.976 305.643 165.61 304.186 158.542C310.68 159.71 317.591 158.969 323.868 158.839C331.868 158.836 339.816 159.071 347.785 158.061C347.785 158.061 347.785 158.061 347.733 158.299C346.357 165.748 346.703 173.322 346.863 180.606C346.785 187.838 346.177 195.204 347.634 202.271C341.378 201.156 334.415 202.136 327.899 202.213Z" fill="#877F79"/>
<path d="M350.52 237.146C350.503 232.643 350.538 227.902 350.282 223.346C350.087 220.804 350.131 218.314 349.645 215.958C349.316 212.887 349.554 212.939 346.587 212.791C344.149 212.509 341.659 212.465 339.169 212.422C334.188 212.335 329.156 212.486 324.176 212.399C320.441 212.333 316.758 212.029 312.97 212.203C310.242 212.107 306.372 211.512 303.86 212.714C300.767 214.288 301.82 219.767 301.911 222.787C301.989 229.303 301.537 235.953 301.614 242.469C301.705 245.489 301.983 248.799 302.312 251.87C302.507 254.412 301.704 259.236 304.016 261.241C306.142 262.955 309.847 262.014 312.337 262.057C317.556 262.197 322.826 262.097 328.336 262.05C332.071 262.115 335.993 262.472 339.78 262.298C342.509 262.394 345.663 262.832 348.361 261.922C351.641 260.638 351.303 255.315 350.922 252.482C350.293 247.345 350.432 242.127 350.52 237.146ZM328.297 258.792C320.298 258.796 312.35 258.561 304.381 259.571C304.381 259.571 304.381 259.571 304.433 259.332C305.809 251.884 305.462 244.309 305.302 237.025C305.381 229.793 305.989 222.427 304.532 215.36C311.026 216.528 317.937 215.786 324.215 215.657C332.214 215.653 340.162 215.888 348.131 214.878C348.131 214.878 348.131 214.878 348.079 215.117C346.703 222.565 347.05 230.14 347.21 237.424C347.131 244.656 346.523 252.022 347.98 259.089C341.538 257.683 334.575 258.662 328.297 258.792Z" fill="#877F79"/>
<path d="M497.06 136.085C489.454 156.129 470.802 169.067 449.161 171.891C440.65 172.984 431.595 172.62 422.631 170.433C419.462 169.704 416.293 168.702 413.215 167.518C407.963 165.513 403.164 163.053 398.727 160.138C373.555 143.647 361.603 113.946 371.473 87.8894C380.98 62.9258 407.691 48.8952 436.032 51.8106C442.461 52.4484 448.98 53.9972 455.319 56.4571C457.401 57.2771 459.393 58.0971 461.385 59.0993C470.168 63.3814 477.683 69.03 483.75 75.6809C498.962 92.5359 504.938 115.495 497.06 136.085Z" fill="#FFC702"/>
<path d="M450.52 122.51C444.544 138.272 436.666 152.485 427.521 164.42C425.891 166.515 424.261 168.52 422.631 170.433C419.462 169.704 416.293 168.702 413.215 167.518C407.963 165.513 403.164 163.053 398.727 160.138C402.983 155.856 407.057 150.936 410.951 145.378C417.38 136.268 423.084 125.517 427.611 113.673C432.773 100.098 435.761 86.5227 436.666 74.0409C437.119 66.0234 436.938 58.5525 436.032 51.8105C442.461 52.4483 448.98 53.9971 455.319 56.457C457.401 57.277 459.393 58.097 461.385 59.0992C461.747 66.3878 461.476 73.9498 460.57 81.6939C459.031 94.9957 455.681 108.753 450.52 122.51Z" fill="#453C36"/>
<path d="M497.06 136.085C489.454 156.129 470.802 169.066 449.161 171.891C452.149 168.52 455.047 164.876 457.854 160.958C464.283 151.847 469.987 141.096 474.514 129.252C479.675 115.677 482.663 102.102 483.569 89.6204C483.931 84.7917 484.022 80.1452 483.75 75.6809C498.962 92.5359 504.938 115.495 497.06 136.085Z" fill="#453C36"/>
<path d="M403.164 96.818C403.707 101.191 406.242 104.471 408.868 104.107C411.494 103.742 413.215 100.007 412.671 95.6336C412.128 91.2604 409.593 87.9805 406.967 88.3449C404.341 88.6182 402.621 92.4448 403.164 96.818Z" fill="#744E32"/>
<path d="M373.374 98.5489C373.917 102.922 376.453 106.202 379.079 105.929C381.704 105.564 383.425 101.829 382.881 97.4556C382.338 93.0824 379.803 89.8025 377.177 90.1669C374.551 90.3492 372.831 94.1757 373.374 98.5489Z" fill="#744E32"/>
<path d="M496.698 123.148L510.823 136.632C511.91 138.272 511.004 140.55 509.103 141.005L489.454 141.096L496.698 123.148Z" fill="#453C36"/>
<path d="M387.862 63.8368C387.862 63.8368 385.598 58.1881 381.433 52.7217C379.35 49.9884 376.724 47.2552 373.646 45.2508C370.567 43.2464 366.945 42.062 362.871 42.3354C362.78 42.3354 362.69 42.3354 362.599 42.3354C362.147 42.3354 361.784 42.7909 361.875 43.2464C361.875 43.702 362.328 44.0664 362.78 43.9753C362.871 43.9753 362.871 43.9753 362.961 43.9753C366.583 43.702 369.843 44.7953 372.65 46.6174C376.906 49.3507 380.346 53.815 382.7 57.5504C383.878 59.4636 384.692 61.1036 385.326 62.3791C385.598 63.0168 385.87 63.4724 385.96 63.8368C386.051 64.019 386.051 64.1101 386.141 64.2012V64.2924C386.322 64.7479 386.775 64.9301 387.228 64.7479C387.862 64.7479 388.043 64.2924 387.862 63.8368Z" fill="#2D221C"/>
<path d="M408.325 65.2034C408.325 65.2034 408.597 62.288 408.234 58.1881C407.963 54.3616 407.148 49.5329 405.246 45.0686C404.25 42.882 403.073 40.7865 401.353 38.9643C399.723 37.1422 397.641 35.6845 395.196 34.6823C394.743 34.5001 394.29 34.7734 394.109 35.1378C393.928 35.5933 394.2 36.0489 394.562 36.2311C396.826 37.1422 398.637 38.4177 400.085 40.0576C402.349 42.5175 403.798 45.6152 404.794 48.8951C405.79 52.175 406.242 55.4549 406.424 58.2792C406.605 60.2836 406.605 61.9235 406.605 63.1079C406.605 63.7457 406.605 64.2012 406.514 64.4745C406.514 64.6568 406.514 64.7479 406.514 64.839V64.9301C406.514 65.3856 406.786 65.8412 407.238 65.8412C407.963 65.9323 408.325 65.6589 408.325 65.2034Z" fill="#2D221C"/>
<path d="M365.587 42.9732C365.768 45.4331 363.957 47.5286 361.603 47.7108C359.159 47.893 357.076 46.0709 356.895 43.7021C356.714 41.2422 358.525 39.1467 360.879 38.9645C363.324 38.7823 365.406 40.6044 365.587 42.9732Z" fill="#2D221C"/>
<path d="M398.093 35.229C398.274 37.6889 396.463 39.7844 394.109 39.9666C391.665 40.1488 389.582 38.3267 389.401 35.9579C389.22 33.498 391.031 31.4025 393.385 31.2203C395.83 31.0381 397.912 32.8602 398.093 35.229Z" fill="#2D221C"/>
<path d="M401.262 109.937C401.443 112.033 400.719 114.037 399.451 115.495C398.184 116.953 396.373 117.955 394.29 118.137C392.208 118.319 390.216 117.59 388.767 116.315C387.318 115.039 386.322 113.217 386.141 111.122C386.051 110.393 385.417 109.755 384.692 109.846C383.968 109.937 383.334 110.575 383.425 111.304C383.787 117.044 388.767 121.326 394.471 120.961C400.176 120.597 404.431 115.586 404.069 109.846C403.979 109.117 403.345 108.48 402.621 108.571C401.806 108.48 401.262 109.208 401.262 109.937Z" fill="#744E32"/>
<path d="M478.951 37.5068C482.301 17.3719 479.132 2.52136 468.085 0.608092C457.039 -1.21407 442.461 11.0855 439.111 31.3115C435.76 51.4463 452.149 72.6744 456.043 73.5855C459.393 74.3144 475.601 57.6416 478.951 37.5068Z" fill="#F7F4EF" fill-opacity="0.8"/>
<path d="M499.324 74.4964C513.178 68.2099 521.055 60.0102 517.614 52.3572C514.174 44.7041 500.411 40.6042 486.557 46.8907C472.703 53.1771 466.365 72.3098 467.452 75.1341C468.357 77.5029 485.47 80.7828 499.324 74.4964Z" fill="#D5CCC4" fill-opacity="0.8"/>
<path d="M399.542 139.548C399.723 138.636 400.629 137.999 401.534 138.181C401.625 138.181 403.707 138.636 405.88 138.272C406.967 138.09 408.144 137.725 409.049 137.179C409.955 136.541 410.77 135.721 411.313 134.446C411.675 133.534 412.671 133.17 413.577 133.534C414.482 133.899 414.844 134.901 414.482 135.812C413.667 137.817 412.309 139.274 410.77 140.185C409.683 140.914 408.416 141.279 407.329 141.552C405.609 141.916 403.979 141.916 402.802 141.825C401.625 141.734 400.81 141.552 400.719 141.552C399.904 141.37 399.27 140.459 399.542 139.548Z" fill="#2D221C"/>
<path d="M59.3225 299.223C69.0229 312.755 85.6008 318.753 102.408 316.564C109.015 315.69 115.739 313.614 122.033 310.188C124.267 309.009 126.446 307.626 128.522 306.124C132.065 303.574 135.177 300.772 137.927 297.7C153.54 280.309 156.598 255.633 144.001 238.038C131.894 221.192 109.049 215.978 88.3545 223.809C83.6556 225.568 79.0701 228.029 74.802 231.137C73.4019 232.168 72.0698 233.18 70.774 234.329C65.0335 239.292 60.5167 245.029 57.2869 251.229C49.2239 266.911 49.3093 285.335 59.3225 299.223Z" fill="#FFC702"/>
<path d="M91.5563 279.766C99.1806 290.408 107.924 299.509 117.165 306.647C118.806 307.896 120.429 309.076 122.033 310.187C124.267 309.009 126.446 307.626 128.521 306.124C132.065 303.574 135.177 300.772 137.927 297.7C133.88 295.332 129.842 292.451 125.813 289.054C119.173 283.495 112.75 276.56 106.993 268.571C100.416 259.408 95.4699 249.813 92.305 240.623C90.3687 234.695 89.0171 229.051 88.3545 223.809C83.6555 225.568 79.0701 228.029 74.8019 231.137C73.4019 232.168 72.0698 233.18 70.774 234.329C71.9534 239.872 73.6629 245.495 75.8846 251.128C79.6886 260.806 84.9427 270.466 91.5563 279.766Z" fill="#453C36"/>
<path d="M59.3225 299.223C69.023 312.755 85.6008 318.753 102.408 316.564C99.4938 314.628 96.5932 312.47 93.7061 310.088C87.0661 304.529 80.6434 297.594 74.8866 289.605C68.3093 280.442 63.3634 270.846 60.1984 261.657C58.9651 258.104 57.972 254.634 57.287 251.229C49.224 266.91 49.3093 285.335 59.3225 299.223Z" fill="#453C36"/>
<path d="M121.989 251.05C122.452 254.441 121.202 257.408 119.158 257.657C117.115 257.907 115.079 255.445 114.616 252.054C114.154 248.663 115.404 245.696 117.447 245.447C119.473 245.129 121.526 247.659 121.989 251.05Z" fill="#744E32"/>
<path d="M144.696 246.419C145.159 249.81 143.909 252.776 141.883 253.094C139.84 253.343 137.804 250.882 137.342 247.491C136.879 244.1 138.129 241.133 140.172 240.884C142.18 240.498 144.233 243.028 144.696 246.419Z" fill="#744E32"/>
<path d="M57.0184 289.439L49.0998 302.374C48.6107 303.821 49.7439 305.351 51.262 305.314L66.0297 301.47L57.0184 289.439Z" fill="#453C36"/>
<path d="M126.909 223.246C126.909 223.246 127.484 218.555 129.522 213.622C130.541 211.155 131.968 208.581 133.88 206.463C135.792 204.346 138.275 202.735 141.388 202.129C141.456 202.111 141.524 202.093 141.592 202.075C141.932 201.985 142.294 202.255 142.317 202.615C142.408 202.957 142.14 203.321 141.782 203.342C141.714 203.36 141.714 203.36 141.647 203.378C138.873 203.894 136.644 205.364 134.9 207.291C132.249 210.19 130.555 214.226 129.532 217.499C129.029 219.17 128.744 220.563 128.522 221.647C128.445 222.18 128.332 222.576 128.337 222.867C128.305 223.022 128.323 223.09 128.273 223.177L128.291 223.245C128.246 223.623 127.943 223.85 127.567 223.803C127.091 223.93 126.864 223.624 126.909 223.246Z" fill="#2D221C"/>
<path d="M111.82 228.346C111.82 228.346 111.036 226.212 110.491 223.062C109.933 220.136 109.584 216.349 110.122 212.619C110.434 210.779 110.901 208.972 111.829 207.261C112.69 205.569 113.963 204.06 115.599 202.821C115.902 202.594 116.297 202.709 116.505 202.947C116.732 203.252 116.619 203.648 116.383 203.857C114.865 204.992 113.76 206.31 112.999 207.83C111.789 210.127 111.318 212.741 111.224 215.401C111.129 218.062 111.442 220.614 111.869 222.77C112.132 224.311 112.459 225.542 112.694 226.431C112.821 226.91 112.912 227.252 113.034 227.439C113.071 227.575 113.089 227.644 113.107 227.712L113.125 227.781C113.216 228.123 113.103 228.519 112.763 228.609C112.237 228.821 111.911 228.688 111.82 228.346Z" fill="#2D221C"/>
<path d="M139.476 203.149C139.83 205.032 141.606 206.244 143.41 205.912C145.281 205.562 146.482 203.78 146.146 201.965C145.792 200.083 144.016 198.87 142.212 199.202C140.341 199.552 139.14 201.335 139.476 203.149Z" fill="#2D221C"/>
<path d="M113.532 203.808C113.886 205.691 115.663 206.903 117.466 206.571C119.338 206.221 120.538 204.439 120.203 202.624C119.849 200.742 118.072 199.529 116.269 199.861C114.397 200.211 113.197 201.994 113.532 203.808Z" fill="#2D221C"/>
<path d="M126.029 260.52C126.31 262.129 127.253 263.49 128.495 264.331C129.737 265.173 131.296 265.565 132.895 265.287C134.495 265.009 135.845 264.065 136.679 262.82C137.512 261.574 137.897 260.007 137.616 258.398C137.538 257.833 137.887 257.228 138.449 257.152C139.011 257.077 139.614 257.429 139.691 257.994C140.562 262.375 137.676 266.581 133.322 267.443C128.967 268.306 124.775 265.391 123.904 261.011C123.826 260.445 124.175 259.84 124.737 259.765C125.331 259.534 125.884 259.973 126.029 260.52Z" fill="#744E32"/>
<path d="M53.2885 221.617C46.7645 207.17 46.1865 195.391 54.098 191.755C62.0275 188.188 75.4197 194.518 81.9618 209.034C88.4858 223.482 80.4099 242.68 77.6686 244.139C75.2988 245.353 59.8124 236.065 53.2885 221.617Z" fill="#F7F4EF" fill-opacity="0.8"/>
<path d="M45.3601 253.441C33.7089 251.48 26.1629 246.893 27.2219 240.463C28.281 234.033 37.7962 228.215 49.4473 230.176C61.0985 232.137 69.6659 245.237 69.4126 247.574C69.2046 249.532 57.0113 255.402 45.3601 253.441Z" fill="#D5CCC4" fill-opacity="0.8"/>
<path d="M133.216 282.405C132.898 281.757 132.092 281.459 131.448 281.776C131.38 281.794 129.908 282.55 128.204 282.709C127.352 282.789 126.396 282.75 125.607 282.52C124.801 282.221 124.026 281.768 123.364 280.919C122.911 280.307 122.09 280.232 121.483 280.685C120.876 281.139 120.804 281.964 121.257 282.576C122.268 283.918 123.578 284.742 124.914 285.119C125.875 285.45 126.899 285.471 127.769 285.46C129.133 285.391 130.357 285.067 131.222 284.764C132.088 284.461 132.663 284.162 132.731 284.144C133.307 283.845 133.601 283.035 133.216 282.405Z" fill="#2D221C"/>
</svg>
