<svg width="567" height="338" viewBox="0 0 567 338" fill="none" xmlns="http://www.w3.org/2000/svg">
<path d="M174.534 144.359L170.515 157.211C169.808 158.401 168.138 158.517 167.246 157.454L161.153 145.22L174.534 144.359Z" fill="#453C36"/>
<path d="M223.891 91.0733C236.113 84.0807 242.666 75.885 238.82 69.1646C234.973 62.4272 221.931 59.9493 209.709 66.9418C197.487 73.9344 193.333 92.0124 194.545 94.5014C195.586 96.6247 211.669 98.0659 223.891 91.0733Z" fill="#F2F0EC" fill-opacity="0.8"/>
<path d="M213.032 118.158C222.465 122.867 230.288 123.564 232.884 118.358C235.482 113.169 231.624 104.008 222.174 99.3003C212.741 94.5912 199.743 99.506 198.71 101.297C197.826 102.832 203.598 113.431 213.032 118.158Z" fill="#CFC6BD" fill-opacity="0.8"/>
<path d="M110.249 101.33C96.9724 96.639 89.058 89.7489 91.6384 82.4486C94.2172 75.1312 106.605 70.3582 119.881 75.0495C133.157 79.7407 140.481 96.7829 139.734 99.4486C139.074 101.725 123.525 106.022 110.249 101.33Z" fill="#F2F0EC" fill-opacity="0.8"/>
<path d="M125.764 126.034C117.328 132.356 109.756 134.443 106.269 129.786C102.785 125.146 104.94 115.442 113.394 109.119C121.831 102.797 135.499 105.305 136.837 106.882C137.981 108.233 134.2 119.695 125.764 126.034Z" fill="#CFC6BD" fill-opacity="0.8"/>
<path d="M204.138 104.635C204.205 105.374 204.237 106.116 204.271 106.875C204.314 108.309 204.304 109.73 204.223 111.141C203.888 117.407 202.394 123.31 199.959 128.571C199.902 128.714 199.827 128.842 199.769 128.969C193.552 142.036 181.566 151.069 167.54 151.503C155.501 151.88 144.565 145.869 137.263 136.169C136.22 134.791 135.258 133.336 134.376 131.822C131.587 127.016 129.603 121.548 128.639 115.659C128.527 114.993 128.432 114.326 128.354 113.658C128.191 112.235 128.077 110.773 128.031 109.304C127.914 105.712 128.185 102.188 128.8 98.8244C128.964 97.9608 129.13 97.1144 129.35 96.2804C133.633 78.4852 147.679 65.2134 164.779 64.6747C179.736 64.1909 192.988 73.596 199.696 87.6623C200.699 89.7543 201.538 91.9478 202.228 94.224C203.201 97.514 203.864 101.022 204.138 104.635Z" fill="#453C36"/>
<path d="M204.138 104.635C201.107 106.173 197.942 107.568 194.625 108.82C186.017 112.091 176.526 114.42 166.444 115.555C154.853 116.878 143.681 116.501 133.453 114.687C131.728 114.375 130.016 114.027 128.351 113.623C128.188 112.2 128.074 110.738 128.028 109.27C127.911 105.677 128.182 102.154 128.797 98.7899C128.961 97.9263 129.127 97.0798 129.347 96.2459C132.632 97.1446 136.127 97.8685 139.81 98.3676C147.441 99.4284 155.836 99.5541 164.529 98.5617C174.524 97.4171 183.775 94.9365 191.715 91.5523C194.551 90.3437 197.204 89.0303 199.693 87.6278C200.696 89.7198 201.535 91.9133 202.225 94.1894C203.201 97.5138 203.864 101.022 204.138 104.635Z" fill="#FFC702"/>
<path d="M199.752 128.97C193.535 142.038 181.549 151.07 167.523 151.505C155.483 151.881 144.548 145.87 137.246 136.17C139.491 136.678 141.815 137.092 144.219 137.429C151.85 138.49 160.245 138.616 168.938 137.623C178.933 136.479 188.184 133.998 196.124 130.614C197.359 130.087 198.574 129.544 199.752 128.97Z" fill="#FFC702"/>
<path d="M148.56 85.539C148.799 88.1851 150.3 90.2321 151.916 90.0864C153.531 89.9406 154.643 87.675 154.402 85.0118C154.164 82.3657 152.662 80.3186 151.047 80.4644C149.432 80.6102 148.32 82.8758 148.56 85.539Z" fill="#FFC702"/>
<path d="M173.887 83.2531C174.126 85.8992 175.627 87.9463 177.242 87.8005C178.857 87.6547 179.969 85.3891 179.729 82.7259C179.49 80.0798 177.989 78.0327 176.374 78.1785C174.758 78.3243 173.646 80.5899 173.887 83.2531Z" fill="#FFC702"/>
<path d="M166.869 65.9585C166.866 65.9241 167.309 61.8134 169.091 57.3741C169.983 55.163 171.214 52.8693 172.896 50.968C174.595 49.0651 176.781 47.5687 179.538 47.0254C179.59 47.0207 179.639 46.9989 179.691 46.9942C180.014 46.9304 180.311 47.1461 180.358 47.471C180.422 47.7944 180.206 48.091 179.881 48.1377C179.846 48.1408 179.795 48.1454 179.745 48.1672C177.278 48.667 175.319 49.9871 173.745 51.7401C171.383 54.3611 169.923 57.9572 169.08 60.8915C168.657 62.35 168.377 63.6572 168.218 64.5895C168.138 65.0471 168.087 65.4329 168.039 65.6796C168.016 65.803 168.008 65.9077 167.997 65.9779L167.986 66.0482L167.988 66.0654C167.947 66.3809 167.673 66.6134 167.341 66.5742C167.063 66.5646 166.83 66.2911 166.869 65.9585Z" fill="#2D221C"/>
<path d="M158.592 65.5969C158.59 65.5797 157.898 63.6674 156.567 61.2066C155.3 58.8785 153.451 56.0486 150.982 53.8291C149.755 52.71 148.351 51.7454 146.802 51.0884C145.253 50.4313 143.54 50.0663 141.695 50.1635C141.367 50.1758 141.133 50.4568 141.144 50.7676C141.156 51.0956 141.437 51.3301 141.748 51.3194C143.403 51.2392 144.939 51.551 146.344 52.1517C148.452 53.0528 150.289 54.6018 151.833 56.3506C153.376 58.0994 154.611 60.0666 155.542 61.7494C156.186 62.9385 156.681 64.0025 157.01 64.7696C157.166 65.1539 157.297 65.4539 157.384 65.6539C157.428 65.7539 157.453 65.8382 157.475 65.8882L157.498 65.9554L157.5 65.9726C157.613 66.2741 157.94 66.4352 158.241 66.3214C158.544 66.2247 158.705 65.8984 158.592 65.5969Z" fill="#2D221C"/>
<path d="M177.89 47.9535C178.21 49.5875 179.814 50.6553 181.448 50.3346C183.082 50.0139 184.149 48.4106 183.829 46.7766C183.508 45.1426 181.905 44.0748 180.271 44.3955C178.62 44.7177 177.552 46.3211 177.89 47.9535Z" fill="#2D221C"/>
<path d="M143.645 49.6946C144.453 51.1633 143.908 52.9967 142.44 53.8048C140.971 54.6129 139.138 54.0682 138.33 52.5994C137.521 51.1307 138.066 49.2974 139.535 48.4893C141.004 47.6811 142.837 48.2259 143.645 49.6946Z" fill="#2D221C"/>
<path d="M169.249 89.0591C169.431 90.4978 169 91.8704 168.178 92.932C167.356 93.9935 166.124 94.7456 164.684 94.9102C163.246 95.092 161.873 94.6616 160.811 93.8393C159.75 93.0171 158.998 91.7858 158.833 90.3456C158.768 89.8145 158.284 89.4425 157.753 89.5077C157.222 89.573 156.85 90.0569 156.915 90.588C157.409 94.5275 160.987 97.3225 164.928 96.8456C168.868 96.3515 171.663 92.7734 171.186 88.8323C171.121 88.3012 170.637 87.9292 170.105 87.9945C169.573 88.0425 169.184 88.528 169.249 89.0591Z" fill="#FFC702"/>
<path d="M208.224 95.3977C207.902 95.6693 207.413 95.6268 207.159 95.3033C207.14 95.2877 206.52 94.5641 205.66 94.0528C205.221 93.7979 204.736 93.5993 204.245 93.5396C203.755 93.4799 203.26 93.5593 202.714 93.851C202.352 94.0569 201.89 93.9254 201.682 93.5457C201.476 93.1832 201.608 92.721 201.988 92.5135C202.828 92.0392 203.701 91.9258 204.473 92.0294C205.051 92.0985 205.588 92.2925 206.058 92.5099C206.765 92.8618 207.324 93.2964 207.721 93.659C208.117 94.0216 208.35 94.2951 208.368 94.3107C208.59 94.6545 208.546 95.1262 208.224 95.3977Z" fill="#2D221C"/>
<path d="M122.668 102.86C123.033 103.069 123.507 102.94 123.699 102.576C123.715 102.557 124.195 101.734 124.95 101.077C125.336 100.748 125.778 100.466 126.25 100.319C126.722 100.173 127.223 100.162 127.812 100.351C128.205 100.489 128.636 100.277 128.772 99.8663C128.91 99.4727 128.698 99.0415 128.287 98.9054C127.375 98.5893 126.496 98.634 125.756 98.874C125.199 99.0455 124.706 99.3326 124.282 99.6306C123.649 100.103 123.177 100.631 122.852 101.059C122.527 101.487 122.347 101.797 122.331 101.816C122.175 102.194 122.303 102.65 122.668 102.86Z" fill="#2D221C"/>
<path d="M566.5 247.293V283.366L531.867 303.18L497.235 283.366V247.293L531.867 227.479L566.5 247.293Z" stroke="#FFE99A"/>
<path d="M491.843 247.293V283.366L457.211 303.18L422.578 283.366V247.293L457.211 227.479L491.843 247.293Z" stroke="#FFE99A"/>
<path d="M530.269 185.811V221.884L495.637 241.698L461.004 221.884V185.811L495.637 165.997L530.269 185.811Z" stroke="#FFC702"/>
<path d="M417.897 246.847V282.92L383.265 302.734L348.632 282.92V246.847L383.265 227.033L417.897 246.847Z" stroke="#FFC702"/>
<path d="M455.613 185.811V221.884L420.98 241.698L386.347 221.884V185.811L420.98 165.997L455.613 185.811Z" stroke="#FFE99A"/>
<path d="M165.487 182.943V210.161L139.343 225.118L113.199 210.161V182.943L139.343 167.986L165.487 182.943Z" stroke="#FFE99A"/>
<path d="M108.868 182.943V210.161L82.7239 225.118L56.5797 210.161V182.943L82.7239 167.986L108.868 182.943Z" stroke="#FFE99A"/>
<path d="M138.01 136.316V163.533L111.866 178.49L85.7217 163.533V136.315L111.866 121.358L138.01 136.316Z" stroke="#FFC702"/>
<path d="M52.7884 182.605V209.822L26.6442 224.78L0.5 209.822V182.605L26.6442 167.648L52.7884 182.605Z" stroke="#FFC702"/>
<path d="M81.3913 136.316V163.533L55.2471 178.49L29.1029 163.533V136.315L55.2471 121.358L81.3913 136.316Z" stroke="#FFE99A"/>
<path d="M109.603 88.4135V115.631L83.4585 130.588L57.3143 115.631V88.4134L83.4585 73.4562L109.603 88.4135Z" stroke="#FFE99A"/>
<path d="M346.19 166.577L324.981 171.127L308.947 153.245L316.236 130.36L337.445 125.811L353.479 143.692L346.19 166.577Z" stroke="#FFE99A"/>
<path d="M336.675 122.224L315.467 126.773L299.433 108.891L306.722 86.0066L327.931 81.4571L343.964 99.339L336.675 122.224Z" stroke="#FFE99A"/>
<path d="M378.099 137.217L356.89 141.767L340.856 123.885L348.145 101L369.354 96.4508L385.388 114.333L378.099 137.217Z" stroke="#FFC702"/>
<path d="M327.517 78.236L306.308 82.7854L290.274 64.9035L297.563 42.0188L318.772 37.4693L334.806 55.3512L327.517 78.236Z" stroke="#FFC702"/>
<path d="M368.585 92.8641L347.376 97.4136L331.342 79.5317L338.631 56.6469L359.84 52.0975L375.874 69.9793L368.585 92.8641Z" stroke="#FFE99A"/>
<path d="M410.85 106.915L389.642 111.464L373.608 93.5822L380.897 70.6975L402.106 66.148L418.139 84.0299L410.85 106.915Z" stroke="#FFE99A"/>
<path d="M137.343 151.467V121.354L148.36 120.62L174.066 121.354H237.964H340.788H399.544L400.279 152.201V291.748H215.93H139.547L137.343 213.161V151.467Z" fill="white"/>
<path d="M402.783 293.6C405.165 291.878 404.437 288.875 404.123 286.534C402.515 276.239 402.212 263.974 402.615 253.574C403.279 235.86 403.488 218.892 403.883 201.117C404.097 187.837 404.296 180.793 404.51 167.513C404.807 155.103 403.934 134.2 402.746 128.255C401.288 122.248 398.65 117.671 392.534 117.117C386.957 116.686 380.054 117.086 374.623 117.256C362.953 117.41 351.861 116.28 339.982 116.103C314.422 116.186 289.07 116.6 263.448 116.952C221.325 117.483 179.409 118.346 137.37 119.747C137.101 119.685 137.039 119.954 136.769 119.892C136.168 120.038 135.775 120.515 135.921 121.115C134.628 151.447 134.536 181.487 133.844 211.673C133.388 229.718 133.28 245.007 133.424 262.907C133.45 267.734 133.746 272.623 134.103 277.243C134.523 281.593 132.852 288.866 135.344 292.842C138.105 296.88 142.458 296.462 146.957 296.645C152.056 296.682 157.426 296.781 162.525 296.818C174.196 296.664 186.075 296.841 197.746 296.686C223.306 296.604 248.658 296.19 274.28 295.837C312.444 295.247 353.241 295.546 391.528 294.417C394.078 294.436 396.689 294.185 399.447 294.535C400.649 294.244 401.851 293.953 402.783 293.6ZM337.648 123.791C349.527 123.968 361.467 123.875 373.076 123.99C379.046 123.944 387.92 124.848 394.739 123.579C394.972 128.737 395.352 134.497 395.647 139.386C376.738 136.459 356.446 138.319 337.457 138.21C314.508 138.042 291.29 137.812 268.28 137.914C246.202 137.662 224.063 137.68 201.985 137.429C181.047 137.156 159.341 135.288 138.531 138.164C138.359 132.736 138.187 127.308 138.015 121.88C179.621 122.365 221.227 122.849 262.895 123.064C288.061 123.458 312.959 123.79 337.648 123.791ZM199.395 288.274C187.516 288.097 176.862 288.769 164.983 288.592C158.743 288.576 147.112 287.322 140.294 288.591C138.793 263.006 140.754 235.948 140.394 210.341C140.139 186.745 139.284 163.293 138.491 139.572C158.271 142.416 179.31 141.01 199.17 141.036C222.118 141.204 245.066 141.372 268.346 141.332C290.424 141.584 312.564 141.566 334.641 141.817C354.501 141.843 376.084 144.249 395.753 141.395C398.316 190.762 396.796 240.61 397.618 290.144C356.282 289.722 314.945 289.299 273.609 288.877C249.251 288.669 224.292 288.606 199.395 288.274Z" fill="#877F79"/>
<path d="M147.233 133.64C149.826 135.938 153.764 134.857 155.523 132.142L155.585 131.873C156.681 129.572 156.16 126.9 154.251 125.327C152.55 124.085 150 124.067 148.281 125.373C145.567 127.302 144.639 131.343 147.233 133.64ZM149.672 127.962C150.998 127.132 152.408 127.172 153.239 128.498C153.654 129.16 153.8 129.761 153.884 130.631C154.029 131.232 153.574 131.978 153.243 132.185C152.456 133.139 150.176 133.182 149.221 132.396C147.79 131.216 148.015 128.999 149.672 127.962Z" fill="#877F79"/>
<path d="M169.35 132.483L169.412 132.214C170.508 129.913 169.987 127.241 168.078 125.668C166.377 124.426 163.827 124.408 162.108 125.714C159.456 127.374 158.466 131.684 161.06 133.981C163.446 135.948 167.591 135.198 169.35 132.483ZM163.562 128.033C164.887 127.204 166.297 127.244 167.128 128.569C167.543 129.232 167.689 129.833 167.773 130.703C167.919 131.303 167.463 132.05 167.132 132.257C166.345 133.211 164.065 133.254 163.11 132.467C161.679 131.288 161.904 129.071 163.562 128.033Z" fill="#877F79"/>
<path d="M182.97 132.493L183.032 132.223C184.128 129.923 183.607 127.251 181.698 125.678C179.997 124.436 177.447 124.417 175.728 125.724C173.076 127.383 172.086 131.693 174.68 133.991C177.335 136.019 181.48 135.27 182.97 132.493ZM177.181 128.043C178.507 127.213 179.917 127.254 180.747 128.579C181.163 129.241 181.309 129.842 181.392 130.712C181.538 131.313 181.083 132.059 180.752 132.266C179.965 133.22 177.685 133.263 176.73 132.477C175.298 131.297 175.794 129.142 177.181 128.043Z" fill="#877F79"/>
<path d="M301.739 182.87C300.171 186.171 301.136 189.935 301.2 193.692C301.576 199.775 301.427 205.657 301.016 211.438C300.342 223.396 300.569 235.361 302.69 247.883C302.726 248.575 304.357 249.031 304.322 248.339C302.967 236.96 303.243 226.037 304.045 215.315C304.825 205.434 302.158 193.551 304.775 184.374C305.229 183.191 302.399 181.935 301.739 182.87Z" fill="#877F79"/>
<path d="M321.406 193.694C320.117 197.114 321.391 200.785 321.767 204.524C322.646 210.555 322.986 216.429 323.056 222.224C323.377 234.197 324.596 246.101 327.749 258.404C327.842 259.091 329.506 259.41 329.413 258.723C327.118 247.496 326.487 236.587 326.396 225.836C326.354 215.924 322.709 204.304 324.556 194.942C324.91 193.725 321.986 192.708 321.406 193.694Z" fill="#877F79"/>
<g clip-path="url(#clip0)">
<path d="M242.6 185.176L218.6 196.576C218.6 199.576 219.32 207.736 222.2 216.376C223.4 224.776 218.6 227.176 216.2 234.376C213.8 241.576 215.6 245.776 213.8 252.976C212 260.176 220.4 252.976 225.2 252.976C230 252.976 236 248.176 238.4 248.176C240.8 248.176 248 248.176 252.8 251.176C256.64 253.576 266 256.176 270.2 257.176C271 255.776 272.12 252.016 270.2 248.176C267.8 243.376 270.2 233.776 272.6 230.176C275 226.576 270.8 214.576 270.2 210.976C269.6 207.376 260 201.976 258.2 196.576C256.76 192.256 247.2 187.176 242.6 185.176Z" fill="#FFC72C"/>
<path d="M331.991 259.183L325.991 195.206C325.928 194.531 325.527 193.933 324.927 193.62L301.927 181.6C301.884 181.578 301.835 181.583 301.791 181.564C301.66 181.507 301.521 181.48 301.377 181.452C301.238 181.425 301.107 181.394 300.966 181.396C300.934 181.396 300.907 181.382 300.875 181.383C300.762 181.39 300.666 181.443 300.559 181.468C300.451 181.493 300.337 181.482 300.233 181.526L293.112 184.486C292.092 184.91 291.61 186.081 292.033 187.1C292.458 188.122 293.627 188.604 294.648 188.179L299.179 186.296L302.912 245.982L274 256.512V214.988C274 213.883 273.105 212.988 272 212.988C270.896 212.988 270 213.884 270 214.988V256.512L241.088 245.982L244.822 186.296L249.353 188.179C250.374 188.604 251.544 188.122 251.967 187.1C252.391 186.081 251.908 184.91 250.888 184.486L243.768 181.526C243.664 181.483 243.551 181.493 243.443 181.469C243.335 181.443 243.239 181.391 243.125 181.383C243.093 181.382 243.066 181.397 243.035 181.396C242.889 181.394 242.754 181.427 242.611 181.456C242.476 181.484 242.346 181.508 242.224 181.56C242.175 181.581 242.121 181.576 242.074 181.6L219.074 193.62C218.473 193.933 218.073 194.531 218.009 195.206L212.009 259.183C211.942 259.901 212.266 260.599 212.858 261.011C213.448 261.423 214.219 261.485 214.867 261.173L239.108 249.518L271.316 261.249C271.757 261.411 272.244 261.411 272.685 261.249L304.893 249.518L329.134 261.173C329.409 261.304 329.706 261.37 330.001 261.37C330.402 261.37 330.802 261.249 331.143 261.012C331.734 260.599 332.059 259.901 331.991 259.183ZM237.076 246.056L216.321 256.035L221.889 196.662L240.783 186.788L237.076 246.056ZM306.924 246.056L303.217 186.788L322.11 196.662L327.679 256.035L306.924 246.056Z" fill="#877F79"/>
<path d="M254.378 181.745L270.282 208.399C270.643 209.005 271.296 209.375 272 209.375C272.704 209.375 273.356 209.005 273.717 208.399L289.665 181.669C290.432 180.243 290.946 179.035 291.28 177.865C291.758 176.194 292 174.459 292 172.709C292 170.091 291.468 167.551 290.417 165.157C289.405 162.853 287.957 160.785 286.115 159.011C284.279 157.243 282.141 155.854 279.761 154.885C274.839 152.881 269.161 152.881 264.239 154.885C261.859 155.854 259.721 157.243 257.886 159.011C256.043 160.785 254.595 162.853 253.583 165.158C252.532 167.55 252 170.091 252 172.709C252 174.459 252.242 176.194 252.72 177.866C253.054 179.035 253.567 180.243 254.378 181.745ZM257.245 166.766C258.046 164.942 259.195 163.302 260.66 161.892C262.129 160.477 263.841 159.366 265.747 158.589C267.728 157.783 269.831 157.375 272 157.375C274.169 157.375 276.272 157.783 278.253 158.589C280.159 159.366 281.871 160.477 283.341 161.892C284.805 163.302 285.954 164.942 286.755 166.765C287.581 168.648 288 170.647 288 172.709C288 174.087 287.81 175.453 287.435 176.766C287.182 177.651 286.772 178.606 286.187 179.696L272 203.471L257.856 179.772C257.228 178.606 256.818 177.651 256.565 176.767C256.19 175.453 256 174.088 256 172.709C256 170.647 256.419 168.648 257.245 166.766Z" fill="#877F79"/>
<path d="M272 183.381C277.514 183.381 282 178.894 282 173.38C282 167.867 277.514 163.38 272 163.38C266.486 163.38 262 167.867 262 173.38C262 178.894 266.486 183.381 272 183.381ZM272 167.38C275.309 167.38 278 170.072 278 173.38C278 176.689 275.309 179.38 272 179.38C268.691 179.38 266 176.689 266 173.38C266 170.072 268.691 167.38 272 167.38Z" fill="#877F79"/>
</g>
<path d="M217.265 93.7195C217.291 93.8354 217.303 93.9748 217.302 94.1376C217.308 94.2907 217.3 94.4416 217.28 94.5902C217.259 94.7387 217.22 94.8773 217.162 95.0057C217.103 95.1258 217.022 95.2108 216.918 95.2606C216.625 95.4158 216.39 95.5066 216.214 95.533C216.047 95.558 215.9 95.5501 215.774 95.5091C215.657 95.4668 215.534 95.4168 215.405 95.359C215.224 95.292 215.063 95.1878 214.922 95.0463C214.789 94.9036 214.711 94.7528 214.687 94.5937C214.67 94.4765 214.673 94.3305 214.699 94.1556C214.732 93.9794 214.775 93.8061 214.826 93.6358C214.885 93.4559 214.95 93.292 215.022 93.1443C215.102 92.9953 215.181 92.8894 215.257 92.8267C215.388 92.73 215.495 92.6754 215.579 92.6629C215.67 92.6407 215.753 92.624 215.828 92.6127C216.221 92.5537 216.538 92.609 216.777 92.7785C217.015 92.9396 217.178 93.2533 217.265 93.7195ZM226.612 93.1269C226.627 93.2274 226.606 93.346 226.55 93.4829C226.5 93.6101 226.409 93.6837 226.275 93.7038C226.199 93.7151 226.138 93.703 226.089 93.6674C226.041 93.6318 225.996 93.6172 225.955 93.6234C225.896 93.6322 225.84 93.6619 225.788 93.7126C225.744 93.7619 225.659 93.796 225.534 93.8149C225.367 93.84 225.211 93.8033 225.068 93.705C224.932 93.597 224.813 93.4566 224.71 93.2837C224.606 93.1025 224.516 92.9062 224.442 92.6949C224.374 92.4739 224.326 92.2672 224.297 92.0747C224.241 91.698 224.189 91.2693 224.143 90.7884C224.104 90.2979 224.063 89.7991 224.021 89.2919C223.987 88.775 223.944 88.2636 223.894 87.7576C223.852 87.2504 223.799 86.7834 223.735 86.3565C223.65 85.7874 223.546 85.3494 223.423 85.0426C223.3 84.7359 223.142 84.5969 222.95 84.6258C222.769 84.6785 222.605 84.8657 222.456 85.1876C222.308 85.5094 222.167 85.9155 222.035 86.406C221.902 86.8881 221.783 87.4323 221.677 88.0387C221.57 88.6367 221.469 89.2509 221.375 89.8811C221.289 90.5017 221.209 91.1085 221.135 91.7015C221.06 92.2862 220.993 92.8097 220.934 93.2721C220.875 93.7346 220.82 94.1108 220.769 94.4008C220.717 94.6824 220.675 94.8258 220.641 94.8308C220.574 94.8408 220.522 94.8316 220.483 94.8032C220.446 94.7831 220.408 94.7588 220.369 94.7303C220.339 94.7006 220.301 94.6722 220.254 94.6449C220.208 94.6261 220.144 94.623 220.06 94.6355C219.985 94.6468 219.936 94.6627 219.913 94.6832C219.89 94.7037 219.864 94.729 219.835 94.7592C219.805 94.7893 219.766 94.8165 219.718 94.8408C219.671 94.865 219.584 94.8866 219.459 94.9054C219.308 94.928 219.152 94.9129 218.99 94.8602C218.836 94.8062 218.747 94.6996 218.723 94.5406C218.708 94.4402 218.694 94.2326 218.681 93.9179C218.667 93.5948 218.647 93.2041 218.621 92.7459C218.603 92.278 218.576 91.7599 218.542 91.1916C218.516 90.6137 218.478 90.0202 218.429 89.4113C218.389 88.8011 218.341 88.1922 218.284 87.5846C218.227 86.9769 218.158 86.4011 218.076 85.857C218.036 85.5892 217.995 85.3429 217.953 85.1181C217.909 84.885 217.872 84.6639 217.84 84.4546C217.833 84.4044 217.854 84.3755 217.904 84.368C218.005 84.3529 218.083 84.3626 218.14 84.3969C218.203 84.4216 218.251 84.453 218.282 84.491C218.314 84.5291 218.333 84.5691 218.339 84.611C218.352 84.6432 218.363 84.6587 218.371 84.6574C218.397 84.6536 218.424 84.6367 218.454 84.6066C218.482 84.5681 218.511 84.5296 218.539 84.4911C218.576 84.4513 218.609 84.4164 218.639 84.3862C218.667 84.3477 218.694 84.3266 218.719 84.3228L218.845 84.304C218.97 84.2852 219.056 84.2553 219.101 84.2143C219.145 84.1649 219.172 84.118 219.183 84.0737C219.2 84.0197 219.211 83.9753 219.214 83.9406C219.216 83.8975 219.238 83.8728 219.28 83.8665C219.305 83.8628 219.342 83.8787 219.39 83.9142C219.445 83.9402 219.5 83.9961 219.556 84.0819C219.619 84.158 219.678 84.2648 219.732 84.402C219.787 84.5393 219.83 84.7084 219.86 84.9093C219.9 85.1771 219.938 85.518 219.975 85.9319C220.019 86.3445 220.06 86.7877 220.097 87.2614C220.141 87.7255 220.186 88.198 220.232 88.6789C220.278 89.1514 220.325 89.5807 220.374 89.967C220.412 89.5933 220.461 89.1794 220.522 88.7254C220.589 88.2617 220.673 87.7913 220.772 87.3142C220.88 86.8359 221.003 86.3682 221.14 85.9112C221.275 85.4459 221.435 85.0282 221.619 84.6583C221.804 84.2884 222.01 83.9835 222.24 83.7437C222.468 83.4956 222.724 83.3502 223.009 83.3075C223.461 83.2397 223.842 83.2682 224.151 83.393C224.469 83.5165 224.734 83.7121 224.945 83.98C225.157 84.2478 225.321 84.5741 225.439 84.9587C225.565 85.342 225.661 85.7597 225.729 86.2117C225.787 86.5967 225.831 87.0051 225.861 87.437C225.891 87.8605 225.916 88.2889 225.939 88.722C225.968 89.1455 225.996 89.5649 226.024 89.98C226.061 90.3939 226.106 90.7808 226.16 91.1407C226.226 91.5843 226.312 91.9823 226.416 92.3347C226.519 92.6787 226.584 92.9428 226.612 93.1269ZM236.025 87.5822C236.039 87.6742 236.059 87.7824 236.087 87.9067C236.114 88.031 236.139 88.1727 236.163 88.3317C236.193 88.5326 236.202 88.7881 236.188 89.0982C236.174 89.3999 236.124 89.724 236.039 90.0705C235.962 90.4158 235.839 90.7679 235.671 91.127C235.502 91.486 235.278 91.8191 234.999 92.1263C234.72 92.4335 234.375 92.6992 233.963 92.9234C233.561 93.1548 233.084 93.312 232.532 93.3948C232.038 93.4688 231.517 93.4485 230.969 93.3338C230.431 93.2262 229.919 93.0077 229.433 92.6783C228.955 92.3392 228.531 91.8849 228.164 91.3153C227.803 90.7361 227.559 90.0196 227.431 89.1659C227.35 88.6302 227.338 88.0929 227.394 87.5538C227.459 87.0136 227.57 86.4963 227.726 86.0021C227.892 85.5066 228.101 85.0431 228.352 84.6117C228.612 84.1706 228.892 83.7862 229.194 83.4586C229.503 83.1213 229.829 82.8455 230.174 82.6313C230.527 82.4158 230.879 82.2817 231.23 82.229C231.841 82.1374 232.358 82.1584 232.78 82.2919C233.211 82.4242 233.565 82.615 233.842 82.8645C234.119 83.1139 234.328 83.395 234.469 83.7076C234.617 84.0106 234.71 84.2918 234.749 84.5513C234.787 84.8024 234.767 85.1006 234.691 85.4458C234.621 85.7815 234.47 86.1165 234.238 86.4508C234.004 86.7768 233.681 87.0735 233.267 87.3409C232.853 87.5999 232.323 87.7777 231.679 87.8743C231.335 87.9258 231.019 87.9262 230.729 87.8755C230.446 87.8152 230.189 87.7296 229.959 87.6187C229.727 87.4994 229.523 87.3674 229.347 87.2225C229.179 87.0681 229.033 86.9231 228.91 86.7875C228.837 87.329 228.853 87.9471 228.957 88.6418C229.028 89.1189 229.16 89.5399 229.351 89.9049C229.55 90.2602 229.791 90.5536 230.074 90.785C230.357 91.0165 230.676 91.1783 231.032 91.2704C231.389 91.3625 231.767 91.3784 232.169 91.3182C232.671 91.2429 233.098 91.0933 233.45 90.8694C233.8 90.6372 234.094 90.3706 234.331 90.0698C234.577 89.7676 234.778 89.4508 234.933 89.1194C235.096 88.7783 235.234 88.471 235.347 88.1973C235.459 87.9152 235.557 87.6823 235.64 87.4986C235.732 87.3137 235.833 87.2172 235.944 87.2093C235.994 87.2017 236.025 87.2398 236.038 87.3235C236.044 87.3654 236.046 87.4078 236.044 87.451C236.042 87.4941 236.036 87.5378 236.025 87.5822ZM231.546 83.4782C231.395 83.5008 231.204 83.5638 230.971 83.6671C230.745 83.7609 230.51 83.9073 230.266 84.1065C230.031 84.3044 229.804 84.561 229.586 84.8761C229.367 85.1828 229.192 85.5599 229.062 86.0072C229.171 85.9311 229.264 85.8658 229.341 85.8114C229.427 85.7557 229.487 85.7254 229.52 85.7204C229.537 85.7179 229.564 85.7308 229.603 85.7593C229.844 86.0569 230.118 86.2555 230.424 86.3551C230.737 86.4451 231.073 86.4631 231.433 86.4092C231.718 86.3665 231.954 86.2841 232.141 86.1619C232.335 86.0301 232.488 85.8788 232.599 85.7081C232.71 85.5373 232.782 85.3597 232.814 85.1751C232.845 84.9822 232.848 84.7979 232.821 84.6221C232.765 84.2454 232.622 83.9502 232.393 83.7363C232.163 83.5141 231.881 83.428 231.546 83.4782ZM239.17 76.6998C239.177 76.75 239.189 76.8852 239.205 77.1053C239.219 77.3171 239.236 77.6012 239.256 77.9578C239.283 78.3131 239.311 78.7282 239.34 79.2032C239.367 79.6699 239.4 80.1741 239.438 80.7161C239.955 80.5701 240.446 80.4452 240.909 80.3415C241.38 80.2281 241.779 80.1469 242.105 80.098C242.214 80.0817 242.313 80.0882 242.403 80.1175C242.493 80.1468 242.568 80.187 242.627 80.238C242.693 80.2795 242.748 80.3311 242.791 80.3931C242.834 80.4467 242.862 80.4937 242.877 80.5343C242.883 80.5762 242.893 80.6174 242.908 80.658C242.922 80.6902 242.931 80.7273 242.938 80.7691C242.963 80.9365 242.912 81.1152 242.787 81.3052C242.67 81.4939 242.468 81.6312 242.181 81.7169L239.55 82.4066C239.599 83.0155 239.654 83.6406 239.716 84.2817C239.778 84.9228 239.84 85.564 239.901 86.2051C239.97 86.8366 240.042 87.4592 240.117 88.0727C240.192 88.6862 240.27 89.265 240.352 89.809C240.405 90.1606 240.456 90.4439 240.505 90.659C240.554 90.8741 240.584 91.0151 240.594 91.0821C240.615 91.2244 240.607 91.3711 240.57 91.5222C240.54 91.6636 240.495 91.7944 240.436 91.9145C240.387 92.0417 240.326 92.1451 240.252 92.2246C240.188 92.3112 240.131 92.3583 240.08 92.3658C239.779 92.411 239.526 92.3505 239.322 92.1843C239.118 92.0265 238.947 91.7955 238.807 91.4913C238.675 91.1857 238.566 90.8298 238.48 90.4234C238.393 90.0171 238.317 89.5921 238.25 89.1485C238.093 88.1022 237.966 87.0516 237.868 85.9965C237.768 84.9331 237.7 83.9078 237.663 82.9206L236.122 83.3442C236.097 83.348 236.072 83.3559 236.049 83.368C236.025 83.3802 235.996 83.3888 235.963 83.3938C235.804 83.4176 235.672 83.3988 235.569 83.3372C235.457 83.277 235.369 83.2004 235.303 83.1075C235.238 83.0146 235.194 82.9185 235.17 82.8193C235.137 82.713 235.116 82.6306 235.108 82.572C235.09 82.4548 235.091 82.3435 235.109 82.238C235.127 82.1326 235.181 82.0604 235.269 82.0215C235.435 81.9282 235.73 81.8112 236.154 81.6706C236.585 81.5204 237.07 81.3621 237.61 81.1955C237.6 80.5038 237.6 79.8706 237.608 79.296C237.623 78.7118 237.646 78.2077 237.676 77.7838C237.705 77.3515 237.741 77.0167 237.782 76.7794C237.831 76.5325 237.884 76.4046 237.943 76.3959C237.96 76.3933 237.981 76.3944 238.008 76.399C238.034 76.4036 238.056 76.4047 238.072 76.4021C238.123 76.3946 238.156 76.3639 238.174 76.3099C238.199 76.2463 238.253 76.2082 238.337 76.1956C238.412 76.1843 238.495 76.1975 238.586 76.2352C238.685 76.2632 238.772 76.3057 238.849 76.3627C238.935 76.4183 239.008 76.4801 239.07 76.5479C239.13 76.6073 239.163 76.6579 239.17 76.6998Z" fill="#877F79"/>
<path d="M86.8059 103.129C86.8375 103.244 86.8568 103.382 86.8636 103.545C86.8771 103.698 86.8772 103.849 86.8641 103.998C86.851 104.148 86.8188 104.288 86.7675 104.419C86.7145 104.542 86.6374 104.631 86.5362 104.686C86.2509 104.855 86.0212 104.958 85.8469 104.993C85.681 105.026 85.5341 105.025 85.4062 104.991C85.2867 104.954 85.1613 104.91 85.0301 104.859C84.8458 104.801 84.6797 104.705 84.5319 104.571C84.3923 104.435 84.3066 104.288 84.2749 104.131C84.2516 104.014 84.2481 103.868 84.2645 103.692C84.2892 103.515 84.323 103.34 84.366 103.167C84.4155 102.984 84.4726 102.817 84.5372 102.666C84.6101 102.513 84.683 102.404 84.7559 102.337C84.8819 102.234 84.9865 102.174 85.0694 102.158C85.159 102.131 85.2412 102.11 85.3158 102.095C85.7058 102.017 86.0245 102.056 86.272 102.214C86.5179 102.363 86.6958 102.668 86.8059 103.129ZM96.4217 98.592C96.5168 99.0649 96.5099 99.567 96.401 100.098C96.292 100.63 96.0876 101.137 95.7877 101.62C95.4945 102.094 95.104 102.513 94.6165 102.879C94.1289 103.245 93.549 103.495 92.877 103.63C92.3293 103.74 91.7501 103.736 91.1391 103.617C90.5364 103.497 89.9677 103.266 89.4328 102.925C88.8963 102.575 88.4244 102.117 88.0171 101.552C87.6098 100.986 87.3286 100.318 87.1733 99.546C87.0198 98.7826 87.0197 98.0316 87.1733 97.2928C87.3334 96.544 87.6032 95.8681 87.9827 95.2652C88.3604 94.6539 88.8263 94.1372 89.3802 93.715C89.9424 93.2911 90.5512 93.0132 91.2067 92.8814C91.8124 92.7595 92.3394 92.7398 92.7876 92.8223C93.2425 92.8948 93.6211 93.0172 93.9234 93.1895C94.224 93.3535 94.4516 93.5408 94.6062 93.7514C94.7691 93.9604 94.8647 94.1354 94.8931 94.2765C94.9565 94.5918 94.9419 94.8623 94.8492 95.0882C94.7565 95.314 94.6331 95.4942 94.4788 95.6289C94.3329 95.7618 94.1828 95.8524 94.0285 95.9008C93.8808 95.9391 93.7796 95.9293 93.7247 95.8712C93.6849 95.8447 93.6442 95.8356 93.6027 95.844C93.5695 95.8506 93.5338 95.8665 93.4957 95.8914C93.4575 95.9163 93.4194 95.9413 93.3812 95.9662C93.3514 95.9895 93.3224 95.9953 93.2941 95.9837C93.2493 95.9755 93.2376 95.939 93.2591 95.8742C93.2889 95.8078 93.2997 95.7539 93.2913 95.7124C93.2763 95.6377 93.2555 95.5555 93.2288 95.4659C93.2088 95.3664 93.2087 95.2585 93.2284 95.1423C93.2731 94.9779 93.2696 94.8103 93.2179 94.6394C93.1729 94.4585 93.0765 94.3009 92.9286 94.1666C92.789 94.0307 92.588 93.933 92.3257 93.8735C92.0717 93.8124 91.758 93.8194 91.3846 93.8945C91.1191 93.9479 90.8213 94.0985 90.4913 94.3461C90.1613 94.5938 89.8679 94.9377 89.6111 95.3779C89.3609 95.8081 89.1773 96.3328 89.0601 96.952C88.9496 97.5613 88.9736 98.2601 89.1322 99.0483C89.2006 99.3885 89.3139 99.737 89.472 100.094C89.6384 100.449 89.8653 100.761 90.1527 101.032C90.4402 101.302 90.7956 101.502 91.219 101.633C91.6408 101.755 92.1462 101.757 92.7353 101.639C93.1253 101.56 93.4712 101.434 93.7731 101.261C94.0833 101.087 94.3545 100.89 94.5866 100.671C94.8187 100.451 95.0185 100.221 95.1858 99.9802C95.3532 99.7393 95.4899 99.5176 95.5959 99.3149C95.7002 99.104 95.7764 98.9247 95.8244 98.7769C95.8806 98.6274 95.9137 98.5345 95.9236 98.4979C95.9485 98.4498 95.9841 98.4124 96.0306 98.3858C96.0754 98.3509 96.1243 98.3367 96.1774 98.3433C96.2289 98.3416 96.2762 98.3623 96.3194 98.4054C96.3692 98.4385 96.4033 98.5007 96.4217 98.592ZM105.78 95.2202C105.955 96.0914 105.984 96.9014 105.867 97.6501C105.759 98.3971 105.534 99.0597 105.192 99.6377C104.859 100.214 104.433 100.693 103.914 101.073C103.395 101.454 102.816 101.709 102.177 101.837C101.912 101.89 101.615 101.916 101.286 101.913C100.959 101.918 100.624 101.882 100.28 101.804C99.9363 101.727 99.5917 101.602 99.2463 101.43C98.9008 101.257 98.5777 101.024 98.277 100.731C97.9762 100.438 97.7094 100.077 97.4766 99.6488C97.252 99.2192 97.0838 98.7048 96.9719 98.1058C96.835 97.4254 96.7936 96.7905 96.8477 96.2012C96.9002 95.6036 97.0108 95.0591 97.1795 94.5676C97.3549 94.0661 97.576 93.6202 97.8428 93.2298C98.1096 92.8395 98.3872 92.503 98.6757 92.2206C98.9626 91.9298 99.2486 91.6995 99.5339 91.5299C99.8192 91.3603 100.072 91.2447 100.293 91.183C100.407 91.1513 100.46 91.1538 100.45 91.1903C100.448 91.2251 100.427 91.2683 100.385 91.3198C100.344 91.3713 100.306 91.422 100.273 91.4718C100.248 91.52 100.27 91.5415 100.338 91.5365C100.4 91.5414 100.449 91.5488 100.485 91.5587C100.53 91.567 100.576 91.5794 100.622 91.5959L100.699 91.4639C100.749 91.4107 100.799 91.3791 100.848 91.3691C100.906 91.3574 100.958 91.3557 101.003 91.364C101.046 91.3639 101.08 91.3614 101.105 91.3564C101.13 91.3514 101.141 91.3231 101.14 91.2717C101.138 91.1771 101.157 91.1214 101.197 91.1048C101.243 91.0782 101.349 91.0482 101.515 91.0148C101.615 90.9948 101.77 90.9938 101.981 91.0118C102.2 91.0281 102.444 91.0826 102.713 91.1753C102.99 91.2663 103.278 91.407 103.575 91.5976C103.879 91.7782 104.171 92.0301 104.452 92.3535C104.74 92.6669 105 93.0591 105.233 93.5303C105.466 94.0014 105.648 94.5647 105.78 95.2202ZM100.553 92.4774C100.298 92.71 100.059 93.0041 99.8372 93.3596C99.6152 93.715 99.4273 94.1111 99.2734 94.5478C99.1278 94.9828 99.0329 95.4552 98.9887 95.9648C98.9444 96.4744 98.9757 96.9947 99.0825 97.5258C99.1977 98.0983 99.3518 98.6068 99.5449 99.0515C99.7462 99.4944 99.9798 99.8618 100.246 100.154C100.51 100.437 100.801 100.642 101.12 100.768C101.446 100.883 101.791 100.905 102.156 100.831C102.48 100.766 102.781 100.611 103.059 100.365C103.346 100.117 103.577 99.7856 103.753 99.3704C103.928 98.9553 104.037 98.463 104.077 97.8936C104.127 97.3226 104.079 96.6803 103.936 95.9667C103.791 95.2448 103.573 94.6583 103.284 94.2072C102.995 93.756 102.7 93.4053 102.399 93.155C102.105 92.8947 101.837 92.7241 101.597 92.643C101.354 92.5537 101.208 92.514 101.158 92.524C101.042 92.5474 100.951 92.5657 100.885 92.5791C100.826 92.5908 100.716 92.5569 100.553 92.4774ZM120.258 96.8919C120.296 96.9533 120.323 97.0038 120.34 97.0437C120.365 97.0818 120.382 97.1216 120.39 97.1631C120.405 97.2378 120.381 97.2901 120.318 97.3201C120.262 97.34 120.202 97.365 120.139 97.3949C120.124 97.4066 120.116 97.4514 120.114 97.5294C120.111 97.5991 120.101 97.6788 120.084 97.7685C120.076 97.8564 120.046 97.9403 119.993 98.02C119.948 98.0981 119.872 98.148 119.764 98.1697C119.41 98.2149 119.121 98.1912 118.895 98.0985C118.671 98.0141 118.486 97.8699 118.341 97.6659C118.197 97.4619 118.081 97.2089 117.995 96.9069C117.906 96.5966 117.824 96.2506 117.747 95.8689C117.657 95.4209 117.579 94.9487 117.514 94.4525C117.457 93.9546 117.406 93.4683 117.363 92.9937C117.319 92.519 117.273 92.0751 117.224 91.6618C117.182 91.2386 117.132 90.8818 117.074 90.5914C116.989 90.1682 116.885 89.848 116.764 89.6307C116.651 89.4117 116.532 89.3148 116.408 89.3398C116.349 89.3515 116.235 89.5558 116.065 89.9527C115.892 90.3413 115.706 90.9183 115.506 91.6837C115.315 92.4474 115.13 93.3954 114.952 94.5276C114.782 95.6581 114.666 96.9679 114.603 98.4568C114.598 98.5182 114.602 98.5821 114.615 98.6485C114.629 98.7149 114.637 98.778 114.641 98.8377C114.642 98.8892 114.63 98.9348 114.603 98.9747C114.587 99.0212 114.549 99.0503 114.491 99.062C114.375 99.0853 114.279 99.0788 114.203 99.0424C114.128 99.0142 114.061 98.9803 114.001 98.9405C113.939 98.8924 113.884 98.8518 113.834 98.8187C113.782 98.7773 113.723 98.7632 113.657 98.7766C113.632 98.7816 113.615 98.8023 113.605 98.8389C113.595 98.8754 113.582 98.9211 113.568 98.9759C113.551 99.0223 113.53 99.0655 113.503 99.1054C113.476 99.1453 113.434 99.171 113.376 99.1827C113.326 99.1927 113.271 99.1953 113.209 99.1904C113.146 99.1772 113.077 99.1349 113.003 99.0636C112.926 98.984 112.85 98.8655 112.776 98.7079C112.707 98.5403 112.644 98.3113 112.586 98.0209L112.473 97.4608C112.45 97.3447 112.426 97.1638 112.403 96.9181C112.377 96.6642 112.345 96.3729 112.304 96.0443C112.273 95.7141 112.236 95.3589 112.194 94.9788C112.158 94.5888 112.114 94.1963 112.06 93.8013C112.015 93.4047 111.963 93.018 111.905 92.6413C111.855 92.2629 111.799 91.9202 111.737 91.6132C111.548 90.6756 111.338 90.2302 111.105 90.2769C111.047 90.2886 110.985 90.3227 110.919 90.3792C110.852 90.4357 110.779 90.5412 110.698 90.6957C110.623 90.8401 110.539 91.0469 110.447 91.3159C110.361 91.5749 110.271 91.9211 110.177 92.3544C110.089 92.7778 109.991 93.2982 109.882 93.9158C109.78 94.5234 109.676 95.2522 109.571 96.1022C109.548 96.2881 109.533 96.5587 109.527 96.9139C109.527 97.2591 109.533 97.6119 109.546 97.972C109.558 98.3322 109.573 98.6658 109.591 98.9729C109.617 99.2699 109.638 99.4641 109.657 99.5554C109.662 99.5803 109.625 99.6309 109.545 99.7074C109.472 99.7739 109.382 99.8437 109.276 99.9168C109.17 99.99 109.058 100.056 108.94 100.114C108.833 100.179 108.746 100.218 108.679 100.231C108.538 100.26 108.422 100.24 108.33 100.172C108.241 100.112 108.154 99.9828 108.071 99.7837C107.995 99.5747 107.915 99.2884 107.834 98.925C107.759 98.5517 107.663 98.0746 107.546 97.4937C107.516 97.3444 107.461 97.049 107.38 96.6076C107.309 96.1645 107.232 95.6533 107.15 95.0742C107.068 94.495 106.989 93.8892 106.914 93.2569C106.836 92.6163 106.779 92.0279 106.74 91.4918C106.701 90.9558 106.693 90.5084 106.716 90.1499C106.739 89.7913 106.808 89.6004 106.924 89.577C106.982 89.5653 107.041 89.5752 107.099 89.6067C107.157 89.6382 107.212 89.6746 107.263 89.7161C107.313 89.7492 107.359 89.7832 107.4 89.818C107.45 89.8511 107.496 89.8635 107.537 89.8552C107.57 89.8485 107.6 89.8252 107.627 89.7854C107.661 89.7438 107.687 89.6998 107.704 89.6533C107.727 89.5969 107.748 89.5495 107.766 89.5113C107.792 89.4715 107.814 89.4499 107.83 89.4465C107.855 89.4415 107.901 89.4755 107.967 89.5485C108.034 89.6214 108.1 89.7118 108.164 89.8196C108.236 89.9175 108.301 90.0253 108.359 90.1431C108.424 90.2509 108.463 90.338 108.476 90.4044C108.51 90.5703 108.541 90.8101 108.569 91.1238C108.606 91.4358 108.641 91.7827 108.675 92.1644C108.715 92.5362 108.757 92.9162 108.801 93.3046C108.853 93.6913 108.911 94.0464 108.976 94.37L108.986 94.4198C109.022 94.0413 109.073 93.6512 109.139 93.2494C109.212 92.8377 109.299 92.4359 109.402 92.0441C109.503 91.6439 109.616 91.2629 109.742 90.9009C109.876 90.5372 110.026 90.2134 110.194 89.9294C110.361 89.6454 110.543 89.4103 110.738 89.2242C110.934 89.038 111.148 88.9216 111.38 88.8749C111.662 88.8181 111.913 88.8195 112.132 88.879C112.358 88.9286 112.551 89.0279 112.71 89.1771C112.868 89.318 112.998 89.4947 113.102 89.707C113.203 89.9111 113.279 90.1375 113.329 90.3865C113.372 90.6022 113.406 90.8544 113.429 91.1432C113.461 91.4304 113.496 91.7515 113.532 92.1067C113.568 92.4535 113.61 92.8377 113.661 93.2593C113.718 93.6708 113.79 94.1181 113.879 94.601C113.927 94.2806 113.983 93.8979 114.049 93.453C114.122 92.9982 114.204 92.5283 114.297 92.0436C114.397 91.5571 114.507 91.0731 114.626 90.5917C114.754 90.1085 114.89 89.671 115.036 89.2791C115.181 88.8872 115.34 88.5617 115.513 88.3026C115.693 88.0418 115.883 87.8913 116.082 87.8513C116.14 87.8396 116.273 87.8345 116.481 87.8359C116.695 87.8274 116.921 87.8379 117.16 87.8675C117.406 87.8871 117.639 87.9309 117.86 87.9987C118.079 88.0582 118.235 88.1476 118.328 88.267C118.423 88.3947 118.521 88.5822 118.623 88.8294C118.731 89.0666 118.828 89.3968 118.913 89.82C118.988 90.1934 119.049 90.6473 119.096 91.1817C119.15 91.7061 119.184 92.3468 119.198 93.1037C119.205 93.3526 119.222 93.5908 119.251 93.8182C119.288 94.0439 119.328 94.2646 119.371 94.4803C119.435 94.7956 119.506 95.0877 119.586 95.3565C119.675 95.6236 119.761 95.8608 119.846 96.0682C119.931 96.2756 120.01 96.454 120.083 96.6033C120.155 96.7443 120.213 96.8405 120.258 96.8919Z" fill="#877F79"/>
<path d="M258.904 77.3652C258.891 77.4832 258.857 77.619 258.803 77.7724C258.758 77.9191 258.702 78.0593 258.634 78.1929C258.566 78.3266 258.484 78.4448 258.387 78.5473C258.292 78.6415 258.187 78.6952 258.073 78.7083C257.745 78.7591 257.494 78.7682 257.319 78.7357C257.153 78.7047 257.016 78.6492 256.911 78.5692C256.814 78.4908 256.714 78.4034 256.611 78.3068C256.462 78.1842 256.344 78.0331 256.257 77.8533C256.178 77.675 256.153 77.5069 256.183 77.3488C256.204 77.2323 256.256 77.0955 256.337 76.9384C256.426 76.7829 256.523 76.633 256.627 76.4889C256.741 76.338 256.856 76.2045 256.973 76.0884C257.097 75.9739 257.206 75.8994 257.298 75.865C257.454 75.8165 257.573 75.8 257.656 75.8155C257.749 75.8242 257.833 75.8355 257.908 75.8495C258.299 75.9224 258.58 76.078 258.751 76.3165C258.923 76.5466 258.975 76.8962 258.904 77.3652ZM270.549 70.6631C270.515 70.7084 270.416 70.845 270.253 71.0729C270.09 71.3008 269.882 71.5891 269.627 71.9377C269.383 72.2796 269.098 72.6743 268.774 73.1217C268.459 73.5625 268.128 74.0217 267.781 74.4993C267.442 74.9786 267.098 75.4653 266.747 75.9596C266.397 76.454 266.059 76.9249 265.735 77.3724C265.42 77.8131 265.129 78.2195 264.862 78.5915C264.603 78.9651 264.386 79.2734 264.212 79.5164C264.156 79.5835 264.093 79.6491 264.02 79.7131C263.956 79.7787 263.89 79.8352 263.821 79.8826C263.752 79.93 263.681 79.9641 263.608 79.985C263.542 80.0157 263.485 80.0223 263.437 80.0047C263.387 79.9954 263.33 79.9762 263.266 79.9472C263.211 79.9197 263.159 79.9013 263.109 79.892C263.082 79.8956 263.058 79.9084 263.037 79.9303C263.016 79.9521 262.991 79.9691 262.963 79.981C262.943 79.9946 262.917 79.9983 262.884 79.992C262.859 79.9874 262.829 79.9604 262.795 79.911C262.768 79.8716 262.736 79.8396 262.697 79.8152C262.657 79.7992 262.617 79.7831 262.577 79.767C262.545 79.7525 262.514 79.7338 262.484 79.711C262.462 79.6897 262.452 79.6533 262.453 79.6018C262.451 79.4724 262.429 79.2876 262.388 79.0474C262.357 78.8005 262.31 78.4517 262.247 78.001C262.187 77.542 262.11 76.9595 262.018 76.2536C261.934 75.5492 261.842 74.6756 261.744 73.6327C261.7 73.1768 261.646 72.702 261.583 72.2081C261.522 71.7059 261.458 71.2378 261.393 70.8038C261.336 70.3713 261.281 69.9952 261.229 69.6755C261.186 69.349 261.158 69.1328 261.143 69.0268C261.104 68.8214 261.103 68.6878 261.14 68.6259C261.169 68.5624 261.24 68.5499 261.354 68.5882C261.426 68.6188 261.509 68.6559 261.604 68.6995C261.701 68.7347 261.793 68.7733 261.88 68.8154C261.975 68.8589 262.058 68.9002 262.128 68.9391C262.206 68.9795 262.266 69.0078 262.306 69.0239C262.336 69.0467 262.357 69.0506 262.368 69.0355C262.388 69.022 262.403 69.0076 262.415 68.9926C262.436 68.9707 262.457 68.953 262.476 68.9395C262.506 68.9191 262.546 68.9136 262.596 68.9229C262.646 68.9322 262.68 68.9343 262.698 68.9291C262.726 68.9171 262.749 68.9085 262.767 68.9032C262.787 68.8897 262.81 68.8811 262.837 68.8774C262.873 68.867 262.925 68.8638 262.993 68.8679C263.135 68.8943 263.223 68.9279 263.259 68.969C263.304 69.0032 263.331 69.0685 263.338 69.1646C263.342 69.1911 263.349 69.3604 263.36 69.6723C263.379 69.9858 263.404 70.3864 263.433 70.874C263.473 71.3549 263.514 71.8963 263.557 72.4983C263.609 73.0936 263.667 73.6854 263.73 74.2739C263.8 74.8639 263.877 75.4206 263.961 75.9441C264.052 76.4691 264.153 76.901 264.262 77.2399C264.366 77.0958 264.518 76.8829 264.716 76.6014C264.923 76.3215 265.156 75.9989 265.413 75.6336C265.679 75.2699 265.963 74.8794 266.264 74.4621C266.576 74.038 266.882 73.6173 267.184 73.2C267.495 72.7759 267.791 72.3661 268.072 71.9707C268.362 71.5685 268.623 71.2081 268.854 70.8897C269.094 70.5728 269.289 70.3121 269.439 70.1076C269.599 69.8963 269.7 69.7688 269.743 69.7251C269.787 69.6731 269.818 69.6444 269.836 69.6392C269.864 69.6272 269.89 69.6277 269.913 69.6407C269.937 69.6537 269.959 69.6749 269.979 69.7046C269.999 69.7342 270.029 69.7612 270.067 69.7856C270.134 69.8411 270.204 69.9058 270.276 69.9795C270.349 70.0533 270.412 70.1296 270.466 70.2086C270.529 70.2891 270.569 70.3699 270.589 70.451C270.608 70.5321 270.595 70.6028 270.549 70.6631ZM276.631 81.4817C276.612 81.5815 276.554 81.6869 276.456 81.7977C276.368 81.9018 276.257 81.9414 276.124 81.9166C276.049 81.9027 275.995 81.871 275.961 81.8217C275.927 81.7723 275.889 81.7438 275.848 81.736C275.789 81.7252 275.727 81.7351 275.661 81.7659C275.603 81.7982 275.512 81.8027 275.387 81.7794C275.221 81.7484 275.086 81.6631 274.983 81.5233C274.89 81.3768 274.823 81.2051 274.782 81.0081C274.743 80.8027 274.723 80.588 274.721 80.364C274.73 80.1331 274.752 79.922 274.788 79.7306C274.857 79.3562 274.949 78.9342 275.062 78.4646C275.186 77.9882 275.31 77.5035 275.437 77.0105C275.573 76.5107 275.7 76.0135 275.818 75.519C275.944 75.0259 276.047 74.5673 276.126 74.1429C276.231 73.5771 276.276 73.1292 276.26 72.7991C276.244 72.4689 276.14 72.286 275.949 72.2504C275.761 72.2412 275.545 72.3644 275.299 72.62C275.053 72.8755 274.788 73.2135 274.503 73.6339C274.22 74.046 273.929 74.5213 273.631 75.0598C273.334 75.5899 273.038 76.1374 272.743 76.7024C272.459 77.2606 272.184 77.8078 271.921 78.3442C271.659 78.8722 271.424 79.345 271.218 79.7628C271.011 80.1805 270.836 80.5181 270.693 80.7756C270.552 81.0248 270.465 81.1463 270.431 81.1401C270.365 81.1277 270.318 81.1018 270.291 81.0623C270.262 81.0311 270.234 80.9958 270.207 80.9563C270.189 80.9184 270.162 80.8789 270.126 80.8379C270.089 80.8052 270.029 80.7811 269.946 80.7655C269.871 80.7516 269.82 80.7506 269.792 80.7626C269.763 80.7746 269.73 80.79 269.693 80.8087C269.655 80.8275 269.609 80.8405 269.556 80.8479C269.503 80.8552 269.414 80.8473 269.289 80.824C269.14 80.7961 268.997 80.7308 268.861 80.628C268.733 80.5267 268.684 80.3971 268.714 80.239C268.733 80.1391 268.787 79.9384 268.878 79.6367C268.97 79.3268 269.079 78.951 269.204 78.5095C269.339 78.0611 269.484 77.5629 269.638 77.0147C269.801 76.4598 269.96 75.8867 270.113 75.2954C270.274 74.7056 270.428 74.1143 270.573 73.5214C270.717 72.9286 270.84 72.3617 270.941 71.8209C270.991 71.5546 271.032 71.3084 271.066 71.0822C271.101 70.8477 271.138 70.6264 271.177 70.4184C271.186 70.3685 271.215 70.3482 271.265 70.3575C271.365 70.3761 271.436 70.4109 271.478 70.4618C271.53 70.5059 271.565 70.5511 271.582 70.5973C271.599 70.6436 271.604 70.6875 271.596 70.7291C271.599 70.764 271.604 70.7821 271.612 70.7837C271.637 70.7883 271.668 70.7813 271.706 70.7625C271.746 70.7355 271.785 70.7084 271.825 70.6813C271.873 70.6558 271.916 70.6336 271.953 70.6149C271.993 70.5878 272.025 70.5766 272.05 70.5812L272.175 70.6045C272.3 70.6277 272.39 70.6274 272.446 70.6034C272.504 70.5711 272.545 70.5357 272.569 70.4972C272.604 70.4519 272.628 70.4134 272.643 70.3817C272.659 70.3416 272.688 70.3255 272.729 70.3332C272.754 70.3379 272.783 70.3649 272.817 70.4142C272.861 70.4568 272.895 70.5277 272.92 70.627C272.954 70.7195 272.975 70.8396 272.982 70.9872C272.989 71.1349 272.974 71.3086 272.936 71.5082C272.887 71.7745 272.811 72.1091 272.711 72.5122C272.618 72.9168 272.512 73.349 272.391 73.8087C272.281 74.2617 272.169 74.723 272.056 75.1926C271.944 75.6538 271.849 76.0751 271.769 76.4563C271.927 76.1155 272.109 75.7405 272.314 75.3311C272.53 74.9149 272.762 74.4977 273.013 74.0794C273.271 73.6626 273.54 73.2607 273.818 72.8736C274.099 72.4781 274.386 72.1357 274.681 71.8463C274.976 71.5569 275.271 71.3364 275.566 71.1847C275.863 71.0248 276.153 70.9712 276.436 71.0239C276.885 71.1076 277.236 71.259 277.488 71.4781C277.748 71.6988 277.934 71.9702 278.046 72.2924C278.158 72.6147 278.207 72.9767 278.192 73.3786C278.186 73.7821 278.141 74.2085 278.057 74.6578C277.986 75.0405 277.894 75.4409 277.782 75.8591C277.671 76.2689 277.555 76.6821 277.435 77.0987C277.324 77.5085 277.214 77.9142 277.105 78.3157C277.004 78.7187 276.92 79.0991 276.853 79.4569C276.771 79.8979 276.722 80.3019 276.705 80.669C276.69 81.0277 276.665 81.2986 276.631 81.4817Z" fill="#877F79"/>
<path d="M96.1457 149.1C96.1365 149.219 96.1073 149.355 96.0582 149.511C96.0188 149.659 95.9675 149.801 95.9042 149.937C95.841 150.073 95.7628 150.194 95.6699 150.3C95.5782 150.397 95.4754 150.454 95.3616 150.471C95.0355 150.534 94.7846 150.551 94.6089 150.525C94.4415 150.5 94.3036 150.449 94.1953 150.373C94.0953 150.298 93.9924 150.214 93.8866 150.121C93.733 150.004 93.6097 149.857 93.5164 149.68C93.4316 149.505 93.4011 149.338 93.425 149.179C93.4427 149.061 93.4892 148.923 93.5646 148.763C93.6484 148.604 93.7399 148.451 93.8392 148.304C93.9481 148.149 94.0586 148.011 94.1708 147.891C94.2914 147.773 94.3974 147.694 94.4886 147.657C94.6422 147.603 94.7609 147.582 94.8446 147.595C94.9379 147.6 95.0222 147.609 95.0975 147.62C95.4909 147.679 95.7771 147.825 95.9561 148.057C96.1363 148.281 96.1995 148.629 96.1457 149.1ZM107 146.677C106.868 147.556 106.619 148.327 106.254 148.991C105.897 149.657 105.459 150.203 104.941 150.63C104.432 151.058 103.868 151.363 103.25 151.543C102.633 151.724 102.001 151.766 101.357 151.669C101.089 151.629 100.801 151.551 100.493 151.437C100.184 151.33 99.8812 151.182 99.5846 150.992C99.288 150.801 99.0067 150.567 98.7407 150.287C98.4747 150.007 98.2503 149.678 98.0676 149.3C97.885 148.921 97.7571 148.491 97.6841 148.009C97.6195 147.529 97.6368 146.988 97.7358 146.387C97.8391 145.7 98.0167 145.09 98.2685 144.554C98.5216 144.01 98.8112 143.536 99.1374 143.131C99.4733 142.72 99.8331 142.376 100.217 142.1C100.601 141.824 100.977 141.602 101.344 141.435C101.713 141.26 102.06 141.141 102.386 141.079C102.712 141.016 102.99 140.994 103.218 141.011C103.337 141.02 103.385 141.041 103.363 141.071C103.35 141.104 103.315 141.137 103.258 141.171C103.202 141.206 103.149 141.24 103.101 141.276C103.062 141.313 103.075 141.34 103.14 141.359C103.196 141.384 103.24 141.408 103.271 141.43C103.31 141.453 103.349 141.48 103.387 141.512L103.504 141.414C103.569 141.381 103.627 141.368 103.677 141.375C103.735 141.384 103.784 141.4 103.824 141.423C103.864 141.438 103.897 141.447 103.922 141.451C103.947 141.455 103.968 141.432 103.984 141.383C104.014 141.294 104.051 141.248 104.094 141.246C104.147 141.237 104.257 141.245 104.425 141.27C104.525 141.285 104.671 141.337 104.863 141.426C105.064 141.516 105.275 141.65 105.496 141.829C105.726 142.009 105.948 142.239 106.162 142.52C106.386 142.793 106.575 143.13 106.729 143.53C106.893 143.922 107.003 144.38 107.062 144.902C107.12 145.424 107.099 146.016 107 146.677ZM103.022 142.317C102.702 142.448 102.378 142.643 102.048 142.902C101.718 143.16 101.406 143.469 101.113 143.827C100.827 144.186 100.577 144.598 100.362 145.062C100.146 145.526 99.9984 146.026 99.9178 146.561C99.8308 147.139 99.8023 147.669 99.8322 148.153C99.8704 148.638 99.9648 149.063 100.115 149.428C100.267 149.785 100.471 150.077 100.728 150.304C100.995 150.523 101.312 150.661 101.68 150.716C102.007 150.766 102.343 150.722 102.688 150.586C103.043 150.451 103.373 150.218 103.679 149.888C103.986 149.557 104.255 149.131 104.488 148.61C104.729 148.09 104.903 147.47 105.012 146.75C105.121 146.022 105.117 145.397 104.999 144.874C104.881 144.351 104.723 143.921 104.526 143.583C104.338 143.238 104.145 142.987 103.946 142.828C103.749 142.662 103.625 142.574 103.575 142.567C103.457 142.549 103.365 142.535 103.298 142.525C103.24 142.516 103.148 142.447 103.022 142.317ZM114.943 144.06C114.898 144.301 114.837 144.54 114.758 144.777C114.69 145.006 114.605 145.225 114.506 145.432C114.407 145.631 114.295 145.807 114.17 145.959C114.052 146.113 113.928 146.231 113.795 146.314C113.682 146.382 113.596 146.412 113.538 146.403C113.479 146.394 113.432 146.37 113.395 146.33C113.366 146.292 113.343 146.25 113.324 146.204C113.305 146.159 113.275 146.128 113.235 146.114C113.203 146.1 113.156 146.098 113.095 146.106C113.043 146.106 112.989 146.098 112.932 146.081C112.883 146.065 112.837 146.028 112.794 145.97C112.761 145.906 112.747 145.801 112.752 145.656C112.759 145.494 112.794 145.29 112.857 145.043C112.929 144.788 112.984 144.54 113.02 144.297C113.053 144.079 113.055 143.896 113.026 143.746C113.007 143.589 112.939 143.502 112.822 143.484C112.763 143.475 112.652 143.505 112.487 143.575C112.332 143.637 112.146 143.797 111.927 144.055C111.708 144.313 111.47 144.701 111.213 145.219C110.956 145.728 110.706 146.422 110.463 147.301C110.289 148.456 110.157 149.386 110.068 150.092C109.979 150.798 109.905 151.347 109.846 151.74C109.795 152.075 109.751 152.312 109.713 152.452C109.675 152.592 109.619 152.678 109.546 152.709C109.5 152.728 109.412 152.745 109.282 152.759C109.158 152.784 109.023 152.802 108.875 152.814C108.736 152.827 108.602 152.837 108.473 152.843C108.344 152.849 108.263 152.846 108.231 152.832C108.207 152.82 108.165 152.784 108.106 152.724C108.045 152.672 107.982 152.607 107.917 152.528C107.86 152.451 107.808 152.371 107.761 152.287C107.712 152.211 107.688 152.147 107.687 152.096C107.683 152.01 107.703 151.82 107.747 151.527C107.8 151.227 107.859 150.868 107.922 150.449C107.993 150.032 108.07 149.577 108.153 149.085C108.237 148.584 108.316 148.086 108.39 147.593C108.438 147.275 108.5 146.924 108.574 146.542C108.659 146.152 108.744 145.759 108.829 145.361C108.923 144.964 109.016 144.576 109.107 144.196C109.199 143.816 109.28 143.477 109.35 143.18C109.43 142.875 109.494 142.623 109.541 142.425C109.597 142.22 109.633 142.097 109.648 142.056C109.666 141.99 109.699 141.97 109.747 141.994C109.803 142.019 109.857 142.058 109.909 142.108C109.97 142.16 110.023 142.207 110.068 142.248C110.113 142.289 110.147 142.294 110.168 142.263C110.197 142.19 110.261 142.191 110.361 142.266C110.462 142.333 110.553 142.406 110.635 142.487C110.663 142.534 110.695 142.577 110.731 142.617C110.778 142.65 110.818 142.694 110.852 142.751C110.888 142.799 110.913 142.863 110.926 142.942C110.949 143.022 110.95 143.125 110.931 143.251C110.914 143.368 110.896 143.545 110.877 143.782C110.858 144.019 110.838 144.298 110.815 144.62C110.952 144.332 111.109 144.031 111.285 143.715C111.469 143.4 111.674 143.119 111.9 142.87C112.127 142.613 112.38 142.412 112.659 142.265C112.937 142.119 113.253 142.072 113.604 142.125C113.797 142.154 113.983 142.221 114.165 142.325C114.346 142.429 114.5 142.568 114.628 142.742C114.766 142.908 114.865 143.102 114.926 143.326C114.986 143.549 114.992 143.793 114.943 144.06ZM118.516 153.251C119.018 153.326 119.509 153.447 119.989 153.614C120.477 153.782 120.906 154.004 121.275 154.282C121.644 154.561 121.923 154.894 122.113 155.282C122.31 155.679 122.368 156.146 122.287 156.682C122.228 157.075 122.076 157.459 121.832 157.833C121.587 158.207 121.273 158.557 120.89 158.885C120.507 159.212 120.069 159.51 119.575 159.778C119.089 160.047 118.573 160.265 118.026 160.431C117.477 160.605 116.916 160.722 116.342 160.781C115.769 160.84 115.206 160.828 114.653 160.745C114.201 160.677 113.782 160.562 113.395 160.401C113.016 160.25 112.69 160.055 112.418 159.818C112.154 159.581 111.956 159.303 111.824 158.984C111.691 158.673 111.655 158.321 111.714 157.927C111.772 157.542 111.902 157.189 112.104 156.869C112.305 156.557 112.548 156.277 112.834 156.029C113.128 155.782 113.452 155.565 113.805 155.379C114.157 155.201 114.512 155.058 114.871 154.949C115.237 154.85 115.589 154.783 115.928 154.749C116.267 154.714 116.571 154.717 116.838 154.757C116.978 154.795 117.072 154.827 117.12 154.851C117.166 154.884 117.187 154.912 117.184 154.938C117.18 154.963 117.163 154.99 117.133 155.02C117.101 155.058 117.084 155.089 117.08 155.115C117.089 155.167 117.097 155.228 117.104 155.298C117.11 155.367 117.109 155.436 117.099 155.502C117.086 155.586 117.059 155.655 117.016 155.708C116.981 155.772 116.916 155.805 116.822 155.807C116.457 155.838 116.047 155.922 115.59 156.059C115.141 156.196 114.708 156.371 114.291 156.582C113.882 156.803 113.528 157.049 113.23 157.321C112.931 157.601 112.754 157.9 112.697 158.216C112.675 158.367 112.729 158.487 112.862 158.575C112.994 158.663 113.19 158.727 113.449 158.766C113.767 158.814 114.155 158.825 114.612 158.8C115.07 158.775 115.55 158.71 116.054 158.606C116.556 158.511 117.056 158.372 117.554 158.19C118.059 158.018 118.519 157.805 118.934 157.551C119.357 157.298 119.709 157.008 119.989 156.682C120.269 156.356 120.44 155.988 120.502 155.578C120.532 155.377 120.514 155.212 120.448 155.082C120.389 154.962 120.31 154.865 120.21 154.79C120.118 154.716 120.015 154.662 119.901 154.628C119.793 154.603 119.702 154.585 119.626 154.574C119.032 154.484 118.42 154.426 117.791 154.4C117.16 154.382 116.584 154.372 116.062 154.371C115.547 154.379 115.122 154.392 114.785 154.41C114.448 154.436 114.27 154.448 114.254 154.445C114.069 154.417 113.904 154.354 113.756 154.255C113.617 154.157 113.501 154.041 113.41 153.907C113.319 153.774 113.252 153.622 113.209 153.453C113.173 153.294 113.167 153.135 113.191 152.976C113.21 152.85 113.312 152.682 113.498 152.47C113.685 152.25 113.921 152.02 114.205 151.78C114.49 151.541 114.807 151.31 115.157 151.089C115.515 150.869 115.867 150.695 116.211 150.567C115.949 150.374 115.722 150.151 115.528 149.9C115.335 149.648 115.178 149.385 115.057 149.11C114.944 148.836 114.866 148.555 114.824 148.266C114.783 147.969 114.785 147.674 114.829 147.381C114.915 146.812 115.07 146.322 115.294 145.91C115.52 145.491 115.787 145.137 116.096 144.85C116.405 144.562 116.734 144.334 117.085 144.164C117.444 143.996 117.793 143.868 118.131 143.782C118.469 143.696 118.784 143.65 119.077 143.642C119.37 143.627 119.613 143.633 119.805 143.662C119.897 143.676 119.972 143.692 120.029 143.709C120.095 143.727 120.152 143.749 120.199 143.773C120.459 143.47 120.751 143.15 121.076 142.814C121.41 142.47 121.747 142.136 122.087 141.81C122.436 141.478 122.779 141.166 123.114 140.874C123.458 140.575 123.767 140.313 124.041 140.089C124.324 139.857 124.56 139.679 124.75 139.554C124.942 139.42 125.067 139.357 125.125 139.366C125.201 139.378 125.285 139.442 125.379 139.558C125.474 139.667 125.562 139.791 125.643 139.932C125.726 140.064 125.792 140.194 125.842 140.321C125.901 140.441 125.927 140.522 125.921 140.564C125.914 140.606 125.892 140.641 125.853 140.67C125.815 140.698 125.794 140.725 125.79 140.75C125.784 140.792 125.799 140.833 125.836 140.873C125.882 140.905 125.948 140.949 126.034 141.005C126.048 141.024 126.059 141.035 126.068 141.036C126.076 141.037 126.079 141.046 126.077 141.063C126.072 141.096 126.008 141.147 125.887 141.214C125.767 141.273 125.57 141.385 125.297 141.549C125.026 141.705 124.671 141.93 124.233 142.223C123.795 142.517 123.252 142.91 122.605 143.403C122.452 143.509 122.29 143.643 122.12 143.805C121.95 143.968 121.766 144.141 121.567 144.325C121.767 144.475 121.97 144.664 122.175 144.892C122.38 145.12 122.556 145.377 122.701 145.664C122.855 145.944 122.967 146.256 123.035 146.6C123.111 146.946 123.121 147.307 123.064 147.683C122.943 148.487 122.708 149.14 122.358 149.644C122.009 150.148 121.595 150.535 121.118 150.805C120.642 151.067 120.13 151.23 119.581 151.293C119.032 151.356 118.503 151.349 117.992 151.272C117.867 151.253 117.746 151.231 117.63 151.205C117.522 151.18 117.416 151.151 117.309 151.118C117.098 151.214 116.857 151.336 116.587 151.484C116.316 151.632 116.047 151.797 115.78 151.979C115.513 152.161 115.262 152.35 115.027 152.546C114.801 152.743 114.622 152.934 114.492 153.12C114.828 153.162 115.154 153.186 115.47 153.19C115.787 153.187 116.105 153.179 116.423 153.167C116.75 153.156 117.084 153.155 117.425 153.164C117.767 153.164 118.131 153.193 118.516 153.251ZM119.334 145.17C119.36 145.003 119.499 144.733 119.752 144.36C119.339 144.427 118.959 144.562 118.612 144.766C118.265 144.971 117.958 145.216 117.693 145.501C117.427 145.786 117.208 146.104 117.036 146.455C116.864 146.797 116.751 147.148 116.697 147.508C116.658 147.767 116.65 148.023 116.672 148.274C116.703 148.519 116.772 148.747 116.877 148.96C116.983 149.164 117.132 149.341 117.323 149.489C117.525 149.631 117.78 149.725 118.09 149.772C118.424 149.822 118.73 149.808 119.007 149.73C119.294 149.645 119.552 149.521 119.782 149.359C120.013 149.188 120.214 148.992 120.385 148.769C120.563 148.548 120.712 148.326 120.831 148.105C120.96 147.876 121.061 147.66 121.134 147.457C121.207 147.254 121.254 147.09 121.273 146.964C121.348 146.462 121.323 146.06 121.197 145.759C121.081 145.45 120.925 145.209 120.729 145.034C120.59 145.158 120.448 145.278 120.302 145.393C120.158 145.5 120.009 145.61 119.854 145.724C119.835 145.738 119.809 145.743 119.775 145.737C119.75 145.734 119.731 145.718 119.718 145.69C119.705 145.663 119.678 145.646 119.636 145.639C119.611 145.636 119.584 145.644 119.555 145.666C119.526 145.687 119.491 145.695 119.449 145.688C119.39 145.68 119.349 145.639 119.326 145.567C119.303 145.495 119.305 145.363 119.334 145.17Z" fill="#877F79"/>
<path d="M521.607 146.037C513.469 167.481 493.514 181.322 470.361 184.344C461.255 185.514 451.568 185.124 441.978 182.784C438.587 182.005 435.196 180.932 431.903 179.665C426.284 177.521 421.15 174.889 416.403 171.77C389.473 154.127 376.686 122.351 387.245 94.4734C397.416 67.7657 425.994 52.7548 456.315 55.8739C463.193 56.5563 470.167 58.2133 476.948 60.8451C479.177 61.7224 481.308 62.5996 483.439 63.6718C492.836 68.2531 500.876 74.2964 507.366 81.412C523.641 99.4446 530.035 124.008 521.607 146.037Z" fill="#FFC702"/>
<path d="M471.814 131.513C465.421 148.376 456.993 163.582 447.209 176.351C445.465 178.593 443.721 180.737 441.978 182.784C438.587 182.004 435.196 180.932 431.903 179.665C426.284 177.521 421.15 174.889 416.403 171.77C420.956 167.188 425.315 161.925 429.481 155.979C436.359 146.232 442.462 134.73 447.306 122.058C452.827 107.535 456.024 93.0112 456.993 79.6573C457.477 71.0796 457.283 63.0868 456.315 55.8738C463.193 56.5561 470.167 58.2131 476.948 60.8449C479.177 61.7222 481.308 62.5994 483.439 63.6717C483.826 71.4695 483.536 79.5598 482.567 87.8451C480.92 102.076 477.336 116.795 471.814 131.513Z" fill="#453C36"/>
<path d="M521.607 146.037C513.469 167.481 493.514 181.322 470.361 184.344C473.558 180.737 476.658 176.838 479.661 172.647C486.539 162.9 492.642 151.398 497.485 138.726C503.007 124.203 506.204 109.679 507.173 96.3253C507.56 91.1592 507.657 86.1881 507.366 81.4119C523.641 99.4444 530.035 124.008 521.607 146.037Z" fill="#453C36"/>
<path d="M421.15 104.026C421.731 108.705 424.444 112.214 427.253 111.824C430.062 111.434 431.903 107.437 431.322 102.759C430.74 98.0799 428.028 94.5709 425.219 94.9607C422.409 95.2532 420.569 99.3471 421.15 104.026Z" fill="#744E32"/>
<path d="M389.279 105.878C389.86 110.556 392.572 114.065 395.382 113.773C398.191 113.383 400.032 109.387 399.45 104.708C398.869 100.029 396.157 96.5201 393.347 96.91C390.538 97.1049 388.698 101.199 389.279 105.878Z" fill="#744E32"/>
<path d="M521.219 132.196L536.331 146.622C537.494 148.376 536.525 150.813 534.491 151.3L513.469 151.398L521.219 132.196Z" fill="#453C36"/>
<path d="M404.779 68.7405C404.779 68.7405 402.357 62.6971 397.901 56.8487C395.673 53.9245 392.863 51.0003 389.57 48.8559C386.276 46.7115 382.401 45.4443 378.042 45.7368C377.945 45.7368 377.848 45.7368 377.751 45.7368C377.267 45.7368 376.879 46.2241 376.976 46.7115C376.976 47.1989 377.461 47.5888 377.945 47.4913C378.042 47.4913 378.042 47.4913 378.139 47.4913C382.014 47.1989 385.501 48.3686 388.504 50.318C393.057 53.2422 396.738 58.0184 399.257 62.0148C400.516 64.0618 401.388 65.8163 402.066 67.1809C402.357 67.8632 402.647 68.3506 402.744 68.7405C402.841 68.9354 402.841 69.0329 402.938 69.1304V69.2279C403.132 69.7152 403.616 69.9102 404.1 69.7152C404.779 69.7152 404.972 69.2279 404.779 68.7405Z" fill="#2D221C"/>
<path d="M426.672 70.2025C426.672 70.2025 426.962 67.0833 426.575 62.697C426.284 58.6031 425.412 53.437 423.378 48.6608C422.312 46.3215 421.053 44.0796 419.212 42.1301C417.469 40.1807 415.241 38.6211 412.625 37.5489C412.141 37.3539 411.656 37.6463 411.463 38.0362C411.269 38.5236 411.56 39.011 411.947 39.2059C414.369 40.1807 416.306 41.5453 417.856 43.2998C420.278 45.9316 421.828 49.2457 422.894 52.7547C423.959 56.2638 424.444 59.7728 424.637 62.7945C424.831 64.9389 424.831 66.6934 424.831 67.9606C424.831 68.6429 424.831 69.1303 424.734 69.4227C424.734 69.6176 424.734 69.7151 424.734 69.8126V69.91C424.734 70.3974 425.025 70.8848 425.509 70.8848C426.284 70.9823 426.672 70.6898 426.672 70.2025Z" fill="#2D221C"/>
<path d="M380.948 46.419C381.142 49.0508 379.204 51.2926 376.686 51.4876C374.07 51.6825 371.842 49.7331 371.648 47.1988C371.454 44.567 373.392 42.3251 375.911 42.1301C378.526 41.9352 380.754 43.8847 380.948 46.419Z" fill="#2D221C"/>
<path d="M415.725 38.1338C415.919 40.7656 413.981 43.0075 411.463 43.2024C408.847 43.3974 406.619 41.4479 406.425 38.9136C406.232 36.2818 408.169 34.0399 410.688 33.845C413.303 33.65 415.531 35.5995 415.725 38.1338Z" fill="#2D221C"/>
<path d="M419.116 118.062C419.309 120.304 418.534 122.448 417.178 124.008C415.822 125.567 413.885 126.639 411.656 126.834C409.428 127.029 407.297 126.25 405.747 124.885C404.197 123.52 403.132 121.571 402.938 119.329C402.841 118.549 402.163 117.867 401.388 117.964C400.613 118.062 399.935 118.744 400.032 119.524C400.419 125.665 405.747 130.246 411.85 129.856C417.953 129.466 422.506 124.105 422.119 117.964C422.022 117.184 421.344 116.502 420.569 116.6C419.697 116.502 419.116 117.282 419.116 118.062Z" fill="#744E32"/>
<path d="M502.232 40.5705C505.816 19.0289 502.426 3.14074 490.607 1.0938C478.789 -0.855671 463.193 12.3032 459.608 33.9423C456.024 55.484 473.558 78.1953 477.723 79.17C481.308 79.9498 498.648 62.1122 502.232 40.5705Z" fill="#F7F4EF" fill-opacity="0.8"/>
<path d="M524.029 80.1448C538.85 73.4191 547.278 64.6465 543.597 56.4587C539.916 48.2709 525.191 43.8846 510.37 50.6103C495.548 57.336 488.767 77.8054 489.93 80.8271C490.898 83.3614 509.207 86.8704 524.029 80.1448Z" fill="#D5CCC4" fill-opacity="0.8"/>
<path d="M417.275 149.741C417.469 148.766 418.438 148.084 419.406 148.279C419.503 148.279 421.731 148.766 424.056 148.376C425.219 148.181 426.478 147.791 427.447 147.206C428.415 146.524 429.287 145.647 429.869 144.282C430.256 143.307 431.322 142.917 432.29 143.307C433.259 143.697 433.647 144.769 433.259 145.744C432.387 147.889 430.934 149.448 429.287 150.423C428.125 151.203 426.769 151.593 425.606 151.885C423.766 152.275 422.022 152.275 420.763 152.177C419.503 152.08 418.631 151.885 418.534 151.885C417.663 151.69 416.985 150.715 417.275 149.741Z" fill="#2D221C"/>
<path d="M50.6351 298.382C61.6253 313.713 80.4071 320.508 99.4489 318.028C106.934 317.038 114.553 314.685 121.683 310.804C124.214 309.469 126.683 307.902 129.034 306.2C133.048 303.311 136.575 300.136 139.691 296.656C157.379 276.952 160.843 248.996 146.572 229.062C132.855 209.976 106.972 204.069 83.527 212.941C78.2033 214.934 73.0082 217.722 68.1726 221.244C66.5864 222.411 65.0773 223.558 63.6092 224.859C57.1055 230.482 51.9881 236.982 48.329 244.007C39.194 261.773 39.2907 282.647 50.6351 298.382Z" fill="#FFC702"/>
<path d="M87.1545 276.337C95.7925 288.394 105.698 298.705 116.168 306.792C118.027 308.207 119.865 309.544 121.683 310.803C124.214 309.469 126.683 307.901 129.034 306.2C133.049 303.31 136.575 300.136 139.691 296.655C135.105 293.973 130.53 290.708 125.965 286.86C118.442 280.562 111.166 272.705 104.644 263.654C97.192 253.273 91.5885 242.402 88.0027 231.99C85.8091 225.274 84.2778 218.879 83.527 212.941C78.2034 214.934 73.0082 217.722 68.1727 221.244C66.5865 222.411 65.0773 223.557 63.6092 224.859C64.9454 231.14 66.8822 237.51 69.3993 243.891C73.709 254.857 79.6617 265.801 87.1545 276.337Z" fill="#453C36"/>
<path d="M50.6352 298.381C61.6253 313.712 80.4072 320.508 99.449 318.028C96.1473 315.835 92.861 313.389 89.59 310.691C82.0673 304.392 74.7907 296.536 68.2685 287.484C60.8168 277.103 55.2133 266.232 51.6276 255.821C50.2302 251.796 49.1051 247.865 48.329 244.006C39.194 261.773 39.2908 282.647 50.6352 298.381Z" fill="#453C36"/>
<path d="M121.633 243.804C122.158 247.646 120.742 251.007 118.426 251.29C116.111 251.572 113.805 248.783 113.28 244.942C112.756 241.1 114.172 237.738 116.488 237.456C118.783 237.096 121.109 239.962 121.633 243.804Z" fill="#744E32"/>
<path d="M147.359 238.557C147.884 242.398 146.467 245.76 144.173 246.12C141.857 246.402 139.551 243.613 139.027 239.771C138.502 235.93 139.919 232.568 142.234 232.286C144.508 231.848 146.835 234.715 147.359 238.557Z" fill="#744E32"/>
<path d="M48.0247 287.297L39.0534 301.951C38.4992 303.591 39.7831 305.324 41.503 305.282L58.2341 300.928L48.0247 287.297Z" fill="#453C36"/>
<path d="M127.208 212.303C127.208 212.303 127.859 206.988 130.168 201.399C131.322 198.605 132.939 195.688 135.105 193.289C137.271 190.89 140.084 189.066 143.611 188.379C143.688 188.359 143.765 188.338 143.842 188.318C144.227 188.216 144.638 188.521 144.664 188.929C144.767 189.317 144.464 189.729 144.058 189.753C143.981 189.774 143.981 189.774 143.904 189.794C140.762 190.379 138.237 192.044 136.26 194.227C133.258 197.511 131.339 202.084 130.179 205.792C129.609 207.685 129.286 209.263 129.035 210.491C128.948 211.095 128.82 211.544 128.825 211.874C128.789 212.049 128.809 212.127 128.753 212.225L128.774 212.302C128.722 212.73 128.378 212.988 127.952 212.935C127.413 213.078 127.156 212.731 127.208 212.303Z" fill="#2D221C"/>
<path d="M110.112 218.081C110.112 218.081 109.224 215.663 108.607 212.095C107.975 208.779 107.578 204.488 108.189 200.263C108.542 198.178 109.071 196.131 110.123 194.193C111.098 192.276 112.54 190.566 114.393 189.162C114.737 188.905 115.184 189.035 115.42 189.305C115.677 189.651 115.549 190.1 115.282 190.336C113.562 191.622 112.31 193.115 111.448 194.837C110.077 197.44 109.544 200.401 109.437 203.415C109.33 206.429 109.684 209.321 110.168 211.764C110.466 213.509 110.836 214.904 111.103 215.911C111.247 216.454 111.349 216.841 111.488 217.053C111.529 217.208 111.55 217.285 111.57 217.363L111.591 217.44C111.694 217.828 111.565 218.277 111.18 218.379C110.585 218.62 110.215 218.469 110.112 218.081Z" fill="#2D221C"/>
<path d="M141.445 189.534C141.846 191.667 143.859 193.041 145.902 192.665C148.022 192.268 149.382 190.249 149.002 188.193C148.601 186.06 146.588 184.687 144.545 185.063C142.425 185.459 141.065 187.479 141.445 189.534Z" fill="#2D221C"/>
<path d="M112.052 190.281C112.453 192.414 114.466 193.787 116.509 193.411C118.63 193.015 119.99 190.995 119.61 188.94C119.209 186.807 117.196 185.433 115.152 185.809C113.032 186.206 111.672 188.225 112.052 190.281Z" fill="#2D221C"/>
<path d="M126.21 254.533C126.529 256.356 127.597 257.897 129.004 258.851C130.411 259.805 132.177 260.249 133.989 259.934C135.802 259.619 137.331 258.55 138.276 257.138C139.22 255.726 139.656 253.952 139.337 252.129C139.25 251.489 139.645 250.803 140.282 250.717C140.918 250.632 141.601 251.031 141.689 251.671C142.675 256.635 139.406 261.4 134.472 262.377C129.539 263.353 124.789 260.052 123.802 255.089C123.715 254.448 124.11 253.763 124.747 253.677C125.419 253.416 126.046 253.913 126.21 254.533Z" fill="#744E32"/>
<path d="M43.7989 210.458C36.4076 194.09 35.7528 180.745 44.716 176.625C53.6998 172.584 68.8725 179.756 76.2844 196.202C83.6758 212.57 74.5262 234.321 71.4204 235.974C68.7356 237.35 51.1902 226.826 43.7989 210.458Z" fill="#F7F4EF" fill-opacity="0.8"/>
<path d="M34.8165 246.513C21.6163 244.291 13.067 239.095 14.2668 231.81C15.4667 224.525 26.2469 217.933 39.4471 220.155C52.6473 222.376 62.3538 237.218 62.0668 239.865C61.8311 242.084 48.0167 248.734 34.8165 246.513Z" fill="#D5CCC4" fill-opacity="0.8"/>
<path d="M134.353 279.328C133.993 278.594 133.079 278.255 132.35 278.615C132.273 278.635 130.605 279.492 128.674 279.673C127.709 279.763 126.626 279.718 125.733 279.458C124.819 279.12 123.941 278.606 123.191 277.644C122.677 276.951 121.748 276.865 121.06 277.38C120.372 277.894 120.29 278.828 120.804 279.521C121.949 281.042 123.433 281.975 124.948 282.403C126.036 282.778 127.196 282.801 128.182 282.789C129.728 282.711 131.114 282.343 132.094 282C133.075 281.657 133.727 281.318 133.804 281.298C134.456 280.959 134.789 280.041 134.353 279.328Z" fill="#2D221C"/>
<path d="M160.614 275.632C159.367 274.782 158.066 273.713 157.394 272.375C155.724 274.053 154.054 275.731 152.629 277.464C147.123 283.774 141.345 289.919 135.703 296.146C130.308 301.967 125.402 307.899 120.576 314.158C118.548 316.732 116.492 319.196 114.248 321.361C116.003 323.82 118.55 325.74 121.185 326.599C126.048 328.069 128.835 321.499 131.574 318.521C137.325 312.267 142.56 305.793 147.878 299.183C152.674 293.277 158.176 287.893 162.837 281.905C163.326 282.016 163.815 282.128 164.251 282.022C165.368 281.865 166.572 280.647 165.926 279.419C165.094 277.427 162.403 276.813 160.614 275.632Z" fill="#FFC72C"/>
<path d="M165.945 266.709C166.431 267.283 167.027 267.831 167.705 268.243C169.17 269.041 171.781 269.328 172.446 267.318C172.778 266.313 172.456 265.467 171.616 264.864C172.026 264.648 172.326 264.459 172.573 264.053C172.93 263.619 173.015 263.021 172.908 262.585C170.614 264.069 168.293 265.443 165.945 266.709Z" fill="#FFC72C"/>
<path d="M173.733 261.229C174.209 263.654 172.972 265.688 172.387 268.025C171.717 270.961 171.292 273.952 170.242 276.749C169.771 278.135 169.495 278.895 168.346 279.868C167.006 281.004 165.719 282.357 164.541 283.684C162.05 286.255 159.803 288.882 157.421 291.427C153.586 295.596 149.861 299.738 146.163 303.99C139.231 312.033 132.89 321.55 124.631 328.415C123.804 330.234 122.435 331.723 120.311 332.01C119.875 332.116 119.412 332.114 118.923 332.002C118.234 333.44 115.751 334.624 114.469 335.052C112.233 335.828 109.51 336.03 107.503 334.903C106.038 334.105 105.038 332.848 104.666 331.321C103.974 328.487 105.274 324.82 106.894 322.462C107.085 322.3 107.141 322.055 107.332 321.893C107.415 321.757 107.715 321.569 107.689 321.46C107.771 321.324 107.691 320.997 107.665 320.888C107.721 320.643 107.803 320.508 107.75 320.29C107.779 319.936 107.917 319.556 108.056 319.176C108.332 318.415 108.827 317.601 109.374 317.006C109.648 316.708 109.895 316.301 110.169 316.003C110.443 315.706 111.044 315.328 111.1 315.083C112.35 310.736 116.069 307.519 119.082 304.243C123.272 299.64 127.3 294.846 131.6 290.217C135.873 285.479 140.39 280.796 144.825 276.25C148.712 272.298 152.278 267.502 157.327 265C159.074 264.112 160.845 263.795 162.645 263.125C165.945 261.974 169.056 260.522 172.435 259.698C173.307 259.485 173.711 260.195 173.871 260.849C173.679 261.011 173.706 261.12 173.733 261.229ZM171.824 261.926C169.67 262.567 167.625 263.181 165.471 263.822C165.982 264.968 167.038 265.981 168.013 266.667C168.827 267.161 169.67 267.302 170.539 267.552C171.013 265.704 171.486 263.856 171.824 261.926ZM157.346 266.497C156.08 268.884 159.324 272.713 160.866 274.301C162.978 276.327 165.743 278.193 168.71 278.047C169 274.973 169.561 272.064 170.231 269.129C169.034 268.959 167.732 268.352 167 267.722C165.998 266.927 164.618 265.531 164.626 264.143C162.036 264.891 159.936 265.749 157.346 266.497ZM117.075 331.529C115.527 330.867 114.2 329.689 112.927 328.729C111.084 327.33 108.781 325.466 107.978 323.121C106.436 326.269 105.429 331.135 108.984 332.925C112.132 334.467 114.724 333.257 117.075 331.529ZM122.56 328.92C120.22 328.798 116.998 326.003 115.889 324.772C114.482 323.268 113.131 321.518 112.217 319.662C111.759 318.734 111.52 317.753 111.281 316.772C110.427 318.482 109.848 319.893 110.164 321.664C110.507 323.544 112.589 325.924 114.051 327.184C116.056 328.774 117.41 330.061 119.888 329.803C121.167 329.838 121.794 329.569 122.56 328.92ZM166.604 279.831C161.603 278.741 154.623 271.434 155.599 267.385C148.125 275.098 140.949 283.086 133.934 291.265C126.894 299.335 120.313 307.87 112.621 315.636C113.647 317.003 114.182 318.721 115.099 320.114C116.152 321.59 117.532 322.986 118.968 324.137C119.375 324.384 123.522 327.184 123.796 326.886C126.375 323.254 129.058 320.521 131.688 317.569C135.878 312.967 139.609 307.899 143.799 303.296C148.072 298.558 152.589 293.876 157.024 289.329C159.819 286.106 163.079 282.423 166.604 279.831Z" fill="#877F79"/>
<defs>
<clipPath id="clip0">
<rect width="120" height="120" fill="white" transform="translate(212 147.376)"/>
</clipPath>
</defs>
</svg>
