<svg width="108" height="121" viewBox="0 0 108 121" fill="none" xmlns="http://www.w3.org/2000/svg">
<g clip-path="url(#clip0)">
<path d="M49.1918 35.5684L82.6046 48.9501L89.5095 84.6747L59.8536 105.757L26.4408 92.3751L19.5358 56.6505L49.1918 35.5684Z" stroke="#FFE99A" stroke-width="2"/>
</g>
<g clip-path="url(#clip1)">
<path d="M29.554 45.5565C32.044 52.1588 38.1605 56.4113 45.2831 57.3536C48.1847 57.731 51.1303 57.5652 53.9726 56.8645C56.7636 56.187 59.4194 55.0319 61.8253 53.4493C70.0638 48.0114 73.9931 38.237 70.7642 29.654C67.6391 21.4161 58.8754 16.8185 49.5655 17.7849C47.3981 18.0114 45.2697 18.526 43.2353 19.3154C42.5646 19.5795 41.9048 19.8686 41.2558 20.1827C38.4957 21.5209 36.0138 23.3798 33.9433 25.6596C28.9278 31.2055 26.9869 38.7532 29.554 45.5565Z" fill="#FFC702"/>
<path d="M44.8171 41.0793C46.6582 46.0232 49.195 50.6727 52.3493 54.884C52.8716 55.5743 53.4058 56.2395 53.9519 56.8797C56.7428 56.2023 59.3986 55.0472 61.8045 53.4646C60.34 51.9631 59.0028 50.3398 57.807 48.6119C55.5698 45.3745 53.7395 41.8684 52.3582 38.1742C50.7554 33.9859 49.7559 29.5865 49.3904 25.1107C49.1904 22.6695 49.2491 20.2137 49.5655 17.7852C47.3981 18.0117 45.2697 18.5263 43.2353 19.3157C42.5646 19.5798 41.9048 19.8689 41.2558 20.183C41.1458 22.6721 41.2351 25.1661 41.5229 27.6406C42.0641 32.2412 43.1707 36.7557 44.8171 41.0793Z" fill="#453C36"/>
<path d="M29.554 45.5566C32.044 52.1589 38.1605 56.4113 45.2831 57.3537C44.267 56.2117 43.3195 55.0091 42.4459 53.7524C40.2029 50.513 38.3676 47.0038 36.9823 43.3058C35.3779 39.1179 34.3784 34.7183 34.0145 30.2423C33.8978 28.7176 33.875 27.1872 33.9463 25.6597C28.9278 31.2056 26.9869 38.7532 29.554 45.5566Z" fill="#453C36"/>
<path d="M60.3385 32.6044C60.1663 34.0449 59.3235 35.1253 58.4599 35.0053C57.5963 34.8852 57.0354 33.6458 57.2105 32.2053C57.3855 30.7648 58.2225 29.6814 59.089 29.8044C59.9556 29.9275 60.5106 31.1759 60.3385 32.6044Z" fill="#744E32"/>
<path d="M70.1083 33.1923C69.9361 34.6328 69.0933 35.7132 68.2297 35.5932C67.3661 35.4731 66.8051 34.2337 66.9802 32.7932C67.1553 31.3527 67.9923 30.2693 68.8559 30.3923C69.7195 30.5154 70.2804 31.7518 70.1083 33.1923Z" fill="#744E32"/>
<path d="M29.6817 41.2891L25.0668 45.7156C24.9843 45.8441 24.9334 45.9907 24.9185 46.1432C24.9036 46.2957 24.9251 46.4495 24.9813 46.5918C25.0374 46.7341 25.1265 46.8608 25.241 46.961C25.3556 47.0613 25.4923 47.1323 25.6396 47.1681L32.0915 47.2101L29.6817 41.2891Z" fill="#453C36"/>
<path d="M65.3512 21.7523C65.899 20.4493 66.6037 19.2196 67.4494 18.0911C68.1536 17.1301 69.0159 16.2988 69.9987 15.6332C71.0354 14.9297 72.2724 14.5911 73.5184 14.6699H73.5926C73.665 14.6767 73.7318 14.7122 73.7783 14.7688C73.8248 14.8254 73.8471 14.8983 73.8404 14.9715C73.8337 15.0447 73.7986 15.1123 73.7426 15.1592C73.6867 15.2062 73.6146 15.2288 73.5422 15.2221H73.4769C72.3493 15.1507 71.2299 15.4577 70.2925 16.0954C68.8858 16.9957 67.7669 18.4662 67.0102 19.6966C66.6332 20.3178 66.3424 20.8971 66.1495 21.2872C66.0516 21.4913 65.9803 21.6563 65.9299 21.7674L65.8765 21.8964V21.9294C65.8632 21.9631 65.8435 21.9938 65.8185 22.0198C65.7935 22.0458 65.7637 22.0666 65.7308 22.081C65.6979 22.0953 65.6625 22.103 65.6266 22.1035C65.5908 22.104 65.5551 22.0974 65.5218 22.084C65.4885 22.0706 65.4581 22.0507 65.4324 22.0254C65.4067 22.0001 65.3861 21.97 65.372 21.9367C65.3578 21.9034 65.3502 21.8676 65.3497 21.8313C65.3492 21.795 65.3557 21.759 65.369 21.7253L65.3512 21.7523Z" fill="#2D221C"/>
<path d="M58.6349 22.1908C58.5872 21.4211 58.5942 20.6488 58.6557 19.88C58.7456 18.3992 59.0754 16.9433 59.6321 15.5705C59.9419 14.8348 60.369 14.1556 60.8964 13.5598C61.4558 12.9412 62.1483 12.4607 62.9204 12.1553C62.9871 12.1346 63.0591 12.1403 63.1218 12.1711C63.1846 12.2019 63.2335 12.2556 63.2587 12.3214C63.2839 12.3872 63.2835 12.4602 63.2576 12.5257C63.2318 12.5912 63.1823 12.6444 63.1192 12.6745C62.4255 12.9469 61.8037 13.3783 61.303 13.935C60.5809 14.777 60.0519 15.77 59.7538 16.843C59.4619 17.8464 59.2778 18.8787 59.2048 19.922C59.1573 20.5703 59.1513 21.1225 59.1573 21.5246C59.1573 21.7227 59.1573 21.8787 59.1573 21.9838C59.1573 22.0378 59.1573 22.0798 59.1573 22.1068V22.1458C59.1632 22.219 59.1401 22.2916 59.093 22.3476C59.046 22.4036 58.9789 22.4385 58.9065 22.4444C58.8341 22.4504 58.7623 22.427 58.7069 22.3795C58.6515 22.3319 58.6171 22.2641 58.6112 22.1908H58.6349Z" fill="#2D221C"/>
<path d="M72.6516 14.8859C72.6303 15.1707 72.6929 15.4554 72.8314 15.7043C72.9699 15.9531 73.1782 16.155 73.4299 16.2844C73.6817 16.4138 73.9657 16.4649 74.2461 16.4313C74.5265 16.3978 74.7909 16.281 75.0058 16.0958C75.2208 15.9106 75.3767 15.6652 75.4539 15.3905C75.5312 15.1158 75.5263 14.8241 75.4399 14.5523C75.3534 14.2804 75.1894 14.0405 74.9684 13.8627C74.7473 13.685 74.4792 13.5774 74.1978 13.5534C74.0095 13.5366 73.8197 13.5579 73.6395 13.616C73.4594 13.6741 73.2925 13.7679 73.1486 13.892C73.0046 14.016 72.8866 14.1678 72.8013 14.3384C72.7159 14.509 72.6651 14.6952 72.6516 14.8859Z" fill="#2D221C"/>
<path d="M61.9945 12.3353C61.973 12.6206 62.0356 12.906 62.1745 13.1553C62.3134 13.4045 62.5222 13.6066 62.7747 13.7358C63.0271 13.865 63.3118 13.9157 63.5927 13.8813C63.8736 13.8469 64.1381 13.729 64.3527 13.5426C64.5674 13.3562 64.7225 13.1096 64.7986 12.834C64.8746 12.5584 64.8681 12.2662 64.7799 11.9944C64.6917 11.7225 64.5258 11.4832 64.3031 11.3067C64.0804 11.1302 63.8109 11.0245 63.5288 11.0029C63.3414 10.9881 63.1531 11.0109 62.9745 11.07C62.7959 11.129 62.6306 11.2232 62.488 11.3469C62.3455 11.4707 62.2285 11.6218 62.1438 11.7914C62.0591 11.961 62.0083 12.1459 61.9945 12.3353Z" fill="#2D221C"/>
<path d="M60.9498 36.9375C60.9159 37.2723 60.9488 37.6106 61.0467 37.9323C61.1445 38.2539 61.3053 38.5524 61.5195 38.81C61.7336 39.0676 61.9968 39.2791 62.2933 39.4319C62.5899 39.5846 62.9137 39.6756 63.2457 39.6993C63.5777 39.723 63.911 39.6791 64.2258 39.57C64.5407 39.461 64.8306 39.2891 65.0785 39.0645C65.3264 38.8399 65.5271 38.5672 65.6687 38.2627C65.8103 37.9582 65.89 37.628 65.903 37.2917C65.9158 37.1728 65.9737 37.0635 66.0646 36.9869C66.1554 36.9103 66.272 36.8723 66.39 36.8808C66.508 36.8894 66.6181 36.9438 66.6972 37.0328C66.7762 37.1217 66.8182 37.2382 66.8141 37.3577C66.7353 38.2536 66.3121 39.0825 65.6352 39.6661C64.9584 40.2497 64.0822 40.5415 63.1949 40.4786C62.3076 40.4156 61.4801 40.0031 60.8905 39.3297C60.3008 38.6563 59.996 37.7758 60.0417 36.8775C60.0504 36.7558 60.1065 36.6424 60.1978 36.5625C60.289 36.4826 60.408 36.4426 60.5284 36.4514C60.6488 36.4601 60.7609 36.5169 60.8399 36.6092C60.9189 36.7015 60.9585 36.8218 60.9498 36.9436V36.9375Z" fill="#744E32"/>
<path d="M35.4925 13.0644C34.4033 6.42913 35.442 1.53143 39.0538 0.925221C42.6655 0.319011 47.4673 4.39143 48.5506 11.0267C49.6338 17.662 44.274 24.6575 43.0038 24.9546C41.9058 25.2127 36.5846 19.7027 35.4925 13.0644Z" fill="#EEEBE6" fill-opacity="0.8"/>
<path d="M28.8239 25.2576C24.2833 23.1898 21.6954 20.5009 22.8202 17.971C23.945 15.4412 28.4589 14.1087 32.9907 16.1704C37.5224 18.2321 39.6117 24.5373 39.2674 25.4736C38.9707 26.2599 33.3646 27.3253 28.8239 25.2576Z" fill="#D3CAC2" fill-opacity="0.8"/>
</g>
<defs>
<clipPath id="clip0">
<rect width="75.832" height="85.4143" fill="white" transform="translate(0 88.4233) rotate(-68.1741)"/>
</clipPath>
<clipPath id="clip1">
<rect width="57.2875" height="61.7631" fill="white" transform="translate(20 0.696777)"/>
</clipPath>
</defs>
</svg>
